<?xml version="1.0" encoding="utf-8"?>
<!-- Generator: Adobe Illustrator 19.0.0, SVG Export Plug-In . SVG Version: 6.00 Build 0)  -->
<svg version="1.1" id="Слой_1" xmlns="http://www.w3.org/2000/svg" xmlns:xlink="http://www.w3.org/1999/xlink" x="0px" y="0px"
	 viewBox="0 -0.2 128.2 128.2" style="enable-background:new 0 -0.2 128.2 128.2;" xml:space="preserve">
<style type="text/css">
	.st0{fill:#FFFFFF;stroke:#626262;stroke-width:0.5669;stroke-miterlimit:22.9256;}
	.st1{fill:none;stroke:#010005;stroke-width:1.4998;stroke-linecap:round;stroke-linejoin:round;stroke-miterlimit:22.9256;}
	.st2{fill:none;stroke:#626262;stroke-width:0.7498;stroke-linecap:round;stroke-linejoin:round;stroke-miterlimit:22.9256;}
	.st3{fill:none;stroke:#010005;stroke-width:1.7529;stroke-linecap:round;stroke-miterlimit:22.9256;}
	.st4{fill:none;stroke:#626262;stroke-width:0.9655;stroke-linecap:round;stroke-linejoin:round;stroke-miterlimit:22.9256;}
	.st5{fill:#FFFFFF;stroke:#626262;stroke-width:1.0658;stroke-linecap:round;stroke-linejoin:round;stroke-miterlimit:22.9256;}
	.st6{fill:#FFFFFF;stroke:#000000;stroke-width:1.5001;stroke-miterlimit:22.9256;}
</style>
<polygon class="st0" points="55.9,22 54.4,20.7 50.9,20 45.3,19.6 39.8,19.9 36.1,20.7 34.9,22 34.9,44.6 39.4,46.5 45.2,47 
	51,46.5 55.9,44.6 "/>
<path class="st1" d="M59.1,44.4v42.2c0,4.6-6.2,8.4-13.8,8.4s-13.8-3.7-13.8-8.4V44.4"/>
<path class="st2" d="M38,54.5v25.4 M42.1,57.8v11"/>
<path class="st3" d="M32.7,42.1c-0.9,0.7-1.3,1.5-1.3,2.3c0.1,1.3,1.4,2.5,4,3.5c2.7,1,6.2,1.5,9.8,1.5c3.5,0,7.1-0.5,9.8-1.5
	c2.6-1,4-2.2,4-3.5c0.1-0.8-0.4-1.6-1.3-2.3"/>
<path class="st4" d="M34.7,43.8c-0.1,1.1,1.8,2.2,5.3,2.8c5.1,0.9,11.6,0.3,14.5-1.1c0.9-0.5,1.4-1,1.4-1.5"/>
<line class="st2" x1="54" y1="23" x2="54" y2="45.6"/>
<line class="st2" x1="51.8" y1="23.5" x2="51.8" y2="46"/>
<line class="st2" x1="48.8" y1="24" x2="48.8" y2="46.8"/>
<line class="st2" x1="44.7" y1="24.4" x2="44.7" y2="47"/>
<line class="st2" x1="39.9" y1="23.8" x2="39.9" y2="46.6"/>
<line class="st2" x1="36.9" y1="23.1" x2="36.9" y2="45.8"/>
<line class="st2" x1="55.9" y1="22" x2="55.9" y2="44"/>
<line class="st2" x1="34.7" y1="21.6" x2="34.7" y2="43.8"/>
<path class="st5" d="M50.6,19.9c-5.1-0.6-11.6-0.2-14.5,0.8s-1.2,2.4,3.9,3s11.6,0.2,14.5-0.8C57.5,21.8,55.7,20.5,50.6,19.9z"/>
<path class="st6" d="M85.9,50l-58,21.1c-3,1.1-4.6,4.5-3.5,7.5l9.2,25.4c1.1,3,4.5,4.6,7.5,3.5l58-21.1c3-1.1,4.6-4.5,3.5-7.5
	l-9.2-25.4C92.3,50.5,88.9,48.9,85.9,50L85.9,50z M38.4,82.2c2.8-1,5.8,0.4,6.8,3.2c1,2.8-0.4,5.8-3.2,6.8s-5.8-0.4-6.8-3.2
	C34.2,86.3,35.7,83.2,38.4,82.2z"/>
<path d="M75.6,79.2c1.1,3,4.5,4.6,7.5,3.5s4.6-4.5,3.5-7.5s-4.5-4.6-7.5-3.5S74.5,76.2,75.6,79.2L75.6,79.2z M78.1,78.3
	c-0.6-1.7,0.3-3.6,2-4.2s3.6,0.3,4.2,2s-0.3,3.6-2,4.2S78.7,80,78.1,78.3L78.1,78.3z M77.7,62.5l-8.4,25.2L67,88.6l8.4-25.2
	L77.7,62.5L77.7,62.5z M58,75.9c1.1,3,4.5,4.6,7.5,3.5c3-1.1,4.6-4.5,3.5-7.5c-1.1-3-4.5-4.6-7.5-3.5C58.5,69.5,56.9,72.9,58,75.9
	L58,75.9z M60.5,75c-0.6-1.7,0.3-3.6,2-4.2c1.7-0.6,3.6,0.3,4.2,2c0.6,1.7-0.3,3.6-2,4.2C63,77.6,61.1,76.7,60.5,75L60.5,75z"/>
</svg>
