<?xml version="1.0" encoding="utf-8"?>
<!-- Generator: Adobe Illustrator 19.0.0, SVG Export Plug-In . SVG Version: 6.00 Build 0)  -->
<svg version="1.1" id="Слой_1" xmlns="http://www.w3.org/2000/svg" xmlns:xlink="http://www.w3.org/1999/xlink" x="0px" y="0px"
	 viewBox="0 0 128.2 128.2" style="enable-background:new 0 0 128.2 128.2;" xml:space="preserve">
<style type="text/css">
	
		.st0{fill-rule:evenodd;clip-rule:evenodd;fill:none;stroke:#010005;stroke-width:1.4998;stroke-linecap:round;stroke-linejoin:round;stroke-miterlimit:22.9256;}
	
		.st1{fill-rule:evenodd;clip-rule:evenodd;fill:none;stroke:#626262;stroke-width:0.7498;stroke-linecap:round;stroke-linejoin:round;stroke-miterlimit:22.9256;}
	
		.st2{fill-rule:evenodd;clip-rule:evenodd;fill:none;stroke:#010005;stroke-width:1.7527;stroke-linecap:round;stroke-miterlimit:22.9256;}
	
		.st3{fill-rule:evenodd;clip-rule:evenodd;fill:none;stroke:#626262;stroke-width:0.9655;stroke-linecap:round;stroke-linejoin:round;stroke-miterlimit:22.9256;}
	
		.st4{fill-rule:evenodd;clip-rule:evenodd;fill:none;stroke:#626262;stroke-width:1.0658;stroke-linecap:round;stroke-linejoin:round;stroke-miterlimit:22.9256;}
</style>
<path class="st0" d="M50.3,51.1v42.2c0,4.6,6.2,8.4,13.8,8.4s13.8-3.7,13.8-8.4V51.1"/>
<path class="st1" d="M71.4,61.2v25.4 M67.3,64.5v11"/>
<path class="st2" d="M76.7,48.8c0.9,0.7,1.3,1.5,1.3,2.3c-0.1,1.3-1.4,2.5-4,3.5c-2.7,1-6.2,1.5-9.8,1.5c-3.5,0-7.1-0.5-9.8-1.5
	c-2.6-1-4-2.2-4-3.5c-0.1-0.8,0.4-1.6,1.3-2.3"/>
<g>
	<path class="st3" d="M74.7,50.6c0.1,1.1-1.8,2.2-5.3,2.8c-5.1,0.9-11.6,0.3-14.5-1.1c-0.9-0.5-1.4-1-1.4-1.5"/>
	<line class="st1" x1="55.4" y1="29.8" x2="55.4" y2="52.4"/>
	<line class="st1" x1="57.6" y1="30.3" x2="57.6" y2="52.7"/>
	<line class="st1" x1="60.6" y1="30.7" x2="60.6" y2="53.6"/>
	<line class="st1" x1="64.7" y1="31.2" x2="64.7" y2="53.7"/>
	<line class="st1" x1="69.5" y1="30.6" x2="69.5" y2="53.3"/>
	<line class="st1" x1="72.5" y1="29.9" x2="72.5" y2="52.5"/>
	<line class="st1" x1="53.5" y1="28.8" x2="53.5" y2="50.7"/>
	<line class="st1" x1="74.7" y1="28.4" x2="74.7" y2="50.6"/>
	<path class="st4" d="M58.8,26.7c5.1-0.6,11.6-0.2,14.5,0.8c2.9,1,1.2,2.4-3.9,3c-5.1,0.6-11.6,0.2-14.5-0.8
		C52,28.6,53.7,27.3,58.8,26.7z"/>
</g>
</svg>
