<?xml version="1.0" encoding="utf-8"?>
<!-- Generator: Adobe Illustrator 19.0.0, SVG Export Plug-In . SVG Version: 6.00 Build 0)  -->
<svg version="1.1" id="Слой_1" xmlns="http://www.w3.org/2000/svg" xmlns:xlink="http://www.w3.org/1999/xlink" x="0px" y="0px"
	 viewBox="0 -0.2 128.2 128.2" style="enable-background:new 0 -0.2 128.2 128.2;" xml:space="preserve">
<style type="text/css">
	.st0{fill:#FFFFFF;stroke:#0F0F0F;stroke-width:0.75;stroke-miterlimit:22.9256;}
	.st1{fill:#2065AF;}
	.st2{fill:none;stroke:#010005;stroke-width:1.4998;stroke-linecap:round;stroke-linejoin:round;stroke-miterlimit:22.9256;}
	.st3{fill:none;stroke:#010005;stroke-width:1.5001;stroke-linecap:round;stroke-linejoin:round;stroke-miterlimit:22.9256;}
</style>
<g>
	<path class="st0" d="M32.6,100.3h63.1c2.7,0,4.9-2.2,4.9-4.9V32.3c0-2.7-2.2-4.9-4.9-4.9H32.6c-2.7,0-4.9,2.2-4.9,4.9v63.1
		C27.7,98.1,29.9,100.3,32.6,100.3z"/>
	<path class="st1" d="M36.2,40.8v46.1h-1.5V40.8H36.2L36.2,40.8z M39.5,40.8v46.1h-0.7V40.8H39.5L39.5,40.8z M43.6,40.8v46.1h-1.8
		V40.8H43.6L43.6,40.8z M47.6,40.8v46.1H45V40.8H47.6L47.6,40.8z M50.1,40.8v46.1h-0.4V40.8H50.1L50.1,40.8z M54,40.8v46.1h-1.1
		V40.8H54L54,40.8z M58.4,40.8v46.1h-2.5V40.8H58.4L58.4,40.8z M62.5,40.8v46.1h-3.6V40.8H62.5L62.5,40.8z M65.4,40.9V87h-2.2V40.8
		L65.4,40.9L65.4,40.9L65.4,40.9z M68.3,47.8V87h-0.7V46.1c0.1,0.2,0.3,0.4,0.3,0.6c0.1,0.2,0.1,0.4,0.2,0.6
		C68.1,47.4,68.2,47.6,68.3,47.8L68.3,47.8z M72.2,61.1v25.8h-1.5v-26C71.2,61.2,71.7,61.2,72.2,61.1L72.2,61.1z M75.3,61.1v25.8
		h-0.4v-26C75,61,75.1,61.1,75.3,61.1L75.3,61.1z M79,61.7V87h-0.7V61.7H79L79,61.7z M82.6,61.8V87h-0.7V61.7
		C82.1,61.7,82.5,61.8,82.6,61.8L82.6,61.8z M87.3,63v24h-2.9V62.3c0.1,0,0.3,0.1,0.4,0.1c0.3,0.1,0.6,0.2,0.9,0.2
		c0.4,0.1,0.7,0.2,1.1,0.3C87,62.9,87.2,62.9,87.3,63L87.3,63z M90.6,64.3V87h-2.2V63.4c0.1,0,0.2,0.1,0.3,0.1
		c0.2,0.1,0.3,0.2,0.5,0.2c0.3,0.2,0.6,0.3,0.9,0.4C90.2,64.1,90.5,64.2,90.6,64.3L90.6,64.3z M93.3,65.6L93.3,65.6L93.4,87h-0.7
		V65.2C92.9,65.4,93.1,65.5,93.3,65.6z"/>
	<path class="st2" d="M60.7,34.8c8.3,6.7,22.8,18.2,35.4,34"/>
	<path class="st2" d="M42.3,27.5c13.4,0,28.5,9.7,26.7,34c28-1.2,31.5,10.9,31.5,21.9"/>
	<path class="st3" d="M42.3,27.5h-9.7c-2.7,0-4.9,2.2-4.9,4.9v63.1c0,2.7,2.2,4.9,4.9,4.9h63.1c2.7,0,4.9-2.2,4.9-4.9V83.3"/>
</g>
</svg>
