<?xml version="1.0" encoding="utf-8"?>
<!-- Generator: Adobe Illustrator 23.0.1, SVG Export Plug-In . SVG Version: 6.00 Build 0)  -->
<svg version="1.1" id="Слой_1" xmlns="http://www.w3.org/2000/svg" xmlns:xlink="http://www.w3.org/1999/xlink" x="0px" y="0px"
	 viewBox="0 0 128.2 128.2" style="enable-background:new 0 0 128.2 128.2;" xml:space="preserve">
<style type="text/css">
	
		.st0{fill-rule:evenodd;clip-rule:evenodd;fill:none;stroke:#000003;stroke-width:1.4998;stroke-linecap:round;stroke-linejoin:round;stroke-miterlimit:22.9256;}
	
		.st1{fill-rule:evenodd;clip-rule:evenodd;fill:none;stroke:#616262;stroke-width:0.7498;stroke-linecap:round;stroke-linejoin:round;stroke-miterlimit:22.9256;}
</style>
<path class="st0" d="M42.9,44.7c0.6-12.5,4.4-21.8,9.4-21.8c6,0,11.5,13.2,12.3,29.4c0.6,12-1.6,22.4-5.2,26.9"/>
<path class="st0" d="M70.3,22.1c6.3,0,12.1,12.7,13,28.3c0.8,15-3.2,27.3-9.2,28.2"/>
<line class="st0" x1="52.3" y1="22.9" x2="70.3" y2="22.1"/>
<line class="st0" x1="58.7" y1="81.1" x2="74.1" y2="78.6"/>
<polyline class="st0" points="57.6,84.2 81.9,100.9 94.8,97.1 103.3,94.4 74.1,78.6 "/>
<path class="st0" d="M31.9,47.2c4.5,0,8.7,9.8,9.4,21.9C41.9,81.2,38.9,91,34.4,91c-4.5,0-8.7-9.8-9.4-21.9
	C24.4,57,27.4,47.2,31.9,47.2z"/>
<line class="st0" x1="31.9" y1="47.2" x2="50" y2="46.6"/>
<line class="st0" x1="34.4" y1="91" x2="53.2" y2="88.7"/>
<polyline class="st0" points="32.6,90.4 53.3,106.1 73,100.6 54.7,88 "/>
<path class="st1" d="M31.7,54.5c2.6,0,5,6.5,5.4,14.6c0.4,8-1.4,14.6-3.9,14.6c-2.6,0-5-6.5-5.4-14.6C27.3,61.1,29.1,54.5,31.7,54.5
	z"/>
<path class="st1" d="M45.8,45.2c0.4-8.7,3.1-15.2,6.6-15.2c4.2,0,8,9.2,8.6,20.5c0.3,5.1-0.2,9.8-1.2,13.4"/>
<path class="st0" d="M50,46.6c4.7,0,9.1,9.4,9.8,21c0.7,11.2-2.2,20.3-6.6,21"/>
</svg>
