<?xml version="1.0" encoding="utf-8"?>
<!-- Generator: Adobe Illustrator 23.0.1, SVG Export Plug-In . SVG Version: 6.00 Build 0)  -->
<svg version="1.1" id="Слой_1" xmlns="http://www.w3.org/2000/svg" xmlns:xlink="http://www.w3.org/1999/xlink" x="0px" y="0px"
	 viewBox="0 0 128.2 128.2" style="enable-background:new 0 0 128.2 128.2;" xml:space="preserve">
<style type="text/css">
	
		.st0{fill-rule:evenodd;clip-rule:evenodd;fill:none;stroke:#616262;stroke-width:0.7498;stroke-linecap:round;stroke-linejoin:round;stroke-miterlimit:22.9256;}
	
		.st1{fill-rule:evenodd;clip-rule:evenodd;fill:none;stroke:#000003;stroke-width:1.4998;stroke-linecap:round;stroke-linejoin:round;stroke-miterlimit:22.9256;}
</style>
<path class="st0" d="M38,54.9V83 M20.1,83V54.9"/>
<path class="st1" d="M95.6,112.6c0,0.6,2.8,1.1,6.2,1.1c3.5,0,6.2-0.5,6.2-1.1"/>
<polyline class="st1" points="95.6,112.6 95.6,62.7 101.9,62.4 108.1,62.7 108.1,112.6 "/>
<polyline class="st1" points="102.2,55.5 100.3,55.5 100.3,47.5 101.9,30.1 102.2,29.7 "/>
<rect x="100" y="60.3" class="st1" width="4.5" height="2.2"/>
<polyline class="st1" points="102.2,55.5 104.2,55.5 104.1,47.5 102.6,30.1 102.2,29.7 "/>
<line class="st0" x1="85.1" y1="47.1" x2="46.6" y2="47.1"/>
<rect x="58.6" y="28.6" class="st1" width="14.6" height="2.2"/>
<path class="st1" d="M56.9,26.3h17.8c0.3,0,0.6,0.3,0.6,0.6v1c0,0.3-0.3,0.6-0.6,0.6H56.9c-0.3,0-0.6-0.3-0.6-0.6v-1
	C56.3,26.6,56.6,26.3,56.9,26.3z"/>
<path class="st1" d="M60.9,14.1c4.1-0.4,5.9-0.4,10,0c1.3,0.1,2.3,1,2.3,2.3v9.9H58.6v-9.9C58.6,15.2,59.6,14.2,60.9,14.1z"/>
<path class="st0" d="M65.9,37.1c-10.3,0.1-11.5,1-16,5.6"/>
<path class="st0" d="M63.8,24.9l-3.5,0 M60.3,16.7l0,8.2 M63.8,16.2l0,8.8 M65.9,16.1l0,8.8 M71.1,16.4l0,8.6 M71.1,24.9l-5.1,0"/>
<line class="st0" x1="85" y1="99.8" x2="46.8" y2="99.8"/>
<path class="st1" d="M37.1,111.9c0,1-3.6,1.8-8.1,1.8c-4.5,0-8.1-0.8-8.1-1.8"/>
<polyline class="st1" points="21,111.9 20.7,110.2 20.1,83 "/>
<path class="st1" d="M24.5,76.9c-2.6,1.2-4.4,3.6-4.4,6.1"/>
<path class="st1" d="M33,63.5v4.1 M25.1,67.6v-4.1"/>
<path class="st1" d="M25.9,63.3c-0.5,0.1-0.8,0.1-0.8,0.2c0,0.2,1.8,0.3,3.9,0.3c2.2,0,3.9-0.1,3.9-0.3c0-0.1-0.3-0.1-0.8-0.2"/>
<path class="st1" d="M32.1,57.6v5.7 M26,63.3v-5.7"/>
<path class="st0" d="M22,83c2.4,1,11.7,1,14.1,0"/>
<path class="st1" d="M32.1,57.6c0-0.1-1.4-0.2-3-0.2c-1.7,0-3,0.1-3,0.2"/>
<path class="st0" d="M33.2,68.2c0,2.3,0,6,0,8.3 M24.9,68.2c0,2.3,0,5.7,0,8 M26.3,68.3c0,2.4,0,5.7,0,8.1 M27.7,68.3
	c0,2.4,0,6,0,8.4 M29,68.4c0,2.4,0,5.9,0,8.3 M30.4,68.3c0,2.4,0,6,0,8.3 M31.8,68.3c0,2.4,0,6.1,0,8.5"/>
<path class="st1" d="M34.5,75.7c0,0.5-2.4,0.9-5.4,0.9c-3,0-5.4-0.4-5.4-0.9"/>
<path class="st1" d="M34.5,68.2v7.5 M23.6,75.7v-7.5"/>
<path class="st1" d="M34.5,67.9c0,0.3-2.4,0.5-5.4,0.5c-3,0-5.4-0.2-5.4-0.5 M34.5,67.9c0-0.1-0.6-0.2-1.5-0.3 M25.1,67.6
	c-0.9,0.1-1.5,0.2-1.5,0.3"/>
<path class="st1" d="M65.9,114.4l-8.2,0c-5.4,0-9.2-0.5-10.6-7.1l-0.4-7.6V47.1l-0.4-0.8c1.2-10.3,2-11.5,12.3-15.5l7.3,0"/>
<path class="st0" d="M65.9,37.1c10.3,0.1,11.5,1,16,5.6"/>
<path class="st1" d="M65.9,114.4l8.2,0c5.4,0,9.2-0.5,10.6-7.1l0.4-7.6V47.1l0.4-0.8c-1.2-10.3-2-11.5-12.3-15.5l-7.3,0"/>
<path class="st0" d="M38,54.9c0-0.3-4-0.5-8.9-0.5s-8.9,0.2-8.9,0.5"/>
<line class="st0" x1="104.7" y1="57.6" x2="99.8" y2="57.5"/>
<polyline class="st1" points="99.8,57.5 99.8,55.5 104.7,55.5 104.7,57.5 "/>
<polyline class="st1" points="102.3,60.3 105.1,60.3 104.7,57.5 "/>
<polyline class="st1" points="102.2,60.3 99.4,60.3 99.8,57.5 "/>
<polyline class="st1" points="37.1,111.9 37.4,110.2 38,83 "/>
<path class="st1" d="M33.6,76.5c2.6,1.2,4.4,3.6,4.4,6.1"/>
</svg>
