<?xml version="1.0" encoding="utf-8"?>
<!-- Generator: Adobe Illustrator 19.0.0, SVG Export Plug-In . SVG Version: 6.00 Build 0)  -->
<svg version="1.1" id="Слой_1" xmlns="http://www.w3.org/2000/svg" xmlns:xlink="http://www.w3.org/1999/xlink" x="0px" y="0px"
	 viewBox="-1.2 -1.5 128.2 128.2" style="enable-background:new -1.2 -1.5 128.2 128.2;" xml:space="preserve">
<style type="text/css">
	.st0{fill-rule:evenodd;clip-rule:evenodd;fill:#FFFFFF;}
	.st1{fill-rule:evenodd;clip-rule:evenodd;fill:#2466AF;}
	
		.st2{fill-rule:evenodd;clip-rule:evenodd;fill:none;stroke:#636363;stroke-width:0.7498;stroke-linecap:round;stroke-linejoin:round;stroke-miterlimit:22.9256;}
	
		.st3{fill-rule:evenodd;clip-rule:evenodd;fill:none;stroke:#050008;stroke-width:1.4998;stroke-linecap:round;stroke-linejoin:round;stroke-miterlimit:22.9256;}
	
		.st4{fill-rule:evenodd;clip-rule:evenodd;fill:none;stroke:#050008;stroke-width:1.6376;stroke-linecap:round;stroke-linejoin:round;stroke-miterlimit:22.9256;}
	
		.st5{fill-rule:evenodd;clip-rule:evenodd;fill:none;stroke:#050008;stroke-width:1.6067;stroke-linecap:round;stroke-linejoin:round;stroke-miterlimit:22.9256;}
	
		.st6{fill-rule:evenodd;clip-rule:evenodd;fill:none;stroke:#050008;stroke-width:1.6251;stroke-linecap:round;stroke-linejoin:round;stroke-miterlimit:22.9256;}
	.st7{fill-rule:evenodd;clip-rule:evenodd;fill:none;stroke:#636363;stroke-width:0.8186;stroke-miterlimit:22.9256;}
	
		.st8{fill-rule:evenodd;clip-rule:evenodd;fill:none;stroke:#636363;stroke-width:0.8186;stroke-linecap:round;stroke-linejoin:round;stroke-miterlimit:22.9256;}
</style>
<g>
	<g>
		<path class="st0" d="M37.2,107.3c-1.7-0.1-7.7-0.1-8.5-0.1c-1,0-6.8,1.2-9.4,2.6h20.4C39.2,109.2,38.2,108.1,37.2,107.3z"/>
		<path class="st0" d="M41.4,91.1c0-0.3,0-0.7,0-1.1l-4.2-4.9V72.3l-1.7-3.4v-7.7l4.7-5.3l2.4,3.6c1-1.3,2.5-0.8,3.1-1.7
			c0.4-0.5,1.6-1.1,1.7-1.7c0,0,0,0,0,0c-0.8-5.5-2.2-12.2-3.7-15.4c-0.2-0.3-1.2-0.9-1.6-0.9l-5.6,0h-3.5l-0.8-2.4
			c-0.4,0-0.3-0.7-0.9-0.9c-2.4,0-4.5,0-6.8,0c-0.1,0-2.5,3.3-2.6,3.4c-0.6,4.6-1.2,11.1-1.2,15c0.2,1.8,0.8,2.4,1.2,2.8
			c0.8,0.9,2.2,1.7,3.4,2.6l1.2-2.1l4.6,2.5l0.1,23.5l-1.5,3.5l-1.9-0.6c-0.2,4-2.2,5.1-4.5,6.5c-1.2,0.8-0.8,5.3,1.7,6.3
			c2.4,0.9,12.5,0.7,15.4,0.3c1.6-0.4,2.8-1.8,2.7-3.2C43.3,95.6,41.5,93.5,41.4,91.1L41.4,91.1z M30.9,53.3l-2.8-4.9l1.3-3.9l1.3-1
			h7.8l1.3,1l1.3,3.9l-2.9,4.9H30.9L30.9,53.3z M32.8,39.9l-0.8-2.4h5.1l-0.8,2.4H32.8L32.8,39.9z M42,39.9l-5.6,0l0.8-2.4
			c0.2-0.1,0.3-0.9,0.9-0.9h6.8c0.6,0.9,2.3,2.4,2.6,3.4c0.5,2,1.6,9.4,1.7,12.8c-0.3,0.2-0.5,0.5-0.7,0.7c-0.6,0.3-1.1,0.9-1.1,1.7
			c0,0.2,0,0.4,0.1,0.6c0,0.1-0.1,0.3-0.1,0.4c-0.8-5.5-2.2-12.2-3.7-15.4C43.5,40.5,42.4,39.9,42,39.9z"/>
		<path class="st1" d="M35.5,61.3v7.7l1.7,3.4v12.8l4.2,4.9c0-0.3,0-0.5,0-0.6c0-7,0-18.7,0.1-25.5c0-2.3,0.5-3.5,1-4.3L40.1,56
			L35.5,61.3z"/>
		<path class="st0" d="M27.7,63.2c0,0.7,0.1,5.9,0.1,9.2l-5.1,3.4c0.8,0.9,0.7,0.7,0.8,0.9c2.6,0,4.3,0,4.3,2.6v7.7
			c0,0.1,0,0.3,0,0.4l1.9,0.6l1.5-3.5l-0.1-23.5l-4.6-2.5l-1.2,2.1C26.6,61.3,27.8,62.2,27.7,63.2z"/>
		<g>
			<path class="st0" d="M32.1,37.5l0.8,2.4h3.5l0.8-2.4H32.1L32.1,37.5z M49.2,53.3c1,0,1.9,0.8,1.9,1.9c0,1-0.8,1.9-1.9,1.9
				c-1,0-1.9-0.8-1.9-1.9C47.3,54.1,48.2,53.3,49.2,53.3L49.2,53.3z M29.4,24.9l1.1-0.2l2.3-0.3l0.2,1.1l-1.1,0.2l0.3,2.3l1.1-0.2
				l0.2,1.1l-1.1,0.2l0.3,2.3l1.1-0.2l0.2,1.1l-1.1,0.2l0.3,2.3l1.1-0.2l0.2,1.1L32.2,36L31,36.2L29.4,24.9L29.4,24.9z M39.8,25.1
				l-1.1-0.2l-1.3,1L37,28.2l-0.2,1.1l-0.3,2.3l-0.2,1.1L36.1,35l1,1.3l1.1,0.2L39.8,25.1L39.8,25.1z M14.4,104.7c0.9,0,2.6,0,3.2,0
				c2.6-0.6,5.7-1.7,6.8-1.7c1.7,0,19.6,0,20.4,0c0.1,0,1.4,0,1.4-1L14.4,104.7L14.4,104.7z M25.3,60.3l1.2-2.1l4.6,2.5l0.1,23.5
				l-1.5,3.5l-2.2-0.7L25.3,60.3L25.3,60.3z M42.5,59.6L40.1,56l-4.7,5.3v7.7l1.7,3.4v12.8l4.2,4.9L42.5,59.6L42.5,59.6z M21.8,57.2
				l25.5-1c-0.8-5.5-2.2-12.2-3.7-15.4c-0.2-0.3-1.2-0.9-1.6-0.9c-3.1,0-11.6,0-14.8,0c-0.2,0-1.5,0.9-1.6,1
				C24,44.3,22.4,51.8,21.8,57.2L21.8,57.2z M34.5,89.6l5.2,6L34.5,89.6L34.5,89.6z M30.6,91.6l2.3,2.6L30.6,91.6L30.6,91.6z
				 M36.2,94.8L36.2,94.8l-3.7-4.2L36.2,94.8L36.2,94.8z M41.2,31.4c0.5,0,0.9,0.4,0.9,0.9c0,0.5-0.4,0.9-0.9,0.9
				c-0.5,0-0.9-0.4-0.9-0.9C40.3,31.7,40.7,31.4,41.2,31.4L41.2,31.4z M28.1,31.4c0.5,0,0.9,0.4,0.9,0.9c0,0.5-0.4,0.9-0.9,0.9
				c-0.5,0-0.9-0.4-0.9-0.9C27.2,31.7,27.6,31.4,28.1,31.4z"/>
			<path class="st2" d="M32.1,37.5l0.8,2.4h3.5l0.8-2.4 M49.2,53.3c1,0,1.9,0.8,1.9,1.9c0,1-0.8,1.9-1.9,1.9c-1,0-1.9-0.8-1.9-1.9
				C47.3,54.1,48.2,53.3,49.2,53.3L49.2,53.3z M29.4,24.9l1.1-0.2l2.3-0.3l0.2,1.1l-1.1,0.2l0.3,2.3l1.1-0.2l0.2,1.1l-1.1,0.2
				l0.3,2.3l1.1-0.2l0.2,1.1l-1.1,0.2l0.3,2.3l1.1-0.2l0.2,1.1L32.2,36L31,36.2 M39.8,25.1l-1.1-0.2l-1.3,1L37,28.2l-0.2,1.1
				l-0.3,2.3l-0.2,1.1L36.1,35l1,1.3l1.1,0.2 M14.4,104.7c0.9,0,2.6,0,3.2,0c2.6-0.6,5.7-1.7,6.8-1.7c1.7,0,19.6,0,20.4,0
				c0.1,0,1.4,0,1.4-1 M25.3,60.3l1.2-2.1l4.6,2.5l0.1,23.5l-1.5,3.5l-2.2-0.7 M42.5,59.6L40.1,56l-4.7,5.3v7.7l1.7,3.4v12.8
				l4.2,4.9 M21.8,57.2c0.6-5.4,2.2-12.9,3.7-16.3c0.1-0.2,1.4-1,1.6-1c3.2,0,11.7,0,14.8,0c0.4,0,1.5,0.6,1.6,0.9
				c1.5,3.1,3,9.9,3.7,15.4 M34.5,89.6l5.2,6 M30.6,91.6l2.3,2.6 M36.2,94.8L36.2,94.8l-3.7-4.2 M41.2,31.4c0.5,0,0.9,0.4,0.9,0.9
				c0,0.5-0.4,0.9-0.9,0.9c-0.5,0-0.9-0.4-0.9-0.9C40.3,31.7,40.7,31.4,41.2,31.4L41.2,31.4z M28.1,31.4c0.5,0,0.9,0.4,0.9,0.9
				c0,0.5-0.4,0.9-0.9,0.9c-0.5,0-0.9-0.4-0.9-0.9C27.2,31.7,27.6,31.4,28.1,31.4z"/>
		</g>
		<path class="st3" d="M44.8,36.6c-1.2-4.9-2.1-8.4-2.5-9.4c-0.2-0.5-1.7-2.6-2.6-2.6L38,36.6"/>
		<path class="st3" d="M24.4,36.6c1.2-4.9,2.1-8.4,2.5-9.4c0.2-0.5,1.7-2.6,2.6-2.6l1.7,11.9"/>
		<path class="st3" d="M21.9,40c-0.6,4.6-1.2,11.1-1.2,15c0.2,1.8,0.8,2.4,1.2,2.8c1.7,1.8,6,3.5,5.9,5.4c0,0.7,0.1,5.9,0.1,9.2
			c-5.1,3.4,0,0-5.1,3.4c0.8,0.9,0.7,0.7,0.8,0.9c2.6,0,4.3,0,4.3,2.6c0,3.9,0,6.8,0,7.7c0,5.1-4.7,6.8-6.8,8.5
			c-2.5,1.7-2.8,4.4-3.4,6.8c-1.7,0.9-3.4,1.2-3.4,2.6c0,1.9,0.2,4.3,0.9,5.1c0.9,0.9,1.7,0.9,3.4,0.8c0.1-0.1,0.7-0.7,0.9-0.8
			c2.6,0,14.5,0,20.4,0c0.3,0.3,0.6,0.6,0.9,0.9c0.8,0,1.7,0,2.5,0c3,0,3.4-2.6,3.4-6.8c0-1.1-0.1-2.9-0.4-3.5c-0.9-1-2.9-0.8-3-1.8
			c-0.1-3.7-1.6-4.7-1.7-7.5c0-0.6,0-1.4,0-1.7c0-7,0-18.7,0.1-25.5c0.1-6.5,3.1-4.6,4.1-6c0.4-0.5,1.6-1.1,1.7-1.7
			c0.2-1.4,0.6-2.4,1.7-3.4C49,49.4,47.8,42.1,47.4,40c-0.3-1-1.9-2.6-2.6-3.4c-1.2,0-5.1,0-6.8,0c-0.5,0-0.7,0.7-0.9,0.9
			c-1.7,0-3.4,0-5.1,0c-0.4,0-0.3-0.7-0.9-0.9c-2.4,0-4.5,0-6.8,0C24.3,36.7,21.9,39.9,21.9,40z"/>
		<path class="st3" d="M21.1,56.8c-1.5,2.3,0,2.7,0.1,3.5c0.1,1.2-2.8,8.2-5.3,8.7c-0.5,0.1-1.3,0.2-1.7,0.4
			c-0.3,0.1-0.4,1.1-0.4,1.6c0.8,0.2,4.1,0.6,4.6,0.2l6.8-10.7"/>
		<polygon class="st3" points="29.4,44.5 28.1,48.5 30.9,53.3 38.2,53.3 41.1,48.5 39.8,44.5 38.5,43.6 30.7,43.6 		"/>
		<path class="st3" d="M19.3,109.8c2.6-1.3,8.4-2.6,9.4-2.6c0.8,0,6.8,0,8.5,0.1c1,0.8,2.1,1.9,2.5,2.5"/>
		<path class="st3" d="M22.6,94.2c-0.1,2.8,1,6,3.5,6c4.7,0,9.2,0,13.6,0c1.7,0,3.6-0.5,3.4-2.2"/>
	</g>
	<g>
		<path class="st0" d="M112,45.2c0.2,3.7-2.4,13.3-3.6,17.6c0.3,2.1,0.1,3.9,1.7,5.4c0.2,0.2,0.3,0.5,0.3,0.9l-4.3-0.4
			c-0.4-0.4-1-0.7-1.6-0.7c-0.6,0-1.2,0.3-1.6,0.7l-4.3,0.4c0-0.3,0.1-0.7,0.3-0.9c1.6-1.6,1.4-3.3,1.7-5.4
			c-1.2-4.4-3.8-13.9-3.6-17.6c0.2-3,1.3-9.7,1.8-11.3c0-0.1,0.1-0.2,0.1-0.3c1.4-0.2,3.3-0.3,5.5-0.3c2.1,0,4.1,0.1,5.5,0.3
			c0,0.1,0.1,0.2,0.1,0.3C110.7,35.5,111.8,42.2,112,45.2L112,45.2z M104.6,40.9c1.2,0,2.1-1,2.1-2.1c0-1.2-1-2.1-2.1-2.1
			c-1.2,0-2.1,1-2.1,2.1C102.5,40,103.4,40.9,104.6,40.9z"/>
		<line class="st4" x1="102.8" y1="72.6" x2="102.8" y2="95.2"/>
		<polyline class="st4" points="100.9,70.8 101,72.4 104.6,72.6 		"/>
		<path class="st5" d="M104.6,95.3c-1.1,0-2.2-0.1-2.4-0.1"/>
		<line class="st4" x1="106.4" y1="72.6" x2="106.4" y2="95.2"/>
		<path class="st5" d="M104.6,95.3c1.1,0,2.2-0.1,2.4-0.1"/>
		<polyline class="st4" points="108.3,70.8 108.2,72.4 104.6,72.6 		"/>
		<line class="st4" x1="102.2" y1="95.2" x2="102.2" y2="110.4"/>
		<path class="st6" d="M104.6,110.6c-1.1,0-2.2-0.1-2.4-0.2"/>
		<line class="st4" x1="107" y1="95.2" x2="107" y2="110.4"/>
		<path class="st6" d="M104.6,110.6c1.1,0,2.2-0.1,2.4-0.2"/>
		<circle class="st7" cx="104.6" cy="38.8" r="2.1"/>
		<path class="st8" d="M98.7,69.1l4.3-0.4 M104.6,68c-0.6,0-1.2,0.3-1.6,0.7 M104.6,68c0.6,0,1.2,0.3,1.6,0.7 M110.5,69.1l-4.3-0.4
			 M104.6,33.3c2.3,0,4.3,0.1,5.7,0.3 M104.6,33.3c-2.3,0-4.3,0.1-5.7,0.3"/>
		<path class="st4" d="M104.6,29.3c-3.5,0.6-4.6,2-5.6,4.6c-0.5,1.7-1.6,8.3-1.8,11.3c-0.2,3.7,2.4,13.3,3.6,17.6
			c-0.3,2.1-0.1,3.9-1.7,5.4c-0.4,0.4-0.4,1.1-0.3,1.6c0.2,0.8,5,0.8,5.8,0.9"/>
		<path class="st4" d="M104.6,29.3c3.5,0.6,4.6,2,5.6,4.6c0.5,1.7,1.6,8.3,1.8,11.3c0.2,3.7-2.4,13.3-3.6,17.6
			c0.3,2.1,0.1,3.9,1.7,5.4c0.4,0.4,0.4,1.1,0.3,1.6c-0.2,0.8-5,0.8-5.8,0.9"/>
	</g>
	<g>
		<path class="st0" d="M82.9,83.6l-0.8,0.8v25.5l0.8,0.8h6l0.8-0.8V84.3l-0.8-0.8h-0.8h-4.5H82.9L82.9,83.6z M68.6,35.5l-3,3h-4.5
			h-1.5h-1.5V46h0.8h12h0.8l0.8-0.9V34.8v-8.3v-3.8V19l-1.5-1.5H59.1l-1,1.5v6h3.8l0.8-0.8V22l1.5-1.5h3l1.5,1.5V35.5L68.6,35.5z
			 M61.9,34l0.8,0.8v1.5h3l3-0.8l-3,3h-4.5h-1.5l0-4.5L61.9,34L61.9,34z M68.6,83.6h-7.5l-0.8,0.8v25.5l0.8,0.8h7.5l0.8-0.8l0-25.5
			L68.6,83.6z"/>
		<polygon class="st0" points="72.4,45.2 72.4,34.8 72.4,26.5 72.4,22.8 72.4,19 70.9,17.5 59.1,17.5 58.1,19 58.1,25 61.9,25 
			62.6,24.3 62.6,22 64.1,20.5 67.1,20.5 68.6,22 68.6,35.5 65.6,38.5 61.1,38.5 59.6,38.5 58.1,38.5 58.1,46 58.9,46 70.9,46 
			71.6,46 		"/>
		<path class="st2" d="M72.4,45.2V19l-1.5-1.5H59.1 M72.4,26.5h2.3l0.8,0.8l0,6l-0.8,1.5h-2.3 M70.9,17.5l0.8-0.8h2.1l1.7,2.3v3
			l-0.8,0.8h-2.3 M59.6,38.5l0-4.5l2.3,0l0.8,0.8v1.5h3l3-0.8 M70.9,68.6v-7.5 M60.4,58.1h9 M67.2,50.9V48 M58.9,55.1h12 M67.2,76.1
			v-5.8 M61.1,80.6h7.5 M60.4,77.6h9 M76.9,63.9c0.5,0,0.9,0.4,0.9,0.9c0,0.5-0.4,0.9-0.9,0.9c-0.5,0-0.9-0.4-0.9-0.9
			C76,64.3,76.4,63.9,76.9,63.9L76.9,63.9z M60.4,106.1h9 M82.1,106.1h7.5 M82.1,88.1h7.5 M82.1,92.6h7.5 M82.1,97.1h7.5
			 M82.1,101.6h7.5 M60.4,88.1h9 M60.4,92.6h9 M60.4,97.1h9 M60.4,101.6h9"/>
		<path class="st3" d="M74.6,68.6c0,7.5,9,10.5,9,15c1.5,0,3,0,4.5,0c0-7.5-9-7.5-9-15v-12l-4.5,3C74.6,61.7,74.6,67.5,74.6,68.6
			L74.6,68.6z M58.1,19l3-4.5h15l4.5,4.5v16.5l-9,10.5H58.1v-7.5h3h4.5l3-3V22l-1.5-1.5h-3L62.6,22v2.3L61.9,25h-3.8V19L58.1,19z
			 M58.9,46h12v9l-1.5,3v3l-9,0v-3l-1.5-3V46L58.9,46z M60.4,61.1l14.3,0l0,7.5H60.4l-3-1.5v-4.5L60.4,61.1L60.4,61.1z M60.4,68.6h9
			v9l-0.8,3v3h-7.5v-3l-0.8-3V68.6L60.4,68.6z M60.4,84.3l0.8-0.8h7.5l0.8,0.8l0,25.5l-0.8,0.8h-7.5l-0.8-0.8V84.3L60.4,84.3z
			 M82.1,84.3l0.8-0.8h6l0.8,0.8v25.5l-0.8,0.8h-6l-0.8-0.8V84.3z"/>
	</g>
</g>
</svg>
