<?xml version="1.0" encoding="utf-8"?>
<!-- Generator: Adobe Illustrator 19.0.0, SVG Export Plug-In . SVG Version: 6.00 Build 0)  -->
<svg version="1.1" id="Слой_1" xmlns="http://www.w3.org/2000/svg" xmlns:xlink="http://www.w3.org/1999/xlink" x="0px" y="0px"
	 viewBox="-0.9 -1.4 128.2 128.2" style="enable-background:new -0.9 -1.4 128.2 128.2;" xml:space="preserve">
<style type="text/css">
	.st0{fill-rule:evenodd;clip-rule:evenodd;fill:#538DCA;}
	.st1{fill-rule:evenodd;clip-rule:evenodd;fill:none;stroke:#000003;stroke-width:0.7628;stroke-miterlimit:22.9256;}
	.st2{fill-rule:evenodd;clip-rule:evenodd;fill:none;stroke:#000003;stroke-width:0.7523;stroke-miterlimit:22.9256;}
	
		.st3{fill-rule:evenodd;clip-rule:evenodd;fill:none;stroke:#000003;stroke-width:1.5265;stroke-linecap:round;stroke-linejoin:round;stroke-miterlimit:22.9256;}
	
		.st4{fill-rule:evenodd;clip-rule:evenodd;fill:none;stroke:#000003;stroke-width:1.4995;stroke-linecap:round;stroke-linejoin:round;stroke-miterlimit:22.9256;}
	
		.st5{fill-rule:evenodd;clip-rule:evenodd;fill:none;stroke:#000003;stroke-width:1.4992;stroke-linecap:round;stroke-linejoin:round;stroke-miterlimit:22.9256;}
	
		.st6{fill-rule:evenodd;clip-rule:evenodd;fill:none;stroke:#000003;stroke-width:1.4998;stroke-linecap:round;stroke-linejoin:round;stroke-miterlimit:22.9256;}
	
		.st7{fill-rule:evenodd;clip-rule:evenodd;fill:none;stroke:#000003;stroke-width:1.4967;stroke-linecap:round;stroke-linejoin:round;stroke-miterlimit:22.9256;}
	
		.st8{fill-rule:evenodd;clip-rule:evenodd;fill:none;stroke:#000003;stroke-width:1.5001;stroke-linecap:round;stroke-linejoin:round;stroke-miterlimit:22.9256;}
	
		.st9{fill-rule:evenodd;clip-rule:evenodd;fill:none;stroke:#000003;stroke-width:1.5262;stroke-linecap:round;stroke-linejoin:round;stroke-miterlimit:22.9256;}
	
		.st10{fill-rule:evenodd;clip-rule:evenodd;fill:none;stroke:#000003;stroke-width:1.0755;stroke-linecap:round;stroke-linejoin:round;stroke-miterlimit:22.9256;}
	
		.st11{fill-rule:evenodd;clip-rule:evenodd;fill:none;stroke:#000003;stroke-width:1.0752;stroke-linecap:round;stroke-linejoin:round;stroke-miterlimit:22.9256;}
</style>
<g>
	<polygon class="st0" points="61.8,66.8 87.9,72.9 89.2,86.5 107.3,80.9 107.4,79.7 107.4,78.6 107.5,77.4 107.6,76.3 107.7,75.1 
		107.8,74 107.8,72.8 107.9,71.7 108,70.5 108.2,67.1 78.9,62.4 	"/>
	<line class="st1" x1="89.1" y1="84.9" x2="107.4" y2="79.3"/>
	<g>
		<path class="st2" d="M89,83.6c6.2-1.9,12.3-3.7,18.5-5.6"/>
		<path class="st2" d="M88.9,82.3c6.2-1.9,12.4-3.7,18.6-5.6"/>
		<path class="st2" d="M88.9,81.1c6.3-1.8,12.5-3.7,18.8-5.5"/>
		<path class="st2" d="M88.8,79.8c6.3-1.8,12.6-3.7,18.9-5.5"/>
		<path class="st2" d="M88.7,78.5c6.4-1.8,12.7-3.7,19.1-5.5"/>
		<path class="st2" d="M88.7,77.2c6.4-1.8,12.8-3.6,19.2-5.5"/>
	</g>
	<line class="st1" x1="88.6" y1="76" x2="108" y2="70.5"/>
	<polyline class="st3" points="46.2,66.9 78.6,59.9 113.4,65.6 	"/>
	<line class="st3" x1="82.1" y1="102.9" x2="81.9" y2="74.3"/>
	<line class="st4" x1="78" y1="65.2" x2="78.3" y2="65.3"/>
	<line class="st5" x1="74.7" y1="66.6" x2="74.9" y2="66.7"/>
	<line class="st5" x1="79" y1="68.2" x2="79.2" y2="68.3"/>
	<line class="st4" x1="82.9" y1="65.4" x2="83.1" y2="65.4"/>
	<line class="st5" x1="93.1" y1="70.8" x2="93.4" y2="70.8"/>
	<line class="st4" x1="97.5" y1="68.7" x2="97.8" y2="68.8"/>
	<line class="st4" x1="88.5" y1="66.3" x2="88.8" y2="66.4"/>
	<line class="st5" x1="85.2" y1="70.4" x2="85.4" y2="70.4"/>
	<line class="st4" x1="69.6" y1="67.1" x2="69.9" y2="67.1"/>
	<line class="st4" x1="83.8" y1="67.6" x2="84.1" y2="67.6"/>
	<line class="st5" x1="89.5" y1="73.5" x2="89.8" y2="73.5"/>
	<line class="st4" x1="97.6" y1="71.8" x2="97.9" y2="71.9"/>
	<line class="st5" x1="93.5" y1="67.4" x2="93.8" y2="67.4"/>
	<line class="st4" x1="102.5" y1="69.1" x2="102.8" y2="69.2"/>
	<line class="st5" x1="89.6" y1="68.9" x2="89.9" y2="69"/>
	<path class="st6" d="M65.8,19.2v43.2 M30.9,85.8V19.2 M48.3,18.1c9.6,0,17.5,0.5,17.5,1.1c0,0.6-7.8,1.1-17.5,1.1
		s-17.5-0.5-17.5-1.1C30.9,18.6,38.7,18.1,48.3,18.1z"/>
	<path class="st6" d="M30.9,19.2C41.3,23.7,49,39.6,53.4,55 M30.9,19.2C35.5,22,42.2,31,40.4,45.4c10.3-0.4,14.1,8.9,15.1,19.4
		 M47,90.4c-6.4-0.9-14.2-2.4-16.1-4.7"/>
	<line class="st5" x1="52.9" y1="37.6" x2="52.9" y2="38"/>
	<line class="st4" x1="62.3" y1="28.4" x2="62.3" y2="28.8"/>
	<line class="st4" x1="58.1" y1="32.3" x2="58.1" y2="32.8"/>
	<line class="st5" x1="57.2" y1="26.3" x2="57.2" y2="26.8"/>
	<line class="st4" x1="52.8" y1="30.1" x2="52.8" y2="30.6"/>
	<line class="st4" x1="48.6" y1="34.6" x2="48.6" y2="35"/>
	<line class="st4" x1="61.4" y1="21.9" x2="61.4" y2="22.3"/>
	<line class="st4" x1="33.2" y1="25.7" x2="33.2" y2="26.1"/>
	<line class="st4" x1="51.7" y1="24.5" x2="51.7" y2="25"/>
	<line class="st4" x1="46.3" y1="29.1" x2="46.3" y2="29.5"/>
	<line class="st4" x1="62.9" y1="36.4" x2="62.9" y2="36.9"/>
	<line class="st4" x1="57.8" y1="40.2" x2="57.8" y2="40.7"/>
	<line class="st4" x1="53.6" y1="44.7" x2="53.6" y2="45.1"/>
	<line class="st5" x1="62" y1="43.8" x2="62" y2="44.3"/>
	<line class="st4" x1="58.3" y1="48" x2="58.3" y2="48.5"/>
	<line class="st7" x1="54.9" y1="52.4" x2="54.9" y2="52.8"/>
	<line class="st4" x1="63.6" y1="51.2" x2="63.6" y2="51.6"/>
	<line class="st5" x1="58.6" y1="55.7" x2="58.6" y2="56.2"/>
	<line class="st5" x1="62.8" y1="58.1" x2="62.8" y2="58.6"/>
	<line class="st4" x1="58.4" y1="61.9" x2="58.4" y2="62.4"/>
	<line class="st4" x1="46" y1="23.8" x2="46" y2="24.2"/>
	<line class="st4" x1="40.8" y1="22.3" x2="40.8" y2="22.7"/>
	<line class="st4" x1="35.7" y1="31.8" x2="35.7" y2="32.2"/>
	<line class="st4" x1="32.9" y1="37.6" x2="32.9" y2="38.1"/>
	<line class="st4" x1="38.3" y1="39.1" x2="38.3" y2="39.6"/>
	<line class="st4" x1="33.9" y1="44.9" x2="33.9" y2="45.4"/>
	<line class="st5" x1="40.5" y1="48.4" x2="40.5" y2="48.8"/>
	<line class="st4" x1="33.6" y1="53.3" x2="33.6" y2="53.7"/>
	<line class="st4" x1="47" y1="52.6" x2="47" y2="53.1"/>
	<line class="st4" x1="39.3" y1="56.9" x2="39.3" y2="57.3"/>
	<line class="st4" x1="34.1" y1="63" x2="34.1" y2="63.4"/>
	<line class="st5" x1="50.4" y1="60.7" x2="50.4" y2="61.2"/>
	<line class="st5" x1="43.1" y1="63.4" x2="43.1" y2="63.8"/>
	<line class="st5" x1="36.6" y1="71" x2="36.6" y2="71.4"/>
	<line class="st4" x1="42.4" y1="73.6" x2="42.4" y2="74"/>
	<line class="st4" x1="33.2" y1="77" x2="33.2" y2="77.4"/>
	<line class="st4" x1="44.1" y1="82.4" x2="44.1" y2="82.8"/>
	<line class="st4" x1="37.3" y1="83" x2="37.3" y2="83.4"/>
	<path class="st6" d="M61.9,100.1c-1.8,0.8-3.7,1.5-5.7,2.3c-3.7,1.5-7.6,3.1-11.6,4.8c-5.4-1.5-10.7-3-16-4.4
		c-5.3-1.5-10.5-2.9-15.7-4.4c1.4-1,2.6-1.9,3.6-2.2c2-0.6,4.2-1.1,6.4-1.5"/>
	<path class="st8" d="M67.5,98.9c-2.8,0.6-5.7,1.2-8.5,1.8c-5,1-9.4,1.6-14.6,2.7c-0.8,0.2-2.4,0.8-3.2,1c-4-2.1-7.9-4.2-11.6-6.1
		c-3.6-1.9-7-3.7-10.3-5.5c0.9-0.4,4.5-1.1,5.7-1.2c4.5-0.8,10.4-1.5,14.7-2.2"/>
	<polyline class="st9" points="87.9,72.9 61.8,66.8 78.9,62.4 108.2,67.1 	"/>
	<polygon class="st3" points="46.2,66.9 47.2,93.2 82.1,102.9 112.6,92.1 113.4,65.6 108.2,67.1 107.3,80.9 89.2,86.5 87.9,72.9 
		81.9,74.3 	"/>
	<line class="st10" x1="37.4" y1="92.4" x2="38" y2="92.7"/>
	<line class="st11" x1="30.5" y1="92.6" x2="31" y2="92.9"/>
	<line class="st11" x1="37.6" y1="97.8" x2="38.1" y2="98.1"/>
	<line class="st11" x1="46.2" y1="96.1" x2="46.7" y2="96.4"/>
	<line class="st10" x1="40.9" y1="95" x2="41.4" y2="95.3"/>
	<line class="st11" x1="43.7" y1="100" x2="44.3" y2="100.3"/>
	<line class="st10" x1="55" y1="97.9" x2="55.5" y2="98.2"/>
	<line class="st10" x1="49.4" y1="100" x2="49.9" y2="100.3"/>
	<line class="st11" x1="31" y1="95.9" x2="31.5" y2="96.2"/>
	<line class="st11" x1="24.4" y1="93" x2="24.9" y2="93.3"/>
	<line class="st11" x1="42.4" y1="91.5" x2="42.9" y2="91.8"/>
	<line class="st11" x1="21" y1="97.4" x2="21.5" y2="97.7"/>
	<line class="st11" x1="27.9" y1="99.7" x2="28.5" y2="100"/>
</g>
</svg>
