<?xml version="1.0" encoding="utf-8"?>
<!-- Generator: Adobe Illustrator 19.0.0, SVG Export Plug-In . SVG Version: 6.00 Build 0)  -->
<svg version="1.1" id="Слой_1" xmlns="http://www.w3.org/2000/svg" xmlns:xlink="http://www.w3.org/1999/xlink" x="0px" y="0px"
	 viewBox="0 -0.2 128.2 128.2" style="enable-background:new 0 -0.2 128.2 128.2;" xml:space="preserve">
<style type="text/css">
	.st0{fill:#538DCA;}
	.st1{fill:#2065AF;}
	.st2{fill:none;stroke:#000003;stroke-width:0.7498;stroke-linecap:round;stroke-linejoin:round;stroke-miterlimit:22.9256;}
	.st3{fill:none;stroke:#000003;stroke-width:1.4998;stroke-linejoin:round;stroke-miterlimit:22.9256;}
	.st4{fill:none;stroke:#000003;stroke-width:1.4998;stroke-linecap:round;stroke-linejoin:round;stroke-miterlimit:22.9256;}
</style>
<path class="st0" d="M95.8,25.6H83.6c-4.1,1.2-7,4.6-7,8.5h13.1h13.1C102.8,30.2,99.9,26.8,95.8,25.6z"/>
<path class="st1" d="M92.3,22.9v-2.6l-1.2-0.4l-1-1.2l0.9-1l1.3-0.5v-0.4c0-0.9-1.1-1-2.7-1s-2.7,0.1-2.7,1v6.1H92.3z"/>
<path class="st2" d="M90.5,18.8c0-0.7,0.6-1.3,1.3-1.3 M91.8,20.1c-0.7,0-1.3-0.6-1.3-1.3 M101.1,36.7H78.3 M97.8,31.3
	c-0.2-1.3-1.5-3-2.7-3.3 M97.6,72.5V49.8 M101.1,108.6c-1.9,1.2-21,1.2-22.8,0"/>
<path class="st3" d="M86.9,22.9c0-2,0-4.9,0-6.1c0-0.9,1.1-1,2.7-1s2.7,0.1,2.7,1v2.1v4 M95.8,25.6l-0.9-2.7H84.4L84,24.1l-0.5,1.5
	H95.8L95.8,25.6z M102.8,34.1c0-4.1-3.2-7.5-7.6-8.6 M76.5,34.1c0-4.1,3.2-7.5,7.6-8.6 M89.7,112.1c6.7,0,12.4-0.5,14.2-1.2
	c0.4-0.2,0.7-0.3,0.7-0.5v-1.8l-0.9-0.9v-71l0.9-0.9V34h-1.8H89.7H76.5h-1.8v1.8l0.9,0.9v71l-0.9,0.9v1.8c0,0.2,0.3,0.4,0.9,0.6
	C77.7,111.6,83.2,112.1,89.7,112.1z"/>
<path class="st2" d="M48.7,42.1c0-0.7,0.6-1.3,1.3-1.3 M56,56.1c-0.3-1.8-2.2-4.4-3.9-4.8 M59.3,61.6H36.5 M55.8,97.4V74.6
	 M59.3,108c-1.9,1.2-21,1.2-22.8,0 M50,43.4c-0.7,0-1.3-0.6-1.3-1.3"/>
<path class="st4" d="M45.2,45.6c0-0.7,0-1.5,0-2.3 M33.1,60.8l0.8,0.8v46.1l-0.9,0.9v1.8c0,0.2,0.3,0.4,0.9,0.6
	c2.1,0.7,7.6,1.2,14,1.2c6.7,0,12.4-0.5,14.2-1.2c0.4-0.2,0.7-0.3,0.7-0.5v-1.8l-0.9-0.9V61.7l0.9-0.9V59H61H47.9H34 M61,58.9
	c0-4.8-3.2-8.8-7.6-10.1 M41.7,48.9H54l-0.9-2.7h-9.8 M48.6,38.4c1.2,0.1,2,0.3,2,1v6.1 M20.7,35.4c3.9-5.5,6.3-8.7,7.6-10.1
	c2.1-0.2,0,0,2.1-0.2l17.7,12.6l0.7-0.6l0.4,0.3l-0.7,1l-0.3,0.4l0,0l-3.1,4.4l0,0l-4.5,6.3L33,60.3l-1,1.4l-0.4-0.3l0.3-0.9
	L14.2,47.9c-0.3-1,0,0-0.5-2.1C14.7,44,16.9,40.6,20.7,35.4z"/>
</svg>
