<?xml version="1.0" encoding="utf-8"?>
<!-- Generator: Adobe Illustrator 23.0.1, SVG Export Plug-In . SVG Version: 6.00 Build 0)  -->
<svg version="1.1" id="Слой_1" xmlns="http://www.w3.org/2000/svg" xmlns:xlink="http://www.w3.org/1999/xlink" x="0px" y="0px"
	 viewBox="0 0 128.2 128.2" style="enable-background:new 0 0 128.2 128.2;" xml:space="preserve">
<style type="text/css">
	
		.st0{fill-rule:evenodd;clip-rule:evenodd;fill:none;stroke:#1A1A18;stroke-width:1.4998;stroke-linecap:round;stroke-linejoin:round;stroke-miterlimit:22.9256;}
	
		.st1{fill-rule:evenodd;clip-rule:evenodd;fill:none;stroke:#616262;stroke-width:0.7498;stroke-linecap:round;stroke-linejoin:round;stroke-miterlimit:22.9256;}
	
		.st2{fill-rule:evenodd;clip-rule:evenodd;fill:none;stroke:#000003;stroke-width:1.4998;stroke-linecap:round;stroke-linejoin:round;stroke-miterlimit:22.9256;}
</style>
<path class="st0" d="M55,112c0,0.8-2.7,1.4-5.9,1.4c-3.3,0-5.9-0.6-5.9-1.4"/>
<path class="st0" d="M85.1,112c0,0.8-2.7,1.4-5.9,1.4c-3.3,0-5.9-0.6-5.9-1.4"/>
<path class="st1" d="M74.7,22.7L74.1,17 M79.2,23c0,0-4.4-0.2-4.5-0.3"/>
<path class="st1" d="M83.6,22.7l0.7-5.7 M79.2,23c0,0,4.4-0.2,4.5-0.3"/>
<path class="st0" d="M86.1,14.9v2 M72.2,16.9v-2"/>
<path class="st0" d="M72.2,14.9c0-0.2,13.9-0.2,13.9,0"/>
<path class="st0" d="M86.1,16.9c0,0.2-13.9,0.2-13.9,0"/>
<g>
	<line class="st1" x1="44.3" y1="70.9" x2="44.1" y2="66.8"/>
	<path class="st1" d="M53.8,70.9c0,0.3-2.1,0.5-4.7,0.5s-4.7-0.2-4.7-0.5"/>
	<line class="st1" x1="53.8" y1="70.9" x2="54.1" y2="66.8"/>
</g>
<path class="st0" d="M56,64.2v2 M42.2,66.2v-2"/>
<path class="st0" d="M49.1,65.1c3.8,0,6.9-0.4,6.9-0.8c0-0.5-3.1-0.8-6.9-0.8c-3.8,0-6.9,0.4-6.9,0.8C42.2,64.7,45.3,65.1,49.1,65.1
	z"/>
<path class="st0" d="M56,66.5c0,0.5-3.1,0.8-6.9,0.8c-3.8,0-6.9-0.4-6.9-0.8"/>
<path class="st1" d="M85.1,27.8c0,0.4-11.9,0.4-11.9,0"/>
<path class="st1" d="M85.1,101.3c0,1.2-11.9,1.2-11.9,0"/>
<path class="st1" d="M55,77.5c0,0.6-11.9,0.6-11.9,0"/>
<path class="st1" d="M55,109.3c0,1.3-11.9,1.3-11.9,0"/>
<path class="st2" d="M85.1,17v95 M73.2,112V17"/>
<path class="st2" d="M55,67V112 M43.1,112V67"/>
</svg>
