<?xml version="1.0" encoding="utf-8"?>
<!-- Generator: Adobe Illustrator 23.0.1, SVG Export Plug-In . SVG Version: 6.00 Build 0)  -->
<svg version="1.1" id="Слой_1" xmlns="http://www.w3.org/2000/svg" xmlns:xlink="http://www.w3.org/1999/xlink" x="0px" y="0px"
	 viewBox="0 0 128.2 128.2" style="enable-background:new 0 0 128.2 128.2;" xml:space="preserve">
<style type="text/css">
	
		.st0{fill-rule:evenodd;clip-rule:evenodd;fill:none;stroke:#616262;stroke-width:0.7498;stroke-linecap:round;stroke-linejoin:round;stroke-miterlimit:22.9256;}
	
		.st1{fill-rule:evenodd;clip-rule:evenodd;fill:none;stroke:#000003;stroke-width:1.4998;stroke-linejoin:round;stroke-miterlimit:22.9256;}
	
		.st2{fill-rule:evenodd;clip-rule:evenodd;fill:none;stroke:#000003;stroke-width:1.4998;stroke-linecap:round;stroke-linejoin:round;stroke-miterlimit:22.9256;}
</style>
<path class="st0" d="M32,53.6H15.8 M29.6,79.2V62.9 M32,104.8c-1.4,0.8-15,0.8-16.2,0"/>
<path class="st1" d="M23.9,107.3c4.8,0,8.8-0.4,10.1-0.9c0.3-0.1,0.5-0.2,0.5-0.4l0-1.2l-0.6-0.6V53.6l0.6-0.6v-1.2h-1.2h-9.4h-9.4
	h-1.2V53l0.6,0.6l0,50.6l-0.6,0.6v1.2c0,0.1,0.2,0.3,0.6,0.4C15.4,107,19.3,107.3,23.9,107.3z"/>
<path class="st2" d="M23.9,34.3c4.8,0,7.7,0.1,9,0.2c1,1.2,0,0,1,1.2l0,15.5l0.6,0.2l0,0.4l-0.8,0l-0.4,0h0l-3.8,0h0l-5.5,0l-9.4,0
	l-1.2,0l0-0.4l0.6-0.2l0-15.4c0.5-0.6,0,0,1-1.2C16.4,34.4,19.3,34.3,23.9,34.3z"/>
<path class="st2" d="M112.5,31.6c0-1.7-67-1.7-67,0"/>
<path class="st2" d="M112.5,106c0,1.7-15,3.1-33.5,3.1c-18.5,0-33.5-1.4-33.5-3.1"/>
<path class="st2" d="M114.9,22v6.2 M43.1,28.1V22"/>
<path class="st2" d="M114.9,22c0-3.8-71.8-3.8-71.8,0"/>
<path class="st2" d="M114.9,28.1c0-2.1-71.8-2.1-71.8,0"/>
<line class="st2" x1="112.5" y1="31.6" x2="114.9" y2="28.1"/>
<line class="st2" x1="45.5" y1="31.6" x2="43.1" y2="28.1"/>
<path class="st0" d="M112.5,44c0-0.8-67-0.8-67,0"/>
<path class="st0" d="M112.5,89.6c0,1.7-67,1.7-67,0"/>
<path class="st2" d="M112.5,31.6V106 M45.5,106V31.6"/>
</svg>
