<?xml version="1.0" encoding="utf-8"?>
<!-- Generator: Adobe Illustrator 23.0.1, SVG Export Plug-In . SVG Version: 6.00 Build 0)  -->
<svg version="1.1" id="Слой_1" xmlns="http://www.w3.org/2000/svg" xmlns:xlink="http://www.w3.org/1999/xlink" x="0px" y="0px"
	 viewBox="0 0 128.2 128.2" style="enable-background:new 0 0 128.2 128.2;" xml:space="preserve">
<style type="text/css">
	
		.st0{fill-rule:evenodd;clip-rule:evenodd;fill:none;stroke:#000003;stroke-width:1.4998;stroke-linecap:round;stroke-linejoin:round;stroke-miterlimit:22.9256;}
	
		.st1{fill-rule:evenodd;clip-rule:evenodd;fill:none;stroke:#616262;stroke-width:0.7498;stroke-linecap:round;stroke-linejoin:round;stroke-miterlimit:22.9256;}
	
		.st2{fill-rule:evenodd;clip-rule:evenodd;fill:none;stroke:#1A1A18;stroke-width:1.4998;stroke-linecap:round;stroke-linejoin:round;stroke-miterlimit:22.9256;}
</style>
<line class="st0" x1="32.4" y1="97.6" x2="32.6" y2="104.7"/>
<line class="st1" x1="27.2" y1="37.3" x2="44.9" y2="37.3"/>
<path class="st1" d="M43.1,94.9c0-0.1-3.3-0.2-7.3-0.2s-7.3,0.1-7.3,0.2"/>
<path class="st0" d="M39.1,104.7c0,0.1-1.5,0.2-3.2,0.2c-1.8,0-3.2-0.1-3.2-0.2"/>
<line class="st0" x1="39.3" y1="97.6" x2="32.4" y2="97.6"/>
<line class="st0" x1="39.3" y1="97.6" x2="39.1" y2="104.7"/>
<line class="st1" x1="37.6" y1="99.2" x2="37.4" y2="103.5"/>
<line class="st1" x1="34.4" y1="103.5" x2="34.2" y2="99.2"/>
<path class="st0" d="M38.4,97.3c0-0.1,4.7-2.3,4.7-2.4c0.2-16.1,0.1-45.8,3.5-57.6c0-0.1,0.3-0.4,0.4-0.5l0.3-2.4l-11.4,0"/>
<path class="st0" d="M33.3,97.3c0-0.1-4.7-2.3-4.7-2.4c-0.2-16.1-0.1-45.8-3.5-57.6c0-0.1-0.3-0.4-0.4-0.5l-0.3-2.4l11.4,0"/>
<path class="st2" d="M103.6,101.5c0,2-10.3,3.6-22.9,3.6s-22.9-1.6-22.9-3.6"/>
<path class="st2" d="M102.8,37.7v61.4l0.8,2.3 M57.7,101.5l0.8-2.2V37.7"/>
<path class="st2" d="M67.8,21c0-0.2,5.7-0.4,12.8-0.4c7.1,0,12.8,0.2,12.8,0.4"/>
<path class="st2" d="M93.6,32c0,0.2-5.8,0.3-13,0.3c-7.2,0-13-0.1-13-0.3"/>
<path class="st2" d="M103.7,37.3c0,1.1-46.2,1.1-46.2,0"/>
<path class="st2" d="M103.7,34.9c0,1.1-46.2,1.1-46.2,0"/>
<path class="st2" d="M103.6,104.1c0,2-10.3,3.6-22.9,3.6s-22.9-1.6-22.9-3.6"/>
<line class="st2" x1="57.5" y1="34.9" x2="67.6" y2="32"/>
<line class="st2" x1="103.7" y1="34.9" x2="93.6" y2="32"/>
<polyline class="st2" points="93.6,32 93.6,21.8 93.4,21 "/>
<line class="st2" x1="57.5" y1="37.3" x2="57.5" y2="34.9"/>
<line class="st2" x1="103.7" y1="37.3" x2="103.7" y2="34.9"/>
<line class="st2" x1="57.7" y1="104.1" x2="57.7" y2="101.5"/>
<line class="st2" x1="103.6" y1="104.1" x2="103.6" y2="101.5"/>
<line class="st1" x1="70" y1="22.9" x2="70" y2="29.2"/>
<g>
	<path class="st1" d="M72.4,22.9c0,2.1,0,4.2,0,6.3"/>
	<path class="st1" d="M74.7,22.9c0,2.1,0,4.2,0,6.3"/>
	<path class="st1" d="M77.1,22.9c0,2.1,0,4.2,0,6.3"/>
	<path class="st1" d="M79.5,22.9c0,2.1,0,4.2,0,6.3"/>
	<path class="st1" d="M81.8,22.9c0,2.1,0,4.2,0,6.3"/>
	<path class="st1" d="M84.2,22.9c0,2.1,0,4.2,0,6.3"/>
	<path class="st1" d="M86.6,22.9c0,2.1,0,4.2,0,6.3"/>
	<path class="st1" d="M88.9,22.9c0,2.1,0,4.2,0,6.3"/>
</g>
<line class="st1" x1="91.3" y1="22.9" x2="91.3" y2="29.2"/>
<polyline class="st2" points="67.6,32 67.6,21.8 67.8,21 "/>
<line class="st1" x1="35.9" y1="103.5" x2="35.9" y2="99.2"/>
</svg>
