<?xml version="1.0" encoding="utf-8"?>
<!-- Generator: Adobe Illustrator 23.0.1, SVG Export Plug-In . SVG Version: 6.00 Build 0)  -->
<svg version="1.1" id="Слой_1" xmlns="http://www.w3.org/2000/svg" xmlns:xlink="http://www.w3.org/1999/xlink" x="0px" y="0px"
	 viewBox="0 0 128.2 128.2" style="enable-background:new 0 0 128.2 128.2;" xml:space="preserve">
<style type="text/css">
	
		.st0{fill-rule:evenodd;clip-rule:evenodd;fill:none;stroke:#616262;stroke-width:0.7498;stroke-linecap:round;stroke-linejoin:round;stroke-miterlimit:22.9256;}
	
		.st1{fill-rule:evenodd;clip-rule:evenodd;fill:none;stroke:#000003;stroke-width:0.7498;stroke-linecap:round;stroke-linejoin:round;stroke-miterlimit:22.9256;}
	
		.st2{fill-rule:evenodd;clip-rule:evenodd;fill:none;stroke:#000003;stroke-width:1.4998;stroke-linecap:round;stroke-linejoin:round;stroke-miterlimit:22.9256;}
</style>
<line class="st0" x1="31.4" y1="46.7" x2="31.4" y2="36.3"/>
<line class="st1" x1="36.1" y1="59.2" x2="36.1" y2="52.6"/>
<path class="st0" d="M33.7,59.2c0-2.2,0-4.4,0-6.6"/>
<path class="st0" d="M31.4,59.2c0-2.2,0-4.4,0-6.6"/>
<path class="st0" d="M29,59.2c0-2.2,0-4.4,0-6.6"/>
<line class="st1" x1="26.7" y1="59.2" x2="26.7" y2="52.6"/>
<path class="st2" d="M31.4,96.7l-4.7-0.1c-0.3,0-0.5,0.3-0.5,0.6c-0.9,7.4-0.7,9.4-3.6,14c0,0.1,0.2,0.2,0.5,0.4
	c1.2,0.4,4.5,0.7,8.3,0.7c4,0,7.3-0.3,8.4-0.7c0.3-0.1,0.4-0.2,0.4-0.3c-2.9-4.6-2.7-6.6-3.6-14c0-0.3-0.2-0.6-0.5-0.6L31.4,96.7
	L31.4,96.7z M26.7,96.5V59.2h4.7h4.7v37.3 M34.9,52h-7.2 M31.4,33.7L29,34l-2.4,17l1.1,1l-1.1,0.9v6.3h4.7h4.7v-6.3L34.9,52l1.1-1
	l-2.4-17L31.4,33.7z"/>
<rect x="71.9" y="23" class="st2" width="18.5" height="2.5"/>
<path class="st2" d="M74,12.3c5.9-0.4,8.5-0.4,14.4,0c1.8,0.1,3.3,0.9,3.3,2v6.2l1.6,1.1V23H69v-1.3l1.6-1.3v-6.2
	C70.6,13.2,72.2,12.4,74,12.3z"/>
<path class="st2" d="M105.4,111.9c0,2.4-10.8,4.3-24.1,4.3c-13.3,0-24.1-1.9-24.1-4.3"/>
<line class="st0" x1="73.7" y1="15" x2="73.7" y2="20.7"/>
<g>
	<path class="st0" d="M77.4,15c0,1.9,0,3.8,0,5.7"/>
	<path class="st0" d="M81.1,15c0,1.9,0,3.8,0,5.7"/>
	<path class="st0" d="M84.8,15c0,1.9,0,3.8,0,5.7"/>
</g>
<line class="st0" x1="88.5" y1="15" x2="88.4" y2="20.7"/>
<path class="st0" d="M105.7,47.8c0,0.6-11,1-24.5,1c-13.5,0-24.5-0.5-24.5-1"/>
<path class="st0" d="M105.7,101.1c0,1.6-11,3-24.5,3s-24.5-1.3-24.5-3"/>
<path class="st2" d="M57.1,111.9l-0.3-2.1l0-6.3V43.9c0-10.1,8.1-15.9,15.2-18.4l9.3,0"/>
<path class="st2" d="M105.4,111.9l0.3-2.1l0-6.3V43.9c0-10.1-8.1-15.9-15.2-18.4l-9.3,0"/>
</svg>
