<?xml version="1.0" encoding="utf-8"?>
<!-- Generator: Adobe Illustrator 23.0.1, SVG Export Plug-In . SVG Version: 6.00 Build 0)  -->
<svg version="1.1" id="Слой_1" xmlns="http://www.w3.org/2000/svg" xmlns:xlink="http://www.w3.org/1999/xlink" x="0px" y="0px"
	 viewBox="0 0 128.2 128.2" style="enable-background:new 0 0 128.2 128.2;" xml:space="preserve">
<style type="text/css">
	.st0{fill-rule:evenodd;clip-rule:evenodd;fill:#2065AF;}
	.st1{fill-rule:evenodd;clip-rule:evenodd;fill:#538DCA;}
	
		.st2{fill-rule:evenodd;clip-rule:evenodd;fill:none;stroke:#000003;stroke-width:0.7498;stroke-linecap:round;stroke-linejoin:round;stroke-miterlimit:22.9256;}
	
		.st3{fill-rule:evenodd;clip-rule:evenodd;fill:none;stroke:#000003;stroke-width:1.4998;stroke-linecap:round;stroke-linejoin:round;stroke-miterlimit:22.9256;}
	.st4{fill-rule:evenodd;clip-rule:evenodd;fill:#000003;}
	.st5{fill-rule:evenodd;clip-rule:evenodd;fill:none;stroke:#000003;stroke-width:0.7498;stroke-miterlimit:22.9256;}
	
		.st6{fill-rule:evenodd;clip-rule:evenodd;fill:none;stroke:#616262;stroke-width:0.7498;stroke-linecap:round;stroke-linejoin:round;stroke-miterlimit:22.9256;}
</style>
<g>
	<path class="st0" d="M36.7,72.8c-1.3,8.9-5,17.3,3.4,34.2c-1.7-5.7-2.7-11.3-2.6-17.3c0.1-7.8,2.6-15.9,4.2-23.6l-9.1-0.5
		C36.5,66.4,37.2,69.3,36.7,72.8L36.7,72.8z M47.5,66c1.6,7.7,4.1,15.8,4.2,23.6c0,6-0.9,11.6-2.6,17.3c8.5-16.9,4.7-25.3,3.4-34.2
		c-0.5-3.4,0.3-6.4,4.1-7.2L47.5,66z"/>
	<path class="st1" d="M44.6,48.8c-1.6,0-2.9,1.3-2.9,2.9c0,1.6,1.3,2.9,2.9,2.9s2.9-1.3,2.9-2.9C47.5,50.1,46.2,48.8,44.6,48.8
		L44.6,48.8z M30.8,89.9c0.2,4.7,1,8.1,1.6,10.4c0.5,2.1,1.1,4.2,1.8,6.3c0.7,1.9,1.8,4.4,5.1,4.4c2.4,0,1.3-2.3,0.8-4
		c-8.5-16.9-4.7-25.3-3.4-34.2c0.5-3.4-0.3-6.4-4.1-7.2C36,69.2,30.3,79.2,30.8,89.9L30.8,89.9z M35.2,58.3c0-0.2,0.2-0.4,0.6-0.3
		l2.1,0.5v0l4.8,1.2c0.3,0.1,0.3,0.5,0.3,0.5l-0.8,3.6c0.3,0.1,0.5,0.1,0.4,0.4c-0.5,1.4,0-0.1-0.5,1.6c-0.1,0.2-0.2,0.1-0.3,0.1
		l-9.1-0.5c0,0,0,0,0,0c-0.3-0.3-1.3-0.8-1.4-1.3c-0.1-0.7,0-2.2,1.1-2C34.9,62.1,35.2,60.5,35.2,58.3L35.2,58.3z M46.2,60.3
		l0.8,3.6c-0.3,0.1-0.5,0.1-0.4,0.4c0.5,1.4,0-0.1,0.5,1.6c0.1,0.2,0.2,0.1,0.3,0.1l9.1-0.5c0,0,0,0,0,0c0.3-0.3,1.3-0.8,1.4-1.3
		c0.1-0.7,0-2.2-1.1-2c-2.6-0.2-2.9-1.7-2.9-3.9c0-0.2-0.2-0.4-0.6-0.3l-2.1,0.5v0l-4.7,1.2l0,0C46.2,59.9,46.2,60.2,46.2,60.3
		L46.2,60.3z M52.5,72.8c-0.5-3.4,0.3-6.4,4.1-7.2c-3.4,3.6,2.3,13.6,1.8,24.4c-0.2,4.7-1,8.1-1.6,10.4c-0.5,2.1-1.1,4.2-1.8,6.3
		c-0.7,1.9-1.8,4.4-5.1,4.4c-2.4,0-1.3-2.3-0.8-4C57.5,90,53.8,81.7,52.5,72.8z"/>
	<path class="st2" d="M56.6,65.6c-3.8,0.8-4.6,3.7-4.1,7.2c1.3,8.9,5,17.3-3.4,34.2 M32.7,65.6c3.8,0.8,4.6,3.7,4.1,7.2
		c-1.3,8.9-5,17.3,3.4,34.2 M43.7,57.8c-0.6,0.2-1,1.1-1,1.9l-4.8-1.2c0-1.2,0-3,0-4c0.3,0,1-0.1,1-0.5 M44.6,35.2l1.7,1.6v8.9
		 M32.7,65.6l9.1,0.5 M41.7,51.7c0-1.6,1.3-2.9,2.9-2.9s2.9,1.3,2.9,2.9c0,1.6-1.3,2.9-2.9,2.9S41.7,53.3,41.7,51.7 M56.6,65.6
		L47.5,66 M44.6,35.2l-1.7,1.6c0,2.9,0,7.5,0,8.8c0.3-0.1,1.3-0.1,1.7,0"/>
	<path class="st3" d="M50.7,50.4c0-1,0.9-3.8,0.9-8.8l-5.7-24.4h-1.2l0,28.3 M32.3,62.2l9.9,1.7 M40.2,106.9c0.5,1.7,1.6,4-0.8,4
		c-3.4,0-4.4-2.4-5.1-4.4c-0.7-2-1.3-4.2-1.8-6.3c-0.6-2.3-1.4-5.6-1.6-10.4c-0.5-10.8,5.3-20.8,1.8-24.4c-0.3-0.3-1.3-0.8-1.4-1.3
		c-0.1-0.7,0-2.2,1.1-2c2.6-0.2,2.9-1.7,2.9-3.9c0-0.2,0.2-0.4,0.6-0.3c6.9,1.7,0,0,6.9,1.7c0.3,0.1,0.3,0.5,0.3,0.5l-0.8,3.6
		c0.3,0.1,0.5,0.1,0.4,0.4c-0.5,1.4,0-0.1-0.5,1.6c-0.1,0.2-0.2,0.1-0.3,0.1c-1.6,7.7-4.1,15.8-4.2,23.6
		C37.5,95.6,38.4,101.3,40.2,106.9L40.2,106.9z M44.6,45.5c3.4,0,6.2,2.8,6.2,6.2c0,0.8-0.2,1.7-0.5,2.4c0,0.3,0.7,0.5,1,0.5
		c0,1,0,2.8,0,4l-4.8,1.2c0-0.8-0.4-1.8-1-1.9c-0.3,0-0.6,0.1-1,0.1c-3.4,0-6.2-2.8-6.2-6.2c0-0.4,0-0.9,0.1-1.3
		c0-1-0.8-3.9-0.8-8.8l5.7-24.4h1.2L44.6,45.5L44.6,45.5z M56.9,62.2L47,63.9 M49,106.9c-0.5,1.7-1.6,4,0.8,4c3.4,0,4.4-2.4,5.1-4.4
		c0.7-2,1.3-4.2,1.8-6.3c0.6-2.3,1.4-5.6,1.6-10.4c0.5-10.8-5.3-20.8-1.8-24.4c0.3-0.3,1.3-0.8,1.4-1.3c0.1-0.7,0-2.2-1.1-2
		c-2.6-0.2-2.9-1.7-2.9-3.9c0-0.2-0.2-0.4-0.6-0.3c-6.9,1.7,0,0-6.9,1.7c-0.3,0.1-0.3,0.5-0.3,0.5l0.8,3.6c-0.3,0.1-0.5,0.1-0.4,0.4
		c0.5,1.4,0-0.1,0.5,1.6c0.1,0.2,0.2,0.1,0.3,0.1c1.6,7.7,4.1,15.8,4.2,23.6C51.7,95.6,50.8,101.3,49,106.9z"/>
</g>
<path class="st4" d="M95.1,46.7c-0.8,0-1.7,0-2.3,0.6c-0.4,0.4-0.5,0.9-0.5,1.5v2H98v-2c0-0.6-0.2-1.1-0.5-1.5
	C96.9,46.6,95.9,46.7,95.1,46.7L95.1,46.7z M95.1,47.5c0.8,0,1.4,0,1.7,0.3c0.3,0.2,0.4,0.6,0.4,1v1h-4.1v-1c0-0.4,0.1-0.7,0.4-1
	C93.8,47.6,94.3,47.5,95.1,47.5z"/>
<rect x="92.3" y="44.5" class="st4" width="5.7" height="0.9"/>
<polygon class="st4" points="98,38.8 92.3,38.8 92.3,39.6 96.3,39.6 92.3,42.3 92.3,43 98,43 98,42.2 94,42.2 98,39.6 "/>
<polygon class="st4" points="92.3,31.6 92.3,32.5 96.5,33.8 92.3,35.2 92.3,36.1 98,34.2 98,33.5 "/>
<path class="st4" d="M95.1,26.8c-0.8,0-1.7,0-2.3,0.6c-0.4,0.4-0.5,0.9-0.5,1.5v2H98v-2c0-0.6-0.2-1.1-0.5-1.5
	C96.9,26.8,95.9,26.8,95.1,26.8L95.1,26.8z M95.1,27.7c0.8,0,1.4,0,1.7,0.3c0.3,0.2,0.4,0.6,0.4,1v1h-4.1v-1c0-0.4,0.1-0.7,0.4-1
	C93.8,27.7,94.3,27.7,95.1,27.7z"/>
<polygon class="st4" points="98,21.9 97.2,21.9 97.2,24.6 95.5,24.6 95.5,22.3 94.8,22.3 94.8,24.6 93.1,24.6 93.1,21.9 92.3,21.9 
	92.3,25.5 98,25.5 "/>
<g>
	<path class="st1" d="M72.9,73.9c-1.3,4.8-4.2,15.4-3.9,19.5c0.2,3.3,1.5,10.7,2,12.5c0,0.1,0.1,0.2,0.1,0.3
		c1.6,0.2,3.7,0.3,6.1,0.3c2.4,0,4.5-0.1,6.1-0.3c0-0.1,0.1-0.2,0.1-0.3c0.5-1.8,1.8-9.2,2-12.5c0.3-4.1-2.7-14.7-3.9-19.5
		c0.3-2.4,0.2-4.3,1.9-6c0.2-0.2,0.3-0.6,0.4-1l-4.7,0.4c-0.4,0.5-1.1,0.8-1.8,0.8c-0.7,0-1.3-0.3-1.8-0.8L70.6,67
		c0,0.4,0.1,0.7,0.4,1C72.7,69.6,72.5,71.6,72.9,73.9L72.9,73.9z M77.1,98.1c1.3,0,2.4,1.1,2.4,2.4c0,1.3-1.1,2.4-2.4,2.4
		s-2.4-1.1-2.4-2.4C74.7,99.2,75.8,98.1,77.1,98.1z"/>
	<line class="st3" x1="78.3" y1="63" x2="78.3" y2="24.1"/>
	<polyline class="st3" points="81.2,65.1 81,63.2 77.1,63 	"/>
	<path class="st5" d="M77.1,102.9c1.3,0,2.4-1.1,2.4-2.4c0-1.3-1.1-2.4-2.4-2.4c-1.3,0-2.4,1.1-2.4,2.4
		C74.7,101.8,75.8,102.9,77.1,102.9z"/>
	<path class="st2" d="M77.1,68.1c-0.7,0-1.3-0.3-1.8-0.8"/>
	<line class="st2" x1="70.6" y1="67" x2="75.3" y2="67.4"/>
	<path class="st2" d="M77.1,68.1c0.7,0,1.3-0.3,1.8-0.8"/>
	<line class="st2" x1="83.6" y1="67" x2="78.8" y2="67.4"/>
	<path class="st2" d="M77.1,106.5c-2.5,0-4.8-0.1-6.3-0.3"/>
	<path class="st2" d="M77.1,106.5c2.5,0,4.8-0.1,6.3-0.3"/>
	<line class="st3" x1="75.8" y1="63" x2="75.8" y2="24.1"/>
	<polyline class="st3" points="73,65.1 73.1,63.2 77.1,63 	"/>
	<path class="st3" d="M77.1,111c-3.9-0.6-5.1-2.2-6.2-5.1c-0.5-1.8-1.8-9.2-2-12.5c-0.3-4.1,2.7-14.7,3.9-19.5
		c-0.3-2.4-0.2-4.3-1.9-6c-0.4-0.4-0.4-1.3-0.3-1.8c0.2-0.9,5.5-0.9,6.4-1"/>
	<path class="st3" d="M77.1,111c3.9-0.6,5.1-2.2,6.2-5.1c0.5-1.8,1.8-9.2,2-12.5c0.3-4.1-2.7-14.7-3.9-19.5c0.3-2.4,0.2-4.3,1.9-6
		c0.4-0.4,0.4-1.3,0.3-1.8c-0.2-0.9-5.5-0.9-6.4-1"/>
	<path class="st3" d="M77.1,24c-0.6,0-1.1,0.1-1.3,0.1"/>
	<line class="st3" x1="76.2" y1="24" x2="76.1" y2="20.7"/>
	<path class="st3" d="M77.1,24c0.6,0,1.1,0.1,1.3,0.1"/>
	<line class="st3" x1="78" y1="24" x2="78.1" y2="20.7"/>
	<line class="st3" x1="76.4" y1="20.7" x2="77.8" y2="20.7"/>
</g>
<g>
	<path class="st6" d="M95.1,68.3c-0.6,0-1.3-0.5-1.4-0.9"/>
	<line class="st3" x1="93.7" y1="104.9" x2="93.7" y2="102.3"/>
	<line class="st3" x1="92.8" y1="97.6" x2="92.8" y2="94"/>
	<line class="st3" x1="92.8" y1="94" x2="93.7" y2="93"/>
	<line class="st3" x1="92.8" y1="97.6" x2="92.8" y2="101.3"/>
	<line class="st3" x1="92.8" y1="101.3" x2="93.7" y2="102.3"/>
	<polyline class="st3" points="93.7,104.9 92.8,105.5 92.8,109 	"/>
	<polyline class="st3" points="92.8,109 93.6,109.3 95.1,109.3 	"/>
	<path class="st6" d="M95.1,68.3c-0.6,0-1.3-0.5-1.4-0.9"/>
	<line class="st3" x1="93.7" y1="104.9" x2="93.7" y2="102.3"/>
	<line class="st3" x1="92.8" y1="97.6" x2="92.8" y2="94"/>
	<line class="st3" x1="92.8" y1="94" x2="93.7" y2="93"/>
	<line class="st3" x1="92.8" y1="97.6" x2="92.8" y2="101.3"/>
	<line class="st3" x1="92.8" y1="101.3" x2="93.7" y2="102.3"/>
	<polyline class="st3" points="93.7,104.9 92.8,105.5 92.8,109 	"/>
	<polyline class="st3" points="92.8,109 93.6,109.3 95.1,109.3 	"/>
	<polyline class="st3" points="93.7,93 93.7,63.6 95.1,63.6 	"/>
	<path class="st6" d="M95.1,68.3c0.6,0,1.3-0.5,1.4-0.9"/>
	<line class="st3" x1="96.5" y1="104.9" x2="96.5" y2="102.3"/>
	<line class="st3" x1="97.4" y1="97.6" x2="97.4" y2="94"/>
	<line class="st3" x1="97.4" y1="94" x2="96.5" y2="93"/>
	<line class="st3" x1="97.4" y1="97.6" x2="97.4" y2="101.3"/>
	<line class="st3" x1="97.4" y1="101.3" x2="96.5" y2="102.3"/>
	<polyline class="st3" points="96.5,104.9 97.4,105.5 97.4,109 	"/>
	<polyline class="st3" points="97.4,109 96.7,109.3 95.1,109.3 	"/>
	<path class="st6" d="M95.1,68.3c0.6,0,1.3-0.5,1.4-0.9"/>
	<line class="st3" x1="96.5" y1="104.9" x2="96.5" y2="102.3"/>
	<line class="st3" x1="97.4" y1="97.6" x2="97.4" y2="94"/>
	<line class="st3" x1="97.4" y1="94" x2="96.5" y2="93"/>
	<line class="st3" x1="97.4" y1="97.6" x2="97.4" y2="101.3"/>
	<line class="st3" x1="97.4" y1="101.3" x2="96.5" y2="102.3"/>
	<polyline class="st3" points="96.5,104.9 97.4,105.5 97.4,109 	"/>
	<polyline class="st3" points="97.4,109 96.7,109.3 95.1,109.3 	"/>
	<polyline class="st3" points="96.5,93 96.5,63.6 95.1,63.6 	"/>
	<line class="st3" x1="96.5" y1="93" x2="93.7" y2="93"/>
	<line class="st3" x1="96.5" y1="102.3" x2="93.7" y2="102.3"/>
	<line class="st3" x1="96.5" y1="104.9" x2="93.7" y2="104.9"/>
</g>
</svg>
