<?xml version="1.0" encoding="utf-8"?>
<!-- Generator: Adobe Illustrator 23.0.1, SVG Export Plug-In . SVG Version: 6.00 Build 0)  -->
<svg version="1.1" id="Слой_1" xmlns="http://www.w3.org/2000/svg" xmlns:xlink="http://www.w3.org/1999/xlink" x="0px" y="0px"
	 viewBox="0 0 128.2 128.2" style="enable-background:new 0 0 128.2 128.2;" xml:space="preserve">
<style type="text/css">
	.st0{fill-rule:evenodd;clip-rule:evenodd;fill:#2065AF;}
	.st1{fill-rule:evenodd;clip-rule:evenodd;fill:#538DCA;}
	
		.st2{fill-rule:evenodd;clip-rule:evenodd;fill:none;stroke:#000003;stroke-width:0.7498;stroke-linecap:round;stroke-linejoin:round;stroke-miterlimit:22.9256;}
	
		.st3{fill-rule:evenodd;clip-rule:evenodd;fill:none;stroke:#000003;stroke-width:1.4998;stroke-linecap:round;stroke-linejoin:round;stroke-miterlimit:22.9256;}
</style>
<path class="st0" d="M69.3,108.1c-1.9-0.1-8.6-0.1-9.4-0.1c-1.1,0-7.5,1.4-10.3,2.8h22.5C71.6,110.2,70.5,109,69.3,108.1z"/>
<path class="st1" d="M74,90.1c0-0.4,0-0.8,0-1.2l-4.7-5.4V69.5l-1.9-3.8v-8.5l5.2-5.9l2.7,4c1.1-1.4,2.7-0.9,3.4-1.9
	c0.4-0.6,1.8-1.3,1.9-1.9c0,0,0,0,0,0c-0.9-6.1-2.4-13.5-4.1-17c-0.2-0.4-1.4-1-1.8-1l-6.2,0h-3.9l-0.9-2.7c-0.5,0-0.3-0.8-0.9-0.9
	c-2.7,0-5,0-7.5,0c-0.1,0.1-2.8,3.6-2.8,3.8c-0.7,5.1-1.4,12.2-1.3,16.6c0.2,2,0.9,2.7,1.3,3.1c0.9,1,2.4,1.9,3.8,2.8l1.3-2.3l5,2.8
	l0.1,26l-1.7,3.9L59,85.9c-0.2,4.4-2.5,5.6-4.9,7.2c-1.3,0.9-0.9,5.9,1.9,6.9c2.6,1,13.9,0.8,17.1,0.3c1.7-0.4,3.1-1.9,3-3.5
	C76.1,95.1,74.2,92.8,74,90.1L74,90.1z M62.5,48.5l-3.1-5.4l1.4-4.3l1.4-1.1h8.6l1.4,1.1l1.4,4.3l-3.2,5.4H62.5L62.5,48.5z
	 M64.6,33.6l-0.9-2.7h5.6l-0.9,2.7H64.6L64.6,33.6z M74.7,33.6l-6.2,0l0.9-2.7c0.2-0.2,0.3-0.9,0.9-0.9h7.5c0.7,0.9,2.5,2.6,2.8,3.8
	c0.5,2.3,1.8,10.3,1.9,14.1c-0.3,0.3-0.5,0.5-0.7,0.8c-0.7,0.3-1.2,1-1.2,1.9c0,0.2,0,0.4,0.1,0.6c0,0.2-0.1,0.3-0.1,0.5
	c-0.9-6.1-2.4-13.5-4.1-17C76.3,34.3,75.1,33.6,74.7,33.6z"/>
<path class="st0" d="M67.5,57.3v8.5l1.9,3.8v14.1L74,89c0-0.3,0-0.6,0-0.7c0-7.8,0-20.7,0.2-28.2c0.1-2.5,0.5-3.9,1.1-4.7l-2.7-4
	L67.5,57.3z"/>
<path class="st0" d="M58.9,59.3c0,0.8,0.1,6.5,0.1,10.1l-5.6,3.8c0.9,0.9,0.7,0.8,0.9,0.9c2.8,0,4.7,0,4.7,2.8v8.5
	c0,0.1,0,0.3,0,0.4l2.1,0.7l1.7-3.9l-0.1-26l-5-2.8l-1.3,2.3C57.7,57.2,59,58.3,58.9,59.3z"/>
<path class="st2" d="M63.7,30.9l0.9,2.7h3.9l0.9-2.7 M82.6,48.4c1.1,0,2.1,0.9,2.1,2.1c0,1.1-0.9,2.1-2.1,2.1s-2.1-0.9-2.1-2.1
	C80.6,49.4,81.5,48.4,82.6,48.4L82.6,48.4z M60.8,17l1.2-0.2l2.5-0.4l0.2,1.2l-1.2,0.2l0.4,2.5l1.2-0.2l0.2,1.2L64,21.6l0.4,2.5
	l1.2-0.2l0.2,1.2l-1.2,0.2l0.4,2.5l1.2-0.2l0.2,1.2l-2.5,0.4l-1.2,0.2 M72.2,17.3L71,17.1l-1.4,1.1l-0.4,2.5L69,21.9l-0.4,2.5
	l-0.2,1.2l-0.4,2.5l1.1,1.4l1.2,0.2 M44.2,105.2c1,0,2.9,0,3.5,0c2.8-0.6,6.3-1.9,7.5-1.9c1.9,0,21.6,0,22.5,0c0.1,0,1.6,0,1.5-1.1
	 M56.2,56.2l1.3-2.3l5,2.8l0.1,26l-1.7,3.9l-2.4-0.8 M75.3,55.4l-2.7-4l-5.2,5.9v8.5l1.9,3.8v14.1L74,89 M52.4,52.8
	c0.6-5.9,2.4-14.3,4.1-18c0.1-0.2,1.6-1.1,1.8-1.1c3.6,0,13,0,16.4,0c0.4,0,1.6,0.7,1.8,1c1.7,3.4,3.3,10.9,4.1,17 M66.4,88.6
	l5.7,6.6 M62.1,90.8l2.5,2.9 M68.3,94.3L68.3,94.3l-4-4.6 M73.8,24.2c0.5,0,0.9,0.4,0.9,0.9c0,0.5-0.4,0.9-0.9,0.9
	c-0.5,0-0.9-0.4-0.9-0.9C72.8,24.6,73.2,24.2,73.8,24.2L73.8,24.2z M59.3,24.2c0.5,0,0.9,0.4,0.9,0.9c0,0.5-0.4,0.9-0.9,0.9
	c-0.5,0-0.9-0.4-0.9-0.9C58.3,24.6,58.8,24.2,59.3,24.2z"/>
<path class="st3" d="M53.2,93.7c-0.1,3.1,1.1,6.6,3.9,6.6c5.2,0,10.1,0,15,0c1.9,0,4-0.5,3.7-2.5 M49.6,110.8
	c2.8-1.4,9.3-2.8,10.3-2.8c0.8,0,7.5,0,9.4,0.1c1.1,0.9,2.3,2.1,2.8,2.7 M60.8,38.8l-1.4,4.3l3.1,5.4h8l3.2-5.4l-1.4-4.3l-1.4-1.1
	h-8.6L60.8,38.8L60.8,38.8z M51.6,52.3c-1.6,2.5,0,2.9,0.1,3.8c0.1,1.3-3,9-5.8,9.6c-0.6,0.1-1.4,0.2-1.9,0.4
	c-0.4,0.1-0.4,1.2-0.4,1.8c0.8,0.2,4.5,0.6,5.1,0.2l7.5-11.8 M52.4,33.8c-0.7,5.1-1.4,12.2-1.3,16.6c0.2,2,0.9,2.7,1.3,3.1
	c1.9,2,6.6,3.9,6.5,6c0,0.8,0.1,6.5,0.1,10.1c-5.6,3.8,0,0-5.6,3.8c0.9,0.9,0.7,0.8,0.9,0.9c2.8,0,4.7,0,4.7,2.8c0,4.4,0,7.5,0,8.5
	c0,5.6-5.2,7.6-7.5,9.4c-2.8,1.9-3.1,4.9-3.8,7.5c-1.9,0.9-3.8,1.4-3.8,2.8c0,2.1,0.2,4.7,0.9,5.6c0.9,0.9,1.9,0.9,3.8,0.9
	c0.1-0.1,0.8-0.8,0.9-0.9c2.9,0,16,0,22.5,0c0.3,0.3,0.6,0.6,0.9,0.9c0.9,0,1.9,0,2.8,0c3.3,0,3.8-2.8,3.8-7.5
	c0-1.2-0.2-3.2-0.4-3.8c-1-1.1-3.2-0.9-3.3-2c-0.1-4.1-1.7-5.2-1.9-8.3c0-0.6,0-1.5,0-1.9c0-7.8,0-20.7,0.2-28.2
	c0.2-7.2,3.4-5.1,4.5-6.6c0.4-0.6,1.8-1.3,1.9-1.9c0.2-1.5,0.7-2.7,1.9-3.8c-0.1-3.8-1.3-11.8-1.9-14.1c-0.3-1.2-2.1-2.8-2.8-3.8
	c-1.3,0-5.6,0-7.5,0c-0.6,0-0.7,0.8-0.9,0.9c-1.9,0-3.8,0-5.6,0c-0.5,0-0.3-0.8-0.9-0.9c-2.7,0-5,0-7.5,0
	C55.1,30.1,52.4,33.6,52.4,33.8L52.4,33.8z M55.2,30c1.3-5.4,2.3-9.3,2.8-10.3c0.2-0.6,1.9-2.8,2.8-2.8L62.8,30 M77.8,30
	c-1.3-5.4-2.3-9.3-2.8-10.3c-0.2-0.6-1.9-2.8-2.8-2.8L70.3,30"/>
</svg>
