<?xml version="1.0" encoding="utf-8"?>
<!-- Generator: Adobe Illustrator 23.0.1, SVG Export Plug-In . SVG Version: 6.00 Build 0)  -->
<svg version="1.1" id="Слой_1" xmlns="http://www.w3.org/2000/svg" xmlns:xlink="http://www.w3.org/1999/xlink" x="0px" y="0px"
	 viewBox="0 0 128.2 128.2" style="enable-background:new 0 0 128.2 128.2;" xml:space="preserve">
<style type="text/css">
	.st0{fill-rule:evenodd;clip-rule:evenodd;fill:#538DCA;stroke:#000003;stroke-width:0.216;stroke-miterlimit:22.9256;}
	
		.st1{fill-rule:evenodd;clip-rule:evenodd;fill:none;stroke:#000003;stroke-width:0.7498;stroke-linecap:round;stroke-linejoin:round;stroke-miterlimit:22.9256;}
	
		.st2{fill-rule:evenodd;clip-rule:evenodd;fill:none;stroke:#000003;stroke-width:1.4998;stroke-linecap:round;stroke-linejoin:round;stroke-miterlimit:22.9256;}
</style>
<path class="st0" d="M55.6,59.2l2.8-4.9l5.7,0l5.7,0l2.8,4.9l2.8,4.9l0,0l8.6,0c0-11-8.9-19.9-19.9-19.9c-11,0-19.9,8.9-19.9,19.9
	l8.6,0L55.6,59.2z"/>
<path class="st0" d="M55.6,69l-2.8-4.9l0,0l-8.6,0c0,11,8.9,19.9,19.9,19.9c11,0,19.9-8.9,19.9-19.9h-8.6L72.6,69l-2.8,4.9l-5.7,0
	l-5.7,0L55.6,69z"/>
<line class="st1" x1="38.6" y1="64.1" x2="52.8" y2="64.1"/>
<path class="st2" d="M44.2,64.1c0-11,8.9-19.9,19.9-19.9c11,0,19.9,8.9,19.9,19.9"/>
<polygon class="st2" points="58.4,54.3 64.1,54.3 69.8,54.3 72.6,59.2 75.5,64.1 72.6,69 69.8,73.9 64.1,73.9 58.4,73.9 55.6,69 
	52.8,64.1 55.6,59.2 "/>
<path class="st2" d="M38.6,64.1l0-3.8c-0.3,0-0.4,0-1.2,0c1.8-13.1,13.1-23.2,26.7-23.2"/>
<path class="st2" d="M89.6,64.1l0-3.8c0.3,0,0.4,0,1.2,0C89,47.2,77.7,37.2,64.1,37.2"/>
<path class="st2" d="M44.2,64.1c0,11,8.9,19.9,19.9,19.9c11,0,19.9-8.9,19.9-19.9"/>
<path class="st2" d="M38.6,64.1l0,3.8c-0.3,0-0.4,0-1.2,0C39.2,81,50.5,91.1,64.1,91.1"/>
<path class="st2" d="M89.6,64.1l0,3.8c0.3,0,0.4,0,1.2,0C89,81,77.7,91.1,64.1,91.1"/>
<line class="st1" x1="75.5" y1="64.1" x2="89.6" y2="64.1"/>
</svg>
