<?xml version="1.0" encoding="utf-8"?>
<!-- Generator: Adobe Illustrator 23.0.1, SVG Export Plug-In . SVG Version: 6.00 Build 0)  -->
<svg version="1.1" id="Слой_1" xmlns="http://www.w3.org/2000/svg" xmlns:xlink="http://www.w3.org/1999/xlink" x="0px" y="0px"
	 viewBox="0 0 128.2 128.2" style="enable-background:new 0 0 128.2 128.2;" xml:space="preserve">
<style type="text/css">
	.st0{fill-rule:evenodd;clip-rule:evenodd;fill:#538DCA;}
	.st1{fill-rule:evenodd;clip-rule:evenodd;fill:#2065AF;}
	
		.st2{fill-rule:evenodd;clip-rule:evenodd;fill:none;stroke:#000003;stroke-width:0.7498;stroke-linecap:round;stroke-linejoin:round;stroke-miterlimit:22.9256;}
	
		.st3{fill-rule:evenodd;clip-rule:evenodd;fill:none;stroke:#000003;stroke-width:1.4998;stroke-linecap:round;stroke-linejoin:round;stroke-miterlimit:22.9256;}
</style>
<path class="st0" d="M74,91.7l-6-9l-3-2.3l-3.8-15.1l0.8-0.8l9-3.8l13.6,2.3l-0.8,1.3l18.8,1.7l3-1.5l4.5-12.1V48l-3-3.1L92,41.3
	L81.5,36l-2.7,2.2l-9.5-2.2l-0.4,1.5l0,0l-1.4,6.1l0,0.2l-0.6,2.5L66.4,48l-11.3,9l-1.5,0l-0.8,0.8l0,1.5l2.3,1.5l0.8,0.8v2.3
	l-0.8,1.5l-2.3,0.8v1.5h3l1.5,0.8l0.8,1.5l2.3,9.8l-0.8,1.5l-0.8,1.6v3.7l-6.8,2.3l-0.8,1.5l1.5,1.5l4.5,3H74V91.7L74,91.7z
	 M102.6,61.6L77,57.8l10.5-5.3l17.3,3.8L102.6,61.6L102.6,61.6z M72.5,57.4l-4.5,2h-1.5l-0.8-1.5l-2.3-0.8l0.8-0.9L72.5,57.4
	L72.5,57.4z M26.1,33.6l0.7-2.9l2.2-2.6L20.2,26l-2.1,8.8l8.8,2.1L26.1,33.6L26.1,33.6z M50.4,42.4l-8.8-2.1l1-4.4l1-4.4l8.8,2.1
	L50.4,42.4L50.4,42.4z M59.2,44.5l-0.3,1.5L50,43.9l0.3-1.5l2.1-8.8l0.3-1.5l8.8,2.1l-0.3,1.5L59.2,44.5L59.2,44.5z M67.5,43.5
	l-0.6,2.7l-7.7-1.8l2.1-8.8l7.7,1.8L67.5,43.5z"/>
<path class="st1" d="M60.4,79.7l-2.3-9.8l-0.8-1.5l-1.5-0.8l-3,0l3,0.8l0.8,0.8l2.3,13.6v0.1l0.8-1.6L60.4,79.7L60.4,79.7z
	 M67.9,82.7l-1.5-15.1l1.5-3l1.5-1.5l14.3,1.3l0.8-1.3l-13.6-2.3l-9,3.8l-0.8,0.8l3.8,15.1L67.9,82.7L67.9,82.7z M67.9,59.3l4.5-2
	l-8.3-1.2l-0.8,0.9l2.3,0.8l0.8,1.5H67.9L67.9,59.3z M104.8,56.3l-2.3,5.3L77,57.8l10.5-5.3L104.8,56.3z"/>
<path class="st2" d="M83.7,64.4l0.8-1.3l-13.6-2.3l-9,3.8l-0.8,0.8l3.8,15.1l3,2.3 M52.9,66.1l1-0.7v-5.1l-1-1 M52.9,67.6h3l1.5,0.8
	l0.8,1.5l2.3,9.8l-0.8,1.5l-0.8,1.6 M65.7,57.8l-2.3-0.8l0.8-0.9l8.3,1.2l-4.5,2h-1.5L65.7,57.8L65.7,57.8z M77,57.8l10.5-5.3
	l17.3,3.8l-2.3,5.3L77,57.8L77,57.8z M55.1,90.7l4.5-1.5l8.1-0.6 M69,46l5.3-4.2l3-2.4 M90.1,44.3l14.1,3.3l2.3,1.2l0.8,2.3
	 M61.2,35.7l7.7,1.8l-2.1,8.8l-7.7-1.8L61.2,35.7L61.2,35.7z M33.3,40.8c0.8,0,1.5,0.6,1.5,1.5c0,0.8-0.6,1.5-1.5,1.5
	c-0.8,0-1.5-0.6-1.5-1.5C31.9,41.5,32.5,40.8,33.3,40.8L33.3,40.8z M20.2,26l8.8,2.1l-2.2,2.6l-0.7,2.9l0.8,3.3l-8.8-2.1L20.2,26
	L20.2,26z M37,30l2.2,0.5l1.2,4.9l-3.2,3.9L35,38.8l3.2-3.9L37,30L37,30z M43,26c0.8,0,1.5,0.6,1.5,1.5c0,0.8-0.6,1.5-1.5,1.5
	c-0.8,0-1.5-0.6-1.5-1.5C41.5,26.7,42.2,26,43,26L43,26z M39.2,30.5l0.7-2.9L37,26.9L34.6,24l0.2,2.4l-2.4-2.9l0.2,2.4l-2.4-2.9
	l0.2,2.4l-3-0.7l-1.8,1.1"/>
<g>
	<rect x="49.8" y="34.5" transform="matrix(0.2291 -0.9734 0.9734 0.2291 5.0228 84.3992)" class="st3" width="12.1" height="9"/>
	<polygon class="st3" points="52.4,33.6 43.6,31.5 42.6,35.9 40.4,35.4 39.2,30.5 20.2,26 27.4,21.5 33.6,21.4 45.4,24.2 52.8,32.1 
			"/>
	<polygon class="st3" points="18.1,34.8 37.2,39.3 40.4,35.4 42.6,35.9 41.6,40.3 50.4,42.4 50,43.9 40.2,46.2 35.8,45.2 34,46.3 
		28.1,44.9 24,42.3 	"/>
	<polygon class="st3" points="48.4,96.2 52.9,91.7 57.4,94.7 75.5,94.7 77,96.2 77,103.8 74,106.8 51.4,106.8 48.4,103.8 	"/>
	<polygon class="st3" points="58.9,82.7 58.9,86.4 52.1,88.7 51.4,90.2 52.9,91.7 57.4,94.7 74,94.7 74,91.7 67.9,82.7 66.4,67.6 
		67.9,64.6 69.4,63.1 102.6,66.1 105.6,64.6 110.1,52.5 110.1,48 107.1,44.9 92,41.3 81.5,36 78.8,38.2 69.3,35.9 66.4,48 
		55.1,57.1 53.6,57.1 52.9,57.8 52.9,59.3 55.1,60.8 55.9,61.6 55.9,63.8 55.1,65.3 52.9,66.1 52.9,67.6 55.9,68.4 56.6,69.1 	"/>
</g>
<polyline class="st2" points="69.7,103.5 55.1,103.5 52.4,101.2 "/>
</svg>
