<?xml version="1.0" encoding="utf-8"?>
<!-- Generator: Adobe Illustrator 19.0.0, SVG Export Plug-In . SVG Version: 6.00 Build 0)  -->
<svg version="1.1" id="Слой_1" xmlns="http://www.w3.org/2000/svg" xmlns:xlink="http://www.w3.org/1999/xlink" x="0px" y="0px"
	 viewBox="-1.3 -1.1 128.2 128.2" style="enable-background:new -1.3 -1.1 128.2 128.2;" xml:space="preserve">
<style type="text/css">
	.st0{fill-rule:evenodd;clip-rule:evenodd;fill:#FFFFFF;}
	
		.st1{fill-rule:evenodd;clip-rule:evenodd;fill:none;stroke:#616262;stroke-width:0.7498;stroke-linecap:round;stroke-linejoin:round;stroke-miterlimit:22.9256;}
	
		.st2{fill-rule:evenodd;clip-rule:evenodd;fill:none;stroke:#000003;stroke-width:0.7498;stroke-linecap:round;stroke-linejoin:round;stroke-miterlimit:22.9256;}
	
		.st3{fill-rule:evenodd;clip-rule:evenodd;fill:none;stroke:#000003;stroke-width:1.4998;stroke-linecap:round;stroke-linejoin:round;stroke-miterlimit:22.9256;}
	
		.st4{fill-rule:evenodd;clip-rule:evenodd;fill:none;stroke:#1A1A18;stroke-width:1.4998;stroke-linecap:round;stroke-linejoin:round;stroke-miterlimit:22.9256;}
	
		.st5{fill-rule:evenodd;clip-rule:evenodd;fill:#FFFFFF;stroke:#000003;stroke-width:1.4998;stroke-linecap:round;stroke-linejoin:round;stroke-miterlimit:22.9256;}
	
		.st6{fill-rule:evenodd;clip-rule:evenodd;fill:#FFFFFF;stroke:#000003;stroke-width:1.4998;stroke-linejoin:round;stroke-miterlimit:22.9256;}
	
		.st7{fill-rule:evenodd;clip-rule:evenodd;fill:none;stroke:#616262;stroke-width:0.7498;stroke-linecap:round;stroke-miterlimit:22.9256;}
</style>
<g>
	<path class="st0" d="M49.8,43.9l0,44.7l0,0c0,0.6,2.6,1,5.8,1c3.2,0,5.8-0.5,5.8-1.1V43.9c0,0.2-2.6,0.3-5.8,0.3
		C52.4,44.2,49.8,44.1,49.8,43.9z"/>
	<path class="st1" d="M61.4,43.9c0,0.2-2.6,0.3-5.8,0.3c-3.2,0-5.8-0.2-5.8-0.3"/>
	<path class="st2" d="M61.4,88.6c0,0.6-2.6,1.1-5.8,1.1c-3.2,0-5.8-0.5-5.8-1.1"/>
	<line class="st1" x1="57.5" y1="28.5" x2="53.7" y2="28.5"/>
	<path class="st3" d="M49.8,90.4c0,0.7,2.6,1.3,5.8,1.3c3.2,0,5.8-0.6,5.8-1.3"/>
	<path class="st4" d="M49.8,90.4V39 M61.4,39v51.3"/>
	<polyline class="st3" points="55.6,37.9 53.5,37.9 53.7,28.5 54.7,11.1 55.6,10.4 	"/>
	<path class="st3" d="M49.8,39c0,0.3,2.6,0.5,5.8,0.5c3.2,0,5.8-0.2,5.8-0.5"/>
	<line class="st3" x1="49.8" y1="39" x2="53.5" y2="37.9"/>
	<line class="st3" x1="61.4" y1="39" x2="57.6" y2="37.9"/>
	<polyline class="st3" points="55.6,37.9 57.6,37.9 57.5,28.5 56.5,11.1 55.6,10.4 	"/>
</g>
<g>
	<path class="st0" d="M55.5,67.7c-0.1-0.1,0.4-18.8,7.8-19.4c7.3-0.3,13.9-0.4,16.4-0.2c8.1,5,8.8,21.6,8.8,28.8
		c-0.2,5.6-2.8,15.5-6.9,16.4c3.5,2.3,16.5,9.4,23,12.9c-3,1-12.7,3.9-17.3,5.3c-4.5-2.6-17.5-12.4-21.4-14.5
		C63.6,95.7,58.6,76.5,55.5,67.7z"/>
	<path class="st0" d="M69.3,84.5c-0.6-9.4-4.1-17-7.9-17L46.7,68c2.9,0.7,5.6,4.3,7.2,14.1c1,9.8-0.1,22.9-6.6,20.9l16.8,12.7
		l16-4.5L65.2,101c0.9-0.6,1.7-1.7,2.3-3.1c0.3-0.7,0.6-1.6,0.9-2.5C69.2,92.5,69.6,88.7,69.3,84.5z"/>
	<path class="st3" d="M55.7,65.9c0.5-10.2,3.6-17.6,7.6-17.6c4.9,0,9.3,10.7,10,23.8c0.5,9.8-1.3,18.1-4.2,21.8"/>
	<path class="st3" d="M77.9,47.6c5.1,0,9.8,10.3,10.5,22.9C89,82.7,85.7,92.6,81,93.4"/>
	<line class="st3" x1="63.3" y1="48.3" x2="77.9" y2="47.6"/>
	<line class="st3" x1="68.4" y1="95.4" x2="81" y2="93.4"/>
	<polyline class="st3" points="67.5,98 87.2,111.5 97.7,108.4 104.6,106.2 81,93.4 	"/>
	<path class="st5" d="M46.7,68c3.6,0,7,7.9,7.6,17.7c0.6,9.8-1.9,17.7-5.5,17.7c-3.6,0-7-7.9-7.6-17.7C40.6,75.9,43.1,68,46.7,68z"
		/>
	<line class="st3" x1="46.7" y1="68" x2="61.4" y2="67.5"/>
	<line class="st3" x1="48.8" y1="103.4" x2="64" y2="101.5"/>
	<polyline class="st3" points="47.3,103 64.1,115.7 80.1,111.2 65.2,101 	"/>
	<path class="st1" d="M46.6,73.9c2.1,0,4.1,5.3,4.4,11.8c0.3,6.5-1.1,11.8-3.2,11.8c-2.1,0-4.1-5.3-4.4-11.8
		C43,79.2,44.5,73.9,46.6,73.9z"/>
	<path class="st1" d="M58,66.3c0.3-7.1,2.5-12.3,5.3-12.3c3.4,0,6.5,7.4,7,16.6c0.2,4.1-0.2,7.9-0.9,10.8"/>
	<path class="st3" d="M61.4,67.5c3.8,0,7.4,7.6,7.9,17c0.6,9-1.8,16.4-5.4,17"/>
</g>
<g>
	<path class="st0" d="M33.7,18.7c-1.3,0-2-0.7-1.9-1.4c0.1-1.2,1.2-1.4,1.9-1.4v-0.6c0-0.9-1.1-1-2.7-1s-2.7,0.1-2.7,1
		c0,1.2,0,4.1,0,6.1c1.8,0,3.6,0,5.4,0C33.7,20.5,33.7,19.6,33.7,18.7L33.7,18.7z M37.1,24.1H24.9c-4.4,1.1-7,4.4-7,8.5H31l13.1,0
		C44.2,28.5,41.5,25.2,37.1,24.1z"/>
	<path class="st6" d="M37.1,24.1l-0.9-2.7c-3.5,0-7,0-10.5,0l-0.4,1.2l-0.5,1.5H37.1L37.1,24.1z M31,110.6c6.7,0,12.4-0.5,14.2-1.2
		c0.4-0.2,0.7-0.3,0.7-0.5l0-1.8l-0.9-0.9l0-71l0.9-0.9v-1.8H31H16.1v1.8l0.9,0.9l0,71l-0.9,0.9v1.8c0,0.2,0.3,0.4,0.9,0.6
		C19.1,110.1,24.6,110.6,31,110.6z"/>
	<path class="st3" d="M44.2,32.6c0-4.1-2.7-7.4-7-8.5 M17.9,32.6c0-4.1,2.6-7.4,7-8.5"/>
	<path class="st1" d="M31.8,17.3c0-0.7,0.6-1.3,1.3-1.3 M33.2,18.6c-0.7,0-1.3-0.6-1.3-1.3 M42.4,35.2H19.6 M39.1,29.8
		c-0.2-1.3-1.5-3-2.7-3.3 M38.9,71.1V48.3 M42.4,107.1c-1.9,1.2-21,1.2-22.8,0"/>
	<path class="st3" d="M28.3,21.4c0-2,0-4.9,0-6.1c0-0.9,1.1-1,2.7-1s2.7,0.1,2.7,1l0,6.1"/>
</g>
<g>
	<path class="st0" d="M107.3,80.9v-20c-5.8,0.2-5.8,0.2-11.6,0v20l0.1,0.1C96.6,81.5,106.4,81.5,107.3,80.9L107.3,80.9z"/>
	<path class="st7" d="M105.7,49.1c0,3.2-1.9,5.9-4.3,5.9c-2.4,0-4.3-2.6-4.3-5.9"/>
	<path class="st1" d="M107.3,60.9c0,0.1-2.6,0.2-5.8,0.2c-3.2,0-5.8-0.1-5.8-0.2"/>
	<path class="st3" d="M98.2,87.4c0,0.2,1.5,0.4,3.3,0.4c1.8,0,3.3-0.2,3.3-0.4"/>
	<path class="st3" d="M98.2,88.3c-0.1,2.8-1.5,6.1-4.2,7.6c0,0-0.5,0.3-0.5,0.8"/>
	<path class="st3" d="M104.8,87.4c0.3-0.9,0.2-2.7,0-3.3 M98.2,87.4c-0.3-0.9-0.2-2.7,0-3.3"/>
	<polyline class="st3" points="95.6,80.9 95.6,60.3 96.1,53.5 97.2,49.1 101.4,49.1 	"/>
	<path class="st3" d="M93.4,96.6c0,0.9,3.6,1.6,8,1.6c4.4,0,8-0.7,8-1.6"/>
	<line class="st3" x1="98.1" y1="84.2" x2="95.6" y2="80.9"/>
	<path class="st3" d="M107.3,80.9c0,0.7-11.6,0.7-11.6,0"/>
	<polyline class="st3" points="107.3,80.9 107.3,60.3 106.8,53.5 105.7,49.1 101.4,49.1 	"/>
	<line class="st3" x1="104.8" y1="84.2" x2="107.3" y2="80.9"/>
	<path class="st3" d="M104.7,88.3c0.1,2.8,1.5,6.1,4.2,7.6c0,0,0.5,0.3,0.5,0.8"/>
	<path class="st3" d="M98.2,84.2c0,0.2,1.5,0.3,3.3,0.3c1.8,0,3.3-0.1,3.3-0.3"/>
</g>
</svg>
