<?xml version="1.0" encoding="utf-8"?>
<!-- Generator: Adobe Illustrator 23.0.1, SVG Export Plug-In . SVG Version: 6.00 Build 0)  -->
<svg version="1.1" id="Слой_1" xmlns="http://www.w3.org/2000/svg" xmlns:xlink="http://www.w3.org/1999/xlink" x="0px" y="0px"
	 viewBox="0 0 128.2 128.2" style="enable-background:new 0 0 128.2 128.2;" xml:space="preserve">
<style type="text/css">
	
		.st0{fill-rule:evenodd;clip-rule:evenodd;fill:none;stroke:#616262;stroke-width:0.7498;stroke-linecap:round;stroke-linejoin:round;stroke-miterlimit:22.9256;}
	
		.st1{fill-rule:evenodd;clip-rule:evenodd;fill:none;stroke:#1A1A18;stroke-width:1.4998;stroke-linecap:round;stroke-linejoin:round;stroke-miterlimit:22.9256;}
	
		.st2{fill-rule:evenodd;clip-rule:evenodd;fill:none;stroke:#000003;stroke-width:1.4998;stroke-linecap:round;stroke-linejoin:round;stroke-miterlimit:22.9256;}
	.st3{fill-rule:evenodd;clip-rule:evenodd;fill:#000003;}
	
		.st4{fill-rule:evenodd;clip-rule:evenodd;fill:none;stroke:#000001;stroke-width:1.4998;stroke-linecap:round;stroke-linejoin:round;stroke-miterlimit:22.9256;}
</style>
<polyline class="st0" points="80.7,103 82.5,99.9 82.6,83.5 "/>
<polyline class="st0" points="90.4,103 88.6,99.9 88.5,83.5 "/>
<line class="st0" x1="86.4" y1="103.5" x2="86.2" y2="83.5"/>
<polyline class="st1" points="39.3,101 39.9,98.8 40,41.6 40,39.2 54.1,39.2 "/>
<polyline class="st1" points="40.8,38.6 40.8,36.5 44.8,36.5 "/>
<polyline class="st1" points="40.8,36.5 49.4,30.3 52.7,30.3 52.7,32.3 51.3,32.7 51.3,34.5 "/>
<polyline class="st2" points="78.2,105.5 80.7,103 80.8,100.8 81.3,85.2 82.6,83.5 83,43.4 85.5,43.4 "/>
<polyline class="st2" points="83.6,43.4 83.7,41 85.5,41 "/>
<polyline class="st2" points="84.2,41 84.4,38.7 85.5,38.7 "/>
<polyline class="st2" points="84.7,38.7 84.9,36.4 85.5,36.4 "/>
<path class="st2" d="M90.1,103.2c0,0.1-2,0.3-4.5,0.3c-2.5,0-4.5-0.1-4.5-0.3"/>
<path class="st1" d="M92.9,105.5c0,0.6-3.3,1.1-7.4,1.1s-7.4-0.5-7.4-1.1"/>
<polyline class="st1" points="67.5,38.6 67.5,36.5 64,36.5 "/>
<polyline class="st1" points="67.5,36.5 64.1,30.3 60.8,30.3 60.8,32.3 62.3,32.7 62.3,34.5 "/>
<path class="st3" d="M47.6,51.3c0-0.9-0.7-1.6-1.7-1.6h-2v5.4h0.8v-2.1h1.2C46.9,52.9,47.6,52.2,47.6,51.3L47.6,51.3z M46.8,51.3
	c0,0.6-0.4,0.9-1,0.9h-1.2v-1.8h1.2C46.4,50.4,46.8,50.7,46.8,51.3z"/>
<polygon class="st3" points="52.1,55.1 52.1,54.3 49.4,54.3 49.4,52.7 51.7,52.7 51.7,52 49.4,52 49.4,50.4 52.1,50.4 52.1,49.7 
	48.6,49.7 48.6,55.1 "/>
<rect x="53" y="52.6" class="st3" width="2.2" height="0.7"/>
<path class="st3" d="M60.2,51.3c0-0.9-0.7-1.6-1.7-1.6h-2v5.4h0.8v-2.1h1.2C59.5,52.9,60.2,52.2,60.2,51.3L60.2,51.3z M59.4,51.3
	c0,0.6-0.4,0.9-1,0.9h-1.2v-1.8h1.2C59,50.4,59.4,50.7,59.4,51.3z"/>
<path class="st3" d="M65,51.3c0-0.9-0.7-1.6-1.7-1.6h-2v5.4H62v-2.1h1.2C64.3,52.9,65,52.2,65,51.3L65,51.3z M64.1,51.3
	c0,0.6-0.4,0.9-1,0.9H62v-1.8h1.2C63.8,50.4,64.1,50.7,64.1,51.3z"/>
<line class="st1" x1="72.9" y1="103.6" x2="35.3" y2="103.6"/>
<polyline class="st1" points="39.8,99.1 37.8,99.1 35.3,103.6 36.2,107 "/>
<line class="st0" x1="57.7" y1="98.5" x2="57.7" y2="94.4"/>
<line class="st0" x1="60.1" y1="98.5" x2="60.1" y2="94.5"/>
<line class="st0" x1="58.9" y1="86.3" x2="58.9" y2="63"/>
<line class="st4" x1="47.1" y1="37.2" x2="47.1" y2="34.5"/>
<line class="st1" x1="71.3" y1="105.7" x2="37" y2="105.7"/>
<polyline class="st1" points="68.8,101 68.2,98.8 68.1,41.6 68.1,39.2 54.1,39.2 "/>
<line class="st1" x1="71.3" y1="105.7" x2="72.1" y2="107"/>
<line class="st1" x1="37" y1="105.7" x2="36.2" y2="107"/>
<polyline class="st1" points="68.4,99.1 70.5,99.1 73,103.6 72.1,107 "/>
<line class="st4" x1="49.1" y1="37.2" x2="49.1" y2="34.5"/>
<line class="st4" x1="64" y1="37.2" x2="64" y2="34.5"/>
<line class="st0" x1="56.8" y1="31.6" x2="56.8" y2="22.9"/>
<path class="st0" d="M53.3,25.2c1,0.3,2.4,0.5,3.5,0.5 M60.2,25.2c-1,0.3-2.4,0.5-3.5,0.5"/>
<polyline class="st1" points="52.7,30.3 51.7,28.1 52.4,22.4 53.3,21.4 56.8,21.2 "/>
<polyline class="st1" points="60.8,30.3 61.8,28.1 61.2,22.4 60.2,21.4 56.8,21.2 "/>
<path class="st0" d="M42.8,99.2c2,0.4,4.5,0.6,6.6,0.6 M56.1,99.2c-2,0.4-4.5,0.6-6.6,0.6"/>
<path class="st1" d="M68.2,93.6c-2.7-0.1-6.9-0.1-13.3,1.6c-0.9,0.2-3.8,0.9-6.8,0.9c-3.1,0-6.4-0.5-8.2-1"/>
<path class="st2" d="M51.3,34.5c1.6,0.6,3.7,0.8,5.5,0.8 M62.3,34.5c-1.6,0.6-3.7,0.8-5.5,0.8"/>
<polyline class="st2" points="87.5,43.4 87.4,41 85.5,41 "/>
<polyline class="st2" points="86.9,41 86.7,38.7 85.5,38.7 "/>
<polyline class="st2" points="86.4,38.7 86.2,36.4 85.5,36.4 "/>
<polyline class="st2" points="92.9,105.5 90.4,103 89.8,85.2 88.5,83.5 88.1,43.4 85.5,43.4 "/>
</svg>
