<?xml version="1.0" encoding="utf-8"?>
<!-- Generator: Adobe Illustrator 23.0.1, SVG Export Plug-In . SVG Version: 6.00 Build 0)  -->
<svg version="1.1" id="Слой_1" xmlns="http://www.w3.org/2000/svg" xmlns:xlink="http://www.w3.org/1999/xlink" x="0px" y="0px"
	 viewBox="0 0 128.2 128.2" style="enable-background:new 0 0 128.2 128.2;" xml:space="preserve">
<style type="text/css">
	
		.st0{fill-rule:evenodd;clip-rule:evenodd;fill:none;stroke:#616262;stroke-width:0.7498;stroke-linecap:round;stroke-linejoin:round;stroke-miterlimit:22.9256;}
	
		.st1{fill-rule:evenodd;clip-rule:evenodd;fill:none;stroke:#000003;stroke-width:1.4998;stroke-linecap:round;stroke-linejoin:round;stroke-miterlimit:22.9256;}
	
		.st2{fill-rule:evenodd;clip-rule:evenodd;fill:none;stroke:#1A1A18;stroke-width:1.4998;stroke-linecap:round;stroke-linejoin:round;stroke-miterlimit:22.9256;}
</style>
<line class="st0" x1="89" y1="41.8" x2="69.5" y2="41.8"/>
<path class="st1" d="M71.7,109.1c0,1.3,3.4,2.3,7.5,2.3c4.2,0,7.5-1,7.5-2.3"/>
<path class="st1" d="M85.1,87.7c0,0.4-2.6,0.7-5.9,0.7c-3.2,0-5.9-0.3-5.9-0.7"/>
<polyline class="st1" points="85.1,87.7 87.5,56.6 88.8,42.8 89.2,38.9 79.3,38.9 "/>
<line class="st1" x1="83" y1="91.2" x2="85.1" y2="87.7"/>
<path class="st1" d="M83,91.2c-0.2,6.8,0.7,14.7,3.3,16.9c0,0,0.5,0.4,0.5,1.1"/>
<path class="st1" d="M75.4,91.2c0,0.3,1.7,0.5,3.8,0.5c2.1,0,3.8-0.2,3.8-0.5"/>
<polyline class="st1" points="73.4,87.7 70.9,56.6 69.6,42.8 69.2,38.9 79.1,38.9 "/>
<line class="st1" x1="75.4" y1="91.2" x2="73.4" y2="87.7"/>
<path class="st1" d="M75.4,91c0.2,6.8-0.7,14.7-3.3,16.9c0,0-0.5,0.4-0.5,1.1"/>
<path class="st2" d="M39,109.1c0,0.7,3.3,1.3,7.3,1.3c4,0,7.3-0.6,7.3-1.3"/>
<path class="st2" d="M39,47.1v-4c0-2.1,1.1-4,2.9-4.7c0.9-0.4,1.8-0.5,2-1.8"/>
<path class="st2" d="M47.6,31.8c0.7,0.4,1.3,1.2,1.3,2.1v2.7 M43.9,36.7V34c0-0.9,0.5-1.7,1.2-2.1"/>
<path class="st2" d="M53.7,47.1v-4c0-2.1-1.1-4-2.9-4.7c-0.9-0.4-1.8-0.5-2-1.8"/>
<g>
	<path class="st0" d="M40.6,41.8c0,1.3,0,2.5,0,3.8"/>
	<path class="st0" d="M42.3,41.8c0,1.3,0,2.5,0,3.8"/>
	<path class="st0" d="M43.9,41.8c0,1.3,0,2.5,0,3.8"/>
	<path class="st0" d="M45.5,41.8c0,1.3,0,2.5,0,3.8"/>
	<path class="st0" d="M47.2,41.8c0,1.3,0,2.5,0,3.8"/>
	<path class="st0" d="M48.8,41.8c0,1.3,0,2.5,0,3.8"/>
	<path class="st0" d="M50.4,41.8c0,1.3,0,2.5,0,3.8"/>
	<path class="st0" d="M52,41.8c0,1.3,0,2.5,0,3.8"/>
</g>
<line class="st0" x1="47.6" y1="24.4" x2="44.9" y2="24.4"/>
<line class="st0" x1="47.6" y1="22.7" x2="44.9" y2="22.7"/>
<line class="st0" x1="47.8" y1="27.9" x2="45.1" y2="27.9"/>
<path class="st0" d="M53.7,50.7c0,0.2-3.3,0.4-7.3,0.4c-4,0-7.3-0.2-7.3-0.4"/>
<path class="st1" d="M53.7,47.1c0,0.2-3.3,0.3-7.3,0.3c-4,0-7.3-0.1-7.3-0.3"/>
<path class="st2" d="M39,50.7v-3.6 M53.7,47.1v3.6"/>
<polyline class="st2" points="44.9,32 44.9,26.3 47.8,26.3 47.8,32 "/>
<path class="st2" d="M46.3,26.3h-2l0.8-8.8c0-0.4,0.8-0.8,1.2-0.8"/>
<path class="st2" d="M46.3,26.3h2l-0.8-8.8c0-0.4-0.8-0.8-1.2-0.8"/>
<path class="st0" d="M53.7,107c0,0.5-3.3,1-7.3,1c-4,0-7.3-0.4-7.3-1"/>
<path class="st2" d="M39,109.1V50.7 M53.7,50.7v58.4"/>
<polyline class="st2" points="53.5,41.8 57.1,43.4 58.7,45.2 59.3,62.6 57.4,62.6 55.7,48 53.7,47.1 "/>
</svg>
