<?xml version="1.0" encoding="utf-8"?>
<!-- Generator: Adobe Illustrator 23.0.1, SVG Export Plug-In . SVG Version: 6.00 Build 0)  -->
<svg version="1.1" id="Слой_1" xmlns="http://www.w3.org/2000/svg" xmlns:xlink="http://www.w3.org/1999/xlink" x="0px" y="0px"
	 viewBox="0 0 128.2 128.2" style="enable-background:new 0 0 128.2 128.2;" xml:space="preserve">
<style type="text/css">
	.st0{fill-rule:evenodd;clip-rule:evenodd;fill:#538DCA;}
	
		.st1{fill-rule:evenodd;clip-rule:evenodd;fill:none;stroke:#000003;stroke-width:1.4998;stroke-linecap:round;stroke-linejoin:round;stroke-miterlimit:22.9256;}
</style>
<path class="st0" d="M41.7,62.6l22.4-10.1l22.4,10.1L85,43.9c-0.1-1.3-1.1-2.4-2.4-2.4h-2.9H64.1H48.6h-3c-1.3,0-2.3,1.1-2.4,2.4
	L41.7,62.6z"/>
<polyline class="st1" points="86.8,97.4 96.9,67.3 64.1,52.5 64.1,80 "/>
<polyline class="st1" points="41.5,97.4 31.3,67.3 64.1,52.5 64.1,80 "/>
<line class="st1" x1="94.8" y1="73.6" x2="64.1" y2="59.8"/>
<line class="st1" x1="33.4" y1="73.6" x2="64.1" y2="59.8"/>
<path class="st1" d="M41.7,62.6l1.4-18.7c0.1-1.3,1.1-2.4,2.4-2.4h18.5"/>
<path class="st1" d="M86.5,62.6L85,43.9c-0.1-1.3-1.1-2.4-2.4-2.4H64.1"/>
<path class="st1" d="M48.6,41.5l0.5-7.4c0.1-1.1,0.8-1.9,1.7-1.9h13.3"/>
<path class="st1" d="M79.7,41.5l-0.5-7.4c-0.1-1.1-0.8-1.9-1.7-1.9H64.2"/>
<line class="st1" x1="64.2" y1="27.6" x2="64.2" y2="32.1"/>
<line class="st1" x1="49.7" y1="49.2" x2="54.3" y2="49.2"/>
<line class="st1" x1="73.5" y1="49.2" x2="78" y2="49.2"/>
<line class="st1" x1="55.4" y1="36.5" x2="72.9" y2="36.5"/>
<path class="st1" d="M33,100.6c2.9,0,5.6-1,7.8-2.7"/>
<path class="st1" d="M40.8,97.9c2.1-1.7,4.8-2.7,7.8-2.7c2.9,0,5.6,1,7.8,2.7"/>
<path class="st1" d="M56.3,97.9c2.1,1.7,4.8,2.7,7.8,2.7s5.6-1,7.8-2.7"/>
<path class="st1" d="M71.9,97.9c2.1-1.7,4.8-2.7,7.8-2.7s5.6,1,7.8,2.7"/>
<path class="st1" d="M87.4,97.9c2.1,1.7,4.8,2.7,7.8,2.7"/>
</svg>
