<?xml version="1.0" encoding="utf-8"?>
<!-- Generator: Adobe Illustrator 23.0.1, SVG Export Plug-In . SVG Version: 6.00 Build 0)  -->
<svg version="1.1" id="Слой_1" xmlns="http://www.w3.org/2000/svg" xmlns:xlink="http://www.w3.org/1999/xlink" x="0px" y="0px"
	 viewBox="0 0 128.2 128.2" style="enable-background:new 0 0 128.2 128.2;" xml:space="preserve">
<style type="text/css">
	
		.st0{fill-rule:evenodd;clip-rule:evenodd;fill:none;stroke:#1A1A18;stroke-width:1.4998;stroke-linecap:round;stroke-linejoin:round;stroke-miterlimit:22.9256;}
	
		.st1{fill-rule:evenodd;clip-rule:evenodd;fill:none;stroke:#616262;stroke-width:0.7498;stroke-linecap:round;stroke-linejoin:round;stroke-miterlimit:22.9256;}
</style>
<g>
	<path class="st0" d="M34.7,66.7L34,65.6l0.1-37.8l0.8-1.6h10.8 M45.8,66.7l-11.2,0"/>
	<path class="st1" d="M40.6,18.2v-6.7l1.1-0.4h4.1 M50.9,18.2v-6.7l-1.1-0.4h-4.1"/>
	<path class="st0" d="M36.9,112.3l0.6-1.2V75.2 M44.3,75.7v35.4l0.2,1.2"/>
	<line class="st0" x1="45.8" y1="68" x2="45.8" y2="70.7"/>
	<polyline class="st0" points="36.1,26.2 36.1,24.3 36.1,24.3 36.1,24.2 55.5,24.2 55.5,24.3 55.5,26.2 	"/>
	<polyline class="st0" points="36.1,66.9 36.1,70.7 35.7,71.4 	"/>
	<line class="st0" x1="45.8" y1="24.2" x2="45.8" y2="26.2"/>
	<path class="st1" d="M43.8,13.9h4c0.4,0,0.7,0.3,0.7,0.7v0.8c0,0.4-0.3,0.7-0.7,0.7h-4c-0.4,0-0.7-0.3-0.7-0.7v-0.8
		C43.1,14.2,43.4,13.9,43.8,13.9z"/>
	<line class="st1" x1="53.1" y1="32.2" x2="38.3" y2="32.2"/>
	<path class="st0" d="M59.5,73.4c0,1-6.1,1.9-13.7,1.9c-7.5,0-13.7-0.8-13.7-1.9"/>
	<path class="st0" d="M56.9,66.7l0.6-1.1l-0.1-37.8l-0.8-1.6H45.8 M45.8,66.7l11.2,0"/>
	<path class="st0" d="M57.1,115.3c0,1-5,1.8-11.2,1.8c-6.2,0-11.2-0.8-11.2-1.8"/>
	<path class="st0" d="M54.6,112.3l-0.5-1.1l0-36 M47.3,75.7v35.4l-0.2,1.2"/>
	<polyline class="st0" points="55.5,66.9 55.5,70.7 56,71.4 	"/>
	<path class="st1" d="M59.5,71.3c0,1-6.1,1.9-13.7,1.9s-13.7-0.8-13.7-1.9"/>
	<path class="st0" d="M59.5,71.5l0,2.2 M55.6,70c2.4,0.3,3.9,0.8,3.9,1.3 M32.2,71.5l0,2.2 M32.2,71.3c0-0.5,1.5-1,3.8-1.3"/>
	<path class="st1" d="M57.1,113.4c0,1-5,1.8-11.2,1.8c-6.2,0-11.2-0.8-11.2-1.8"/>
	<path class="st0" d="M54.6,112.3c1.6,0.3,2.5,0.7,2.5,1.1 M34.6,113.4v1.9 M57.1,113.4v1.9 M34.6,113.4c0-0.4,0.9-0.8,2.4-1.1"/>
	<polyline class="st0" points="36.1,24.2 36.1,23.9 37.2,22.8 39.5,18.3 42.8,18.2 42.8,20 41,20.5 41,22.1 45.8,22.1 	"/>
	<polyline class="st0" points="55.5,24.3 55.5,24 54.4,22.9 52,18.3 48.7,18.3 48.7,20.1 50.5,20.6 50.5,22.1 45.8,22.1 	"/>
	<polyline class="st0" points="44.7,111.4 46,111.3 47,111.4 	"/>
	<line class="st1" x1="42.7" y1="70.8" x2="39" y2="70.8"/>
	<line class="st1" x1="52.2" y1="70.8" x2="48.6" y2="70.8"/>
	<path class="st0" d="M71.2,94.9l-0.6-1.1L70.7,56l0.8-1.6h10.8 M82.4,94.9l-11.2,0"/>
	<path class="st1" d="M77.2,46.5v-6.7l1.1-0.4h4.1 M87.5,46.5v-6.7l-1.1-0.4h-4.1"/>
	<path class="st0" d="M73.5,112.3l0.6-0.3v-8.5 M80.8,103.7v8.4l0.2,0.3"/>
	<line class="st0" x1="82.4" y1="96.2" x2="82.4" y2="99"/>
	<polyline class="st0" points="72.6,54.4 72.6,52.6 72.6,52.5 72.6,52.4 92.1,52.4 92.1,52.6 92.1,54.4 	"/>
	<polyline class="st0" points="72.7,95.2 72.7,98.9 72.3,99.6 	"/>
	<line class="st0" x1="82.4" y1="52.4" x2="82.4" y2="54.4"/>
	<path class="st1" d="M80.3,42.1h4c0.4,0,0.7,0.3,0.7,0.7v0.8c0,0.4-0.3,0.7-0.7,0.7h-4c-0.4,0-0.7-0.3-0.7-0.7v-0.8
		C79.6,42.4,79.9,42.1,80.3,42.1z"/>
	<line class="st1" x1="89.7" y1="60.4" x2="74.8" y2="60.4"/>
	<path class="st0" d="M96,101.7c0,1-6.1,1.9-13.7,1.9c-7.5,0-13.7-0.8-13.7-1.9"/>
	<path class="st0" d="M93.5,94.9l0.6-1.1L94.1,56l-0.8-1.6H82.4 M82.3,94.9l11.2,0"/>
	<path class="st0" d="M93.6,115.3c0,1-5,1.8-11.2,1.8c-6.2,0-11.2-0.8-11.2-1.8"/>
	<path class="st0" d="M91.1,112.3l-0.5-0.3l0-8.5 M83.9,103.7v8.4l-0.2,0.3"/>
	<polyline class="st0" points="92.1,95.2 92.1,98.9 92.5,99.6 	"/>
	<path class="st1" d="M96.1,99.6c0,1-6.1,1.9-13.7,1.9c-7.5,0-13.7-0.8-13.7-1.9"/>
	<path class="st0" d="M96.1,99.8l0,2.2 M92.1,98.2c2.4,0.3,3.9,0.8,3.9,1.3 M68.7,99.8l0,2.2 M68.7,99.6c0-0.5,1.5-1,3.8-1.3"/>
	<path class="st1" d="M93.6,113.4c0,1-5,1.8-11.2,1.8c-6.2,0-11.2-0.8-11.2-1.8"/>
	<path class="st0" d="M91.1,112.3c1.6,0.3,2.5,0.7,2.5,1.1 M71.2,113.4v1.9 M93.6,113.4v1.9 M71.2,113.4c0-0.4,0.9-0.8,2.4-1.1"/>
	<polyline class="st0" points="72.6,52.4 72.6,52.1 73.8,51.1 76.1,46.5 79.4,46.5 79.4,48.3 77.6,48.7 77.6,50.3 82.4,50.3 	"/>
	<polyline class="st0" points="92.1,52.5 92.1,52.2 90.9,51.1 88.6,46.6 85.3,46.6 85.3,48.4 87.1,48.8 87.1,50.4 82.4,50.3 	"/>
	<polyline class="st0" points="81.3,111.4 82.6,111.3 83.6,111.4 	"/>
	<line class="st1" x1="79.2" y1="99" x2="75.6" y2="99"/>
	<line class="st1" x1="88.8" y1="99" x2="85.2" y2="99"/>
</g>
</svg>
