<?xml version="1.0" encoding="utf-8"?>
<!-- Generator: Adobe Illustrator 23.0.1, SVG Export Plug-In . SVG Version: 6.00 Build 0)  -->
<svg version="1.1" id="Слой_1" xmlns="http://www.w3.org/2000/svg" xmlns:xlink="http://www.w3.org/1999/xlink" x="0px" y="0px"
	 viewBox="0 0 128.2 128.2" style="enable-background:new 0 0 128.2 128.2;" xml:space="preserve">
<style type="text/css">
	.st0{fill-rule:evenodd;clip-rule:evenodd;fill:#538DCA;}
	
		.st1{fill-rule:evenodd;clip-rule:evenodd;fill:none;stroke:#000003;stroke-width:0.7498;stroke-linecap:round;stroke-linejoin:round;stroke-miterlimit:22.9256;}
	
		.st2{fill-rule:evenodd;clip-rule:evenodd;fill:none;stroke:#000003;stroke-width:0.7498;stroke-linecap:round;stroke-miterlimit:22.9256;}
	
		.st3{fill-rule:evenodd;clip-rule:evenodd;fill:none;stroke:#000003;stroke-width:1.4998;stroke-linecap:round;stroke-linejoin:round;stroke-miterlimit:22.9256;}
</style>
<path class="st0" d="M83.6,51.2c0,0.2-2.9,0.4-6.5,0.4c-3.6,0-6.5-0.2-6.5-0.4v36.9c0,0.5,2.9,1,6.5,1c3.6,0,6.5-0.4,6.5-1V51.2z"/>
<path class="st0" d="M53.8,89V68.1c0,0.3-10.2,0.3-10.2,0V89l0,0.1c0.3,0.3,2.5,0.5,5,0.5C51.3,89.5,53.4,89.3,53.8,89L53.8,89z"/>
<path class="st1" d="M83.6,51.2c0,0.2-2.9,0.4-6.5,0.4c-3.6,0-6.5-0.2-6.5-0.4"/>
<path class="st1" d="M83.6,88.1c0,0.5-2.9,1-6.5,1c-3.6,0-6.5-0.4-6.5-1"/>
<path class="st1" d="M85.5,104.4c0,1.3-3.8,2.3-8.4,2.3c-4.6,0-8.4-1-8.4-2.3"/>
<path class="st2" d="M52.4,55.8c0,3.4-1.7,6.1-3.7,6.1c-2.1,0-3.7-2.7-3.7-6.1"/>
<path class="st1" d="M54.8,104.4c0,0.8-2.8,1.4-6.2,1.4c-3.4,0-6.2-0.6-6.2-1.4"/>
<path class="st1" d="M53.8,68.1c0,0.3-10.2,0.3-10.2,0"/>
<line class="st3" x1="73.6" y1="37.6" x2="70.6" y2="39.4"/>
<path class="st3" d="M70.6,96.9V39.4 M83.6,39.4v57.5"/>
<path class="st3" d="M70.3,96.7c0.1,2.8-0.3,7.1-2.2,8.4c0,0-0.4,0.4-0.4,0.5"/>
<path class="st3" d="M80.6,31.8v5.8 M73.6,37.6v-5.8"/>
<path class="st3" d="M86.5,105.5c0,1.6-4.2,2.9-9.4,2.9c-5.2,0-9.4-1.3-9.4-2.9"/>
<path class="st3" d="M83.9,96.7c-0.1,2.8,0.3,7.1,2.2,8.4c0,0,0.4,0.4,0.4,0.5"/>
<path class="st3" d="M83.9,96.7c0,0.8-3,1.5-6.8,1.5s-6.8-0.7-6.8-1.5"/>
<path class="st3" d="M83.6,39.4c0,0.3-2.9,0.6-6.5,0.6c-3.6,0-6.5-0.3-6.5-0.6"/>
<line class="st3" x1="80.6" y1="37.6" x2="83.6" y2="39.4"/>
<path class="st3" d="M80.6,37.6c0,0.1-1.6,0.2-3.5,0.2c-1.9,0-3.5-0.1-3.5-0.2"/>
<path class="st3" d="M80.6,31.8c0,0.1-1.6,0.1-3.5,0.1c-1.9,0-3.5,0-3.5-0.1"/>
<line class="st1" x1="74.8" y1="33.4" x2="74.8" y2="36.5"/>
<g>
	<path class="st1" d="M76,33.4c0,1,0,2,0,3.1"/>
	<path class="st1" d="M77.1,33.4c0,1,0,2,0,3.1"/>
	<path class="st1" d="M78.2,33.4c0,1,0,2,0,3.1"/>
</g>
<line class="st1" x1="79.4" y1="33.4" x2="79.3" y2="36.5"/>
<path class="st3" d="M45.8,95.8c0,0.3,1.3,0.5,2.9,0.5c1.6,0,2.9-0.2,2.9-0.5"/>
<path class="st3" d="M45.8,96.7c-0.1,3-1.3,6.4-3.7,7.9c0,0-0.4,0.3-0.4,0.8"/>
<path class="st3" d="M51.6,95.8c0.3-1,0.2-2.8,0-3.4 M45.8,95.8c-0.3-1-0.2-2.8,0-3.4"/>
<polyline class="st3" points="43.6,89 43.6,67.4 44,60.4 45,55.8 48.7,55.8 "/>
<path class="st3" d="M41.7,105.4c0,0.9,3.1,1.6,7,1.6c3.9,0,7-0.7,7-1.6"/>
<line class="st3" x1="45.8" y1="92.4" x2="43.6" y2="89"/>
<path class="st3" d="M53.8,89c0,0.3-2.3,0.5-5.1,0.5c-2.8,0-5.1-0.2-5.1-0.5"/>
<polyline class="st3" points="53.8,89 53.8,67.4 53.4,60.4 52.4,55.8 48.7,55.8 "/>
<line class="st3" x1="51.6" y1="92.4" x2="53.8" y2="89"/>
<path class="st3" d="M51.5,96.8c0.1,3,1.3,6.4,3.7,7.9c0,0,0.4,0.3,0.4,0.8"/>
<path class="st3" d="M45.8,92.4c0,0.2,1.3,0.3,2.9,0.3c1.6,0,2.9-0.2,2.9-0.3"/>
<line class="st1" x1="77.1" y1="19.8" x2="77.1" y2="28.4"/>
<path class="st3" d="M77.1,19.8c-0.9,0.1-2.5,0.5-2.6,2.1l-0.8,9.9"/>
<path class="st3" d="M77.1,19.8c0.9,0.1,2.5,0.5,2.6,2.1l0.8,9.9"/>
</svg>
