<?xml version="1.0" encoding="utf-8"?>
<!-- Generator: Adobe Illustrator 23.0.1, SVG Export Plug-In . SVG Version: 6.00 Build 0)  -->
<svg version="1.1" id="Слой_1" xmlns="http://www.w3.org/2000/svg" xmlns:xlink="http://www.w3.org/1999/xlink" x="0px" y="0px"
	 viewBox="0 0 128.2 128.2" style="enable-background:new 0 0 128.2 128.2;" xml:space="preserve">
<style type="text/css">
	
		.st0{fill-rule:evenodd;clip-rule:evenodd;fill:none;stroke:#616262;stroke-width:0.7498;stroke-linecap:round;stroke-linejoin:round;stroke-miterlimit:22.9256;}
	
		.st1{fill-rule:evenodd;clip-rule:evenodd;fill:none;stroke:#000003;stroke-width:1.4998;stroke-linejoin:round;stroke-miterlimit:22.9256;}
	
		.st2{fill-rule:evenodd;clip-rule:evenodd;fill:none;stroke:#000003;stroke-width:1.4998;stroke-linecap:round;stroke-linejoin:round;stroke-miterlimit:22.9256;}
</style>
<path class="st0" d="M92.7,73.9c0,0.2-5.1,0.4-11.4,0.4c-6.3,0-11.4-0.2-11.4-0.4"/>
<path class="st0" d="M51.9,42.4h-20 M48.8,73.9v-20 M51.9,105.6c-1.7,1-18.5,1-20,0"/>
<path class="st1" d="M41.9,108.7c5.9,0,10.9-0.5,12.5-1.1c0.4-0.1,0.6-0.3,0.6-0.5v-1.5l-0.8-0.8l0-62.5l0.8-0.8v-1.5h-1.5H41.9
	H30.3h-1.5v1.5l0.8,0.8l0,62.5l-0.8,0.8v1.5c0,0.2,0.3,0.4,0.8,0.5C31.3,108.3,36.2,108.7,41.9,108.7z"/>
<path class="st2" d="M41.9,18.5c5.9,0,9.5,0.1,11.1,0.3c1.2,1.4,0,0,1.2,1.4l0,19.1l0.8,0.2l0,0.5l-1,0l-0.5,0h0l-4.7,0h0l-6.8,0
	l-11.6,0l-1.5,0l0-0.5l0.8-0.2l0-19.1c0.6-0.7,0,0,1.2-1.4C32.6,18.6,36.2,18.5,41.9,18.5z"/>
<path class="st2" d="M92.7,71.5v2.5 M69.8,73.9v-2.5"/>
<path class="st2" d="M99.5,106.9c0,1.6-8.1,2.8-18.2,2.8c-10.1,0-18.2-1.3-18.2-2.8"/>
<polyline class="st2" points="67.6,70.5 67.6,69.1 68.7,67.8 68.7,61.1 "/>
<line class="st0" x1="72.4" y1="62.8" x2="72.3" y2="68.7"/>
<g>
	<path class="st0" d="M76.7,62.8c0,2,0,3.9,0,5.9"/>
	<path class="st0" d="M81.1,62.8c0,2,0,3.9,0,5.9"/>
	<path class="st0" d="M85.5,62.8c0,2,0,3.9,0,5.9"/>
</g>
<line class="st0" x1="89.9" y1="62.8" x2="89.9" y2="68.7"/>
<path class="st0" d="M99.5,78.8c0,0.7-8.1,1.2-18.2,1.2c-10.1,0-18.2-0.5-18.2-1.2"/>
<path class="st0" d="M99.5,103.6c0,1.5-8.1,2.7-18.2,2.7c-10.1,0-18.2-1.2-18.2-2.7"/>
<path class="st2" d="M63.1,106.9l0-3.8V80.4c0-4.7,4.6-6.4,6.8-6.5"/>
<path class="st2" d="M99.5,106.9l0-3.8V80.4c0-4.7-4.6-6.4-6.8-6.5"/>
<path class="st2" d="M94.9,70.5c0,0.2-6.1,0.4-13.7,0.4c-7.6,0-13.7-0.2-13.7-0.4"/>
<path class="st2" d="M93.9,61.1c0-0.1-5.6-0.3-12.6-0.3c-7,0-12.6,0.1-12.6,0.3"/>
<polyline class="st2" points="94.9,70.5 94.9,69.1 93.9,67.8 93.9,61.1 "/>
</svg>
