<?xml version="1.0" encoding="utf-8"?>
<!-- Generator: Adobe Illustrator 19.0.0, SVG Export Plug-In . SVG Version: 6.00 Build 0)  -->
<svg version="1.1" id="Слой_1" xmlns="http://www.w3.org/2000/svg" xmlns:xlink="http://www.w3.org/1999/xlink" x="0px" y="0px"
	 viewBox="-1.5 -1 128.2 128.2" style="enable-background:new -1.5 -1 128.2 128.2;" xml:space="preserve">
<style type="text/css">
	.st0{fill-rule:evenodd;clip-rule:evenodd;fill:#538DCA;}
	
		.st1{fill-rule:evenodd;clip-rule:evenodd;fill:none;stroke:#000003;stroke-width:1.4998;stroke-linecap:round;stroke-linejoin:round;stroke-miterlimit:22.9256;}
	.st2{fill-rule:evenodd;clip-rule:evenodd;fill:none;stroke:#000003;stroke-width:0.7498;stroke-miterlimit:22.9256;}
	
		.st3{fill-rule:evenodd;clip-rule:evenodd;fill:none;stroke:#000003;stroke-width:0.7498;stroke-linecap:round;stroke-linejoin:round;stroke-miterlimit:22.9256;}
	.st4{fill-rule:evenodd;clip-rule:evenodd;fill:#FFFFFF;}
	
		.st5{fill-rule:evenodd;clip-rule:evenodd;fill:none;stroke:#000003;stroke-width:1.4995;stroke-linecap:round;stroke-linejoin:round;stroke-miterlimit:22.9256;}
	
		.st6{fill-rule:evenodd;clip-rule:evenodd;fill:none;stroke:#000003;stroke-width:0.7495;stroke-linecap:round;stroke-linejoin:round;stroke-miterlimit:22.9256;}
	
		.st7{fill-rule:evenodd;clip-rule:evenodd;fill:none;stroke:#000003;stroke-width:1.7529;stroke-linecap:round;stroke-miterlimit:22.9256;}
	
		.st8{fill-rule:evenodd;clip-rule:evenodd;fill:none;stroke:#000003;stroke-width:0.9652;stroke-linecap:round;stroke-linejoin:round;stroke-miterlimit:22.9256;}
	
		.st9{fill-rule:evenodd;clip-rule:evenodd;fill:none;stroke:#000003;stroke-width:1.0658;stroke-linecap:round;stroke-linejoin:round;stroke-miterlimit:22.9256;}
</style>
<g>
	<path class="st0" d="M85.8,25.8c0.4-0.4-0.1-1.5-1.1-2.7c-0.3-0.3-0.5-0.6-0.8-0.9c-1.5-1.5-3.2-2.4-3.7-1.9L66,34.4
		c-0.6,0.6,0.2,2.3,1.7,3.9s3.3,2.3,3.9,1.7l1.5-1.5L85.8,25.8z"/>
	<path class="st1" d="M62.8,31L33,60.9c-3.3,3.3-1.5,10.3,3.9,15.7c5.4,5.4,12.4,7.1,15.7,3.9l10.6-10.6 M83.1,48.1
		c0.1,1.1-0.1,2-0.7,2.5c-1,0.8-2.8,0.8-5.3-0.4c-2.6-1.2-5.5-3.3-8-5.8c-2.5-2.5-4.7-5.4-5.9-8C62,33.8,62,32,62.8,31
		c0.5-0.6,1.4-0.9,2.5-0.7"/>
	<path class="st2" d="M74.8,40.3c-0.3-0.2-0.6-0.5-0.9-0.8c-0.3-0.3-0.6-0.7-0.9-1 M92.1,21.3c1.5,1.5,2.5,3.1,2.1,3.5
		c-0.4,0.4-2-0.5-3.5-2.1c-1.5-1.5-2.5-3.1-2.1-3.5C89,18.8,90.6,19.7,92.1,21.3L92.1,21.3z M88.6,19.2l-3.9,3.9 M94.2,24.8l-8,8"/>
	<path class="st2" d="M89.1,37.3L79,47.4c-0.6,0.6-2.3-0.2-3.9-1.7c-1.5-1.5-2.3-3.3-1.7-3.9l10.1-10.1 M87.2,33.6
		c1.5,1.5,2.4,3.2,1.9,3.7c-0.5,0.5-2.1-0.4-3.7-1.9c-1.5-1.5-2.4-3.2-1.9-3.7C84,31.2,85.7,32,87.2,33.6z"/>
	<path class="st3" d="M85.8,25.8L71.6,40c-0.6,0.6-2.3-0.2-3.9-1.7S65.4,35,66,34.4l14.2-14.2 M83.8,22.2c-1.5-1.5-3.2-2.4-3.7-1.9
		c-0.5,0.5,0.4,2.1,1.9,3.7c1.5,1.5,3.2,2.4,3.7,1.9C86.3,25.4,85.4,23.7,83.8,22.2z"/>
	<g>
		<path class="st4" d="M61.7,56.1L31.8,85.9c-3.3,3.3-1.5,10.3,3.9,15.7c5.4,5.4,12.4,7.1,15.7,3.9c9.7-9.7,21.6-21.6,29.1-29.1
			C74.2,77.2,58.9,63.3,61.7,56.1z"/>
		<polygon class="st0" points="79.7,42.5 81.8,42.6 84.8,44.6 89,48.3 92.7,52.5 94.7,55.6 94.6,57.4 78.7,73.3 74.2,71.5 
			69.7,67.7 65.9,63.3 63.8,58.5 		"/>
		<path class="st5" d="M61.7,56.1L31.8,85.9c-3.3,3.3-1.5,10.3,3.9,15.7c5.4,5.4,12.4,7.1,15.7,3.9l29.9-29.9"/>
		<path class="st6" d="M69.4,78.1l-18,18 M64.2,77.6l-7.8,7.8"/>
		<path class="st7" d="M82,73.1c0.1,1.1-0.1,2-0.7,2.5c-1,0.8-2.8,0.8-5.3-0.4c-2.6-1.2-5.5-3.3-8-5.8c-2.5-2.5-4.7-5.4-5.9-8
			c-1.2-2.5-1.2-4.4-0.4-5.3c0.5-0.6,1.4-0.9,2.5-0.7"/>
		<g>
			<path class="st8" d="M79.4,73c-0.7,0.8-2.8,0.3-5.7-1.8c-4.2-3-8.4-7.9-9.5-11.1c-0.3-1-0.3-1.7,0.1-2.1"/>
			<line class="st6" x1="80.4" y1="44.6" x2="64.4" y2="60.6"/>
			<line class="st3" x1="81.6" y1="46.5" x2="65.7" y2="62.4"/>
			<line class="st6" x1="83.4" y1="48.9" x2="67.3" y2="65.1"/>
			<line class="st3" x1="86" y1="52.2" x2="70.1" y2="68.1"/>
			<line class="st3" x1="89.8" y1="55.1" x2="73.7" y2="71.2"/>
			<line class="st3" x1="92.4" y1="56.8" x2="76.4" y2="72.8"/>
			<line class="st3" x1="79.7" y1="42.5" x2="64.2" y2="58"/>
			<line class="st3" x1="95.1" y1="57.3" x2="79.4" y2="73"/>
			<path class="st9" d="M85,44.8c4,3.2,8.4,8,9.7,10.8c1.3,2.8-0.8,2.5-4.8-0.7c-4-3.2-8.4-8-9.7-10.8C78.8,41.3,81,41.6,85,44.8z"
				/>
		</g>
	</g>
</g>
</svg>
