<?xml version="1.0" encoding="utf-8"?>
<!-- Generator: Adobe Illustrator 19.0.0, SVG Export Plug-In . SVG Version: 6.00 Build 0)  -->
<svg version="1.1" id="Слой_1" xmlns="http://www.w3.org/2000/svg" xmlns:xlink="http://www.w3.org/1999/xlink" x="0px" y="0px"
	 viewBox="0 0 128.2 128.2" style="enable-background:new 0 0 128.2 128.2;" xml:space="preserve">
<style type="text/css">
	
		.st0{fill-rule:evenodd;clip-rule:evenodd;fill:none;stroke:#010005;stroke-width:1.4998;stroke-linecap:round;stroke-linejoin:round;stroke-miterlimit:22.9256;}
	
		.st1{fill-rule:evenodd;clip-rule:evenodd;fill:none;stroke:#626262;stroke-width:0.7498;stroke-linecap:round;stroke-linejoin:round;stroke-miterlimit:22.9256;}
	.st2{fill-rule:evenodd;clip-rule:evenodd;fill:none;stroke:#626262;stroke-width:0.7498;stroke-miterlimit:22.9256;}
	.st3{fill-rule:evenodd;clip-rule:evenodd;fill:#FFFFFF;}
	
		.st4{fill-rule:evenodd;clip-rule:evenodd;fill:#FFFFFF;stroke:#626262;stroke-width:0.75;stroke-linecap:round;stroke-linejoin:round;stroke-miterlimit:22.9256;}
</style>
<g>
	<path class="st0" d="M63.2,50.1v42.2c0,4.6,6.2,8.4,13.8,8.4s13.8-3.7,13.8-8.4V50.1 M89.6,47.8c0.9,0.7,1.3,1.5,1.3,2.3
		c-0.1,1.3-1.4,2.5-4,3.5c-2.7,1-6.2,1.5-9.8,1.5c-3.5,0-7.1-0.5-9.8-1.5c-2.6-1-4-2.2-4-3.5c-0.1-0.8,0.4-1.6,1.3-2.3"/>
	<path class="st1" d="M84.3,60.2v25.4 M80.2,63.5v11"/>
	<path class="st2" d="M78.2,48.2c-0.4,0-0.8,0.1-1.2,0.1c-0.5,0-0.9,0-1.3-0.1 M77,22.5c2.2,0,4,0.5,4,1c0,0.6-1.8,1-4,1
		c-2.2,0-4-0.5-4-1C73,22.9,74.8,22.5,77,22.5L77,22.5z M73,23.5V29 M81,23.5v11.4"/>
	<path class="st2" d="M86.2,35.9l0,14.3c0,0.9-1.8,1.5-4,1.5c-2.2,0-4-0.7-4-1.5l0-14.3 M82.2,34.7c2.2,0,4,0.6,4,1.2
		s-1.8,1.2-4,1.2c-2.2,0-4-0.6-4-1.2S80,34.7,82.2,34.7z"/>
	<g>
		<path class="st3" d="M75.7,30.2l0,20c0,0.9-1.8,1.5-4,1.5c-2.2,0-4-0.7-4-1.5l0-20H75.7L75.7,30.2z M71.8,29c-2.2,0-4,0.6-4,1.2
			c0,0.7,1.8,1.2,4,1.2c2.2,0,4-0.6,4-1.2C75.7,29.5,74,29,71.8,29z"/>
		<path class="st1" d="M75.7,30.2l0,20c0,0.9-1.8,1.5-4,1.5c-2.2,0-4-0.7-4-1.5l0-20 M71.8,29c-2.2,0-4,0.6-4,1.2
			c0,0.7,1.8,1.2,4,1.2c2.2,0,4-0.6,4-1.2C75.7,29.5,74,29,71.8,29z"/>
	</g>
	<path class="st3" d="M72.1,65.4l-16-2.5l-16,2.5c-0.8,0.8-1.7,1.7-2.5,2.5c0,31.2,5,30.4,18.5,38.8c13.5-8.4,18.5-7.6,18.5-38.8
		C73.8,67.1,73,66.2,72.1,65.4z"/>
	<g>
		<path class="st0" d="M56.1,62.8l-16,2.5c-0.8,0.8-1.7,1.7-2.5,2.5c0,31.2,5,30.4,18.5,38.8"/>
		<path class="st0" d="M56.1,62.8l16,2.5c0.8,0.8,1.7,1.7,2.5,2.5c0,31.2-5,30.4-18.5,38.8"/>
	</g>
	<path class="st4" d="M42.8,72.7c0,22.3,3.6,21.7,13.3,27.8c9.7-6,13.3-5.4,13.3-27.8c-0.6-0.6-1.2-1.2-1.8-1.8l-11.5-1.8l-11.5,1.8
		C44,71.5,43.4,72.1,42.8,72.7z"/>
</g>
</svg>
