<?xml version="1.0" encoding="utf-8"?>
<!-- Generator: Adobe Illustrator 24.1.2, SVG Export Plug-In . SVG Version: 6.00 Build 0)  -->
<svg version="1.1" id="Слой_1" xmlns:xodm="http://www.corel.com/coreldraw/odm/2003"
	 xmlns="http://www.w3.org/2000/svg" xmlns:xlink="http://www.w3.org/1999/xlink" x="0px" y="0px" viewBox="0 0 128 128"
	 style="enable-background:new 0 0 128 128;" xml:space="preserve">
<style type="text/css">
	.st0{fill-rule:evenodd;clip-rule:evenodd;fill:#FFFFFF;}
	.st1{fill-rule:evenodd;clip-rule:evenodd;fill:#457BBA;}
	.st2{fill:none;stroke:#000000;stroke-width:0.75;stroke-linecap:round;stroke-linejoin:round;stroke-miterlimit:22.9256;}
	.st3{fill:none;stroke:#000000;stroke-width:1.5;stroke-linecap:round;stroke-linejoin:round;stroke-miterlimit:22.9256;}
	.st4{fill:none;stroke:#000000;stroke-width:1.5;stroke-miterlimit:22.9256;}
	.st5{fill-rule:evenodd;clip-rule:evenodd;fill:#FF5640;}
	.st6{fill-rule:evenodd;clip-rule:evenodd;fill:#FF0000;}
</style>
<g id="Слой_x0020_1">
	<g id="_2379580879040">
		<path class="st0" d="M36.5,72.2H32c-0.8,0-1.4,2.7-1.8,6.8c-2.8,0-5.1-0.3-7.4,0c-4.2,0.3-6.2,5.1-6.1,8.7
			c0.1,4.8,3.4,8.7,5.9,8.7h7.7c0.4,4.1,1.1,6.8,1.8,6.8h4.5h3.8c0.5,0,1.1-5.5,1.2-6.8c4,0,9.8,0,13.8,0c0,0.7,0.2,2,1.4,3.2
			c4.1,3.9,16.1,2.7,16.1-3.2c0-0.1,0-0.1,0-0.1c4.1,0,9.8,0,13.8,0c0.1,2.5,0.5,5.1,1.1,6.6c0.1,0.3,0,0.2,0.5,0.2h3.4h4.5
			c0.8,0,1.8-3.1,2-6.8h7.5c3.2-0.5,5.7-3.8,5.8-8.6c0.1-3.6-1.4-7.1-4.9-8.5c-0.4-0.5-2.1-0.2-3.5-0.3h-5c-0.4-4.1-1.3-6.8-2-6.8
			h-4.5h-3.4c-0.3,0-0.4-0.1-0.6,0.2c-0.7,0.9-1,5.4-1,6.7c-3.1,0-8.3,0-10.5,0c0,0,0,0,0,0V62.7c3.4,0.3,8.7-0.5,9.5-1.3v-4.3v-4.5
			c0-0.9-3.8-1.6-9.6-2c-8.5-0.4-16.7-0.4-24.1,0c-5.8,0.4-9.6,1.2-9.6,2v4.5v4.3c0,0.1,9.2,1.3,9.6,1.3c0,0,0,14.9,0,16.3l0,0
			c-2.2,0-7.4,0-10.5,0c0.1-1.4-0.4-6.6-1.2-6.8C40.4,72.2,37.3,72.2,36.5,72.2z M60.6,24.5v25.7c1.1,0,2.3,0,3.5,0
			c0.9,0,1.8,0,2.6,0V24.5c0-0.9-1.4-1.6-3-1.6S60.6,23.6,60.6,24.5z"/>
		<path class="st1" d="M76.1,79.2c2.2,0,7.4,0,10.5,0c-0.1-1.4,0.7-6,1.2-6.8c1.5,7.6,1.7,19.4,0,31.1c-0.4-1.6-1.1-4.2-1.1-6.8
			c-4,0-9.8,0-13.8,0c0,0,0,0.1,0,0.1c0,7.1-17.4,7.3-17.4,0.1c0-0.1,0-0.1,0-0.1c-4.1,0-9.8,0-13.8,0c-0.1,2.6-0.6,5.3-1.1,6.8
			c-2.6-6.7-2-28.6,0-31.1c0.8,0.3,1.2,5.4,1.2,6.8c3.1,0,8.3,0,10.5,0c0-0.8,0-15.3,0-16.7c2.6-1.2,21.1-1.4,24.1,0
			C76.1,64.1,76.1,78.8,76.1,79.2L76.1,79.2z"/>
		<path class="st2" d="M60.6,28.5l6.1-0.8 M60.6,49.2l6.1-0.8 M60.6,47.5l6.1-0.8 M60.6,45.7l6.1-0.8 M60.6,44l6.1-0.8 M60.6,42.3
			l6.1-0.8 M60.6,40.6l6.1-0.8 M60.6,38.8l6.1-0.8 M60.6,37.1l6.1-0.8 M60.6,35.4l6.1-0.8 M60.6,33.7l6.1-0.8 M60.6,32l6.1-0.8
			 M60.6,30.2l6.1-0.8"/>
		<path class="st2" d="M12.6,92.5h5 M76.1,62.3c-6.4-0.7-17.6-0.7-24.1,0 M86.7,78.9c0.7,4.7,0.7,12.8,0,17.4 M41.4,79
			c-0.7,4.7-0.7,12.8,0,17.4 M12.6,82.9h5"/>
		<path class="st2" d="M115.4,92.5h-5 M115.4,82.9h-5"/>
		<path class="st3" d="M76.1,78.9h10.4c0.3-4,0.7-6.8,1.3-6.8c2,0,2,31.1,0,31.1c-0.5,0-1-2.7-1.3-6.8H72.8 M60.6,50.2V24.5
			c0-0.9,1.4-1.6,3-1.6s3,0.7,3,1.6v25.7 M85.6,61.4v-8.8c0-1.4-9.7-2.5-21.6-2.5s-21.6,1.1-21.6,2.5v8.8 M42.4,57.1
			c0-1.1,9.7-1.9,21.6-1.9s21.6,0.9,21.6,1.9 M52,79H41.6c-0.3-4-0.7-6.8-1.3-6.8c-2,0-2,31.1,0,31.1c0.5,0,1-2.7,1.3-6.8h13.7
			 M29.9,96.4h-7.2c-3.4,0-6.1-3.9-6.1-8.7c0-4.8,2.7-8.7,6.1-8.7h7.2 M40.3,72.2H32c-3.2,0-3.2,31.1,0,31.1h8.4 M36.1,72.2
			c-2.5,0-2.5,31.1,0,31.1 M98.2,96.3h7.2c3.4,0,6.1-3.9,6.1-8.7c0-4.8-2.7-8.7-6.1-8.7h-7.2 M87.8,72.1h8.4c3.2,0,3.2,31.1,0,31.1
			h-8.4 M92,72.1c2.5,0,2.5,31.1,0,31.1 M76.1,62.7v16.2c-3.8,3.8-3.7,17.5-3.3,17.5c0,7.1-17.4,7.2-17.4,0.1
			c0.4,0,0.5-13.7-3.3-17.5V62.7c-3.5-0.2-9.6-0.6-9.6-1.3c0-0.8,9.7-1.5,21.6-1.5s21.6,0.7,21.6,1.5C85.6,61.9,81.8,62.4,76.1,62.7
			z"/>
		<g>
			<g>
				<path class="st0" d="M49.3,86.6c0,8.2,6.6,14.8,14.8,14.8c8.2,0,14.8-6.6,14.8-14.8c0-8.2-6.6-14.8-14.8-14.8
					C55.9,71.8,49.3,78.5,49.3,86.6z M54.9,93.2c-1.3-1.9-2.1-4.1-2.1-6.6c0-2.5,0.8-4.7,2.1-6.6l0.6-0.1l4.2,4.2
					c-0.4,0.8-0.7,1.6-0.7,2.6c0,0.9,0.3,1.8,0.7,2.6l-4.2,4.2C55.6,93.4,54.9,93.2,54.9,93.2z M62.5,86.6c0-0.9,0.7-1.6,1.6-1.6
					c0.9,0,1.6,0.7,1.6,1.6c0,0.9-0.7,1.6-1.6,1.6C63.2,88.2,62.5,87.5,62.5,86.6z M68.5,84.1l4.2-4.2l0.6,0.1
					c1.3,1.9,2.1,4.1,2.1,6.6c0,2.5-0.8,4.7-2.1,6.6l-0.6,0.1l-4.2-4.2c0.4-0.8,0.7-1.6,0.7-2.6C69.2,85.7,68.9,84.8,68.5,84.1z
					 M57.4,78.1l0.1-0.6c1.9-1.3,4.1-2.1,6.6-2.1c2.5,0,4.7,0.8,6.6,2.1l0.1,0.6l-4.2,4.2c-0.8-0.4-1.6-0.7-2.6-0.7
					s-1.8,0.3-2.6,0.7L57.4,78.1z M57.4,95.2l4.2-4.2c0.8,0.4,1.6,0.7,2.6,0.7c0.9,0,1.8-0.3,2.6-0.7l4.2,4.2l-0.1,0.6
					c-1.9,1.3-4.1,2.1-6.6,2.1c-2.5,0-4.7-0.8-6.6-2.1L57.4,95.2z"/>
				<path class="st2" d="M73.3,80.1l-0.6-0.1l-4.2,4.2c0.4,0.8,0.7,1.6,0.7,2.6c0,0.9-0.3,1.8-0.7,2.6l4.2,4.2l0.6-0.1
					c1.3-1.9,2.1-4.1,2.1-6.6C75.4,84.2,74.6,81.9,73.3,80.1z M57.5,77.5l-0.1,0.6l4.2,4.2c0.8-0.4,1.6-0.7,2.6-0.7
					c0.9,0,1.8,0.3,2.6,0.7l4.2-4.2l-0.1-0.6c-1.9-1.3-4.1-2.1-6.6-2.1C61.6,75.3,59.4,76.1,57.5,77.5z M54.9,93.2
					c-1.3-1.9-2.1-4.1-2.1-6.6c0-2.5,0.8-4.7,2.1-6.6l0.6-0.1l4.2,4.2c-0.4,0.8-0.7,1.6-0.7,2.6c0,0.9,0.3,1.8,0.7,2.6l-4.2,4.2
					C55.6,93.4,54.9,93.2,54.9,93.2z M70.7,95.8l0.1-0.6L66.7,91c-0.8,0.4-1.6,0.7-2.6,0.7c-0.9,0-1.8-0.3-2.6-0.7l-4.2,4.2l0.1,0.6
					c1.9,1.3,4.1,2.1,6.6,2.1C66.6,97.9,68.8,97.2,70.7,95.8z M49.3,86.6c0,8.2,6.6,14.8,14.8,14.8c8.2,0,14.8-6.6,14.8-14.8
					c0-8.2-6.6-14.8-14.8-14.8C55.9,71.8,49.3,78.5,49.3,86.6"/>
				<circle class="st4" cx="64.1" cy="86.6" r="1.6"/>
			</g>
			<path class="st5" d="M51.7,100.8c-0.3,0.4-0.8,0.6-1.4,0.6c-1.1,0-1.9-0.9-1.9-1.9c0-0.6,0.3-1.1,0.7-1.5
				c-1.8-2.4-3.1-5.3-3.6-8.4c-0.1,0-0.1,0-0.2,0c-1.1,0-1.9-0.9-1.9-1.9c0-1.1,0.9-1.9,1.9-1.9c0.1-3.2,1.1-6.1,2.6-8.7
				c-0.5-0.3-0.9-0.9-0.9-1.6c0-1.1,0.9-1.9,1.9-1.9c0.5,0,0.9,0.2,1.2,0.4c1.6-1.8,3.5-3.2,5.7-4.3L61,80.3l0.3,0.6l0.3,0.7
				l0.9,1.8c-1.2,0.6-2.1,1.9-2.1,3.3c0,1.8,1.2,3.2,2.9,3.6l-3.2,14.8C57,104.4,54.1,102.9,51.7,100.8z"/>
			<path class="st5" d="M64.1,83c2,0,3.7,1.6,3.7,3.7c0,0.2,0,0.5-0.1,0.7l13.9,2.6c0.2-1.1,0.3-2.1,0.3-3.3c0-9.8-8-17.8-17.8-17.8
				c-2.8,0-5.4,0.6-7.8,1.8l6.2,12.7C63,83.1,63.5,83,64.1,83z"/>
			<path class="st6" d="M67.7,87.3c-0.3,1.7-1.8,3-3.6,3c-0.3,0-0.5,0-0.8-0.1L60.6,103c1.1,0.2,2.3,0.4,3.5,0.4
				c8.2,0,15-5.9,16.5-13.7C80.6,89.7,67.7,87.3,67.7,87.3z"/>
			<path class="st3" d="M61.6,81.6l0.9,1.8c-1.2,0.6-2.1,1.9-2.1,3.3c0,1.8,1.2,3.2,2.9,3.6l-3.2,14.8c-3.2-0.7-6.1-2.2-8.5-4.3
				c-0.3,0.4-0.8,0.6-1.4,0.6c-1.1,0-1.9-0.9-1.9-1.9c0-0.6,0.3-1.1,0.7-1.5c-1.8-2.4-3.1-5.3-3.6-8.4c-0.1,0-0.1,0-0.2,0
				c-1.1,0-1.9-0.9-1.9-1.9c0-1.1,0.9-1.9,1.9-1.9c0.1-3.2,1.1-6.1,2.6-8.7c-0.5-0.3-0.9-0.9-0.9-1.6c0-1.1,0.9-1.9,1.9-1.9
				c0.5,0,0.9,0.2,1.2,0.4c1.6-1.8,3.5-3.2,5.7-4.3L61,80.3 M73,88.3l-5.3-1c-0.3,1.7-1.8,3-3.6,3c-0.3,0-0.5,0-0.8-0.1L60.6,103
				c1.1,0.2,2.3,0.4,3.5,0.4c8.2,0,15-5.9,16.5-13.7l-6-1.1 M62.5,83.3c0.5-0.2,1-0.4,1.6-0.4c2,0,3.7,1.6,3.7,3.7
				c0,0.2,0,0.5-0.1,0.7 M80.6,89.7l1,0.2c0.2-1.1,0.3-2.1,0.3-3.3c0-9.8-8-17.8-17.8-17.8c-2.8,0-5.4,0.6-7.8,1.8"/>
			<path class="st2" d="M57.9,73.7c1.9-0.9,4-1.4,6.2-1.4c7.9,0,14.4,6.4,14.4,14.4 M51.8,84.5L48,83.8 M52.3,82.4L48.7,81
				 M53.3,80.4l-3.3-1.9 M55.9,100.8l1.9-3.3 M54.5,78.6l-3-2.5 M53.6,99.2l2.5-3 M56,77.1l-2.5-3 M51.5,97.2l3-2.5 M49.9,94.8
				l3.3-1.9 M48.7,92.3l3.6-1.3 M48,89.5l3.8-0.7 M47.7,86.6h3.9 M77.1,89.1c-1.1,6.1-6.5,10.8-13,10.8 M49,74.8
				c0.4,0,0.6,0.3,0.6,0.6s-0.3,0.6-0.6,0.6s-0.6-0.3-0.6-0.6S48.6,74.8,49,74.8z M45.3,87c0.4,0,0.6,0.3,0.6,0.6s-0.3,0.6-0.6,0.6
				s-0.6-0.3-0.6-0.6S44.9,87,45.3,87z M50.3,98.8c0.4,0,0.6,0.3,0.6,0.6s-0.3,0.6-0.6,0.6s-0.6-0.3-0.6-0.6S50,98.8,50.3,98.8z"/>
		</g>
	</g>
</g>
</svg>
