<?xml version="1.0" encoding="utf-8"?>
<!-- Generator: Adobe Illustrator 24.0.2, SVG Export Plug-In . SVG Version: 6.00 Build 0)  -->
<svg version="1.1" id="Слой_1" xmlns:xodm="http://www.corel.com/coreldraw/odm/2003"
	 xmlns="http://www.w3.org/2000/svg" xmlns:xlink="http://www.w3.org/1999/xlink" x="0px" y="0px" viewBox="0 0 128 128"
	 style="enable-background:new 0 0 128 128;" xml:space="preserve">
<style type="text/css">
	.st0{fill-rule:evenodd;clip-rule:evenodd;}
	.st1{fill-rule:evenodd;clip-rule:evenodd;fill:#FF0000;}
	.st2{fill-rule:evenodd;clip-rule:evenodd;fill:#FF5640;}
	.st3{fill:none;stroke:#000000;stroke-width:0.75;stroke-linecap:round;stroke-linejoin:round;stroke-miterlimit:22.9256;}
	.st4{fill:none;stroke:#000000;stroke-width:1.5;stroke-linecap:round;stroke-linejoin:round;stroke-miterlimit:22.9256;}
</style>
<g id="Слой_x0020_1">
	<g id="_2044163447712">
		<path class="st0" d="M83.4,14c2.2,0.7,8.5,31.3,11.2,45.7c0.6,1,1.1,3.6,1.2,6.6c0,0.7,0,1.5,0,2.3c4.6-3.3-7.6-52.7-10.2-53.8
			C84.9,14.4,84.2,14.2,83.4,14z M34.1,45.8c0.2-1.8,0.4-3.6,0.7-5.4c1.2-8.7,2.9-16.3,4.1-16c10.1,2.2,24.4-8.5,36.4-10.6
			c-13.4,1.5-30.4,10.1-37.5,8.8c-1.2-0.2-3.4,8.1-4.9,17.6c-0.3,1.8-0.6,3.6-0.8,5.4c-1.4,10.8-1.6,21.4,2,21.4c0-0.4,0-0.7,0-1.1
			C32.6,64.7,33,55.3,34.1,45.8z"/>
		<path class="st1" d="M91.4,78.1c0.2,0,0.4-0.1,0.6-0.2c2.7-1,3.7-5.2,3.8-9.4c0-0.8,0-1.5,0-2.3c-0.2-1.1-0.6-3.5-1.2-6.6
			c-0.2-0.3-0.4-0.5-0.5-0.5c-1.7-0.8-4.8,2.2-7.1,2.4c-8.9,0.8-9.8-0.8-26.7,0.5c-4.1-1.9-15.5-4.4-24.6-4.8
			c-0.5,0-1.4,4.1-1.6,8.6c0,0.4,0,0.7,0,1.1c0,4.3,0.9,8.6,3.7,9.7c0.2,0.1,0.3,0.1,0.5,0.2c-0.4,2.8-0.6,5.2-0.8,7.6
			c-1.1,0.1-3.6,1.4-4.2,2.4c-0.3,0.5,0.7,4.2,1.1,7.7c0.1,0.7-1,2.8-0.9,3.5c0.5,4.5,1.7,7.4,1.7,9.1c-0.5,1.7-0.9,3.4-0.8,4.9
			c0.6,2,3.5,2.6,5.5,2.7c6.6,0.2,13.2,0.2,19.8,0c7.8-0.2,16.8,0.1,24.6-0.4c1.7-0.1,4.7-1.7,8.2-2.2l0,0l0,0
			c0-1.3-2.5-3.3-2.5-5.3c0-1.4,0.1-3.5,0.3-4.9c0.8-1.2,1.7-2.7,2.1-5.2c0.3-1.7,2.2-9,2.1-9.2c-0.4-0.6-1.2-1.6-2-2.3
			c-0.4-0.3-0.8-0.5-1.1-0.5C91.5,82.3,91.5,79.3,91.4,78.1z"/>
		<path class="st2" d="M86.9,61.6c-8.9,0.8-9.8-0.8-26.7,0.5c1.7,0.8,6.2,2.9,10.9,3C77.7,65.3,87.8,61.5,86.9,61.6z M46.9,58.5
			c1,3.6,4.8,3.5,7.8,1.7C52.9,59.5,46.9,58.5,46.9,58.5z M35.7,57.2c-0.5,0-1,1.8-1.1,3.6c1.1-0.5,4.9-2.1,9.1-2.8
			C42.2,57.8,37.5,57.3,35.7,57.2z"/>
		<path d="M48.7,73.7c0-0.2,0-0.4-0.1-0.6c-0.3,0-0.7,0-1,0c-0.1-0.6-0.2-1.2-0.2-1.9c-0.1-0.6-0.2-1.3-0.2-1.9c-0.2,0-0.4,0-0.6,0
			c0.1,0.8,0.2,1.5,0.3,2.2c0.1,0.7,0.2,1.4,0.3,2.2C47.6,73.7,48.1,73.7,48.7,73.7z M50.8,71.6c-0.1-0.5-0.1-0.9-0.2-1.2
			c-0.1-0.3-0.2-0.5-0.3-0.7c-0.2-0.2-0.4-0.4-0.8-0.4c-0.4,0-0.6,0.2-0.7,0.4c-0.1,0.2-0.2,0.4-0.2,0.7c0,0.3,0,0.7,0.1,1.2
			c0.1,0.5,0.1,0.9,0.2,1.2c0.1,0.3,0.2,0.5,0.3,0.7c0.2,0.2,0.4,0.4,0.8,0.4c0.4,0,0.6-0.1,0.7-0.4c0.1-0.2,0.2-0.4,0.2-0.7
			C50.8,72.5,50.8,72.1,50.8,71.6z M50.1,71.6c0,0.4,0.1,0.7,0.1,0.9c0,0.2,0,0.4-0.1,0.5c0,0.1-0.1,0.2-0.3,0.2
			c-0.1,0-0.2-0.1-0.3-0.2c-0.1-0.1-0.1-0.3-0.2-0.5c0-0.2-0.1-0.5-0.1-0.9c0-0.4-0.1-0.7-0.1-1c0-0.2,0-0.4,0.1-0.5
			c0-0.1,0.1-0.2,0.3-0.2c0.2,0,0.3,0.1,0.3,0.2c0.1,0.1,0.1,0.3,0.2,0.5C50.1,70.8,50.1,71.2,50.1,71.6L50.1,71.6z M53.4,72.6
			c-0.2,0-0.4,0-0.6,0c0,0.2,0,0.3-0.1,0.4c0,0.1-0.1,0.2-0.3,0.2c-0.2,0-0.2-0.1-0.3-0.2c-0.1-0.1-0.1-0.3-0.2-0.5
			c0-0.2-0.1-0.5-0.1-1c0-0.4-0.1-0.7-0.1-1c0-0.2,0-0.4,0.1-0.5c0-0.1,0.1-0.2,0.3-0.2c0.2,0,0.2,0.1,0.3,0.2
			c0.1,0.1,0.1,0.3,0.1,0.4c0.2,0,0.4,0,0.6,0c0-0.4-0.2-0.7-0.4-1c-0.2-0.2-0.4-0.3-0.7-0.3c-0.4,0-0.6,0.2-0.8,0.4
			c-0.1,0.2-0.2,0.4-0.2,0.7c0,0.3,0,0.7,0.1,1.2c0,0.5,0.1,0.9,0.2,1.2c0.1,0.3,0.2,0.5,0.3,0.7c0.2,0.2,0.4,0.4,0.8,0.4
			c0.3,0,0.5-0.1,0.7-0.3C53.3,73.4,53.4,73,53.4,72.6z M56.3,73.8c-0.2-0.4-0.4-0.9-0.5-1.3c-0.2-0.4-0.4-0.9-0.5-1.3
			c0.1-0.3,0.2-0.6,0.4-0.9c0.1-0.3,0.2-0.6,0.4-1c-0.2,0-0.4,0-0.7,0c-0.1,0.4-0.3,0.7-0.4,1.1c-0.1,0.4-0.2,0.7-0.4,1.1
			c0-0.4,0-0.7-0.1-1.1c0-0.4,0-0.7-0.1-1.1c-0.2,0-0.4,0-0.6,0c0.1,0.8,0.1,1.5,0.2,2.3c0.1,0.7,0.1,1.5,0.2,2.2c0.2,0,0.4,0,0.6,0
			c0-0.4-0.1-0.7-0.1-1.1c0.1-0.2,0.2-0.5,0.3-0.7c0.1,0.3,0.3,0.6,0.4,0.9c0.1,0.3,0.3,0.6,0.4,0.9C55.8,73.8,56.1,73.8,56.3,73.8
			L56.3,73.8z M58.5,71.7c0-0.5,0-0.9-0.1-1.2c0-0.3-0.1-0.5-0.3-0.7c-0.2-0.2-0.4-0.4-0.8-0.4c-0.4,0-0.6,0.2-0.8,0.4
			c-0.1,0.2-0.2,0.4-0.2,0.7c0,0.3,0,0.7,0,1.2c0,0.5,0.1,0.9,0.1,1.2c0.1,0.3,0.1,0.5,0.3,0.7c0.2,0.2,0.4,0.4,0.8,0.4
			c0.4,0,0.6-0.1,0.8-0.4c0.1-0.2,0.2-0.4,0.2-0.7S58.5,72.2,58.5,71.7z M57.9,71.7c0,0.4,0,0.7,0,1c0,0.2,0,0.4-0.1,0.5
			c-0.1,0.1-0.1,0.2-0.3,0.2c-0.1,0-0.2-0.1-0.3-0.2c-0.1-0.1-0.1-0.3-0.1-0.5c0-0.2-0.1-0.6-0.1-1c0-0.4,0-0.7,0-1
			c0-0.2,0-0.4,0.1-0.5c0.1-0.1,0.1-0.2,0.3-0.2c0.2,0,0.3,0.1,0.3,0.2c0.1,0.1,0.1,0.3,0.1,0.5C57.8,70.9,57.8,71.2,57.9,71.7z
			 M61.2,72.8c0-0.6,0-1.1,0-1.7c0-0.6,0-1.2,0-1.7c-0.2,0-0.4,0-0.7,0c0,0.6,0,1.2,0,1.8c0,0.6,0,1.1,0,1.7c0,0.3-0.2,0.5-0.4,0.5
			c-0.2,0-0.4-0.2-0.4-0.5c0-0.6,0-1.1,0-1.7c0-0.6,0-1.2,0-1.8c-0.2,0-0.4,0-0.7,0c0,0.6,0,1.2,0.1,1.7c0,0.6,0,1.1,0.1,1.7
			c0,0.3,0.1,0.6,0.3,0.8c0.2,0.2,0.5,0.3,0.8,0.3c0.3,0,0.6-0.1,0.8-0.3C61.1,73.4,61.2,73.2,61.2,72.8z M63.7,70.1
			c0-0.2,0-0.4,0-0.7c-0.7,0-1.4,0-2.1,0c0,0.2,0,0.4,0,0.7c0.2,0,0.5,0,0.7,0c0,0.7,0,1.3,0,2c0,0.6,0,1.3,0,1.9c0.2,0,0.4,0,0.6,0
			c0-0.6,0-1.3,0-1.9c0-0.6,0-1.3,0-2C63.2,70.1,63.4,70.1,63.7,70.1z M66.6,68.9c-0.2,0-0.4,0-0.6,0c-0.2,1-0.4,1.9-0.6,2.8
			c-0.2,0.9-0.4,1.8-0.6,2.7c0.2,0,0.4,0,0.6,0c0.2-0.9,0.4-1.8,0.6-2.7C66.2,70.8,66.4,69.9,66.6,68.9z M70,70.1c0-0.2,0-0.4,0-0.7
			c-0.7,0-1.4,0-2.1,0c0,0.2,0,0.4,0,0.7c0.2,0,0.5,0,0.7,0c0,0.7-0.1,1.3-0.1,2c0,0.6-0.1,1.3-0.1,1.9c0.2,0,0.4,0,0.7,0
			c0-0.6,0.1-1.3,0.1-1.9c0-0.7,0.1-1.3,0.1-2C69.5,70.1,69.7,70.1,70,70.1z M72.4,74.1c-0.1-0.7-0.2-1.5-0.3-2.3
			c-0.1-0.8-0.2-1.6-0.3-2.4c-0.2,0-0.5,0-0.7,0c-0.2,0.8-0.5,1.6-0.7,2.3c-0.2,0.8-0.4,1.5-0.7,2.2c0.2,0,0.5,0,0.7,0
			c0.1-0.3,0.2-0.6,0.2-0.9c0.3,0,0.7,0,1,0c0,0.3,0.1,0.6,0.1,0.9C71.9,74.1,72.1,74.1,72.4,74.1z M71.5,72.6c-0.2,0-0.5,0-0.7,0
			c0.1-0.3,0.2-0.6,0.2-1c0.1-0.3,0.2-0.6,0.3-1c0,0.3,0.1,0.7,0.1,1C71.4,71.9,71.5,72.2,71.5,72.6z M74.9,72.9
			c0-0.4,0.1-0.8,0.1-1.3c-0.4,0-0.7,0-1.1,0c0,0.2,0,0.4-0.1,0.6c0.1,0,0.3,0,0.4,0c0,0.2,0,0.5-0.1,0.7c0,0.3-0.2,0.6-0.5,0.6
			c-0.2,0-0.2-0.1-0.3-0.2c-0.1-0.1-0.1-0.3-0.1-0.5c0-0.2,0-0.6,0.1-1c0-0.4,0.1-0.8,0.1-1c0-0.3,0.1-0.4,0.2-0.5
			c0.1-0.1,0.2-0.2,0.3-0.2c0.4,0,0.4,0.4,0.4,0.6c0.2,0,0.5,0,0.7,0c0-0.4,0-0.8-0.2-1c-0.2-0.2-0.4-0.3-0.8-0.3
			c-0.4,0-0.7,0.2-0.9,0.4c-0.2,0.2-0.3,0.4-0.3,0.7c-0.1,0.3-0.1,0.7-0.2,1.3c0,0.5-0.1,0.9-0.1,1.2c0,0.3,0.1,0.5,0.2,0.7
			c0.2,0.2,0.4,0.4,0.8,0.4C74.4,74.2,74.9,73.8,74.9,72.9L74.9,72.9z M77.9,71.9c0.1-0.6,0.1-1,0.1-1.3c0-0.3-0.1-0.5-0.2-0.7
			c-0.2-0.2-0.4-0.4-0.8-0.4s-0.7,0.2-0.9,0.4c-0.2,0.2-0.3,0.4-0.3,0.7c-0.1,0.3-0.1,0.7-0.2,1.3c-0.1,0.5-0.1,0.9-0.1,1.3
			c0,0.3,0.1,0.5,0.2,0.7c0.2,0.2,0.4,0.4,0.8,0.4c0.4,0,0.7-0.2,0.9-0.4c0.2-0.2,0.3-0.4,0.4-0.7C77.8,72.8,77.9,72.4,77.9,71.9
			L77.9,71.9z M77.3,71.9c-0.1,0.4-0.1,0.8-0.1,1c0,0.2-0.1,0.4-0.2,0.5c-0.1,0.1-0.2,0.2-0.3,0.2c-0.2,0-0.3-0.1-0.3-0.2
			c-0.1-0.1-0.1-0.3-0.1-0.5c0-0.2,0-0.6,0.1-1c0-0.4,0.1-0.8,0.1-1c0-0.3,0.1-0.4,0.2-0.5c0.1-0.1,0.2-0.2,0.4-0.2
			c0.2,0,0.3,0.1,0.3,0.2c0.1,0.1,0.1,0.3,0.1,0.5C77.3,71.1,77.3,71.5,77.3,71.9z M80.6,73.1c0.1-0.6,0.2-1.2,0.3-1.8
			c0.1-0.6,0.2-1.2,0.3-1.8c-0.2,0-0.5,0-0.7,0c-0.1,0.6-0.2,1.2-0.3,1.8c-0.1,0.6-0.2,1.2-0.3,1.8c0,0.3-0.3,0.5-0.5,0.5
			c-0.2,0-0.4-0.2-0.4-0.5c0.1-0.6,0.2-1.2,0.2-1.8c0.1-0.6,0.2-1.2,0.3-1.8c-0.2,0-0.5,0-0.7,0c-0.1,0.6-0.2,1.2-0.2,1.8
			c-0.1,0.6-0.2,1.2-0.2,1.8c0,0.3,0,0.6,0.2,0.8c0.2,0.2,0.4,0.3,0.8,0.3c0.3,0,0.6-0.1,0.9-0.3C80.4,73.7,80.6,73.5,80.6,73.1
			L80.6,73.1z M83.8,70.3c0-0.2,0.1-0.5,0.1-0.7c-0.8,0-1.5,0-2.3,0c0,0.2-0.1,0.5-0.1,0.7c0.3,0,0.5,0,0.8,0
			c-0.1,0.7-0.2,1.4-0.3,2c-0.1,0.7-0.2,1.3-0.3,2c0.2,0,0.5,0,0.7,0c0.1-0.7,0.2-1.3,0.3-2c0.1-0.7,0.2-1.4,0.3-2
			C83.3,70.3,83.5,70.3,83.8,70.3z"/>
		<path class="st3" d="M34.6,60.8c2.1-1.2,6.2-2.6,11.3-2.5 M68.5,94.4c0.6-0.5,0.9-2.4,0-3 M63.6,94.4c-0.6-0.5-0.9-2.4,0-3
			 M67.2,102.7c0.1,1.3-0.1,10.5-1,11.6 M67.8,76.8c0,0.2-0.2,8.8-0.2,9.2 M67.9,88.2c0,0.5,0.1,1,0.1,1.5 M68.1,95.8
			c0.1,0.8,0.1,1.2,0.2,2 M68.2,100.1c0,1.1,0,1.7-0.1,2.6 M63.7,102.6c-0.1-0.9,0-1.6,0.1-2.6 M63.9,97.9c0-0.9,0-1.4,0-2.3
			 M63.8,89.6c0-0.5,0-0.9-0.1-1.4 M63.7,85.9c0-0.4,0.2-9.2,0.2-9.4 M62.4,114.4c0.8-2.4,1-10.6,0.9-11.8 M46.8,58.5
			c2.5,5.1,5.5,1.7,10.1,2.3 M40.7,81.2c6.2,0.9,14.5,3,23.1,3.9 M67.7,85.5c6.1,0.3,13.7,0,20.6-1.7 M63.9,63.5
			c2.3,0.8,4.8,1.5,7.4,1.6c5.3,0.2,9.6-1.3,16.2-3.5"/>
		<path class="st4" d="M92,77.9c0.1,2.5,0.3,5,0.4,7.5 M33.8,40.2c0.7,0.1,1.4,0.3,1.6,0.6c-0.1,1.2-0.4,3.6-0.6,5
			c-0.5,0.2-2.9,0.1-3.4-0.5c0.1-1.4,0.4-3.1,0.5-4.8C32.4,40.1,33.1,40.1,33.8,40.2 M34.1,65.8c-3.1-2.5,2.2-42.1,4.8-41.5
			C51.4,27,70.5,10,83.4,14c2.7,0.8,11.3,46,12.4,52.2 M34.1,66.9C26.7,67,35.2,22,37.8,22.5c9.1,1.8,34.7-13.2,47.8-7.8
			c2.6,1.1,14.8,50.5,10.2,53.8 M42.2,82c-1.9,6.7-1.6,13.6-0.7,15.3c2.3,5.6,40.6,7.5,44.5,2.6c1.9-2.1,2.5-10.9,1.2-15.5
			 M35.2,106.9c0-1.6-1.3-4.6-1.7-9.1c-0.1-0.7,1-2.8,0.9-3.5c-0.4-3.5-1.5-7.2-1.1-7.7c0.6-1,3.2-2.3,4.2-2.4 M91.4,78.1
			c0.2,1.7,0,7.2-0.2,9c-1,6.3-1.6,8.9-3.4,14.8c-0.6,4.3,0.1,7.8,4.7,10.1 M88.8,103.8c0.6-1.5,2.7-3,3.4-7.2
			c0.3-1.7,2.2-9,2.1-9.2c-0.5-0.9-2.1-2.8-3-2.8 M90.2,101.8c-0.2,1.3-0.3,3.5-0.3,4.9c0,1.9,2.6,3.9,2.5,5.3
			c-3.4,0.4-6.4,2.1-8.2,2.2c-7.8,0.5-16.8,0.2-24.6,0.4c-6.6,0.2-13.2,0.2-19.8,0c-2-0.1-4.9-0.7-5.5-2.7c-0.1-2.8,1.5-6.5,1.9-9.7
			c0.9-8.4,0.6-15.1,2-25.4 M35.7,57.2c9.2,0.5,20.5,2.9,24.6,4.8c16.8-1.3,17.8,0.3,26.7-0.5c2.3-0.2,5.4-3.2,7.1-2.4
			c1.7-0.4,4,17.8-2.7,18.9c-2.8,0.7-16.1-0.8-27.1-1.6c-14.1-1-21,2.3-26.5,0C31.7,74.4,34.6,57.3,35.7,57.2L35.7,57.2z M63,88.1
			c-0.2-0.3-0.1-2,0-2.3c1.6,0,4,0,5.6,0c0.2,0.2,0.2,1.9,0,2.3C67,88.1,64.7,88.1,63,88.1z M63.3,100.1c-0.2-0.3-0.1-2,0-2.3
			c1.6,0,4,0,5.6,0c0.2,0.2,0.2,1.9,0,2.3C67.2,100.1,64.9,100.2,63.3,100.1z M68.8,96c0-1.6-0.4-1.9-1.3-2.4c0-0.3,0-1.3,0-1.5
			c0.4-0.3,0.8-0.5,1-0.8c0.2-0.3,0.3-0.7,0.2-1.4l-3.1,0l-2.6,0c-0.3,1.4,0.5,1.7,1.2,2.2c0,0.3,0.1,1.2,0,1.5
			c-0.9,0.5-1.2,0.8-1.3,2.4C65.1,96.1,67,96.1,68.8,96z"/>
	</g>
</g>
</svg>
