<?xml version="1.0" encoding="utf-8"?>
<!-- Generator: Adobe Illustrator 24.1.2, SVG Export Plug-In . SVG Version: 6.00 Build 0)  -->
<svg version="1.1" id="Слой_1" xmlns:xodm="http://www.corel.com/coreldraw/odm/2003"
	 xmlns="http://www.w3.org/2000/svg" xmlns:xlink="http://www.w3.org/1999/xlink" x="0px" y="0px" viewBox="0 0 128 128"
	 style="enable-background:new 0 0 128 128;" xml:space="preserve">
<style type="text/css">
	.st0{fill-rule:evenodd;clip-rule:evenodd;fill:#FFD940;}
	.st1{fill-rule:evenodd;clip-rule:evenodd;fill:#FF0000;}
	.st2{fill-rule:evenodd;clip-rule:evenodd;fill:#FFFFFF;}
	.st3{fill-rule:evenodd;clip-rule:evenodd;fill:#FF5640;}
	.st4{fill-rule:evenodd;clip-rule:evenodd;fill:#457BBA;}
	.st5{fill:none;stroke:#000000;stroke-width:0.75;stroke-linecap:round;stroke-linejoin:round;stroke-miterlimit:22.9256;}
	.st6{fill:none;stroke:#000000;stroke-width:1.5;stroke-linecap:round;stroke-linejoin:round;stroke-miterlimit:22.9256;}
</style>
<g id="Слой_x0020_1">
	<g id="_2379717244368">
		<g>
			<g>
				<polygon class="st0" points="21.2,92.5 97,92.5 59.1,25.4 				"/>
				<path id="_x31_" d="M97,93.2H21.2v-1.4H97l0.7,0.4C97.6,92.2,97,93.2,97,93.2z M97,91.8c0.4,0,0.8,0.3,0.8,0.7
					c0,0.4-0.3,0.7-0.8,0.7C97,93.2,97,91.8,97,91.8z M59.8,25.1l37.9,67.1l-1.3,0.6L58.4,25.8v-0.6C58.4,25.1,59.8,25.1,59.8,25.1z
					 M58.4,25.8c-0.2-0.3,0-0.8,0.3-0.9c0.4-0.2,0.8,0,1,0.3L58.4,25.8z M20.6,92.2l37.9-67.1l1.3,0.6L21.9,92.8l-0.7,0.4L20.6,92.2
					z M21.9,92.8c-0.2,0.3-0.6,0.5-1,0.3c-0.4-0.2-0.5-0.6-0.3-0.9L21.9,92.8z"/>
			</g>
			<polygon class="st1" points="54.9,63.5 62.3,42.6 54.9,43 49.3,70.7 60.3,63.7 58.9,79.6 56.3,76.6 59.3,87.5 65.2,77.5 
				61.9,79.9 66.7,55.8 			"/>
		</g>
		<g id="_2379717243824">
			<path class="st2" d="M90.5,72.6h-3.3l0-11.5h-2.9v-4.2h1.4v2l0.3,0.3h5.6l0.3-0.3v-2h1.4v4.2h-2.9v1.4v2.2v2.2v2.2v2.2
				C90.5,71.4,90.5,72.6,90.5,72.6z M76.2,40.6l6.6-0.2v-2.7h4.7l0.1-4.2h2.3l0.1,4.2h4.7v2.7l5.1,0.1l1.5,0v12.3
				c0.5,0,0.6,0.1,0.8,0.3v21.5c2.7,1.1,4.7,2.7,4.7,4.2c0,2.2-3.1,4.1-7.7,5.2v10.4v0.1c0.1,0,0.1,0,0.2,0c5,0.5,5.4,8.1,0.8,8.1
				H88.8H77.6c-4.4,0-4.4-7.6,0.8-8.1c0.1,0,0.1,0,0.2,0v-0.1V84.1c0,0.1,0,0.1,0,0c-4.7-1.1-7.7-3-7.7-5.2c0-1.6,1.8-3.1,4.7-4.2
				V53.2c0.2-0.2,0.4-0.2,0.8-0.3C76.2,48.8,76.2,44.7,76.2,40.6z M93.8,84.9c0.5,0.7,0.9,1.5,1.1,2.4c0,0.3,0.1,0.5,0.1,0.8
				c-1,1.7-2.8,3.9-6.2,3.9s-5.4-2.2-6.2-3.9c0-1.2,0.4-2.3,1.2-3.2c1.6,0.2,3.3,0.2,5,0.2C90.5,85.2,92.2,85.1,93.8,84.9z"/>
			<path class="st3" d="M78.5,84.1C78.5,84.2,78.5,84.1,78.5,84.1z M75.5,53.2v21.4c-2.9,1.1-4.7,2.6-4.7,4.2c0,2.2,3.1,4.1,7.7,5.2
				c8,1.9,15,1.2,20.5,0c4.7-1.1,7.7-3,7.7-5.2c0-1.6-2-3.1-4.7-4.2V53.2c-0.2-0.1-0.3-0.2-0.8-0.3v-0.1l-0.6,0.9l-10.4,0.6
				c-0.5,0-1,0-1.5,0s-1,0-1.5,0l-10.4-0.6l-0.6-0.9c0,0,0,0.1,0,0.1C75.8,53,75.6,53,75.5,53.2L75.5,53.2z M87.1,76.1l0-15.1h-2.9
				v-4.2c3,0,6,0,9.1,0v4.2h-2.9c0,3.8,0,11.2,0,15.1C90.5,76.1,87.1,76.1,87.1,76.1z"/>
			<path class="st4" d="M76.2,52.8l0.6,0.9l10.4,0.6c0.5,0,1,0,1.5,0s1,0,1.5,0l10.4-0.6l0.6-0.9V40.6l-6.6-0.2v-2.7H90l-0.1-4.2
				h-2.3l-0.1,4.2h-4.7v2.7l-6.6,0.2C76.2,40.6,76.2,52.8,76.2,52.8z M85.7,56.8v2l0.3,0.3h5.6l0.3-0.3v-2H85.7z"/>
			<path class="st5" d="M99.1,94.4c4.2,1.4,3.3,5.4-0.7,5.4c-6.4,0-12.8,0-19.2,0c-3.9,0-4.9-4-0.7-5.4 M94.9,87.2
				c-0.3,2.8-3,4.9-6.1,4.9c-3.1,0-5.6-2-6.1-4.7 M76.2,52.8h11.1 M90.2,52.8h11.1 M87.3,72.3l3.3-0.9 M87.3,63.3l3.3-0.9
				 M87.3,65.5l3.3-0.9 M87.3,67.8l3.3-0.9 M87.3,70l3.3-0.9 M85.7,56.8v2.1l0.3,0.3h2.8h2.8l0.3-0.3v-2.1 M105.3,77.6
				c0,2.9-7.4,5.3-16.6,5.3s-16.6-2.4-16.6-5.3 M98.1,54v25.1 M79.5,54v25.1"/>
			<path class="st6" d="M78.5,94.5c-5.4,0.4-5.4,8.1-0.9,8.1h11.2H100c4.7,0,4.3-7.7-0.9-8.1 M88.8,74v2.1 M94.4,35.4h4.2l1.1,1.3
				v3.9 M83.1,35.3h-4.2l-1.1,1.3v3.9 M93.8,84.9c0.7,0.9,1.2,2.1,1.2,3.2c0,3.1-2.8,5.5-6.2,5.5s-6.2-2.5-6.2-5.5
				c0-1.2,0.4-2.3,1.2-3.2 M99,84.1v13H78.5v-13 M87.6,37.8h-4.7v2.7 M90,37.8h4.7v2.7 M87.3,54.2l0.3-20.7h2.3l0.3,20.7 M76.2,53.5
				V40.6l11.3-0.3 M90,40.3l11.3,0.3v12.9 M87.1,72.6l0.2-0.3h1.5h1.5l0.2,0.3 M102.1,74.7c2.7,1.1,4.7,2.7,4.7,4.2
				c0,3.5-8.1,6.3-18,6.3s-18-2.8-18-6.3c0-1.6,1.8-3.1,4.7-4.2 M87.1,61.1h-2.9v-4.2h9.1v4.2h-2.9v15.1l-1.7,0.1l-1.6-0.1
				C87.1,76.1,87.1,61.1,87.1,61.1z M75.5,77.6c0,0.9,6,2.3,13.3,2.3s13.3-1.5,13.3-2.3V53.2c0,0.6-6,1.1-13.3,1.1
				s-13.3-0.5-13.3-1.1V77.6z"/>
		</g>
	</g>
</g>
</svg>
