<?xml version="1.0" encoding="utf-8"?>
<!-- Generator: Adobe Illustrator 24.1.2, SVG Export Plug-In . SVG Version: 6.00 Build 0)  -->
<svg version="1.1" id="Слой_1" xmlns:xodm="http://www.corel.com/coreldraw/odm/2003"
	 xmlns="http://www.w3.org/2000/svg" xmlns:xlink="http://www.w3.org/1999/xlink" x="0px" y="0px" viewBox="0 0 128 128"
	 style="enable-background:new 0 0 128 128;" xml:space="preserve">
<style type="text/css">
	.st0{fill-rule:evenodd;clip-rule:evenodd;fill:#FFFFFF;}
	.st1{fill-rule:evenodd;clip-rule:evenodd;fill:#CCCCCC;}
	.st2{fill:none;stroke:#000000;stroke-width:1.5;stroke-miterlimit:22.9256;}
	.st3{fill:none;stroke:#666666;stroke-width:0.75;stroke-linecap:round;stroke-linejoin:round;stroke-miterlimit:22.9256;}
	.st4{fill:none;stroke:#000000;stroke-width:1.5;stroke-linecap:round;stroke-linejoin:round;stroke-miterlimit:22.9256;}
	.st5{fill:#FFFFFF;}
	.st6{font-family:'DINPro-Bold';}
	.st7{font-size:16px;}
</style>
<g id="Слой_x0020_1">
	<g id="_2343846736448">
		<path class="st0" d="M68.1,26L67,22.9c-0.7-1.9-2.9-2.9-4.8-2.2l-38,13.8c-1.9,0.7-2.9,2.9-2.2,4.8l1.2,3.2l6.5,17.8l-3.4,10.1
			L25.5,75L30,88.9l3.8,7.8l7.2-1.2l-9.2,1.5l2,4.6l0.2,2.4l1.8-0.2l13.9-1.8l-2-2.9l-0.8-3.6l-2.9,0l-0.8-2.4
			c0.8,0.3,1.7,0.3,2.5,0l23.6-8.6l5.8,4.2l5.7,2.8l2.4,2.3l-1.2,1.2l4,2.6l3.8,3.8l0.6-0.8l12.5-16l1.2-1.5l-2.9-2l-2.7-3.4
			l-1.5,1.6l-4-5.9L88,65.9l-5.7-6.6c-0.6-0.7-1.5-1-2.4-0.7L68.1,26L68.1,26z M42,92.6c-0.1-0.1-0.1-0.1-0.2-0.2
			C41.9,92.5,41.9,92.5,42,92.6z M41.8,92.4c0,0-0.1-0.1-0.1-0.1C41.7,92.3,41.8,92.4,41.8,92.4z M60.6,59l8.7,8.2
			c0,0-0.1-0.1-0.1-0.1c0,0,0.1,0.1,0.1,0.1C69.3,67.2,60.6,59,60.6,59z"/>
		<path class="st1" d="M69.3,67.2L69.3,67.2C69.3,67.2,69.3,67.2,69.3,67.2z M39.7,87.8l1.2,3.2c0.4,1.1,1.2,1.9,2.2,2.2
			c0.8,0.3,1.7,0.3,2.5,0l23.6-8.6l-5.2-3.7c-0.6-0.4-1-0.9-1.2-1.5c-0.3-0.8-0.2-1.8,0.3-2.6c0.9-1.4,2.7-1.8,4.1-1l5.2,1.9
			L56.7,62c-0.8-1.1-0.7-2.6,0.4-3.5s2.6-0.7,3.5,0.4l8.7,8.2c-2.2-2.1,2.3-6.5,4.7-3.6c-0.8-1.1-0.7-2.6,0.4-3.5
			c1.1-0.8,2.6-0.7,3.5,0.4l1.1,1.4c-0.7-0.9-0.5-2.3,0.4-3.1c0.2-0.2,0.4-0.3,0.7-0.4L68.1,26L67,22.9c-0.7-1.9-2.9-2.9-4.8-2.2
			l-38,13.8c-1.9,0.7-2.9,2.9-2.2,4.8l1.2,3.2l6.5,17.8l4.9,13.6l1.9-3.3c0.3-0.5,0.7-0.9,1.3-1.1c2.1-0.8,4,1.3,3.3,3.3l-3.1,8
			l0.2,3.1L39.7,87.8L39.7,87.8z M69.3,67.2C69.2,67.1,69.2,67.1,69.3,67.2C69.2,67.1,69.2,67.1,69.3,67.2z"/>
		<path class="st0" d="M63,54.3l-17.7,6.4c-0.9,0.3-1.4,1.4-1.1,2.4l1.4,3.7c0.3,0.9,1.4,1.4,2.4,1.1L58.7,64l-2-2
			c-0.8-1.1-0.7-2.6,0.4-3.5c1.1-0.8,2.6-0.7,3.5,0.4l3.3,3.1l1.7-0.6c0.9-0.3,1.4-1.4,1.1-2.4l-1.4-3.7C65,54.4,63.9,53.9,63,54.3z
			"/>
		<path class="st2" d="M58.8,64l-10.9,4c-1,0.3-2-0.1-2.4-1.1l-1.4-3.7c-0.3-1,0.1-2,1.1-2.4L63,54.3c1-0.3,2,0.1,2.4,1.1l1.4,3.7
			c0.3,1-0.1,2-1.1,2.4l-1.8,0.6"/>
		<path class="st0" d="M23.2,42.4l45-16.4L67,22.9c-0.7-1.9-2.9-2.9-4.8-2.2l-38,13.8c-1.9,0.7-2.9,2.9-2.2,4.8
			C22,39.2,23.2,42.4,23.2,42.4z M62.8,79.4l-23.2,8.4l1.2,3.2c0.4,1.1,1.2,1.9,2.2,2.2c0.8,0.3,1.7,0.3,2.5,0l23.6-8.6l-5.2-3.7
			C63.5,80.5,63.1,80,62.8,79.4z"/>
		<path class="st3" d="M23.2,42.4l45-16.4 M50.1,63l6.2-2.3 M38.7,73.2l-1.1-0.6 M64.3,66.8l0.9-0.9 M59.1,61.7l0.9-1 M66.3,79.6
			l0.5-1.1 M39.7,87.8l23.2-8.4"/>
		<path class="st4" d="M97.1,79.3l-4-5.9L88,65.9l-5.7-6.6c-0.7-0.9-2.1-1.1-3-0.4c-0.9,0.7-1.1,2.1-0.4,3.1 M34.6,73.8L22,39.2
			c-0.7-1.9,0.3-4.1,2.2-4.8l38-13.8c1.9-0.7,4.1,0.3,4.8,2.2l13,35.7 M69.3,84.6l-23.6,8.6c-1.9,0.7-4.1-0.3-4.8-2.2l-2.6-7.1
			 M33.7,96.7L30,88.9L25.5,75l0.8-4.6l3.4-10.1 M36.6,70.5c0.3-0.5,0.7-0.9,1.3-1.1c2.1-0.8,4,1.3,3.3,3.3 M34.6,73.8l1.9-3.3
			 M38.2,83.8L38,80.7l3.1-8 M35.7,103.9l1.4,3.7 M90.6,100.6l1.4,0.9 M103.1,84.6l3.1,2.4 M80.8,91.5l-5.7-2.8l-11-7.9
			c-1.4-0.9-1.8-2.7-1-4.1c0.9-1.4,2.7-1.8,4.1-1l5.2,1.9L56.7,62c-0.8-1.1-0.7-2.6,0.4-3.5s2.6-0.7,3.5,0.4l13.3,12.6 M77.4,68
			l-3.5-4.4c-0.8-1.1-0.7-2.6,0.4-3.5c1.1-0.8,2.6-0.7,3.5,0.4l3.5,4.4 M69.3,67.2c-2.2-2.1,2.3-6.6,4.6-3.6 M98.7,77.7l2.7,3.4
			l2.9,2l-13.7,17.6l0,0l-0.6,0.8l-3.8-3.8l-4-2.6l15.1-15.8l0.2-0.2C97.3,79.1,98.7,77.7,98.7,77.7z M46.7,95.7l0.8,3.6l2,2.9
			L36,103.8l-0.3,0l-1.8,0.2l-0.2-2.4l-2-4.6l9.2-1.5C40.9,95.6,46.7,95.7,46.7,95.7z"/>
		<g transform="matrix(0.939693 -0.34202 0.34202 0.939693 -42.835 17.4927)">
			<text transform="matrix(1 0 0 1 64 63.9999)" class="st5 st6 st7">LOTO</text>
		</g>
	</g>
</g>
</svg>
