<?xml version="1.0" encoding="utf-8"?>
<!-- Generator: Adobe Illustrator 19.0.0, SVG Export Plug-In . SVG Version: 6.00 Build 0)  -->
<svg version="1.1" id="Слой_1" xmlns="http://www.w3.org/2000/svg" xmlns:xlink="http://www.w3.org/1999/xlink" x="0px" y="0px"
	 viewBox="-1.4 -0.9 128.2 128.2" style="enable-background:new -1.4 -0.9 128.2 128.2;" xml:space="preserve">
<style type="text/css">
	.st0{fill-rule:evenodd;clip-rule:evenodd;fill:#548FCC;}
	.st1{fill-rule:evenodd;clip-rule:evenodd;fill:#2466AF;}
	
		.st2{fill-rule:evenodd;clip-rule:evenodd;fill:none;stroke:#050007;stroke-width:1.5001;stroke-linecap:round;stroke-linejoin:round;stroke-miterlimit:22.9256;}
	
		.st3{fill-rule:evenodd;clip-rule:evenodd;fill:none;stroke:#050007;stroke-width:1.4998;stroke-linecap:round;stroke-linejoin:round;stroke-miterlimit:22.9256;}
	
		.st4{fill-rule:evenodd;clip-rule:evenodd;fill:none;stroke:#050007;stroke-width:1.0015;stroke-linecap:round;stroke-linejoin:round;stroke-miterlimit:22.9256;}
	
		.st5{fill-rule:evenodd;clip-rule:evenodd;fill:none;stroke:#050007;stroke-width:0.7498;stroke-linecap:round;stroke-linejoin:round;stroke-miterlimit:22.9256;}
	
		.st6{fill-rule:evenodd;clip-rule:evenodd;fill:none;stroke:#050007;stroke-width:1.4995;stroke-linecap:round;stroke-linejoin:round;stroke-miterlimit:22.9256;}
	
		.st7{fill-rule:evenodd;clip-rule:evenodd;fill:none;stroke:#050007;stroke-width:1.4992;stroke-linecap:round;stroke-linejoin:round;stroke-miterlimit:22.9256;}
	
		.st8{fill-rule:evenodd;clip-rule:evenodd;fill:none;stroke:#050007;stroke-width:1.4967;stroke-linecap:round;stroke-linejoin:round;stroke-miterlimit:22.9256;}
</style>
<path class="st0" d="M71.2,58.2c0.6,11.4-2.6,21.8-7.8,21.9l26.3-4.5c0.6-0.1,0.1,0,0.6-0.2c4.9-2,8-10.3,7.3-20.2
	C96.8,43.7,91.1,34.5,85,34.5l-23.1,1C66.2,35.3,70.7,46.8,71.2,58.2z"/>
<polygon class="st1" points="63.4,80.1 84.6,94.6 105.9,89.9 112.8,86.7 90.3,75.9 "/>
<path class="st0" d="M59.6,84.8l-18,3.1c-5,0.9-7.5,1-12.8,1.8c-1.3,0.2-5.5,1-6.6,1.4l11.9,6.3l13.5,7.2c1-0.2,2.8-0.9,3.7-1.1
	c6-1.2,11.2-1.9,16.9-3.1l7.7-1.6l11.4-2.3l-14.7-6.2L59.6,84.8z"/>
<path class="st2" d="M76,98.8c-4.6,1.9-9,6.2-19.5,12.8c-14.8-3.7-33.7-5-44.4-8c1.6-1.1,4.9-4.3,6.1-4.7"/>
<path class="st2" d="M71.8,99.8c-2.2,0.9-4.4,1.8-6.6,2.7c-4.3,1.8-8.8,3.6-13.5,5.6c-6.2-1.7-12.4-3.5-18.6-5.2
	c-6.1-1.7-12.2-3.4-18.3-5.1c1.6-1.1,3-2.2,4.2-2.6c2.4-0.7,4.9-1.3,7.4-1.8"/>
<path class="st3" d="M22.3,91.1c1.1-0.5,5.3-1.2,6.6-1.4c5.2-0.9,7.7-1,12.8-1.8c6.1-1,12.1-2.1,18-3.1c4.2,1.8,8.6,3.6,13.1,5.5
	c4.7,2,9.6,4,14.7,6.2c-6.2,1.3-12.5,2.6-19.1,3.9c-5.8,1.2-10.9,1.9-16.9,3.1c-1,0.2-2.7,0.9-3.7,1.1c-4.7-2.5-9.2-4.9-13.5-7.2
	C30.1,95.3,26.1,93.2,22.3,91.1z"/>
<path class="st3" d="M61.9,35.5l23.1-1c6.2,0,11.8,9.3,12.6,20.7c0.7,9.9-2.4,18.2-7.3,20.2c-0.5,0.2,0,0.1-0.6,0.2 M61.9,35.5
	c4.5,0,8.7,9.9,9.3,22.2c0.6,12.3-2.6,22.2-7.1,22.2c-4.5,0-8.7-9.9-9.3-22.2C54.2,45.4,57.4,35.5,61.9,35.5z"/>
<line class="st3" x1="64.1" y1="79.9" x2="89.7" y2="75.6"/>
<path class="st4" d="M61.6,54.5c0.7,0,1.3,1.5,1.4,3.3c0.1,1.8-0.4,3.3-1.1,3.3c-0.7,0-1.3-1.5-1.4-3.3C60.5,56,60.9,54.5,61.6,54.5
	z"/>
<polyline class="st3" points="62.3,79.3 84.6,94.6 105.9,89.9 113.3,87 89.7,75.6 "/>
<path class="st5" d="M63.6,74.5c-3.3,0-6.4-7.5-6.8-16.8c-0.4-9.3,1.9-16.8,5.2-16.8c2.7,0,5.2,5,6.3,11.8"/>
<path class="st5" d="M63.9,46.8c1.2,2.3,2.2,6.4,2.4,11c0.3,7.2-1.3,13.1-3.6,13.1c-2.3,0-4.4-5.9-4.7-13.1"/>
<line class="st6" x1="72" y1="39.4" x2="72" y2="39.8"/>
<line class="st6" x1="87.7" y1="54.1" x2="87.7" y2="54.5"/>
<line class="st6" x1="77.4" y1="60.8" x2="77.4" y2="61.2"/>
<line class="st6" x1="80.9" y1="50.3" x2="80.9" y2="50.7"/>
<line class="st6" x1="90.5" y1="63.3" x2="90.5" y2="63.7"/>
<line class="st6" x1="81.7" y1="68.6" x2="81.7" y2="69"/>
<line class="st3" x1="74.3" y1="72.9" x2="74.3" y2="73.3"/>
<line class="st6" x1="88.7" y1="42.2" x2="88.7" y2="42.6"/>
<line class="st7" x1="77.6" y1="83.6" x2="77.9" y2="83.8"/>
<line class="st6" x1="86.3" y1="83" x2="86.6" y2="83.2"/>
<line class="st6" x1="84.5" y1="89.9" x2="84.9" y2="90.2"/>
<line class="st6" x1="98.7" y1="86" x2="99" y2="86.3"/>
<line class="st6" x1="89.9" y1="87.2" x2="90.2" y2="87.4"/>
<line class="st6" x1="88.7" y1="79.5" x2="89" y2="79.8"/>
<line class="st7" x1="78.9" y1="78.8" x2="79.2" y2="79"/>
<line class="st7" x1="97.4" y1="81.6" x2="97.7" y2="81.8"/>
<line class="st6" x1="80.6" y1="38.2" x2="80.6" y2="38.6"/>
<line class="st6" x1="74.3" y1="49.9" x2="74.3" y2="50.3"/>
<line class="st6" x1="94.2" y1="56.4" x2="94.2" y2="56.8"/>
<g>
	<path class="st3" d="M49,15.8v61.8 M16.6,77.6V15.8 M32.8,14.7c9,0,16.2,0.5,16.2,1.1c0,0.6-7.3,1.1-16.2,1.1
		c-9,0-16.2-0.5-16.2-1.1C16.6,15.2,23.8,14.7,32.8,14.7z"/>
	<path class="st3" d="M49,77.6c0,1.1-4.3,2-10.3,2.3"/>
	<path class="st3" d="M16.6,15.8c9.7,4.1,16.9,18.9,20.9,33.2 M16.6,15.8c4.3,2.6,10.5,10.9,8.8,24.3c19.2-0.8,13.9,34.6,12.9,42.6
		c-5-0.4-19.1-2-21.7-5.1"/>
	<line class="st6" x1="37" y1="32.8" x2="37" y2="33.3"/>
	<line class="st6" x1="45.8" y1="24.3" x2="45.8" y2="24.7"/>
	<line class="st3" x1="41.9" y1="28" x2="41.9" y2="28.4"/>
	<line class="st6" x1="41" y1="22.4" x2="41" y2="22.8"/>
	<line class="st3" x1="36.9" y1="25.9" x2="36.9" y2="26.4"/>
	<line class="st6" x1="33.1" y1="30.1" x2="33.1" y2="30.5"/>
	<line class="st6" x1="44.9" y1="18.3" x2="44.9" y2="18.7"/>
	<line class="st6" x1="18.7" y1="21.8" x2="18.7" y2="22.2"/>
	<line class="st6" x1="35.9" y1="20.7" x2="35.9" y2="21.1"/>
	<line class="st6" x1="30.9" y1="24.9" x2="30.9" y2="25.4"/>
	<line class="st3" x1="46.3" y1="31.8" x2="46.3" y2="32.2"/>
	<line class="st6" x1="41.6" y1="35.3" x2="41.6" y2="35.7"/>
	<line class="st6" x1="37.7" y1="39.5" x2="37.7" y2="39.9"/>
	<line class="st6" x1="45.5" y1="38.7" x2="45.5" y2="39.1"/>
	<line class="st6" x1="42" y1="42.6" x2="42" y2="43"/>
	<line class="st8" x1="38.9" y1="46.6" x2="38.9" y2="47"/>
	<line class="st6" x1="46.9" y1="45.5" x2="46.9" y2="45.9"/>
	<line class="st6" x1="42.3" y1="49.7" x2="42.3" y2="50.1"/>
	<line class="st6" x1="46.2" y1="51.9" x2="46.2" y2="52.4"/>
	<line class="st6" x1="42.1" y1="55.5" x2="42.1" y2="55.9"/>
	<line class="st6" x1="30.6" y1="20" x2="30.6" y2="20.4"/>
	<line class="st6" x1="25.7" y1="18.6" x2="25.7" y2="19.1"/>
	<line class="st3" x1="47.3" y1="59" x2="47.3" y2="59.4"/>
	<line class="st6" x1="42.5" y1="62.6" x2="42.5" y2="63"/>
	<line class="st6" x1="46.2" y1="65.4" x2="46.2" y2="65.8"/>
	<line class="st6" x1="42.5" y1="69" x2="42.5" y2="69.4"/>
	<line class="st6" x1="47.1" y1="73" x2="47.1" y2="73.4"/>
	<line class="st6" x1="41.6" y1="75.8" x2="41.6" y2="76.3"/>
	<line class="st6" x1="21" y1="27.5" x2="21" y2="27.9"/>
	<line class="st6" x1="18.4" y1="32.9" x2="18.4" y2="33.3"/>
	<line class="st6" x1="23.5" y1="34.3" x2="23.5" y2="34.7"/>
	<line class="st6" x1="19.4" y1="39.7" x2="19.4" y2="40.1"/>
	<line class="st6" x1="25.5" y1="42.9" x2="25.5" y2="43.3"/>
	<line class="st3" x1="19.1" y1="47.5" x2="19.1" y2="47.9"/>
	<line class="st6" x1="31.5" y1="46.8" x2="31.5" y2="47.2"/>
	<line class="st6" x1="24.4" y1="50.8" x2="24.4" y2="51.2"/>
	<line class="st6" x1="19.5" y1="56.5" x2="19.5" y2="56.9"/>
	<line class="st6" x1="34.7" y1="54.3" x2="34.7" y2="54.8"/>
	<line class="st6" x1="27.9" y1="56.8" x2="27.9" y2="57.2"/>
	<line class="st6" x1="21.9" y1="63.9" x2="21.9" y2="64.3"/>
	<line class="st6" x1="32.9" y1="62.1" x2="32.9" y2="62.5"/>
	<line class="st6" x1="27.3" y1="66.3" x2="27.3" y2="66.7"/>
	<line class="st6" x1="18.7" y1="69.4" x2="18.7" y2="69.9"/>
	<line class="st6" x1="35.2" y1="69.3" x2="35.2" y2="69.8"/>
	<line class="st6" x1="28.8" y1="74.5" x2="28.8" y2="74.9"/>
	<line class="st6" x1="22.5" y1="75" x2="22.5" y2="75.5"/>
	<line class="st6" x1="33.9" y1="78.6" x2="33.9" y2="79"/>
</g>
</svg>
