<?xml version="1.0" encoding="utf-8"?>
<!-- Generator: Adobe Illustrator 19.0.0, SVG Export Plug-In . SVG Version: 6.00 Build 0)  -->
<svg version="1.1" id="Слой_1" xmlns="http://www.w3.org/2000/svg" xmlns:xlink="http://www.w3.org/1999/xlink" x="0px" y="0px"
	 viewBox="0 0 128.2 128.2" style="enable-background:new 0 0 128.2 128.2;" xml:space="preserve">
<style type="text/css">
	
		.st0{fill-rule:evenodd;clip-rule:evenodd;fill:none;stroke:#010005;stroke-width:0.7498;stroke-linecap:round;stroke-linejoin:round;stroke-miterlimit:22.9256;stroke-dasharray:0.7498,2.2493;}
	
		.st1{fill-rule:evenodd;clip-rule:evenodd;fill:none;stroke:#010005;stroke-width:1.4998;stroke-linecap:round;stroke-linejoin:round;stroke-miterlimit:22.9256;}
	.st2{fill-rule:evenodd;clip-rule:evenodd;fill:#FFFFFF;}
	
		.st3{fill-rule:evenodd;clip-rule:evenodd;fill:#FFFFFF;stroke:#010005;stroke-width:1.4998;stroke-linecap:round;stroke-linejoin:round;stroke-miterlimit:22.9256;}
	
		.st4{fill-rule:evenodd;clip-rule:evenodd;fill:none;stroke:#626262;stroke-width:0.75;stroke-linecap:round;stroke-linejoin:round;stroke-miterlimit:22.9256;}
</style>
<g>
	<line class="st0" x1="87" y1="94.5" x2="87" y2="72.4"/>
	<line class="st0" x1="87" y1="94.5" x2="92.7" y2="71.6"/>
	<line class="st0" x1="87" y1="94.5" x2="81.2" y2="71.6"/>
</g>
<rect x="26.3" y="37.3" class="st1" width="39" height="15.9"/>
<polygon class="st2" points="75.4,69.3 98.5,69.3 98.3,64.8 96.1,64.6 96.1,58.7 77.8,58.7 77.8,64.8 75.6,64.8 "/>
<line class="st1" x1="96.1" y1="64.8" x2="96.1" y2="58.7"/>
<rect x="69.8" y="33.8" class="st3" width="34.3" height="24.8"/>
<rect x="75.4" y="64.8" class="st3" width="23.2" height="4.5"/>
<line class="st1" x1="77.8" y1="64.8" x2="77.8" y2="58.7"/>
<polygon class="st1" points="67.6,38.8 69.8,37.3 69.8,53.2 67.6,51.6 "/>
<polygon class="st1" points="67.6,38.8 65.3,37.3 65.3,53.2 67.6,51.6 "/>
<polygon class="st1" points="24.1,38.8 26.3,37.3 26.3,53.2 24.1,51.6 "/>
<line class="st4" x1="88" y1="39.3" x2="98.9" y2="39.3"/>
<line class="st4" x1="32.3" y1="48.9" x2="32.3" y2="41.5"/>
</svg>
