<?xml version="1.0" encoding="utf-8"?>
<!-- Generator: Adobe Illustrator 23.0.1, SVG Export Plug-In . SVG Version: 6.00 Build 0)  -->
<svg version="1.1" id="Слой_1" xmlns="http://www.w3.org/2000/svg" xmlns:xlink="http://www.w3.org/1999/xlink" x="0px" y="0px"
	 viewBox="0 0 128.2 128.2" style="enable-background:new 0 0 128.2 128.2;" xml:space="preserve">
<style type="text/css">
	.st0{fill-rule:evenodd;clip-rule:evenodd;fill:none;stroke:#000003;stroke-width:1.4998;stroke-miterlimit:22.9256;}
	.st1{fill-rule:evenodd;clip-rule:evenodd;fill:none;stroke:#616262;stroke-width:0.5669;stroke-miterlimit:22.9256;}
	
		.st2{fill-rule:evenodd;clip-rule:evenodd;fill:#FFFFFF;stroke:#000003;stroke-width:1.4998;stroke-linecap:round;stroke-linejoin:round;stroke-miterlimit:22.9256;}
	.st3{fill-rule:evenodd;clip-rule:evenodd;fill:#000003;}
	.st4{fill-rule:evenodd;clip-rule:evenodd;fill:#FFFFFF;stroke:#000003;stroke-width:1.4998;stroke-miterlimit:22.9256;}
	.st5{fill-rule:evenodd;clip-rule:evenodd;fill:none;stroke:#616262;stroke-width:0.7498;stroke-miterlimit:22.9256;}
	
		.st6{fill-rule:evenodd;clip-rule:evenodd;fill:none;stroke:#1A1A18;stroke-width:1.4998;stroke-linecap:round;stroke-miterlimit:22.9256;}
</style>
<g>
	<rect x="13.1" y="23.2" class="st0" width="44.2" height="44.2"/>
	<rect x="16.4" y="26.5" class="st1" width="37.6" height="37.6"/>
	<polygon class="st0" points="30.2,30.7 40.2,30.7 40.2,40.3 49.8,40.3 49.8,50.3 40.2,50.3 40.2,59.9 30.2,59.9 30.2,50.3 
		20.6,50.3 20.6,40.3 30.2,40.3 	"/>
</g>
<g>
	<polygon class="st2" points="58,70.9 115.1,70.9 86.6,20.3 	"/>
	<path class="st3" d="M82.6,54.1c0-1.4,0.8-2.7,1.9-3.4L80.1,43c-3.8,2.2-6.4,6.4-6.4,11.1H82.6L82.6,54.1z M93,65.2l-4.5-7.7
		c-0.6,0.3-1.2,0.5-2,0.5c-0.7,0-1.3-0.2-1.9-0.5l-4.5,7.7c1.9,1.1,4,1.7,6.3,1.7C88.9,66.9,91.1,66.3,93,65.2L93,65.2z M90.5,54.1
		l8.9,0c0-4.7-2.6-8.9-6.4-11.1l-4.5,7.7C89.7,51.4,90.5,52.6,90.5,54.1z"/>
	<path class="st3" d="M86.5,56.1c1.1,0,2.1-0.9,2.1-2.1c0-1.1-0.9-2.1-2.1-2.1c-1.1,0-2.1,0.9-2.1,2.1
		C84.5,55.2,85.4,56.1,86.5,56.1z"/>
</g>
<ellipse transform="matrix(0.9951 -9.853754e-02 9.853754e-02 0.9951 -7.4394 6.1978)" class="st4" cx="59" cy="78.4" rx="29.5" ry="29.5"/>
<path class="st5" d="M43.6,59.4L78,93.9c3.4-4.2,5.5-9.6,5.5-15.4c0-13.5-11-24.5-24.5-24.5C53.2,53.9,47.8,56,43.6,59.4L43.6,59.4z
	 M46.3,69.2L40,63c-3.4,4.2-5.5,9.6-5.5,15.4c0,13.5,11,24.5,24.5,24.5c5.9,0,11.2-2.1,15.4-5.5L49.3,72.3"/>
<path class="st3" d="M60.1,83.1l-6.7,6.7L49.7,86l6.6-6.6L60.1,83.1L60.1,83.1z M60,75.8l3.7,3.7l11.9-11.9l-3.7-3.7L60,75.8z"/>
<line class="st0" x1="46.4" y1="89.4" x2="50.1" y2="93.1"/>
<line class="st0" x1="48.4" y1="87.4" x2="52.1" y2="91.1"/>
<path class="st0" d="M47.2,86.2c-3-3-3-7.8,0-10.8"/>
<path class="st6" d="M47.2,64.7c3,3,3,7.8,0,10.8"/>
<path class="st6" d="M45.3,66.8c1.9,1.9,1.9,5,0,6.9"/>
<path class="st0" d="M45.3,88.2c-4-4-4-10.5,0-14.5"/>
</svg>
