<?xml version="1.0" encoding="utf-8"?>
<!-- Generator: Adobe Illustrator 23.0.1, SVG Export Plug-In . SVG Version: 6.00 Build 0)  -->
<svg version="1.1" id="Слой_1" xmlns="http://www.w3.org/2000/svg" xmlns:xlink="http://www.w3.org/1999/xlink" x="0px" y="0px"
	 viewBox="0 0 128.2 128.2" style="enable-background:new 0 0 128.2 128.2;" xml:space="preserve">
<style type="text/css">
	.st0{fill-rule:evenodd;clip-rule:evenodd;fill:#000003;stroke:#000003;stroke-width:1.4998;stroke-miterlimit:22.9256;}
	
		.st1{fill-rule:evenodd;clip-rule:evenodd;fill:none;stroke:#FFFFFF;stroke-width:0.7498;stroke-linecap:round;stroke-linejoin:round;stroke-miterlimit:22.9256;}
	.st2{fill-rule:evenodd;clip-rule:evenodd;fill:#FFFFFF;stroke:#000003;stroke-width:1.4998;stroke-miterlimit:22.9256;}
</style>
<path class="st0" d="M18.7,44h90.9c2.2,0,3.9,1.8,3.9,3.9v23.9c0,2.2-1.8,3.9-3.9,3.9H18.7c-2.2,0-3.9-1.8-3.9-3.9V48
	C14.8,45.8,16.5,44,18.7,44z"/>
<path class="st0" d="M18.8,32h90.7c2.2,0,4,1.8,4,4v0.2c0,2.2-1.8,4-4,4H18.8c-2.2,0-4-1.8-4-4V36C14.8,33.8,16.6,32,18.8,32z"/>
<g>
	<line class="st1" x1="19.6" y1="69.5" x2="19.6" y2="69.9"/>
	<line class="st1" x1="23.9" y1="58.8" x2="23.9" y2="59.3"/>
	<line class="st1" x1="19.3" y1="47.6" x2="19.3" y2="48.1"/>
	<line class="st1" x1="30.1" y1="64.7" x2="30.1" y2="65.2"/>
	<line class="st1" x1="35.8" y1="71.2" x2="35.8" y2="71.6"/>
	<line class="st1" x1="36.8" y1="58" x2="36.8" y2="58.5"/>
	<line class="st1" x1="32.3" y1="49.3" x2="32.3" y2="49.8"/>
	<line class="st1" x1="43.4" y1="46.5" x2="43.4" y2="46.9"/>
	<line class="st1" x1="46.4" y1="61" x2="46.4" y2="61.5"/>
	<line class="st1" x1="45.8" y1="71.4" x2="45.8" y2="71.9"/>
	<line class="st1" x1="54.9" y1="68.1" x2="54.9" y2="68.5"/>
	<line class="st1" x1="51.4" y1="52.9" x2="51.4" y2="53.4"/>
	<line class="st1" x1="57.2" y1="45.7" x2="57.2" y2="46.1"/>
	<line class="st1" x1="58.8" y1="59.3" x2="58.8" y2="59.8"/>
	<line class="st1" x1="59.8" y1="71.4" x2="59.8" y2="71.9"/>
	<line class="st1" x1="64.7" y1="66.2" x2="64.7" y2="66.6"/>
	<line class="st1" x1="73.2" y1="69.9" x2="73.2" y2="70.4"/>
	<line class="st1" x1="64.7" y1="53.8" x2="64.7" y2="54.3"/>
	<line class="st1" x1="69.3" y1="47.1" x2="69.3" y2="47.5"/>
	<line class="st1" x1="69" y1="59.7" x2="69" y2="60.2"/>
	<line class="st1" x1="76.9" y1="54.3" x2="76.9" y2="54.8"/>
	<line class="st1" x1="83.6" y1="70.4" x2="83.6" y2="70.9"/>
	<line class="st1" x1="79.9" y1="62.4" x2="79.9" y2="62.9"/>
	<line class="st1" x1="86.7" y1="53.5" x2="86.7" y2="54"/>
	<line class="st1" x1="100" y1="70.6" x2="100" y2="71.1"/>
	<line class="st1" x1="104.3" y1="60" x2="104.3" y2="60.4"/>
	<line class="st1" x1="99.7" y1="48.8" x2="99.7" y2="49.2"/>
	<line class="st1" x1="110.4" y1="65.8" x2="110.4" y2="66.3"/>
	<line class="st1" x1="91.7" y1="65.9" x2="91.7" y2="66.4"/>
	<line class="st1" x1="95.7" y1="57.3" x2="95.7" y2="57.8"/>
	<line class="st1" x1="87.3" y1="48.1" x2="87.3" y2="48.5"/>
	<line class="st1" x1="25.1" y1="36.2" x2="25.1" y2="36.6"/>
	<line class="st1" x1="38.9" y1="34.7" x2="38.9" y2="35.1"/>
	<line class="st1" x1="49.4" y1="37" x2="49.4" y2="37.4"/>
	<line class="st1" x1="61.3" y1="35.2" x2="61.3" y2="35.6"/>
	<line class="st1" x1="71.8" y1="37.5" x2="71.8" y2="38"/>
	<line class="st1" x1="83.3" y1="36.4" x2="83.3" y2="36.9"/>
	<line class="st1" x1="96.4" y1="34.7" x2="96.4" y2="35.1"/>
	<line class="st1" x1="110.9" y1="35.4" x2="110.9" y2="35.9"/>
	<line class="st1" x1="104.1" y1="37.6" x2="104.1" y2="38"/>
	<line class="st1" x1="106.7" y1="51.4" x2="106.7" y2="51.9"/>
</g>
<g>
	<path class="st2" d="M60.3,84.7c-0.3-5.9-8.8-9-8.8-21.6c0-3,0.4-12.1,6.7-14c7.3-2.2,11.8,6.9,12.7,14.4c0.9,7.4-3.5,9.4-0.9,16.4
		c1,2.4,1.3,1.9,2.9,2.7c0.6,1.9,4.3,11.6-4,13.5c-6.6,1.5-8.5-4.1-9.5-10.1C59.8,85.3,60.2,85,60.3,84.7z"/>
	<path class="st2" d="M92.9,71.9c-0.3-5.9,7.9-9.8,6.7-22.3c-0.3-3-1.6-12-8-13.3c-7.5-1.5-11.1,8-11.3,15.5
		c-0.2,7.4,4.4,9,2.5,16.2c-0.7,2.4-1.1,2-2.6,3c-0.4,1.9-3.2,12,5.2,13c6.7,0.8,8.1-4.9,8.4-10.9C93.4,72.5,92.9,72.2,92.9,71.9z"
		/>
</g>
</svg>
