<?xml version="1.0" encoding="utf-8"?>
<!-- Generator: Adobe Illustrator 19.0.0, SVG Export Plug-In . SVG Version: 6.00 Build 0)  -->
<svg version="1.1" id="Слой_1" xmlns="http://www.w3.org/2000/svg" xmlns:xlink="http://www.w3.org/1999/xlink" x="0px" y="0px"
	 viewBox="0 0 128.2 128.2" style="enable-background:new 0 0 128.2 128.2;" xml:space="preserve">
<style type="text/css">
	.st0{fill-rule:evenodd;clip-rule:evenodd;fill:#2065AF;stroke:#000000;stroke-width:0.75;stroke-miterlimit:22.9256;}
	.st1{fill-rule:evenodd;clip-rule:evenodd;fill:none;stroke:#000000;stroke-width:1.5001;stroke-miterlimit:22.9256;}
	.st2{fill-rule:evenodd;clip-rule:evenodd;fill:#FFFFFF;stroke:#000000;stroke-width:1.5001;stroke-miterlimit:22.9256;}
</style>
<g>
	<path class="st0" d="M80.3,45.5c2,0.3,4.1,0.7,6.2,1c2.2,0.3,4.4,0.7,6.6,1c-0.5,1.1-0.9,2.1-1.4,3.2c-2.2-0.4-4.4-0.8-6.6-1.1
		c-2.1-0.4-4.2-0.7-6.2-1.1C79.3,47.5,79.8,46.5,80.3,45.5z"/>
	<path class="st0" d="M75.5,55.7c2,0.4,4.1,0.9,6.2,1.3c2.2,0.4,4.3,0.9,6.6,1.4c-0.5,1.1-1,2.2-1.5,3.3c-2.2-0.5-4.4-1-6.6-1.5
		c-2.1-0.5-4.2-0.9-6.2-1.4C74.6,57.7,75.1,56.7,75.5,55.7z"/>
	<path class="st0" d="M70.7,66.2c2,0.5,4.1,1.1,6.2,1.6c2.1,0.6,4.3,1.1,6.5,1.7c-0.5,1.1-1,2.3-1.5,3.4c-2.2-0.6-4.4-1.2-6.5-1.8
		c-2.1-0.6-4.1-1.2-6.2-1.7C69.7,68.3,70.2,67.3,70.7,66.2z"/>
	<path class="st0" d="M65.6,77.1c2,0.6,4.1,1.3,6.1,2c2.1,0.7,4.3,1.4,6.5,2.1c-0.5,1.2-1,2.3-1.6,3.5c-2.2-0.7-4.4-1.5-6.5-2.2
		c-2.1-0.7-4.1-1.4-6.1-2.1C64.6,79.3,65.1,78.2,65.6,77.1z"/>
	<path class="st0" d="M60.4,88.3c2,0.8,4,1.5,6.1,2.3c2.1,0.8,4.3,1.6,6.5,2.5c-0.5,1.2-1.1,2.4-1.6,3.7c-2.2-0.9-4.3-1.7-6.4-2.6
		c-2.1-0.8-4.1-1.6-6.1-2.4C59.4,90.6,59.9,89.4,60.4,88.3z"/>
</g>
<path class="st1" d="M79.7,33.2c1.5,0.2,3,0.3,4.5,0.5c6,0.6,12.3,1.3,19,2C98.6,46.2,93.9,57.1,89,68.4C84,80,78.7,92.1,73.3,104.6
	c-8.1-3.5-15.7-6.8-22.7-9.8c-6.6-2.8-12.7-5.5-18.4-8c1.8-3.5,3.5-6.9,5.2-10.4c0.4-0.7,0.7-1.4,1.1-2.2"/>
<path class="st1" d="M83.5,38.5c2.1,0.3,4.1,0.5,6.3,0.8c2.2,0.3,4.4,0.5,6.6,0.8c-1.5,3.5-3.1,7-4.7,10.6c-2.2-0.4-4.4-0.8-6.6-1.1
	c-2.1-0.4-4.2-0.7-6.2-1.1C80.4,45.1,82,41.8,83.5,38.5z"/>
<path class="st1" d="M78.9,48.5c2,0.3,4.1,0.7,6.2,1.1c2.2,0.4,4.4,0.8,6.6,1.1c-1.6,3.6-3.2,7.3-4.8,10.9c-2.2-0.5-4.4-1-6.6-1.5
	c-2.1-0.5-4.2-0.9-6.2-1.4C75.7,55.3,77.3,51.9,78.9,48.5z"/>
<path class="st1" d="M74.1,58.8c2,0.5,4.1,0.9,6.2,1.4c2.1,0.5,4.3,1,6.6,1.5c-1.6,3.7-3.3,7.5-5,11.3c-2.2-0.6-4.4-1.2-6.5-1.8
	c-2.1-0.6-4.1-1.2-6.2-1.7C70.8,65.8,72.5,62.3,74.1,58.8z"/>
<path class="st1" d="M69.2,69.4c2,0.6,4.1,1.1,6.2,1.7c2.1,0.6,4.3,1.2,6.5,1.8c-1.7,3.9-3.4,7.8-5.2,11.7c-2.2-0.7-4.4-1.5-6.5-2.2
	c-2.1-0.7-4.1-1.4-6.1-2.1C65.8,76.7,67.5,73,69.2,69.4z"/>
<path class="st1" d="M64.1,80.4c2,0.7,4,1.4,6.1,2.1c2.1,0.7,4.3,1.4,6.5,2.2c-1.8,4-3.5,8-5.3,12.1c-2.2-0.9-4.3-1.7-6.4-2.6
	c-2.1-0.8-4.1-1.6-6.1-2.4C60.6,87.9,62.4,84.1,64.1,80.4z"/>
<path class="st2" d="M53.1,23.6c6.1,0.6,12.6,1.3,19.5,2c7.3,0.8,15.2,1.6,23.5,2.4c-4.6,10.5-9.3,21.4-14.2,32.7
	C76.9,72.4,71.6,84.5,66.2,97c-8.1-3.5-15.7-6.8-22.7-9.8c-6.6-2.8-12.7-5.5-18.4-8c5-9.9,9.9-19.6,14.6-28.9
	C44.3,41.1,48.8,32.3,53.1,23.6z"/>
<g>
	<path class="st0" d="M51.2,34.4c1.7,0.3,3.4,0.5,5.1,0.8c1.7,0.3,3.5,0.6,5.3,0.8c-0.5,0.9-0.9,1.9-1.4,2.8
		c-1.8-0.3-3.6-0.6-5.3-0.9c-1.7-0.3-3.4-0.6-5.1-0.9C50.3,36.2,50.8,35.3,51.2,34.4z"/>
	<path class="st0" d="M61.6,36c1.8,0.3,3.7,0.6,5.6,0.9c1.9,0.3,3.9,0.6,5.9,0.9c-0.5,1-0.9,2-1.4,3c-2-0.3-4-0.7-5.9-1
		c-1.9-0.3-3.8-0.6-5.6-1C60.7,37.9,61.2,37,61.6,36z"/>
	<path class="st0" d="M73.2,37.9c2,0.3,4.1,0.7,6.2,1c2.2,0.3,4.4,0.7,6.6,1c-0.5,1.1-0.9,2.1-1.4,3.2c-2.2-0.4-4.4-0.8-6.6-1.1
		c-2.1-0.4-4.2-0.7-6.2-1.1C72.2,39.9,72.7,38.9,73.2,37.9z"/>
	<path class="st0" d="M46.6,43.6c1.6,0.3,3.3,0.7,5,1c1.7,0.4,3.5,0.7,5.3,1.1c-0.5,1-0.9,2-1.4,2.9c-1.8-0.4-3.6-0.8-5.3-1.2
		c-1.7-0.4-3.4-0.7-5-1.1C45.7,45.4,46.2,44.5,46.6,43.6z"/>
	<path class="st0" d="M57,45.7c1.8,0.4,3.7,0.8,5.6,1.2c1.9,0.4,3.9,0.8,5.9,1.2c-0.5,1-1,2.1-1.4,3.1c-2-0.4-4-0.9-5.9-1.3
		c-1.9-0.4-3.7-0.8-5.6-1.2C56,47.6,56.5,46.7,57,45.7z"/>
	<path class="st0" d="M68.4,48.1c2,0.4,4.1,0.9,6.2,1.3c2.2,0.4,4.3,0.9,6.6,1.4c-0.5,1.1-1,2.2-1.5,3.3c-2.2-0.5-4.4-1-6.6-1.5
		c-2.1-0.5-4.2-0.9-6.2-1.4C67.5,50.1,68,49.1,68.4,48.1z"/>
	<path class="st0" d="M41.9,53c1.6,0.4,3.3,0.9,5,1.3c1.7,0.4,3.5,0.9,5.3,1.4c-0.5,1-1,2-1.5,3c-1.8-0.5-3.5-1-5.2-1.5
		c-1.7-0.5-3.3-0.9-5-1.4C41,54.9,41.5,53.9,41.9,53z"/>
	<path class="st0" d="M52.2,55.6c1.8,0.5,3.7,1,5.5,1.4c1.9,0.5,3.9,1,5.9,1.5c-0.5,1.1-1,2.1-1.5,3.2c-2-0.5-3.9-1.1-5.8-1.6
		c-1.9-0.5-3.7-1-5.5-1.5C51.2,57.6,51.7,56.6,52.2,55.6z"/>
	<path class="st0" d="M63.6,58.6c2,0.5,4.1,1.1,6.2,1.6c2.1,0.6,4.3,1.1,6.5,1.7c-0.5,1.1-1,2.3-1.5,3.4c-2.2-0.6-4.4-1.2-6.5-1.8
		c-2.1-0.6-4.1-1.2-6.2-1.7C62.6,60.7,63.1,59.7,63.6,58.6z"/>
	<path class="st0" d="M37.1,62.6c1.6,0.5,3.3,1,4.9,1.6c1.7,0.5,3.4,1.1,5.2,1.7c-0.5,1-1,2.1-1.5,3.1c-1.8-0.6-3.5-1.2-5.2-1.7
		c-1.7-0.6-3.3-1.1-4.9-1.7C36.1,64.6,36.6,63.6,37.1,62.6z"/>
	<path class="st0" d="M47.2,65.9c1.8,0.6,3.6,1.1,5.5,1.7c1.9,0.6,3.8,1.2,5.8,1.9c-0.5,1.1-1,2.2-1.5,3.3c-2-0.7-3.9-1.3-5.8-1.9
		c-1.9-0.6-3.7-1.2-5.5-1.8C46.3,67.9,46.7,66.9,47.2,65.9z"/>
	<path class="st0" d="M58.5,69.5c2,0.6,4.1,1.3,6.1,2c2.1,0.7,4.3,1.4,6.5,2.1c-0.5,1.2-1,2.3-1.6,3.5c-2.2-0.7-4.4-1.5-6.5-2.2
		c-2.1-0.7-4.1-1.4-6.1-2.1C57.5,71.7,58,70.6,58.5,69.5z"/>
	<path class="st0" d="M32.1,72.6c1.6,0.6,3.2,1.2,4.9,1.9c1.7,0.6,3.4,1.3,5.1,2c-0.5,1.1-1,2.1-1.5,3.2c-1.7-0.7-3.5-1.4-5.1-2.1
		c-1.7-0.7-3.3-1.3-4.9-1.9C31.1,74.6,31.6,73.6,32.1,72.6z"/>
	<path class="st0" d="M42.2,76.4c1.8,0.7,3.6,1.4,5.4,2.1c1.9,0.7,3.8,1.4,5.8,2.2c-0.5,1.1-1.1,2.3-1.6,3.4c-2-0.8-3.9-1.5-5.7-2.3
		c-1.8-0.7-3.6-1.5-5.4-2.2C41.1,78.6,41.6,77.5,42.2,76.4z"/>
	<path class="st0" d="M53.4,80.7c2,0.8,4,1.5,6.1,2.3c2.1,0.8,4.3,1.6,6.5,2.5c-0.5,1.2-1.1,2.4-1.6,3.7c-2.2-0.9-4.3-1.7-6.4-2.6
		c-2.1-0.8-4.1-1.6-6.1-2.4C52.3,83,52.8,81.8,53.4,80.7z"/>
</g>
<path class="st1" d="M54.3,28.1c1.7,0.2,3.4,0.4,5.1,0.6c1.8,0.2,3.5,0.4,5.4,0.7c-1.5,3.1-3,6.3-4.6,9.4c-1.8-0.3-3.6-0.6-5.3-0.9
	c-1.7-0.3-3.4-0.6-5.1-0.9C51.4,34.1,52.9,31.1,54.3,28.1z"/>
<path class="st1" d="M64.8,29.4c1.8,0.2,3.7,0.5,5.6,0.7c1.9,0.2,3.9,0.5,5.9,0.7c-1.5,3.3-3.1,6.6-4.6,10c-2-0.3-4-0.7-5.9-1
	c-1.9-0.3-3.8-0.6-5.6-1C61.8,35.7,63.3,32.6,64.8,29.4z"/>
<path class="st1" d="M76.4,30.9c2.1,0.3,4.1,0.5,6.3,0.8c2.2,0.3,4.4,0.5,6.6,0.8c-1.5,3.5-3.1,7-4.7,10.6c-2.2-0.4-4.4-0.8-6.6-1.1
	c-2.1-0.4-4.2-0.7-6.2-1.1C73.3,37.5,74.9,34.2,76.4,30.9z"/>
<path class="st1" d="M49.9,37.1c1.7,0.3,3.3,0.6,5.1,0.9c1.7,0.3,3.5,0.6,5.3,0.9c-1.5,3.2-3.1,6.5-4.7,9.7
	c-1.8-0.4-3.6-0.8-5.3-1.2c-1.7-0.4-3.4-0.7-5-1.1C46.8,43.2,48.3,40.1,49.9,37.1z"/>
<path class="st1" d="M60.2,38.9c1.8,0.3,3.7,0.6,5.6,1c1.9,0.3,3.9,0.7,5.9,1c-1.6,3.4-3.2,6.8-4.8,10.3c-2-0.4-4-0.9-5.9-1.3
	c-1.9-0.4-3.7-0.8-5.6-1.2C57.1,45.3,58.7,42.1,60.2,38.9z"/>
<path class="st1" d="M71.8,40.9c2,0.3,4.1,0.7,6.2,1.1c2.2,0.4,4.4,0.8,6.6,1.1c-1.6,3.6-3.2,7.3-4.8,10.9c-2.2-0.5-4.4-1-6.6-1.5
	c-2.1-0.5-4.2-0.9-6.2-1.4C68.6,47.7,70.2,44.3,71.8,40.9z"/>
<path class="st1" d="M45.3,46.3c1.6,0.4,3.3,0.7,5,1.1c1.7,0.4,3.5,0.8,5.3,1.2c-1.6,3.3-3.2,6.7-4.8,10c-1.8-0.5-3.5-1-5.2-1.5
	c-1.7-0.5-3.3-0.9-5-1.4C42.1,52.6,43.7,49.5,45.3,46.3z"/>
<path class="st1" d="M55.6,48.6c1.8,0.4,3.7,0.8,5.6,1.2c1.9,0.4,3.9,0.9,5.9,1.3c-1.6,3.5-3.3,7.1-4.9,10.6c-2-0.5-3.9-1.1-5.8-1.6
	c-1.9-0.5-3.7-1-5.5-1.5C52.4,55.3,54,51.9,55.6,48.6z"/>
<path class="st1" d="M67,51.2c2,0.5,4.1,0.9,6.2,1.4c2.1,0.5,4.3,1,6.6,1.5c-1.6,3.7-3.3,7.5-5,11.3c-2.2-0.6-4.4-1.2-6.5-1.8
	c-2.1-0.6-4.1-1.2-6.2-1.7C63.7,58.2,65.4,54.7,67,51.2z"/>
<path class="st1" d="M40.5,55.8c1.6,0.5,3.3,0.9,5,1.4c1.7,0.5,3.5,1,5.2,1.5c-1.6,3.4-3.3,6.9-5,10.3c-1.8-0.6-3.5-1.2-5.2-1.7
	c-1.7-0.6-3.3-1.1-4.9-1.7C37.3,62.3,38.9,59,40.5,55.8z"/>
<path class="st1" d="M50.7,58.6c1.8,0.5,3.6,1,5.5,1.5c1.9,0.5,3.9,1.1,5.8,1.6c-1.7,3.6-3.4,7.3-5.1,11c-2-0.7-3.9-1.3-5.8-1.9
	c-1.9-0.6-3.7-1.2-5.5-1.8C47.4,65.5,49.1,62.1,50.7,58.6z"/>
<path class="st1" d="M62.1,61.8c2,0.6,4.1,1.1,6.2,1.7c2.1,0.6,4.3,1.2,6.5,1.8c-1.7,3.9-3.4,7.8-5.2,11.7c-2.2-0.7-4.4-1.5-6.5-2.2
	c-2.1-0.7-4.1-1.4-6.1-2.1C58.7,69.1,60.4,65.4,62.1,61.8z"/>
<path class="st1" d="M35.6,65.6c1.6,0.5,3.3,1.1,4.9,1.7c1.7,0.6,3.4,1.2,5.2,1.7c-1.7,3.5-3.4,7.1-5.1,10.7
	c-1.7-0.7-3.5-1.4-5.1-2.1c-1.7-0.7-3.3-1.3-4.9-1.9C32.3,72.3,34,68.9,35.6,65.6z"/>
<path class="st1" d="M45.7,69c1.8,0.6,3.6,1.2,5.5,1.8c1.9,0.6,3.8,1.3,5.8,1.9c-1.7,3.7-3.5,7.5-5.2,11.4c-2-0.8-3.9-1.5-5.7-2.3
	c-1.8-0.7-3.6-1.5-5.4-2.2C42.3,76.1,44.1,72.5,45.7,69z"/>
<path class="st1" d="M57,72.8c2,0.7,4,1.4,6.1,2.1c2.1,0.7,4.3,1.4,6.5,2.2c-1.8,4-3.5,8-5.3,12.1c-2.2-0.9-4.3-1.7-6.4-2.6
	c-2.1-0.8-4.1-1.6-6.1-2.4C53.5,80.3,55.3,76.5,57,72.8z"/>
</svg>
