<?xml version="1.0" encoding="utf-8"?>
<!-- Generator: Adobe Illustrator 19.0.0, SVG Export Plug-In . SVG Version: 6.00 Build 0)  -->
<svg version="1.1" id="Слой_1" xmlns="http://www.w3.org/2000/svg" xmlns:xlink="http://www.w3.org/1999/xlink" x="0px" y="0px"
	 viewBox="0 0 128.2 128.2" style="enable-background:new 0 0 128.2 128.2;" xml:space="preserve">
<style type="text/css">
	.st0{fill-rule:evenodd;clip-rule:evenodd;fill:#538ECB;stroke:#010005;stroke-width:0.5669;stroke-miterlimit:22.9256;}
	
		.st1{fill-rule:evenodd;clip-rule:evenodd;fill:none;stroke:#010005;stroke-width:0.7775;stroke-linecap:round;stroke-linejoin:round;stroke-miterlimit:22.9256;}
	
		.st2{fill-rule:evenodd;clip-rule:evenodd;fill:none;stroke:#010005;stroke-width:1.5001;stroke-linecap:round;stroke-linejoin:round;stroke-miterlimit:22.9256;}
	
		.st3{fill-rule:evenodd;clip-rule:evenodd;fill:none;stroke:#010005;stroke-width:0.75;stroke-linecap:round;stroke-linejoin:round;stroke-miterlimit:22.9256;}
	
		.st4{fill-rule:evenodd;clip-rule:evenodd;fill:none;stroke:#010005;stroke-width:1.4998;stroke-linecap:round;stroke-linejoin:round;stroke-miterlimit:22.9256;}
	
		.st5{fill-rule:evenodd;clip-rule:evenodd;fill:none;stroke:#010005;stroke-width:1.1069;stroke-linecap:round;stroke-linejoin:round;stroke-miterlimit:22.9256;}
	.st6{fill-rule:evenodd;clip-rule:evenodd;fill:none;stroke:#010005;stroke-width:1.5001;stroke-miterlimit:22.9256;}
</style>
<g>
	<polygon class="st0" points="31.6,81.6 33.1,104.8 34.9,106.8 93.1,106.9 95.3,104.8 96.8,82 91,77 61.4,77 55.8,81.5 	"/>
	<path class="st0" d="M42.4,39.5l0.4-13.9h27.3l0.4,13.9C61.2,39.5,51.8,39.5,42.4,39.5L42.4,39.5z M69.5,44.9l0,4.9h25.9l3.1-2.2
		l-3.3-26l-2.5-1.4l-29.5-0.8l-27.8,0.6l-2.1,1.6L30,47.6l3.1,2.2h10.4l0-4.9C52.9,44.9,60.1,44.9,69.5,44.9z"/>
	<line class="st1" x1="41.8" y1="47.6" x2="41.8" y2="44.9"/>
	<polyline class="st2" points="56.4,42.7 37.7,42.7 38.7,22.2 56.4,22.2 	"/>
	<polyline class="st3" points="56.5,39.5 42.4,39.5 42.8,25.5 56.5,25.5 	"/>
	<line class="st1" x1="71.1" y1="47.6" x2="71.1" y2="44.9"/>
	<polyline class="st2" points="56.6,42.7 75.3,42.7 74.2,22.2 56.6,22.2 	"/>
	<polyline class="st3" points="56.5,39.5 70.5,39.5 70.1,25.5 56.5,25.5 	"/>
	<path class="st3" d="M30,47.6h11.8 M71.1,47.6h27.3"/>
	<polyline class="st2" points="31.6,81.6 55.8,81.5 61.4,77 91,77 96.9,81.6 	"/>
	<path class="st3" d="M33.1,49.8h10.4l-1.7-2.2 M71.1,47.6l-1.7,2.2h25.9"/>
	<path class="st3" d="M66.8,75l-3.7-7.9 M85.6,75l3.7-7.9 M89.3,67.1V52.1 M63.1,52.1h26.2 M66.8,75h18.8 M63.1,67.1V52.1"/>
	<path class="st2" d="M64.2,106.8l-11.8,0l-17.3,0l-2-2l-1.5-23.1 M33.1,80.4V49.8L30,47.6l3.1-25.2c0-1.8,1.9-2.5,6.6-2.6l24.5-0.5
		"/>
	<line class="st1" x1="43.5" y1="49.8" x2="43.5" y2="44.9"/>
	<line class="st1" x1="69.5" y1="49.8" x2="69.5" y2="44.9"/>
	<polyline class="st2" points="37.7,42.7 38.9,44.9 56.3,44.9 	"/>
	<polyline class="st2" points="75.3,42.7 74,44.9 56.7,44.9 	"/>
	<polyline class="st3" points="32.9,102.2 39,102.2 44.2,98 64.2,98 	"/>
	<polyline class="st4" points="81.6,106.8 81.6,108.9 87.8,108.9 87.8,106.8 	"/>
	<polyline class="st4" points="40.6,106.8 40.6,108.9 46.8,108.9 46.8,106.8 	"/>
	<polyline class="st3" points="95.5,102.2 89.4,102.2 84.2,98 64.2,98 	"/>
	<line class="st5" x1="78.6" y1="26.3" x2="90.5" y2="26.3"/>
	<line class="st5" x1="37.8" y1="86.9" x2="49.7" y2="86.9"/>
	<path class="st2" d="M64.2,106.8l11.8,0l17.3,0l2-2l1.5-23.1 M95.3,78.5V49.8l3.1-2.2l-3.1-25.2c0-1.8-1.9-2.5-6.6-2.6l-24.5-0.5"
		/>
	<path class="st6" d="M69.8,67.7h12.8c0.7,0,1.3,0.6,1.3,1.3v0c0,0.7-0.6,1.3-1.3,1.3H69.8c-0.7,0-1.3-0.6-1.3-1.3v0
		C68.4,68.3,69,67.7,69.8,67.7z"/>
	<path class="st2" d="M55.1,70.5V72 M37.1,70.5V72 M52.1,70.5c0,0.5,0,1,0,1.5 M49.1,70.5c0,0.5,0,1,0,1.5 M46.1,70.5
		c0,0.5,0,1,0,1.5 M43.1,70.5c0,0.5,0,1,0,1.5 M40.1,70.5c0,0.5,0,1,0,1.5"/>
</g>
</svg>
