<?xml version="1.0" encoding="utf-8"?>
<!-- Generator: Adobe Illustrator 19.0.0, SVG Export Plug-In . SVG Version: 6.00 Build 0)  -->
<svg version="1.1" id="Слой_1" xmlns="http://www.w3.org/2000/svg" xmlns:xlink="http://www.w3.org/1999/xlink" x="0px" y="0px"
	 viewBox="0 0 128.2 128.2" style="enable-background:new 0 0 128.2 128.2;" xml:space="preserve">
<style type="text/css">
	.st0{fill-rule:evenodd;clip-rule:evenodd;fill:#FFFFFF;stroke:#626262;stroke-width:0.75;stroke-miterlimit:22.9256;}
	
		.st1{fill-rule:evenodd;clip-rule:evenodd;fill:none;stroke:#010005;stroke-width:1.4998;stroke-linecap:round;stroke-linejoin:round;stroke-miterlimit:22.9256;}
	.st2{fill-rule:evenodd;clip-rule:evenodd;fill:#010005;}
	
		.st3{fill-rule:evenodd;clip-rule:evenodd;fill:none;stroke:#010005;stroke-width:1.5001;stroke-linecap:round;stroke-linejoin:round;stroke-miterlimit:22.9256;}
</style>
<g>
	<path class="st0" d="M32.6,100.5h63.1c2.7,0,4.9-2.2,4.9-4.9V32.5c0-2.7-2.2-4.9-4.9-4.9H32.6c-2.7,0-4.9,2.2-4.9,4.9v63.1
		C27.7,98.3,29.9,100.5,32.6,100.5z"/>
	<path class="st1" d="M42.3,27.7c13.4,0,28.5,9.7,26.7,34c28-1.2,31.5,10.9,31.5,21.9"/>
	<path class="st1" d="M60.7,35c8.3,6.7,22.8,18.2,35.4,34"/>
	<path class="st2" d="M36.2,41v46.1h-1.5V41H36.2L36.2,41z M39.5,41v46.1h-0.7V41H39.5L39.5,41z M43.6,41v46.1h-1.8V41H43.6L43.6,41
		z M47.6,41v46.1H45V41H47.6L47.6,41z M50.1,41v46.1h-0.4V41H50.1L50.1,41z M54,41v46.1h-1.1V41H54L54,41z M58.4,41v46.1h-2.5V41
		H58.4L58.4,41z M62.5,41v46.1h-3.6V41H62.5L62.5,41z M65.4,41.1v46.1h-2.2V41L65.4,41.1L65.4,41.1L65.4,41.1z M68.3,48v39.2h-0.7
		V46.3c0.1,0.2,0.3,0.4,0.3,0.6c0.1,0.2,0.1,0.4,0.2,0.6C68.1,47.6,68.2,47.8,68.3,48L68.3,48z M72.2,61.3v25.8h-1.5v-26
		C71.2,61.4,71.7,61.4,72.2,61.3L72.2,61.3z M75.3,61.3v25.8h-0.4V61.1C75,61.2,75.1,61.3,75.3,61.3L75.3,61.3z M79,61.9v25.3h-0.7
		V61.9L79,61.9L79,61.9z M82.6,62v25.2h-0.7V61.9C82.1,61.9,82.5,62,82.6,62L82.6,62z M87.3,63.2v24h-2.9V62.5
		c0.1,0,0.3,0.1,0.4,0.1c0.3,0.1,0.6,0.2,0.9,0.2c0.4,0.1,0.7,0.2,1.1,0.3C87,63.1,87.2,63.1,87.3,63.2L87.3,63.2z M90.6,64.5v22.7
		h-2.2V63.6c0.1,0,0.2,0.1,0.3,0.1c0.2,0.1,0.3,0.2,0.5,0.2c0.3,0.2,0.6,0.3,0.9,0.4C90.2,64.3,90.5,64.4,90.6,64.5L90.6,64.5z
		 M93.3,65.8l0.1,0.1v21.3h-0.7V65.4C92.9,65.6,93.1,65.7,93.3,65.8z"/>
	<path class="st3" d="M42.3,27.7h-9.7c-2.7,0-4.9,2.2-4.9,4.9v63.1c0,2.7,2.2,4.9,4.9,4.9h63.1c2.7,0,4.9-2.2,4.9-4.9V83.5"/>
</g>
</svg>
