<?xml version="1.0" encoding="utf-8"?>
<!-- Generator: Adobe Illustrator 19.0.0, SVG Export Plug-In . SVG Version: 6.00 Build 0)  -->
<svg version="1.1" id="Слой_1" xmlns="http://www.w3.org/2000/svg" xmlns:xlink="http://www.w3.org/1999/xlink" x="0px" y="0px"
	 viewBox="-1.8 -1.6 128.2 128.2" style="enable-background:new -1.8 -1.6 128.2 128.2;" xml:space="preserve">
<style type="text/css">
	
		.st0{fill-rule:evenodd;clip-rule:evenodd;fill:none;stroke:#000003;stroke-width:1.5001;stroke-linecap:round;stroke-linejoin:round;stroke-miterlimit:22.9256;}
	.st1{fill-rule:evenodd;clip-rule:evenodd;fill:#FFFFFF;}
	
		.st2{fill-rule:evenodd;clip-rule:evenodd;fill:none;stroke:#616262;stroke-width:0.75;stroke-linecap:round;stroke-linejoin:round;stroke-miterlimit:22.9256;}
	
		.st3{fill-rule:evenodd;clip-rule:evenodd;fill:none;stroke:#000003;stroke-width:1.4998;stroke-linecap:round;stroke-linejoin:round;stroke-miterlimit:22.9256;}
	
		.st4{fill-rule:evenodd;clip-rule:evenodd;fill:none;stroke:#000003;stroke-width:1.5063;stroke-linecap:round;stroke-linejoin:round;stroke-miterlimit:22.9256;}
</style>
<g>
	<line class="st0" x1="22" y1="40.4" x2="89.7" y2="73.5"/>
	<polygon class="st1" points="80.5,50.6 55.2,38.1 52,38.7 50.1,40.4 35,59.8 62,74.6 75.6,55.2 78.2,52.9 81.9,51.5 	"/>
	<line class="st2" x1="62" y1="74.6" x2="35" y2="59.8"/>
	<polyline class="st3" points="76,54.7 44.2,99.9 16.4,83.7 49.6,40.9 	"/>
	<path class="st0" d="M75.6,66.6c-1.7-1.3-2.6-3.7-2.1-6.7c0.8-4.3,4.1-7.8,7.4-7.8c0.8,0,2.3,0.3,2.9,0.6"/>
	<path class="st4" d="M49.7,40.8c1.4-1.6,2.8-2.1,4.5-2.1c0.8,0,1.4,0.2,2,0.5"/>
	<path class="st4" d="M22,40.4c-2.3-0.9-3.5-3.9-2.9-7.5c0.8-4.3,4.1-7.8,7.4-7.8c0.5,0,1,0.1,1.4,0.2c0.2,0.1,0.3,0.1,0.5,0.2"/>
	<line class="st0" x1="28.7" y1="25.7" x2="96.8" y2="59.1"/>
	<path class="st4" d="M95.2,72.6c-1.1,0.9-2.4,1.4-3.6,1.4c-3.3,0-5.3-3.5-4.4-7.8c0.8-4.3,4.1-7.8,7.4-7.8c2.7,0,4.6,2.4,4.6,5.8"
		/>
	<path class="st2" d="M91.6,70.3c-0.9-0.7-1.4-2.1-1.1-3.7c0.4-2.3,2.2-4.1,3.9-4.1c0.4,0,0.8,0.1,1.1,0.3"/>
	<path class="st2" d="M105.6,68c1.7,0,2.8,1.8,2.4,4.1c-0.4,2.3-2.2,4.1-3.9,4.1c-1.7,0-2.8-1.8-2.4-4.1
		C102.1,69.8,103.9,68,105.6,68z"/>
	<line class="st2" x1="91.6" y1="70.3" x2="103.2" y2="76"/>
	<line class="st2" x1="95.3" y1="62.7" x2="106.6" y2="68.2"/>
	<line class="st2" x1="92.6" y1="63.2" x2="103.9" y2="68.7"/>
	<line class="st2" x1="91.4" y1="64.4" x2="102.7" y2="69.9"/>
	<line class="st2" x1="90.6" y1="66.2" x2="101.9" y2="71.7"/>
	<line class="st2" x1="90.4" y1="67.7" x2="101.7" y2="73.2"/>
</g>
</svg>
