<?xml version="1.0" encoding="utf-8"?>
<!-- Generator: Adobe Illustrator 19.0.0, SVG Export Plug-In . SVG Version: 6.00 Build 0)  -->
<svg version="1.1" id="Слой_1" xmlns="http://www.w3.org/2000/svg" xmlns:xlink="http://www.w3.org/1999/xlink" x="0px" y="0px"
	 viewBox="-2 -1.7 128.2 128.2" style="enable-background:new -2 -1.7 128.2 128.2;" xml:space="preserve">
<style type="text/css">
	
		.st0{fill-rule:evenodd;clip-rule:evenodd;fill:none;stroke:#000003;stroke-width:1.5001;stroke-linecap:round;stroke-linejoin:round;stroke-miterlimit:22.9256;}
	.st1{fill-rule:evenodd;clip-rule:evenodd;fill:#538DCA;}
	
		.st2{fill-rule:evenodd;clip-rule:evenodd;fill:none;stroke:#000003;stroke-width:1.5063;stroke-linecap:round;stroke-linejoin:round;stroke-miterlimit:22.9256;}
	
		.st3{fill-rule:evenodd;clip-rule:evenodd;fill:none;stroke:#000003;stroke-width:0.75;stroke-linecap:round;stroke-linejoin:round;stroke-miterlimit:22.9256;}
	
		.st4{fill-rule:evenodd;clip-rule:evenodd;fill:none;stroke:#000003;stroke-width:1.4998;stroke-linecap:round;stroke-linejoin:round;stroke-miterlimit:22.9256;}
</style>
<g>
	<line class="st0" x1="21.9" y1="40.3" x2="89.6" y2="73.4"/>
	<polygon class="st1" points="80.4,50.5 55.1,38 51.9,38.6 50,40.3 34.9,59.7 61.9,74.5 75.5,55.1 78.1,52.8 81.8,51.4 	"/>
	<path class="st2" d="M95.1,72.5c-1.1,0.9-2.4,1.4-3.6,1.4c-3.3,0-5.3-3.5-4.4-7.8c0.8-4.3,4.1-7.8,7.4-7.8c2.7,0,4.6,2.4,4.6,5.8"
		/>
	<line class="st3" x1="61.9" y1="74.5" x2="34.9" y2="59.7"/>
	<polyline class="st4" points="75.9,54.6 44.1,99.8 16.3,83.5 49.5,40.8 	"/>
	<path class="st3" d="M91.5,70.2c-0.9-0.7-1.4-2.1-1.1-3.7c0.4-2.3,2.2-4.1,3.9-4.1c0.4,0,0.8,0.1,1.1,0.3"/>
	<path class="st3" d="M105.5,67.8c1.7,0,2.8,1.8,2.4,4.1c-0.4,2.3-2.2,4.1-3.9,4.1c-1.7,0-2.8-1.8-2.4-4.1
		C102,69.7,103.8,67.8,105.5,67.8z"/>
	<path class="st2" d="M75.5,66.5c-1.7-1.3-2.6-3.7-2.1-6.7c0.8-4.3,4.1-7.8,7.4-7.8c0.8,0,2.3,0.3,2.9,0.6"/>
	<path class="st2" d="M49.6,40.7c1.4-1.6,2.8-2.1,4.5-2.1c0.8,0,1.4,0.2,2,0.5"/>
	<path class="st2" d="M21.9,40.3c-2.3-0.9-3.5-3.9-2.9-7.5c0.8-4.3,4.1-7.8,7.4-7.8c0.5,0,1,0.1,1.4,0.2c0.2,0.1,0.3,0.1,0.5,0.2"/>
	<line class="st0" x1="28.6" y1="25.6" x2="96.7" y2="59"/>
	<line class="st3" x1="91.5" y1="70.2" x2="103.1" y2="75.9"/>
	<line class="st3" x1="95.2" y1="62.6" x2="106.5" y2="68.1"/>
	<line class="st3" x1="92.5" y1="63.1" x2="103.8" y2="68.6"/>
	<line class="st3" x1="91.3" y1="64.3" x2="102.6" y2="69.8"/>
	<line class="st3" x1="90.5" y1="66" x2="101.8" y2="71.6"/>
	<line class="st3" x1="90.3" y1="67.6" x2="101.6" y2="73.1"/>
</g>
</svg>
