<?xml version="1.0" encoding="utf-8"?>
<!-- Generator: Adobe Illustrator 19.0.0, SVG Export Plug-In . SVG Version: 6.00 Build 0)  -->
<svg version="1.1" id="Слой_1" xmlns="http://www.w3.org/2000/svg" xmlns:xlink="http://www.w3.org/1999/xlink" x="0px" y="0px"
	 viewBox="0 0 128.2 128.2" style="enable-background:new 0 0 128.2 128.2;" xml:space="preserve">
<style type="text/css">
	.st0{fill-rule:evenodd;clip-rule:evenodd;fill:#FFFFFF;}
	
		.st1{fill-rule:evenodd;clip-rule:evenodd;fill:none;stroke:#010005;stroke-width:0.7775;stroke-linecap:round;stroke-linejoin:round;stroke-miterlimit:22.9256;}
	
		.st2{fill-rule:evenodd;clip-rule:evenodd;fill:none;stroke:#010005;stroke-width:1.5001;stroke-linecap:round;stroke-linejoin:round;stroke-miterlimit:22.9256;}
	
		.st3{fill-rule:evenodd;clip-rule:evenodd;fill:none;stroke:#010005;stroke-width:0.75;stroke-linecap:round;stroke-linejoin:round;stroke-miterlimit:22.9256;}
	
		.st4{fill-rule:evenodd;clip-rule:evenodd;fill:none;stroke:#626262;stroke-width:0.75;stroke-linecap:round;stroke-linejoin:round;stroke-miterlimit:22.9256;}
	
		.st5{fill-rule:evenodd;clip-rule:evenodd;fill:none;stroke:#010005;stroke-width:1.4998;stroke-linecap:round;stroke-linejoin:round;stroke-miterlimit:22.9256;}
	
		.st6{fill-rule:evenodd;clip-rule:evenodd;fill:none;stroke:#010005;stroke-width:1.1069;stroke-linecap:round;stroke-linejoin:round;stroke-miterlimit:22.9256;}
	.st7{fill-rule:evenodd;clip-rule:evenodd;fill:none;stroke:#000000;stroke-width:1.5001;stroke-miterlimit:22.9256;}
</style>
<polygon class="st0" points="31.5,81.6 33,104.7 34.8,106.7 93,106.8 95.2,104.7 96.8,82 90.9,77 61.3,77 55.7,81.5 "/>
<path class="st0" d="M42.3,39.4l0.4-13.9H70l0.4,13.9C61.1,39.4,51.7,39.4,42.3,39.4L42.3,39.4z M69.4,44.8l0,4.9h25.9l3.1-2.2
	l-3.3-26l-2.5-1.4l-29.5-0.8l-27.8,0.6l-2.1,1.6l-3.3,26.2l3.1,2.2h10.4l0-4.9C52.8,44.8,60,44.8,69.4,44.8z"/>
<line class="st1" x1="41.7" y1="47.5" x2="41.7" y2="44.8"/>
<polyline class="st2" points="56.3,42.6 37.6,42.6 38.6,22.2 56.3,22.1 "/>
<polyline class="st3" points="56.4,39.4 42.3,39.4 42.7,25.4 56.4,25.4 "/>
<line class="st1" x1="71.1" y1="47.5" x2="71.1" y2="44.8"/>
<polyline class="st2" points="56.5,42.6 75.2,42.6 74.1,22.2 56.5,22.1 "/>
<polyline class="st3" points="56.4,39.4 70.5,39.4 70,25.4 56.4,25.4 "/>
<path class="st3" d="M29.9,47.5h11.8 M71.1,47.5h27.3"/>
<polyline class="st2" points="31.5,81.6 55.7,81.5 61.3,77 90.9,77 96.8,81.6 "/>
<path class="st3" d="M33,49.7h10.4l-1.7-2.2 M71.1,47.5l-1.7,2.2h25.9"/>
<path class="st4" d="M66.7,75L63,67 M85.5,75l3.7-7.9 M89.2,67V52 M63,52h26.2 M66.7,75h18.8 M63,67V52"/>
<path class="st2" d="M64.1,106.7l-11.8,0l-17.3,0l-2-2l-1.5-23.1 M33,80.3V49.7l-3.1-2.2L33,22.3c0-1.8,1.9-2.5,6.6-2.6l24.5-0.5"/>
<line class="st1" x1="43.4" y1="49.7" x2="43.4" y2="44.8"/>
<line class="st1" x1="69.4" y1="49.7" x2="69.4" y2="44.8"/>
<polyline class="st2" points="37.6,42.6 38.9,44.8 56.2,44.8 "/>
<polyline class="st2" points="75.2,42.6 73.9,44.8 56.6,44.8 "/>
<polyline class="st4" points="32.8,102.1 38.9,102.1 44.1,98 64.1,98 "/>
<polyline class="st5" points="81.5,106.7 81.5,108.9 87.7,108.9 87.7,106.7 "/>
<polyline class="st5" points="40.6,106.7 40.5,108.9 46.8,108.9 46.8,106.7 "/>
<polyline class="st4" points="95.4,102.1 89.3,102.1 84.2,98 64.1,98 "/>
<line class="st6" x1="78.5" y1="26.3" x2="90.4" y2="26.3"/>
<line class="st6" x1="37.7" y1="86.8" x2="49.6" y2="86.8"/>
<path class="st2" d="M64.1,106.7l11.8,0l17.3,0l2-2l1.5-23.1 M95.2,78.4V49.7l3.1-2.2l-3.1-25.2c0-1.8-1.9-2.5-6.6-2.6l-24.5-0.5"/>
<path class="st7" d="M69.7,67.6h12.8c0.7,0,1.3,0.6,1.3,1.3v0c0,0.7-0.6,1.3-1.3,1.3H69.7c-0.7,0-1.3-0.6-1.3-1.3v0
	C68.4,68.2,69,67.6,69.7,67.6z"/>
<path class="st2" d="M55,70.5v1.5 M37,70.5v1.5 M52,70.5c0,0.5,0,1,0,1.5 M49,70.5c0,0.5,0,1,0,1.5 M46,70.5c0,0.5,0,1,0,1.5
	 M43,70.5c0,0.5,0,1,0,1.5 M40,70.5c0,0.5,0,1,0,1.5"/>
</svg>
