<?xml version="1.0" encoding="utf-8"?>
<!-- Generator: Adobe Illustrator 19.0.0, SVG Export Plug-In . SVG Version: 6.00 Build 0)  -->
<svg version="1.1" id="Слой_1" xmlns="http://www.w3.org/2000/svg" xmlns:xlink="http://www.w3.org/1999/xlink" x="0px" y="0px"
	 viewBox="0 0 128.2 128.2" style="enable-background:new 0 0 128.2 128.2;" xml:space="preserve">
<style type="text/css">
	.st0{fill-rule:evenodd;clip-rule:evenodd;fill:#FFFFFF;}
	
		.st1{fill-rule:evenodd;clip-rule:evenodd;fill:none;stroke:#626262;stroke-width:0.7498;stroke-linecap:round;stroke-linejoin:round;stroke-miterlimit:22.9256;}
	
		.st2{fill-rule:evenodd;clip-rule:evenodd;fill:none;stroke:#010005;stroke-width:1.5625;stroke-linecap:round;stroke-linejoin:round;stroke-miterlimit:22.9256;}
	
		.st3{fill-rule:evenodd;clip-rule:evenodd;fill:none;stroke:#010005;stroke-width:1.5001;stroke-linecap:round;stroke-linejoin:round;stroke-miterlimit:22.9256;}
	
		.st4{fill-rule:evenodd;clip-rule:evenodd;fill:none;stroke:#010005;stroke-width:2.2357;stroke-linecap:round;stroke-linejoin:round;stroke-miterlimit:22.9256;}
	
		.st5{fill-rule:evenodd;clip-rule:evenodd;fill:none;stroke:#626262;stroke-width:1.1574;stroke-linecap:round;stroke-linejoin:round;stroke-miterlimit:22.9256;}
	
		.st6{fill-rule:evenodd;clip-rule:evenodd;fill:none;stroke:#626262;stroke-width:1.2385;stroke-linecap:round;stroke-linejoin:round;stroke-miterlimit:22.9256;}
	
		.st7{fill-rule:evenodd;clip-rule:evenodd;fill:none;stroke:#626262;stroke-width:0.7523;stroke-linecap:round;stroke-linejoin:round;stroke-miterlimit:22.9256;}
	
		.st8{fill-rule:evenodd;clip-rule:evenodd;fill:none;stroke:#010005;stroke-width:1.6639;stroke-linecap:round;stroke-linejoin:round;stroke-miterlimit:22.9256;}
	
		.st9{fill-rule:evenodd;clip-rule:evenodd;fill:none;stroke:#626262;stroke-width:0.9414;stroke-linecap:round;stroke-linejoin:round;stroke-miterlimit:22.9256;}
	
		.st10{fill-rule:evenodd;clip-rule:evenodd;fill:#FFFFFF;stroke:#010005;stroke-width:1.4998;stroke-linecap:round;stroke-linejoin:round;stroke-miterlimit:22.9256;}
	
		.st11{fill-rule:evenodd;clip-rule:evenodd;fill:#FFFFFF;stroke:#000000;stroke-width:0.75;stroke-linecap:round;stroke-linejoin:round;stroke-miterlimit:22.9256;}
	
		.st12{fill-rule:evenodd;clip-rule:evenodd;fill:none;stroke:#010005;stroke-width:1.0576;stroke-linecap:round;stroke-linejoin:round;stroke-miterlimit:22.9256;}
</style>
<path class="st0" d="M46.8,40.8l0.5-13.4l16.5,0l16.5,0l0.5,13.4l-17,0L46.8,40.8L46.8,40.8z M64.1,73.7l13.1,0.1
	c5.1,0.1,7.2,0.8,7.2,2.8c0,1.5,0,2.9,0,4c0,2.3,0,3.9,0,5.5c0,1.6,0,3.1,0,4.9l8.3,0c-2.4-51.2,0,0-3-63.7c0-0.8-0.1-2.1-0.4-3.3
	l-50.5,0c-0.3,1.2-0.4,2.5-0.4,3.3c-3,63.7-0.6,12.5-3,63.7l8.3,0c0-1.9,0-3.3,0-5c0-1.5,0-3.2,0-5.5c0-1.2,0-2.5,0-4
	c0-2,2.1-2.7,7.2-2.8L64.1,73.7z"/>
<line class="st1" x1="84.4" y1="80.6" x2="43.8" y2="80.6"/>
<path class="st2" d="M35.5,91c-2.3-0.5-4.6-4.4-4.6-8.1c2.6-58.1,0,0,2.6-58.1c0.1-1.7,1.9-3.7,3.7-3.8c2.5-0.3,16.4-0.3,26.5-0.5"
	/>
<polyline class="st3" points="63.8,40.8 46.8,40.8 47.3,27.3 63.8,27.3 "/>
<line class="st1" x1="84.4" y1="86.1" x2="43.8" y2="86.1"/>
<path class="st2" d="M92.7,91c2.3-0.5,4.6-4.4,4.6-8.1c-2.6-58.1,0,0-2.6-58.1c-0.1-1.7-1.9-3.7-3.7-3.8c-2.5-0.3-17-0.3-27.2-0.5"
	/>
<path class="st4" d="M84.4,91c0-4.5,0-6.7,0-14.4c0-2-2.1-2.7-7.2-2.8l-13.1-0.1"/>
<polyline class="st3" points="63.8,40.8 80.7,40.8 80.2,27.3 63.8,27.3 "/>
<line class="st5" x1="89.8" y1="46.8" x2="37.8" y2="46.8"/>
<line class="st6" x1="89.3" y1="24" x2="38.9" y2="24"/>
<path class="st7" d="M45.8,66.1l0-15.4 M81.8,66.1l0-15.4 M49.8,66.1c0-5.1,0-10.3,0-15.4 M53.8,66.1c0-5.1,0-10.3,0-15.4
	 M57.8,66.1c0-5.1,0-10.3,0-15.4 M61.8,66.1c0-5.1,0-10.3,0-15.4 M65.8,66.1c0-5.1,0-10.3,0-15.4 M69.8,66.1c0-5.1,0-10.3,0-15.4
	 M73.8,66.1c0-5.1,0-10.3,0-15.4 M77.8,66.1c0-5.1,0-10.3,0-15.4"/>
<path class="st4" d="M43.8,91c0-4.5,0-6.7,0-14.4c0-2,2.1-2.7,7.2-2.8l13.1-0.1"/>
<path class="st8" d="M64.1,91l-28.6,0c2.4-51.2,0,0,3-63.7c-0.1-1.9,0.5-6.1,2.7-6.4"/>
<path class="st8" d="M64.1,91l28.6,0c-2.4-51.2,0,0-3-63.7c0.1-1.9-0.5-6.1-2.7-6.4"/>
<line class="st9" x1="83.3" y1="70.1" x2="44.9" y2="70.1"/>
<g>
	<path class="st10" d="M64.1,107.5H35.7c0.2-0.6,6.7-1.4,6.9-2c2.1-5.6,4.6-13.1,4.4-24.9c5.9,0,11.3,0,17.2,0c5.9,0,11.3,0,17.2,0
		c-0.2,12.1,2.2,19.3,4.4,24.9c0.2,0.5,6.7,1.6,6.9,2H64.1z"/>
	<polygon class="st11" points="64.1,103.2 52.4,96.6 59.4,97.1 60.5,86.1 64.1,86.1 67.6,86.1 68.7,97.1 75.7,96.6 	"/>
	<line class="st12" x1="85.7" y1="105.6" x2="42.6" y2="105.5"/>
</g>
</svg>
