<?xml version="1.0" encoding="utf-8"?>
<!-- Generator: Adobe Illustrator 19.0.0, SVG Export Plug-In . SVG Version: 6.00 Build 0)  -->
<svg version="1.1" id="Слой_1" xmlns="http://www.w3.org/2000/svg" xmlns:xlink="http://www.w3.org/1999/xlink" x="0px" y="0px"
	 viewBox="-1.3 -1.4 128.2 128.2" style="enable-background:new -1.3 -1.4 128.2 128.2;" xml:space="preserve">
<style type="text/css">
	
		.st0{fill-rule:evenodd;clip-rule:evenodd;fill:none;stroke:#000003;stroke-width:0.75;stroke-linecap:round;stroke-linejoin:round;stroke-miterlimit:22.9256;}
	.st1{fill-rule:evenodd;clip-rule:evenodd;fill:#E5390D;stroke:#000003;stroke-width:1.4998;stroke-miterlimit:22.9256;}
	.st2{fill-rule:evenodd;clip-rule:evenodd;fill:#FFFFFF;}
	.st3{fill-rule:evenodd;clip-rule:evenodd;fill:none;stroke:#000003;stroke-width:0.7498;stroke-miterlimit:22.9256;}
	.st4{fill-rule:evenodd;clip-rule:evenodd;fill:#000003;}
	.st5{fill-rule:evenodd;clip-rule:evenodd;fill:none;stroke:#000003;stroke-width:1.4998;stroke-miterlimit:22.9256;}
	.st6{fill-rule:evenodd;clip-rule:evenodd;fill:none;stroke:#000003;stroke-width:1.4995;stroke-miterlimit:22.9256;}
	
		.st7{fill-rule:evenodd;clip-rule:evenodd;fill:none;stroke:#1A1A18;stroke-width:1.4995;stroke-linecap:round;stroke-miterlimit:22.9256;}
	.st8{fill-rule:evenodd;clip-rule:evenodd;fill:#FFD933;stroke:#000003;stroke-width:1.4998;stroke-miterlimit:22.9256;}
	.st9{fill-rule:evenodd;clip-rule:evenodd;fill:#4BB489;}
	
		.st10{fill-rule:evenodd;clip-rule:evenodd;fill:none;stroke:#000003;stroke-width:0.7498;stroke-linecap:round;stroke-linejoin:round;stroke-miterlimit:22.9256;}
	
		.st11{fill-rule:evenodd;clip-rule:evenodd;fill:none;stroke:#000003;stroke-width:1.4998;stroke-linecap:round;stroke-linejoin:round;stroke-miterlimit:22.9256;}
</style>
<g>
	<line class="st0" x1="52.8" y1="111.8" x2="90.8" y2="111.8"/>
	<g>
		<circle class="st1" cx="80.3" cy="43.2" r="29.5"/>
		<g>
			<path class="st2" d="M64.8,24.2l34.5,34.5c3.4-4.2,5.5-9.6,5.5-15.4c0-13.5-11-24.5-24.5-24.5C74.4,18.7,69,20.7,64.8,24.2
				L64.8,24.2z M67.5,34l3.1,3.1l25.1,25.1c-4.2,3.4-9.6,5.5-15.4,5.5c-13.5,0-24.5-11-24.5-24.5c0-5.9,2.1-11.2,5.5-15.4L67.5,34z"
				/>
			<path class="st3" d="M64.8,24.2l34.5,34.5c3.4-4.2,5.5-9.6,5.5-15.4c0-13.5-11-24.5-24.5-24.5C74.4,18.7,69,20.7,64.8,24.2
				L64.8,24.2z M67.5,34l-6.2-6.2c-3.4,4.2-5.5,9.6-5.5,15.4c0,13.5,11,24.5,24.5,24.5c5.9,0,11.2-2.1,15.4-5.5L70.5,37"/>
		</g>
		<path class="st4" d="M81.3,47.8l-6.7,6.7L71,50.8l6.6-6.6L81.3,47.8L81.3,47.8z M81.2,40.5l3.7,3.7l11.9-11.9l-3.7-3.7L81.2,40.5z
			"/>
		<line class="st5" x1="67.6" y1="54.1" x2="71.4" y2="57.8"/>
		<line class="st5" x1="69.6" y1="52.2" x2="73.3" y2="55.9"/>
		<path class="st6" d="M68.4,51c-3-3-3-7.8,0-10.8"/>
		<path class="st7" d="M68.4,29.5c3,3,3,7.8,0,10.8"/>
		<path class="st7" d="M66.5,31.6c1.9,1.9,1.9,5,0,6.9"/>
		<path class="st5" d="M66.5,52.9c-4-4-4-10.5,0-14.5"/>
	</g>
	<g>
		<path class="st8" d="M47.6,71.5c-3.2-4.4,1.1-11.5-6.2-20.6c-1.7-2.1-7.3-8.4-13-6.1c-6.5,2.7-4.5,11.8-0.7,17.7
			c3.6,5.8,7.9,4.7,10.2,11.2c0.7,2.2,0.2,2.1-0.5,3.6C38,78.9,41,88.1,48,84.6c5.6-2.8,3.7-7.9,0.9-12.7
			C48.3,71.6,47.8,71.7,47.6,71.5z"/>
		<path class="st8" d="M28.6,97.3C27.1,92,18.9,91,16.4,79.6c-0.6-2.7-2-11,3.3-14c6.2-3.4,12,3.9,14.3,10.5
			c2.3,6.4-1.3,9.1,2.3,14.9c1.3,1.9,1.5,1.4,3.1,1.9c0.9,1.6,6.2,9.7-0.9,12.9c-5.7,2.6-8.5-2.1-10.5-7.2
			C28.3,98,28.6,97.6,28.6,97.3z"/>
	</g>
	<g>
		<path class="st2" d="M63.8,81.5C74.6,72,79.6,61.3,77.6,59.1c-2-2.2-13.2,4-23.1,13.3c-9.9,9.3-13,17.5-11,19.7
			C45.4,94.3,53,91.1,63.8,81.5z"/>
		<g>
			<path class="st2" d="M74.8,69.2c1.3,12.5-0.5,30.7-0.4,38c3-1.9,6.2-4.3,9.2-7.3c1.9-1.8,3.5-3.5,5-5.3
				c-1.4-9.5-1.9-21.3-6.2-30.4l-4.6-4.9C79.3,60.9,78,64.6,74.8,69.2z"/>
			<path class="st2" d="M48.3,92.1c0,1.6,0.2,3.6,0.7,5.9l11.7,12.3c0.1,0.1,0.3,0.2,0.4,0.3C59.8,103.9,60,96,59.8,85
				C55.5,88.4,51.4,90.9,48.3,92.1z"/>
		</g>
		<g>
			<path class="st9" d="M82.5,64.3c4.3,9.1,4.8,20.9,6.2,30.4c6.2-7.3,9-14.3,6.5-17L82.5,64.3z"/>
			<path class="st9" d="M59.8,85c0.2,11.1,0,19,1.3,25.7c2.3,1.7,7.5,0.3,13.3-3.4c0-7.3,1.7-25.6,0.4-38c-2.3,3.4-5.7,7.3-9.8,11.1
				C63.3,82.1,61.5,83.6,59.8,85z"/>
			<path class="st9" d="M43.4,92.1L49,98c-0.5-2.3-0.8-4.4-0.7-5.9C46,92.9,44.3,93,43.4,92.1z"/>
		</g>
		
			<ellipse transform="matrix(-0.6874 -0.7263 0.7263 -0.6874 47.8273 170.6536)" class="st10" cx="60.6" cy="75" rx="3.6" ry="13.9"/>
		
			<ellipse transform="matrix(-0.6874 -0.7263 0.7263 -0.6874 47.3029 171.8759)" class="st11" cx="60.6" cy="75.8" rx="6.4" ry="23.7"/>
		<path class="st11" d="M95.1,77.7c3.1,3.3-2,13.3-11.5,22.3c-9.5,9-19.8,13.6-22.9,10.3"/>
		<path class="st11" d="M77.9,59.4l17.3,18.2 M43.4,92.1l17.3,18.2"/>
		<path class="st10" d="M82.5,64.3c4.3,9.1,4.8,20.9,6.2,30.4"/>
		<path class="st10" d="M74.8,69.2c1.3,12.5-0.5,30.7-0.4,38"/>
		<path class="st10" d="M59.8,84.8c0.2,11.2,0,19.1,1.3,25.9"/>
		<path class="st10" d="M48.3,92.1c0,1.6,0.2,3.6,0.7,5.9"/>
	</g>
</g>
</svg>
