<?xml version="1.0" encoding="utf-8"?>
<!-- Generator: Adobe Illustrator 23.0.1, SVG Export Plug-In . SVG Version: 6.00 Build 0)  -->
<svg version="1.1" id="Слой_1" xmlns="http://www.w3.org/2000/svg" xmlns:xlink="http://www.w3.org/1999/xlink" x="0px" y="0px"
	 viewBox="0 0 128.2 128.2" style="enable-background:new 0 0 128.2 128.2;" xml:space="preserve">
<style type="text/css">
	.st0{fill-rule:evenodd;clip-rule:evenodd;fill:#FFD933;stroke:#000003;stroke-width:1.4998;stroke-miterlimit:22.9256;}
	.st1{fill-rule:evenodd;clip-rule:evenodd;fill:#FFD933;}
	
		.st2{fill-rule:evenodd;clip-rule:evenodd;fill:none;stroke:#000003;stroke-width:1.4998;stroke-linecap:round;stroke-linejoin:round;stroke-miterlimit:22.9256;}
	
		.st3{fill-rule:evenodd;clip-rule:evenodd;fill:#FFD933;stroke:#000003;stroke-width:1.4998;stroke-linecap:round;stroke-linejoin:round;stroke-miterlimit:22.9256;}
</style>
<g>
	<path class="st0" d="M68.5,98.8c1.1-5.8-6.4-10.8-3.6-23c0.7-2.9,3.2-11.6,9.8-12.1c7.6-0.4,9.9,9.4,9,16.9
		C82.9,88,78.1,89,79,96.3c0.4,2.5,0.8,2.1,2.2,3.3c0.2,1.9,1.5,12.3-7,12.2c-6.8-0.1-7.3-6-6.8-12C67.9,99.3,68.4,99.1,68.5,98.8z"
		/>
	<path class="st0" d="M102.1,98.8c-1.1-5.8,6.4-10.8,3.6-23c-0.7-2.9-3.2-11.6-9.8-12.1c-7.6-0.4-9.9,9.4-9,16.9
		c0.8,7.4,5.6,8.3,4.7,15.7c-0.4,2.5-0.8,2.1-2.2,3.3c-0.2,1.9-1.5,12.3,7,12.2c6.8-0.1,7.3-6,6.8-12
		C102.7,99.3,102.2,99.1,102.1,98.8z"/>
</g>
<g>
	<ellipse transform="matrix(0.3827 -0.9239 0.9239 0.3827 22.101 97.589)" class="st0" cx="84.1" cy="32.3" rx="13.9" ry="13.9"/>
	<circle class="st0" cx="94.1" cy="42.3" r="13.9"/>
</g>
<g>
	<path class="st1" d="M29.6,70.6V58.2h-5.3l0,12.4H29.6L29.6,70.6z M24.3,53.4l15.5-15.6l4.9,4.9h10L34.5,22.4L14.2,42.8h10V53.4z"
		/>
	<path class="st2" d="M29.7,70.6h-5.4l0-12.4 M24.3,53.4V42.8h-10l20.3-20.4l20.3,20.4h-10"/>
	<polygon class="st3" points="50,58.2 50,86 29.6,86 29.6,58.2 19.5,58.2 39.8,37.8 60.1,58.2 	"/>
</g>
</svg>
