<?xml version="1.0" encoding="utf-8"?>
<!-- Generator: Adobe Illustrator 23.0.1, SVG Export Plug-In . SVG Version: 6.00 Build 0)  -->
<svg version="1.1" id="Слой_1" xmlns="http://www.w3.org/2000/svg" xmlns:xlink="http://www.w3.org/1999/xlink" x="0px" y="0px"
	 viewBox="0 0 128.2 128.2" style="enable-background:new 0 0 128.2 128.2;" xml:space="preserve">
<style type="text/css">
	
		.st0{fill-rule:evenodd;clip-rule:evenodd;fill:none;stroke:#616262;stroke-width:0.7498;stroke-linecap:round;stroke-linejoin:round;stroke-miterlimit:22.9256;}
	
		.st1{fill-rule:evenodd;clip-rule:evenodd;fill:none;stroke:#000003;stroke-width:1.4998;stroke-linecap:round;stroke-linejoin:round;stroke-miterlimit:22.9256;}
	.st2{fill-rule:evenodd;clip-rule:evenodd;fill:#000003;}
</style>
<polyline class="st0" points="37.6,34.4 37.6,19 39,17.6 54.7,17.6 56,19 56,34.4 "/>
<path class="st1" d="M45,27.1c0-1.3,0-3.2,0-4c0-0.6,0.7-0.7,1.8-0.7c1.1,0,1.8,0.1,1.8,0.7v1.4l0,2.6 M50.8,28.9l-0.6-1.8h-6.9
	l-0.2,0.8l-0.3,1H50.8L50.8,28.9z M55.4,34.4c0-2.7-1.7-4.8-4.6-5.5 M38.2,34.4c0-2.7,1.7-4.8,4.6-5.5 M56.1,109.3L56,36.1l0.6-0.6
	v-1.1h-1.1h-8.6h-8.6h-1.1v1.1l0.6,0.6l0,73.2"/>
<polygon class="st2" points="43.9,53.6 44.6,53.6 44.6,50.9 46.3,50.9 46.3,53.2 47,53.2 47,50.9 48.7,50.9 48.7,53.6 49.4,53.6 
	49.4,50 43.9,50 "/>
<polygon class="st2" points="43.9,71.9 44.6,71.9 44.6,69.2 49.4,69.2 49.4,68.4 43.9,68.4 "/>
<path class="st2" d="M43.9,58.9l5.6-2v-0.7l-5.6-2V55l1.1,0.4v2.2L43.9,58V58.9L43.9,58.9z M45.7,57.3v-1.7l2.5,0.9L45.7,57.3z"/>
<path class="st2" d="M45.4,63.1c0.5,0,0.9-0.1,1.1-0.5c0.2-0.2,0.3-0.5,0.4-1l0.1-0.6c0-0.3,0.1-0.5,0.3-0.6
	c0.1-0.1,0.3-0.2,0.5-0.2c0.5,0,0.9,0.4,0.9,1c0,0.5-0.1,0.9-0.4,1.2l0.5,0.5c0.4-0.5,0.6-1,0.6-1.7c0-1.2-0.7-1.9-1.6-1.9
	c-0.5,0-0.8,0.1-1.1,0.4c-0.2,0.2-0.4,0.6-0.4,1.1l-0.1,0.7c0,0.3-0.1,0.5-0.2,0.6c-0.1,0.1-0.3,0.2-0.6,0.2c-0.5,0-0.9-0.4-0.9-1.2
	c0-0.6,0.1-1,0.5-1.4l-0.6-0.6c-0.5,0.5-0.7,1.1-0.7,2C43.8,62.3,44.4,63.1,45.4,63.1z"/>
<polygon class="st2" points="49.4,67.6 49.4,66.7 47,65.5 49.4,64.4 49.4,63.4 46.2,65.1 43.9,65.1 43.9,66 46.2,66 "/>
<rect x="43.9" y="72.9" class="st2" width="5.6" height="0.8"/>
<polygon class="st2" points="43.9,79.4 49.4,79.4 49.4,78.6 45.5,78.6 49.4,76 49.4,75.2 43.9,75.2 43.9,76 47.8,76 43.9,78.6 "/>
<polygon class="st2" points="43.9,84.4 44.6,84.4 44.6,81.7 46.3,81.7 46.3,84 47,84 47,81.7 48.7,81.7 48.7,84.4 49.4,84.4 
	49.4,80.9 43.9,80.9 "/>
<path class="st1" d="M56.1,109.3c0,0.7-4.1,1.3-9.2,1.3c-5.1,0-9.2-0.6-9.2-1.3"/>
<path class="st1" d="M90.7,109.3c0,0.7-4.1,1.3-9.2,1.3c-5.1,0-9.2-0.6-9.2-1.3"/>
<polyline class="st0" points="72.3,66.8 72.3,51.4 73.6,50 89.3,50 90.6,51.4 90.6,66.8 "/>
<path class="st1" d="M79.6,59.5c0-1.3,0-3.2,0-4c0-0.6,0.7-0.7,1.8-0.7c1.1,0,1.8,0.1,1.8,0.7v1.4l0,2.6 M85.4,61.3l-0.6-1.8H78
	l-0.2,0.8l-0.3,1H85.4L85.4,61.3z M90,66.8c0-2.7-1.7-4.8-4.6-5.5 M72.8,66.8c0-2.7,1.7-4.8,4.6-5.5 M90.7,109.3l-0.1-40.7l0.6-0.6
	v-1.1H90h-8.6h-8.6h-1.1V68l0.6,0.6l-0.1,40.8"/>
</svg>
