<?xml version="1.0" encoding="utf-8"?>
<!-- Generator: Adobe Illustrator 23.0.1, SVG Export Plug-In . SVG Version: 6.00 Build 0)  -->
<svg version="1.1" id="Слой_1" xmlns="http://www.w3.org/2000/svg" xmlns:xlink="http://www.w3.org/1999/xlink" x="0px" y="0px"
	 viewBox="0 0 128.2 128.2" style="enable-background:new 0 0 128.2 128.2;" xml:space="preserve">
<style type="text/css">
	.st0{fill-rule:evenodd;clip-rule:evenodd;fill:#E53912;}
	.st1{fill-rule:evenodd;clip-rule:evenodd;fill:#000003;}
	
		.st2{fill-rule:evenodd;clip-rule:evenodd;fill:none;stroke:#000003;stroke-width:0.7498;stroke-linecap:round;stroke-linejoin:round;stroke-miterlimit:22.9256;}
	
		.st3{fill-rule:evenodd;clip-rule:evenodd;fill:none;stroke:#000003;stroke-width:1.4998;stroke-linecap:round;stroke-linejoin:round;stroke-miterlimit:22.9256;}
	.st4{fill-rule:evenodd;clip-rule:evenodd;fill:#FFFFFF;}
</style>
<path class="st0" d="M62.7,89.3V73.5c0,3.9-9,7.1-20.2,7.1c-11.1,0-20.2-3.2-20.2-7.1v15.8c0,4.5,9,8.1,20.2,8.1
	C53.7,97.4,62.7,93.7,62.7,89.3z"/>
<path class="st1" d="M62.7,74.1c2.3-3.8,6.6-9.3,9.1-11.7c-5.5-1-9.1-2.8-9.1-4.7V74.1z"/>
<path class="st0" d="M62.7,87.3c7.4-10.5,17-16.5,24.5-23.9c-1,0-2,0.1-3,0.1c-4.6,0-8.9-0.4-12.4-1.1c-2.5,2.5-6.8,7.9-9.1,11.7
	V87.3z"/>
<path class="st1" d="M70.2,95.1c8.8-7.8,27-23.8,32.2-34.4c-3.3,1.4-8.8,2.4-15.2,2.6c-7.5,7.4-17.1,13.5-24.5,23.9v2.1
	C62.7,91.7,65.6,93.7,70.2,95.1z"/>
<path class="st1" d="M99.8,94.6c1.7-3,4.3-7.9,6-12V66.9c-2.9,11.4-16.4,25.3-20.8,30.3C90.6,97.1,96,95.9,99.8,94.6z"/>
<path class="st0" d="M99.8,94.6c3.7-1.3,6-3.2,6-5.2v-6.8C104.1,86.7,101.5,91.6,99.8,94.6z"/>
<path class="st0" d="M84.9,97.2c6.7-7.9,17-17.4,20.8-30.5c0-1.8,0-5.7,0-7.8c-0.9,0.7-2.6,1.4-3.4,1.9C97.1,72,75.9,89.3,70.2,95.1
	C73.2,96.4,80.6,97.3,84.9,97.2z"/>
<ellipse class="st2" cx="84.2" cy="57" rx="13.5" ry="3.1"/>
<path class="st3" d="M84.2,63.4c11.8,0,21.5-2.6,21.5-5.8c0-3.2-9.7-5.8-21.5-5.8c-11.8,0-21.5,2.6-21.5,5.8
	C62.7,60.8,72.4,63.4,84.2,63.4z"/>
<path class="st3" d="M105.7,89.4c0,4.1-9.6,7.5-21.5,7.5s-21.5-3.4-21.5-7.5"/>
<path class="st3" d="M62.7,89.3c0,4.5-9,8.1-20.2,8.1c-11.1,0-20.2-3.6-20.2-8.1"/>
<path class="st3" d="M42.6,80.5c11.1,0,20.2-3.2,20.2-7.1c0-3.9-9.1-7.1-20.2-7.1s-20.2,3.2-20.2,7.1C22.4,77.4,31.5,80.5,42.6,80.5
	z"/>
<path class="st2" d="M42.6,76.9c7.2,0,13-1.8,13-4s-5.9-4-13-4s-13,1.8-13,4S35.4,76.9,42.6,76.9z"/>
<path class="st3" d="M105.7,57.8v31.6 M62.7,57.7v31.8"/>
<path class="st3" d="M62.7,73.5v15.8 M22.4,73.5v15.8"/>
<path class="st2" d="M105.8,66.5C102.6,78,91.2,90.7,85.1,97"/>
<path class="st2" d="M102.4,60.7C97.3,71.3,79,87.3,70.2,95.1"/>
<path class="st2" d="M87.2,63.4c-7.5,7.4-17,13.4-24.5,23.9"/>
<path class="st2" d="M105.8,82.4c-1.6,4.1-4.2,9.1-6,12.2"/>
<path class="st2" d="M71.8,62.4c-2.5,2.4-6.6,7.7-8.9,11.5"/>
<path class="st2" d="M98.3,55.1c1.3,0.6,2,1.3,2,2.1c0,2.3-7.1,4.2-15.8,4.2"/>
<path class="st2" d="M43.5,78.4c-9.2,0-16.6-2.4-16.6-5.3c0-1.3,1.4-2.5,3.8-3.4"/>
<g>
	<path class="st4" d="M59.9,39.5c1,10.3-0.4,25.4-0.4,31.4c2.5-1.5,5.1-3.6,7.6-6c1.5-1.4,2.9-2.9,4.2-4.4
		c-1.1-7.9-1.5-17.6-5.1-25.1l-3.8-4C63.6,32.6,62.5,35.7,59.9,39.5z"/>
	<path class="st4" d="M38,58.3c0,1.3,0.2,3,0.6,4.9l9.6,10.2c0.1,0.1,0.2,0.2,0.3,0.3c-1-5.6-0.9-12.1-1.1-21.2
		C43.9,55.3,40.6,57.4,38,58.3z"/>
</g>
<g>
	<path class="st0" d="M66.2,35.4c3.6,7.5,3.9,17.2,5.1,25.1c5.1-6.1,7.5-11.8,5.4-14.1L66.2,35.4z"/>
	<path class="st0" d="M47.5,52.5c0.2,9.1,0,15.7,1.1,21.2c1.9,1.4,6.2,0.3,11-2.8c0-6.1,1.4-21.1,0.4-31.4c-1.9,2.8-4.7,6-8.1,9.2
		C50.4,50.1,48.9,51.3,47.5,52.5z"/>
	<path class="st0" d="M34,58.3l4.6,4.9c-0.4-1.9-0.6-3.6-0.6-4.9C36.1,59,34.7,59.1,34,58.3z"/>
</g>
<path class="st2" d="M46.2,42.1c4.6-4.4,9.3-6.9,10.4-5.8c1.1,1.2-1.7,5.7-6.3,10c-4.6,4.4-9.3,6.9-10.4,5.8
	C38.7,51,41.6,46.5,46.2,42.1z"/>
<path class="st3" d="M44.6,41c7.9-7.4,15.9-11.8,17.9-9.6c2,2.1-2.8,9.9-10.6,17.3C44,56.1,36,60.5,34,58.3
	C32,56.2,36.7,48.5,44.6,41z"/>
<path class="st3" d="M76.7,46.5c2.6,2.7-1.7,11-9.5,18.4c-7.9,7.4-16.3,11.2-18.9,8.5"/>
<path class="st3" d="M62.4,31.4l14.3,15.1 M34,58.3l14.3,15.1"/>
<path class="st2" d="M66.2,35.4c3.6,7.5,3.9,17.2,5.1,25.1"/>
<path class="st2" d="M59.9,39.5c1,10.3-0.4,25.4-0.4,31.4"/>
<path class="st2" d="M47.5,52.3c0.2,9.2,0,15.8,1.1,21.4"/>
<path class="st2" d="M38,58.3c0,1.3,0.2,3,0.6,4.9"/>
</svg>
