<?xml version="1.0" encoding="utf-8"?>
<!-- Generator: Adobe Illustrator 24.1.2, SVG Export Plug-In . SVG Version: 6.00 Build 0)  -->
<svg version="1.1" id="Слой_1" xmlns:xodm="http://www.corel.com/coreldraw/odm/2003"
	 xmlns="http://www.w3.org/2000/svg" xmlns:xlink="http://www.w3.org/1999/xlink" x="0px" y="0px" viewBox="0 0 553.7 221.8"
	 style="enable-background:new 0 0 553.7 221.8;" xml:space="preserve">
<style type="text/css">
	.st0{fill-rule:evenodd;clip-rule:evenodd;fill:#034EA2;}
	.st1{fill-rule:evenodd;clip-rule:evenodd;fill:#FFFFFF;}
	.st2{fill:#034EA2;}
</style>
<g id="Слой_x0020_1">
	<g id="_2344107001376">
		<g>
			<path class="st0" d="M33.7,0h130.4c10.3,0,17.8,8.3,16.8,18.6l-13.1,130.4c-1,10.3-10.2,18.6-20.5,18.6H16.8
				c-10.3,0-17.8-8.3-16.8-18.6L13.2,18.6C14.3,8.3,23.5,0,33.7,0z"/>
			<path class="st0" d="M220.1,0h130.4c10.3,0,17.8,8.3,16.8,18.6l-13.1,130.4c-1,10.3-10.2,18.6-20.5,18.6H203.2
				c-10.3,0-17.8-8.3-16.8-18.6l13.1-130.4C200.6,8.3,209.8,0,220.1,0z"/>
			<path class="st0" d="M406.4,0h130.4c10.3,0,17.8,8.3,16.8,18.6l-13.1,130.4c-1,10.3-10.2,18.6-20.5,18.6H389.5
				c-10.3,0-17.8-8.3-16.8-18.6l13.1-130.4C386.9,8.3,396.1,0,406.4,0z"/>
		</g>
		<path class="st1" d="M75.6,93.2l6.1-60.6c0.3-2.6-1.6-4.7-4.2-4.6h-28c-2.6,0-4.9,2.1-5.1,4.6l-5.6,55.9
			c-2.9,28.3,17.8,51.2,46.1,51.2s53.5-22.9,56.4-51.2l5.6-55.9c0.3-2.6-1.6-4.6-4.2-4.6h-28c-2.6,0-4.9,2.1-5.1,4.6l-6.1,60.6
			c-0.8,7.7-7.7,14-15.4,14S74.8,100.9,75.6,93.2L75.6,93.2z"/>
		<path class="st1" d="M226.1,32.6l-10.3,102.5c-0.3,2.6,1.6,4.7,4.2,4.7h23.3c2.6,0,4.9-2.1,5.1-4.7l4.2-41.9l6.4,41.9
			c0.2,2.5,1.6,4.7,4.2,4.7h8h8c2.6,0,4.5-2.1,5.1-4.7l14.9-41.9l-4.2,41.9c-0.3,2.6,1.6,4.7,4.2,4.7h23.3c2.6,0,4.9-2.1,5.1-4.7
			l10.3-102.5c0.3-2.6-1.6-4.6-4.2-4.6h-28c-2.6,0-3.8,2.3-5.1,4.7l-22.8,41.9l-14.4-41.9c-0.8-2.4-1.6-4.6-4.2-4.6h-28
			C228.7,28,226.4,30,226.1,32.6L226.1,32.6z"/>
		<path class="st1" d="M421.8,32.6l-10.3,102.5c-0.3,2.6,1.6,4.7,4.2,4.7h28c2.6,0,4.9-2.1,5.1-4.7l2.3-23.3h23.3
			c23.2,0,43.8-18.8,46.1-41.9c2.3-23.1-14.5-41.9-37.7-41.9h-28h-28C424.3,28,422,30,421.8,32.6L421.8,32.6z M454.3,79.2l1.9-18.6
			c0.3-2.6,2.6-4.6,5.1-4.6h14c7.7,0,13.3,6.3,12.6,14c-0.8,7.7-7.7,14-15.4,14h-14C456,83.9,454.1,81.8,454.3,79.2L454.3,79.2z"/>
		<path class="st2" d="M106.6,196.9h-5l-2.4,24.2h5l1.1-10.9h3.5c0,1,0,2,0.1,2.8c0.9,7.6,6.9,8.7,9.4,8.7c9.3,0,12.7-9.5,11.9-16.8
			c-0.9-7.6-6.9-8.7-9.4-8.7c-2.6,0-9.5,1.2-11.6,9.8h-3.5L106.6,196.9L106.6,196.9z M118.6,217.5c-1.8,0-4.3-1.2-4.8-5.3
			c-0.6-5.1,1.5-11.6,6.5-11.6c1.8,0,4.3,1.1,4.8,5.3C125.6,210.3,123.8,217.5,118.6,217.5L118.6,217.5z M145.8,196.9h-5l-2.4,24.2
			h5l1.1-10.9h9.4l-1.1,10.9h5l2.4-24.2h-5l-0.9,9.2h-9.4L145.8,196.9L145.8,196.9z M175.6,196.9h-5l-2.4,24.2h5.4l11.6-17.2h0.1
			l-1.7,17.2h5l2.4-24.2h-5.7l-11.3,16.9h0L175.6,196.9z M211.2,201.1h7.3l0.4-4.2h-19.6l-0.4,4.2h7.3l-2,20h5L211.2,201.1z
			 M240.5,196.9l-2.4,24.2h4.7l1.9-18.9h0.1l2.5,18.9h5l6.4-18.9h0l-1.9,18.9h4.7l2.4-24.2h-7.3l-6.2,19.1h-0.1l-2.5-19.1H240.5
			L240.5,196.9z M281.1,196.9l-11,24.2h5.3l2.2-5h8.9l1.1,5h5.5l-6.1-24.2H281.1z M283.4,202.4L283.4,202.4l2.4,9.6h-6.5
			L283.4,202.4z M307.6,212.4h5.8c7.9,0,8.7-7.8,8.4-9.9c-0.4-3.5-2.8-5.6-6.7-5.6h-11.1l-2.4,24.2h5L307.6,212.4z M308.7,201.1h4
			c2.6,0,3.9,0.7,4.1,2.4c0.2,1.7-0.3,4.8-4.2,4.8H308L308.7,201.1L308.7,201.1z M337.1,196.9h-5l-2.4,24.2h5l0.8-8.2l2.6-2.4
			l6.4,10.6h6.5l-9-14.3l10.8-9.9h-6.5l-10.2,9.8L337.1,196.9L337.1,196.9z M374.7,196.9l-2.4,24.2h5l2-20h9.4l-2,20h5l2.4-24.2
			H374.7L374.7,196.9z M408,212.4h5.8c7.9,0,8.7-7.8,8.4-9.9c-0.4-3.5-2.8-5.6-6.7-5.6h-11.1l-2.4,24.2h5L408,212.4L408,212.4z
			 M409.1,201.1h4c2.6,0,3.9,0.7,4.1,2.4c0.2,1.7-0.3,4.8-4.2,4.8h-4.7L409.1,201.1L409.1,201.1z M440.7,221.8
			c9.3,0,13.8-8,12.8-16.6c-0.9-7.8-7.5-8.9-10.3-8.9c-10.2,0-13.7,9.3-12.8,16.6C431.3,220.7,437.9,221.8,440.7,221.8z
			 M441.2,217.5c-2.3,0-5.2-1.2-5.7-5.6c-0.7-5.7,2.1-11.4,7.4-11.4c2.3,0,5.2,1.2,5.7,5.6C449.1,210.9,447.2,217.5,441.2,217.5z"/>
	</g>
</g>
</svg>
