<?xml version="1.0" encoding="utf-8"?>
<!-- Generator: Adobe Illustrator 23.0.1, SVG Export Plug-In . SVG Version: 6.00 Build 0)  -->
<svg version="1.1" id="Слой_1" xmlns="http://www.w3.org/2000/svg" xmlns:xlink="http://www.w3.org/1999/xlink" x="0px" y="0px"
	 viewBox="0 0 128.2 128.2" style="enable-background:new 0 0 128.2 128.2;" xml:space="preserve">
<style type="text/css">
	.st0{fill-rule:evenodd;clip-rule:evenodd;fill:none;stroke:#000003;stroke-width:1.4998;stroke-miterlimit:22.9256;}
	
		.st1{fill-rule:evenodd;clip-rule:evenodd;fill:none;stroke:#616262;stroke-width:1.4998;stroke-linecap:round;stroke-linejoin:round;stroke-miterlimit:22.9256;}
	
		.st2{fill-rule:evenodd;clip-rule:evenodd;fill:none;stroke:#7E7E7D;stroke-width:1.4998;stroke-linecap:round;stroke-linejoin:round;stroke-miterlimit:22.9256;}
	
		.st3{fill-rule:evenodd;clip-rule:evenodd;fill:none;stroke:#000003;stroke-width:1.4998;stroke-linecap:round;stroke-linejoin:round;stroke-miterlimit:22.9256;}
</style>
<path class="st0" d="M68.5,98.8c1.1-5.8-6.4-10.8-3.6-23c0.7-2.9,3.2-11.6,9.8-12.1c7.6-0.4,9.9,9.4,9,16.9C82.9,88,78.2,89,79,96.3
	c0.4,2.5,0.8,2.1,2.2,3.3c0.2,1.9,1.5,12.3-7,12.2c-6.8-0.1-7.3-6-6.8-12C67.9,99.3,68.4,99.1,68.5,98.8z"/>
<path class="st0" d="M102.1,98.8c-1.1-5.8,6.4-10.8,3.6-23c-0.7-2.9-3.2-11.6-9.8-12.1c-7.6-0.4-9.9,9.4-9,16.9
	c0.8,7.4,5.6,8.3,4.7,15.7c-0.4,2.5-0.8,2.1-2.2,3.3c-0.2,1.9-1.5,12.3,7,12.2c6.8-0.1,7.3-6,6.8-12
	C102.7,99.3,102.2,99.1,102.1,98.8z"/>
<path class="st1" d="M80.6,45.7c-6-1.5-10.4-7-10.4-13.5c0-7.7,6.2-13.9,13.9-13.9c6.5,0,11.9,4.5,13.5,10.5"/>
<ellipse transform="matrix(0.3827 -0.9239 0.9239 0.3827 19.0387 113.0402)" class="st0" cx="94.1" cy="42.3" rx="13.9" ry="13.9"/>
<path class="st2" d="M29.7,70.6h-5.4V58.4 M24.3,53.1V42.7h-10l20.3-20.4l20.3,20.4h-10"/>
<polygon class="st3" points="50,58.2 50,86 29.6,86 29.6,58.2 19.5,58.2 39.8,37.8 60.1,58.2 "/>
</svg>
