<?xml version="1.0" encoding="utf-8"?>
<!-- Generator: Adobe Illustrator 23.0.1, SVG Export Plug-In . SVG Version: 6.00 Build 0)  -->
<svg version="1.1" id="Слой_1" xmlns="http://www.w3.org/2000/svg" xmlns:xlink="http://www.w3.org/1999/xlink" x="0px" y="0px"
	 viewBox="0 0 128.2 128.2" style="enable-background:new 0 0 128.2 128.2;" xml:space="preserve">
<style type="text/css">
	.st0{fill-rule:evenodd;clip-rule:evenodd;fill:none;stroke:#616262;stroke-width:0.7498;stroke-miterlimit:22.9256;}
	
		.st1{fill-rule:evenodd;clip-rule:evenodd;fill:none;stroke:#000003;stroke-width:1.4998;stroke-linecap:round;stroke-linejoin:round;stroke-miterlimit:22.9256;}
	
		.st2{fill-rule:evenodd;clip-rule:evenodd;fill:none;stroke:#616262;stroke-width:0.7498;stroke-linecap:round;stroke-linejoin:round;stroke-miterlimit:22.9256;}
	.st3{fill-rule:evenodd;clip-rule:evenodd;fill:none;stroke:#000003;stroke-width:1.4998;stroke-miterlimit:22.9256;}
	.st4{fill-rule:evenodd;clip-rule:evenodd;fill:#000003;}
	
		.st5{fill-rule:evenodd;clip-rule:evenodd;fill:none;stroke:#000003;stroke-width:0.7498;stroke-linecap:round;stroke-linejoin:round;stroke-miterlimit:22.9256;}
</style>
<polygon class="st0" points="79,70.6 88.7,70.6 86.7,81.7 77,81.5 "/>
<polygon class="st0" points="98.5,70.6 108.2,70.6 105.7,84.6 95.9,84.6 "/>
<line class="st1" x1="53.8" y1="67.9" x2="53.8" y2="76.7"/>
<line class="st1" x1="85.7" y1="67.9" x2="85.7" y2="70.6"/>
<polygon class="st0" points="60,70.1 69.2,70.6 67.2,81.6 60.3,81.6 60.2,78.4 58.3,77.5 "/>
<path class="st2" d="M69.7,68.4c2.2,0,4.1-0.3,4.1-0.6c0-0.3-1.8-0.6-4.1-0.6s-4.1,0.3-4.1,0.6C65.7,68.1,67.5,68.4,69.7,68.4z"/>
<path class="st3" d="M69.7,70.6h37.9c1.6,0.1,4.3,0.2,4.8,0.3c-0.3,6.7,0.2,10.3,0.5,15.1c-2.8-1-9.5-1.4-12.6-1.4H87.2"/>
<path class="st1" d="M69.7,70.6c8.8,0,15.9-1.2,15.9-2.7s-7.2-2.7-15.9-2.7s-15.9,1.2-15.9,2.7S61,70.6,69.7,70.6z"/>
<polygon class="st4" points="53.6,81.6 63.3,81.6 60.8,95.6 51.1,95.6 "/>
<polygon class="st4" points="73.1,81.6 82.8,81.6 80.3,95.6 70.6,95.6 "/>
<line class="st1" x1="28.4" y1="78.9" x2="28.4" y2="91.4"/>
<line class="st1" x1="60.3" y1="78.9" x2="60.3" y2="81.6"/>
<polygon class="st4" points="34.7,81 43.9,81.6 41.3,95.6 31.6,93.9 "/>
<path class="st2" d="M44.4,79.3c2.2,0,4.1-0.3,4.1-0.6c0-0.3-1.8-0.6-4.1-0.6c-2.2,0-4.1,0.3-4.1,0.6C40.3,79.1,42.1,79.3,44.4,79.3
	z"/>
<path class="st3" d="M44.4,81.6h37.9c1.6,0.1,4.3,0.2,4.8,0.3c-0.3,6.7,0.2,10.3,0.5,15.1c-2.8-1-9.5-1.4-12.6-1.4H44.4"/>
<path class="st1" d="M44.4,95.6c-8.8,0-15.9-1.9-15.9-4.1"/>
<path class="st1" d="M44.4,81.6c8.8,0,15.9-1.2,15.9-2.7c0-1.5-7.2-2.7-15.9-2.7c-8.8,0-15.9,1.2-15.9,2.7
	C28.4,80.4,35.6,81.6,44.4,81.6z"/>
<line class="st2" x1="26.6" y1="61.3" x2="34.9" y2="61.2"/>
<path class="st1" d="M27.3,66.1l0-0.7l-9.1,0c0-8.9,0,0,0-26.6c0-0.9,0.8-1.6,1.9-1.7c5.8-0.7,14.4-1,24.6-1.1"/>
<path class="st1" d="M18.2,65.4c-1.2-0.3-2.5-2.4-2.5-4.3c-0.1-8.8,0,0-0.4-26.4c0.1-0.9,1-2,2-2c6.5-0.8,17-1.4,27.4-1.4"/>
<path class="st1" d="M26.6,65.4c0-6.3,0,0,0-18.8c0-1.1,1.1-1.5,3.9-1.5l14.2-0.3"/>
<polyline class="st1" points="44.6,62.3 35,62.3 35.5,51.8 44.6,51.7 "/>
<polyline class="st5" points="35,62.3 35.6,63.5 44.8,63.5 "/>
<polyline class="st1" points="25,65.4 25,67.7 18.2,67.7 18.2,65.4 "/>
<polyline class="st5" points="44.7,60.7 37.4,60.7 37.6,53.4 44.7,53.4 "/>
<polyline class="st1" points="27.3,66.1 26.4,69.2 26.4,70.4 33.5,70.6 50.6,70.7 "/>
<line class="st5" x1="48.7" y1="69" x2="28.1" y2="68.9"/>
<line class="st2" x1="62.8" y1="61.3" x2="54.5" y2="61.2"/>
<path class="st1" d="M71.2,61c0-8.9,0-13.6,0-22.3c0-0.9-0.8-1.6-1.9-1.7c-5.8-0.7-14.4-1-24.6-1.1"/>
<path class="st1" d="M73.6,60.9c0.4-15.6,0.1-10.6,0.5-26.2c-0.1-0.9-1-2-2-2c-6.5-0.8-17-1.4-27.4-1.4"/>
<path class="st1" d="M62.8,62.5c0-6.3,0,2.9,0-15.9c0-1.1-1.1-1.5-3.9-1.5l-14.2-0.3"/>
<polyline class="st1" points="44.7,62.3 54.4,62.3 53.9,51.8 44.7,51.7 "/>
<polyline class="st5" points="54.4,62.3 53.8,63.5 44.8,63.5 "/>
<polyline class="st5" points="44.7,60.7 52,60.7 51.7,53.4 44.7,53.4 "/>
</svg>
