<?xml version="1.0" encoding="utf-8"?>
<!-- Generator: Adobe Illustrator 23.0.1, SVG Export Plug-In . SVG Version: 6.00 Build 0)  -->
<svg version="1.1" id="Слой_1" xmlns="http://www.w3.org/2000/svg" xmlns:xlink="http://www.w3.org/1999/xlink" x="0px" y="0px"
	 viewBox="0 0 128.2 128.2" style="enable-background:new 0 0 128.2 128.2;" xml:space="preserve">
<style type="text/css">
	
		.st0{fill-rule:evenodd;clip-rule:evenodd;fill:none;stroke:#616262;stroke-width:0.7498;stroke-linecap:round;stroke-linejoin:round;stroke-miterlimit:22.9256;}
	
		.st1{fill-rule:evenodd;clip-rule:evenodd;fill:none;stroke:#000003;stroke-width:1.4998;stroke-linejoin:round;stroke-miterlimit:22.9256;}
	
		.st2{fill-rule:evenodd;clip-rule:evenodd;fill:none;stroke:#000003;stroke-width:1.4998;stroke-linecap:round;stroke-linejoin:round;stroke-miterlimit:22.9256;}
	
		.st3{fill-rule:evenodd;clip-rule:evenodd;fill:none;stroke:#1A1A18;stroke-width:1.4998;stroke-linecap:round;stroke-linejoin:round;stroke-miterlimit:22.9256;}
	.st4{fill-rule:evenodd;clip-rule:evenodd;fill:#000003;}
</style>
<path class="st0" d="M32.5,48.4H16 M30,74.4V57.8 M32.5,100.5c-1.4,0.8-15.2,0.8-16.5,0"/>
<path class="st1" d="M24.3,103c4.9,0,9-0.4,10.3-0.9c0.3-0.1,0.5-0.2,0.5-0.4l0-1.3l-0.6-0.6V48.4l0.6-0.6v-1.3h-1.3h-9.5h-9.5h-1.3
	v1.3l0.6,0.6l0,51.5l-0.6,0.6v1.3c0,0.2,0.2,0.3,0.6,0.4C15.6,102.7,19.6,103,24.3,103z"/>
<path class="st2" d="M24.3,28.7c4.9,0,7.8,0.1,9.2,0.2c1,1.2,0,0,1,1.2l0,15.7l0.6,0.2l0,0.4l-0.8,0l-0.4,0h0l-3.9,0h0l-5.6,0
	l-9.5,0l-1.3,0l0-0.4l0.6-0.2l0-15.7c0.5-0.6,0,0,1-1.2C16.6,28.8,19.6,28.7,24.3,28.7z"/>
<path class="st3" d="M114.8,25.6c0-3.3-66.2-3.3-66.2,0"/>
<path class="st3" d="M114.8,101.5c0,2-14.8,3.6-33.1,3.6s-33.1-1.6-33.1-3.6"/>
<path class="st0" d="M114.8,28.5c0-1.3-14.8-2.4-33.1-2.4c-18.3,0-33.1,1.1-33.1,2.4"/>
<path class="st0" d="M114.8,98.5c0,2-14.8,3.6-33.1,3.6c-18.3,0-33.1-1.6-33.1-3.6"/>
<g>
	<path class="st4" d="M80.8,50.8h-1.3c-0.2,0.9-0.8,1.5-1.7,1.5c-0.5,0-1-0.2-1.3-0.5C76.1,51.3,76,50.8,76,49
		c0-1.7,0.1-2.2,0.5-2.7c0.3-0.3,0.8-0.5,1.3-0.5c0.9,0,1.5,0.6,1.7,1.5h1.3c-0.3-1.7-1.5-2.6-3-2.6c-0.9,0-1.7,0.3-2.2,0.9
		c-0.8,0.8-0.8,1.8-0.8,3.4c0,1.6,0,2.6,0.8,3.4c0.6,0.6,1.4,0.9,2.2,0.9C79.3,53.4,80.5,52.5,80.8,50.8z"/>
	<path class="st4" d="M88.6,50.4v-5.7h-1.3v5.6c0,1.1-0.7,1.8-1.8,1.8c-1.1,0-1.8-0.7-1.8-1.8v-5.6h-1.3v5.7c0,1.8,1.3,3,3.1,3
		C87.2,53.4,88.6,52.2,88.6,50.4z"/>
	<path class="st4" d="M82,67.9l-3.1-8.5h-1l-3.1,8.5H76l0.6-1.7H80l0.6,1.7H82L82,67.9z M79.6,65H77l1.3-3.8L79.6,65z"/>
	<polygon class="st4" points="88.6,67.9 88.6,66.7 84.5,66.7 84.5,59.3 83.2,59.3 83.2,67.9 	"/>
	<polygon class="st4" points="80.3,82.4 80.3,81.2 76.3,81.2 80.3,74.9 80.3,73.8 75,73.8 75,75 78.8,75 74.8,81.3 74.8,82.4 	"/>
	<polygon class="st4" points="88.4,82.4 88.4,73.8 87.1,73.8 87.1,79.8 83.2,73.8 82,73.8 82,82.4 83.3,82.4 83.3,76.4 87.2,82.4 	
		"/>
</g>
<path class="st2" d="M114.8,25.6v75.8 M48.5,101.5V25.6"/>
</svg>
