<?xml version="1.0" encoding="utf-8"?>
<!-- Generator: Adobe Illustrator 23.0.1, SVG Export Plug-In . SVG Version: 6.00 Build 0)  -->
<svg version="1.1" id="Слой_1" xmlns="http://www.w3.org/2000/svg" xmlns:xlink="http://www.w3.org/1999/xlink" x="0px" y="0px"
	 viewBox="0 0 128.2 128.2" style="enable-background:new 0 0 128.2 128.2;" xml:space="preserve">
<style type="text/css">
	.st0{fill-rule:evenodd;clip-rule:evenodd;fill:#538DCA;}
	
		.st1{fill-rule:evenodd;clip-rule:evenodd;fill:none;stroke:#000003;stroke-width:0.7498;stroke-linecap:round;stroke-linejoin:round;stroke-miterlimit:22.9256;}
	
		.st2{fill-rule:evenodd;clip-rule:evenodd;fill:none;stroke:#000003;stroke-width:1.4998;stroke-linecap:round;stroke-linejoin:round;stroke-miterlimit:22.9256;}
	.st3{fill-rule:evenodd;clip-rule:evenodd;fill:none;stroke:#000003;stroke-width:1.4998;stroke-miterlimit:22.9256;}
	
		.st4{fill-rule:evenodd;clip-rule:evenodd;fill:none;stroke:#000003;stroke-width:0.5669;stroke-linecap:round;stroke-linejoin:round;stroke-miterlimit:22.9256;}
</style>
<rect x="63.6" y="46.4" class="st0" width="45.4" height="37.4"/>
<line class="st1" x1="57" y1="28.3" x2="57" y2="35.3"/>
<path class="st1" d="M59.4,27.4c0,2,0,4.1,0,6.1"/>
<path class="st1" d="M61.8,27.4c0,2.1,0,2.4,0,4.6"/>
<path class="st1" d="M64.1,27.4c0,2.4,0,1.2,0,3.7"/>
<line class="st1" x1="66.5" y1="27.4" x2="66.5" y2="30"/>
<path class="st1" d="M35.2,52.8c0-0.5,0.4-0.9,0.9-0.9 M40.4,62.9c-0.2-1.3-1.6-3.1-2.8-3.4 M42.7,66.7H26.4 M40.2,92.4V76.1
	 M42.7,100c-1.4,0.8-15.1,0.8-16.3,0 M36.1,53.7c-0.5,0-0.9-0.4-0.9-0.9"/>
<path class="st2" d="M32.6,55.3c0-0.5,0-1.1,0-1.6 M24,66.2l0.6,0.6l0,33l-0.6,0.6v1.3c0,0.1,0.2,0.3,0.6,0.4
	c1.5,0.5,5.4,0.8,10,0.8c4.8,0,8.9-0.4,10.2-0.9c0.3-0.1,0.5-0.2,0.5-0.4l0-1.3l-0.6-0.6l0-33l0.6-0.6v-1.3H44h-9.4h-10 M44,64.9
	c0-3.4-2.3-6.3-5.4-7.2 M30.2,57.7h8.8l-0.6-1.9h-7 M35.1,50.2c0.9,0,1.4,0.2,1.4,0.7l0,4.4 M15.1,48c2.8-3.9,4.5-6.2,5.4-7.2
	c1.5-0.1,0,0,1.5-0.1l12.6,9.1l0.5-0.4l0.3,0.2l-0.5,0.7l-0.2,0.3l0,0l-2.2,3.1l0,0l-3.2,4.5l-5.5,7.7l-0.7,1l-0.3-0.2l0.2-0.6
	l-12.6-9c-0.2-0.7,0,0-0.4-1.5C10.8,54.2,12.4,51.7,15.1,48z"/>
<path class="st3" d="M84.6,26.3c8.5,0,18.8,0,24.5,0c8.7-0.1,9,9.9,9.1,17.6l-0.7,1.6v39.6l0.7,1.6c0,3.8,0,7,0,10.7
	c0,3.4-4.1,5.6-8.9,5.6L85,102.8"/>
<path class="st1" d="M118.2,86.7l-63.6,0 M118.2,43.9l-63.6,0"/>
<rect x="63.6" y="46.4" class="st1" width="45.4" height="37.4"/>
<path class="st4" d="M85.2,26.3c0.3-0.6,1-1.1,1.7-1.1c0.8,0,1.4,0.5,1.7,1.1"/>
<path class="st3" d="M57.3,35.3h-1c-0.3,0-0.6-0.3-0.6-0.6v-4.9c0-0.6,1.7-2.4,4.3-2.4h11.3"/>
<path class="st2" d="M88.3,26.3c-8.5,0-8.6,0-14,0c-2.8,0-4,2.4-8.4,4c-4.3,1.6-7.2,3.2-9,5.4c-0.4,0.1-0.8,0-1.2,0.1
	c0,0.5,0,1.4-0.1,1.9c-0.8,1.7-1.1,3.7-1.1,6.3l0.7,1.6v39.6l-0.7,1.6c0,3.8,0,7,0,10.7c0,3.4,4.1,5.6,8.9,5.6l24.3-0.1"/>
</svg>
