<?xml version="1.0" encoding="utf-8"?>
<!-- Generator: Adobe Illustrator 23.0.1, SVG Export Plug-In . SVG Version: 6.00 Build 0)  -->
<svg version="1.1" id="Слой_1" xmlns="http://www.w3.org/2000/svg" xmlns:xlink="http://www.w3.org/1999/xlink" x="0px" y="0px"
	 viewBox="0 0 128.2 128.2" style="enable-background:new 0 0 128.2 128.2;" xml:space="preserve">
<style type="text/css">
	
		.st0{fill-rule:evenodd;clip-rule:evenodd;fill:none;stroke:#000003;stroke-width:0.7498;stroke-linecap:round;stroke-linejoin:round;stroke-miterlimit:22.9256;}
	
		.st1{fill-rule:evenodd;clip-rule:evenodd;fill:none;stroke:#616262;stroke-width:0.7498;stroke-linecap:round;stroke-linejoin:round;stroke-miterlimit:22.9256;}
	
		.st2{fill-rule:evenodd;clip-rule:evenodd;fill:none;stroke:#000003;stroke-width:1.4998;stroke-linecap:round;stroke-linejoin:round;stroke-miterlimit:22.9256;}
	.st3{fill-rule:evenodd;clip-rule:evenodd;fill:none;stroke:#000003;stroke-width:0.9998;stroke-miterlimit:22.9256;}
</style>
<line class="st0" x1="21.7" y1="35.5" x2="21.7" y2="29.1"/>
<path class="st1" d="M82.1,35.5c0-2.2,0-4.5,0-6.7 M24.8,35.5c0-2.2,0-4.5,0-6.7 M27.8,35.5c0-2.2,0-4.4,0-6.6 M30.8,35.5
	c0-2.4,0-4.8,0-7.1 M33.8,35.5c0-2.4,0-4.9,0-7.3 M36.8,35.5c0-2.5,0-5.1,0-7.6 M39.8,35.5c0-2.5,0-5.1,0-7.6 M42.9,35.5
	c0-2.5,0-5.1,0-7.6 M45.9,35.5c0-2.5,0-5.1,0-7.6 M48.9,35.5c0-2.5,0-5.1,0-7.6 M51.9,35.5c0-2.5,0-5.1,0-7.6 M54.9,35.5
	c0-2.5,0-5.1,0-7.6 M57.9,35.5c0-2.5,0-5.1,0-7.6 M61,35.5c0-2.5,0-5,0-7.6 M64,35.5c0-2.5,0-5,0-7.6 M67,35.5c0-2.5,0-5,0-7.6
	 M70,35.5c0-2.5,0-5,0-7.5 M76,35.5c0-2.4,0-4.8,0-7.2 M73,35.5c0-2.5,0-5,0-7.5 M79.1,35.5c0-2.3,0-4.6,0-6.9"/>
<line class="st0" x1="85.1" y1="35.5" x2="85.1" y2="29.3"/>
<path class="st1" d="M75.8,95.1c-5.4,0.7-13.3,1.2-22.2,1.2c-16.3,0-29.5-1.6-29.5-3.5"/>
<path class="st2" d="M85.1,29.6v6.5l-2,0.2 M24.1,36.4l-2.3-0.3v-6.5"/>
<path class="st2" d="M85.1,29.6c0-1-14.2-1.8-31.7-1.8c-17.5,0-31.7,0.8-31.7,1.8"/>
<path class="st2" d="M85.1,36.1c0-0.3-14.2-0.6-31.7-0.6c-17.5,0-31.7,0.3-31.7,0.6"/>
<path class="st2" d="M75.8,96.4c-15.8,3.1-51.7,1.9-51.7-3.6"/>
<path class="st2" d="M24.1,92.8V36.1 M83.1,36.1v33.6"/>
<path class="st1" d="M83.1,42.9c0-0.5-59-0.5-59,0"/>
<path class="st1" d="M75.8,90.6c-5.5,0.4-13.3,0.7-22.1,0.7c-16.5,0-30-1-30-2.2"/>
<line class="st0" x1="74.6" y1="71.2" x2="74.6" y2="74.8"/>
<path class="st1" d="M105,71.7c0,1.1,0,2.2,0,3.3 M76.1,71.7c0,1.1,0,2.2,0,3.3 M77.6,71.7c0,1.1,0,2.2,0,3.2 M79.1,71.7
	c0,1.2,0,2.3,0,3.5 M80.7,71.7c0,1.2,0,2.4,0,3.6 M82.2,71.7c0,1.2,0,2.5,0,3.7 M83.7,71.7c0,1.2,0,2.5,0,3.7 M85.2,71.7
	c0,1.2,0,2.5,0,3.7 M86.7,71.7c0,1.2,0,2.5,0,3.7 M88.3,71.7c0,1.2,0,2.5,0,3.7 M89.8,71.7c0,1.2,0,2.5,0,3.7 M91.3,71.7
	c0,1.2,0,2.5,0,3.7 M92.8,71.7c0,1.2,0,2.5,0,3.7 M94.3,71.7c0,1.2,0,2.5,0,3.7 M95.9,71.7c0,1.2,0,2.5,0,3.7 M97.4,71.7
	c0,1.2,0,2.5,0,3.7 M98.9,71.7c0,1.2,0,2.5,0,3.7 M101.9,71.7c0,1.2,0,2.3,0,3.5 M100.4,71.7c0,1.2,0,2.5,0,3.7 M103.5,71.7
	c0,1.1,0,2.3,0,3.4"/>
<line class="st0" x1="106.5" y1="71.2" x2="106.5" y2="74.7"/>
<path class="st2" d="M106.5,74.5v-3.6 M74.6,70.9v3.6"/>
<path class="st2" d="M106.5,74.5c0,0.5-7.1,1-16,1s-16-0.4-16-1"/>
<path class="st2" d="M105.5,97.7c0,3.5-29.7,3.5-29.7,0"/>
<path class="st2" d="M75.8,97.7V75 M105.5,75v22.7"/>
<path class="st3" d="M90.5,71.7c8.8,0,16-0.4,16-0.8c0-0.5-7.2-0.8-16-0.8s-16,0.4-16,0.8C74.6,71.4,81.8,71.7,90.5,71.7z"/>
</svg>
