<?xml version="1.0" encoding="utf-8"?>
<!-- Generator: Adobe Illustrator 24.0.2, SVG Export Plug-In . SVG Version: 6.00 Build 0)  -->
<svg version="1.1" id="Слой_1" xmlns:xodm="http://www.corel.com/coreldraw/odm/2003"
	 xmlns="http://www.w3.org/2000/svg" xmlns:xlink="http://www.w3.org/1999/xlink" x="0px" y="0px" viewBox="0 0 128 128"
	 style="enable-background:new 0 0 128 128;" xml:space="preserve">
<style type="text/css">
	.st0{fill-rule:evenodd;clip-rule:evenodd;fill:#FF0000;}
	.st1{fill-rule:evenodd;clip-rule:evenodd;fill:#FF5640;}
	.st2{fill:none;stroke:#000000;stroke-width:0.75;stroke-linecap:round;stroke-linejoin:round;stroke-miterlimit:22.9256;}
	.st3{fill:#FFFFFF;}
	.st4{fill-rule:evenodd;clip-rule:evenodd;}
	.st5{fill:none;stroke:#000000;stroke-width:1.5;stroke-linecap:round;stroke-linejoin:round;stroke-miterlimit:22.9256;}
</style>
<g id="Слой_x0020_1">
	<g id="_2042265941536">
		<path class="st0" d="M46.4,32.8c12.2-0.2,22.3,1,36,3.6c0.4,0.1,0.7,0.1,1.1,0.2c0.7-0.4,1.4-0.9,2.1-1.4c0.9-0.6,1.7-1.2,2.1-1.6
			c0-0.4-0.3-1.5-2.9-2.4c-13.8-2.9-24.9-3.8-39.1-3.4c-0.6,0.3-1.8,0.7-3,1.6c0,0.2,0.1,0.4,0.2,0.7c0.4,1,1.5,2.2,2.2,2.8
			C45.6,32.8,46,32.8,46.4,32.8z M24.1,48.1l0.8,41.2l67.5,11l11.8-8.8l0.2-27.1c-0.6,0.4,1.6-0.4,1.6-1c0-3.8,0.1-12.5,0.2-20
			c-22.6-2.4-54.3-5.7-69-7.2l-15.5,5.6l0.1,5.8C21.8,47.4,24.1,48.1,24.1,48.1z"/>
		<path class="st1" d="M47,29.4c12.2-0.2,21.2,1.1,35,3.7c2.1,0.5,2.5,1.7,2.6,2.8c0.9-0.6,2.8-2,3.2-2.4c0-0.4-0.3-1.5-2.9-2.4
			c-13.8-2.9-24.9-3.8-39.1-3.4c-0.6,0.3-1.8,0.7-3,1.6C43.8,29.4,46.1,29.4,47,29.4z M24.1,48.1l58.2,16.4l4.8,5.1l5.8,1.2L94,71
			l10.5-6.6c-0.6,0.4,1.6-0.4,1.6-1c0-3.8,0.1-12.5,0.2-20c-22.6-2.4-54.3-5.7-69-7.2l-15.5,5.6l0.1,5.8L24.1,48.1L24.1,48.1z"/>
		<path class="st2" d="M29.8,84.7l-4.8,4.6 M42.8,29.4c13.9-0.4,25.7,0.9,39.2,3.7c0.9,0.2,2.9,1.2,2.2,2.5 M29,49.4l0.8,35.3
			l57,8.6l0.5-23.7 M86.8,93.3l5.7,7"/>
		<path class="st3" d="M39,71.5c0-0.4,0-0.8,0-1.2c-0.8-0.1-1.6-0.2-2.4-0.3c0-1.2-0.1-2.3-0.1-3.5c0-1.2-0.1-2.3-0.1-3.5
			c-0.5-0.1-1-0.1-1.4-0.2c0,1.4,0.1,2.7,0.1,4.1c0,1.4,0.1,2.7,0.1,4.1C36.4,71.2,37.7,71.4,39,71.5z M44.5,68.2
			c0-1-0.1-1.7-0.2-2.3c-0.1-0.6-0.3-1-0.6-1.4c-0.4-0.5-1-0.8-1.9-0.9c-0.9-0.1-1.4,0.1-1.8,0.5c-0.3,0.3-0.5,0.7-0.5,1.2
			c-0.1,0.5-0.1,1.3,0,2.2c0,1,0.1,1.7,0.2,2.3c0.1,0.6,0.3,1,0.6,1.4c0.4,0.5,1,0.8,1.8,1c0.9,0.1,1.4-0.1,1.8-0.5
			c0.3-0.3,0.5-0.7,0.5-1.2C44.5,69.9,44.5,69.2,44.5,68.2z M43,68c0,1.5,0,2.4-0.2,2.7c-0.1,0.2-0.3,0.3-0.7,0.2
			c-0.4,0-0.6-0.2-0.7-0.4c-0.3-0.4-0.4-1.3-0.4-2.8c0-1.5,0-2.3,0.3-2.7c0.1-0.2,0.3-0.3,0.7-0.2c0.4,0,0.6,0.2,0.7,0.4
			C42.9,65.6,43,66.4,43,68z M50.8,71c-0.5-0.1-1-0.1-1.5-0.2c0,0.3,0,0.6-0.2,0.8c-0.1,0.2-0.3,0.3-0.7,0.2
			c-0.4-0.1-0.6-0.2-0.7-0.4c-0.3-0.4-0.4-1.3-0.4-2.8c0-1.5,0-2.4,0.3-2.7c0.1-0.2,0.3-0.3,0.7-0.2c0.4,0,0.6,0.2,0.7,0.4
			c0.2,0.2,0.2,0.5,0.3,0.8c0.5,0.1,1,0.1,1.5,0.2c-0.1-0.8-0.3-1.4-0.8-1.9c-0.5-0.4-1-0.7-1.7-0.8c-0.9-0.1-1.5,0.1-1.8,0.5
			c-0.3,0.3-0.5,0.7-0.6,1.2c-0.1,0.5-0.1,1.3,0,2.3c0,1,0.1,1.7,0.2,2.3c0.1,0.6,0.3,1,0.6,1.4c0.4,0.5,1,0.9,1.9,1
			c0.7,0.1,1.2,0,1.7-0.3C50.5,72.4,50.8,71.7,50.8,71L50.8,71z M57.8,74.2c-0.4-0.9-0.8-1.8-1.3-2.7c-0.4-0.9-0.8-1.8-1.2-2.7
			c0.6-1.1,1.3-2.2,1.9-3.3c-0.5-0.1-1.1-0.1-1.6-0.2c-0.3,0.6-0.7,1.3-1,1.9s-0.7,1.3-1,1.9c0-0.7,0-1.3-0.1-2c0-0.7,0-1.3-0.1-2
			c-0.5-0.1-1-0.1-1.6-0.2c0,1.4,0.1,2.8,0.1,4.3c0,1.4,0.1,2.8,0.1,4.3c0.5,0.1,1,0.1,1.6,0.2c0-0.7,0-1.5-0.1-2.2
			c0.2-0.4,0.5-0.8,0.7-1.2c0.3,0.6,0.6,1.3,0.9,1.9c0.3,0.6,0.6,1.3,0.9,1.9C56.7,74.1,57.3,74.2,57.8,74.2z M66.7,73
			c0-0.8-0.2-1.4-0.7-1.9c-0.2-0.1-0.4-0.3-0.6-0.4c0.2,0,0.4-0.1,0.5-0.2c0.5-0.4,0.6-0.8,0.6-1.5c0-1-0.2-1.4-0.7-1.9
			c-0.4-0.4-1.1-0.7-2.1-0.8c-0.9-0.1-1.7-0.2-2.6-0.3c0,1.4,0.1,2.9,0.1,4.3c0,1.5,0.1,2.9,0.1,4.4c0.9,0.1,1.7,0.2,2.6,0.4
			c1,0.1,1.6,0.1,2.1-0.3C66.5,74.5,66.7,74,66.7,73z M65,72.6c0,1-0.3,1.3-1.2,1.2c-0.3,0-0.5-0.1-0.8-0.1c0-0.9-0.1-1.8-0.1-2.7
			c0.3,0,0.5,0.1,0.8,0.1C64.6,71.2,65,71.7,65,72.6z M64.8,68.9c0,0.8-0.3,1.2-1.2,1c-0.3,0-0.5-0.1-0.8-0.1c0-0.8-0.1-1.6-0.1-2.4
			c0.3,0,0.5,0.1,0.8,0.1C64.5,67.7,64.8,68,64.8,68.9z M73.6,72c0-1.1-0.1-1.8-0.2-2.5c-0.1-0.6-0.3-1.1-0.7-1.5
			c-0.5-0.5-1.1-0.9-2.1-1c-1-0.1-1.6,0.1-2.1,0.5c-0.3,0.3-0.5,0.7-0.6,1.3c-0.1,0.6-0.1,1.3,0,2.4c0,1.1,0.1,1.8,0.2,2.4
			s0.3,1,0.7,1.5c0.5,0.5,1.1,0.9,2.1,1.1c1,0.1,1.7-0.1,2.1-0.5c0.4-0.3,0.5-0.7,0.6-1.3C73.7,73.9,73.7,73.1,73.6,72z M71.9,71.8
			c0.1,1.6,0,2.5-0.3,2.9c-0.1,0.2-0.4,0.3-0.8,0.2c-0.4-0.1-0.7-0.2-0.8-0.4c-0.3-0.5-0.4-1.4-0.5-3c-0.1-1.6,0-2.5,0.3-2.9
			c0.1-0.2,0.4-0.3,0.8-0.2c0.4,0.1,0.7,0.2,0.8,0.4C71.8,69.3,71.9,70.2,71.9,71.8z M80.8,77.5c-0.4-0.8-0.8-1.7-1.2-2.5
			c-0.4-0.8-0.8-1.7-1.2-2.5c0.3-0.7,0.6-1.4,1-2c0.3-0.7,0.6-1.4,1-2.1c-0.6-0.1-1.3-0.2-1.9-0.2c-0.3,1-0.7,1.9-1,2.9
			c-0.4-1.1-0.8-2.1-1.2-3.2c-0.6-0.1-1.3-0.2-1.9-0.2c0.4,0.8,0.7,1.5,1.1,2.3c0.4,0.8,0.7,1.5,1.1,2.3c-0.3,0.7-0.7,1.5-1,2.2
			c-0.3,0.7-0.7,1.5-1,2.2c0.6,0.1,1.3,0.2,1.9,0.3c0.4-1,0.8-2,1.2-3.1c0.5,1.1,0.9,2.3,1.4,3.4C79.5,77.3,80.1,77.4,80.8,77.5
			L80.8,77.5z"/>
		<path class="st4" d="M91,46.1c0.1,0,0.2,0,0.3,0.1c0.2,0.2,0.2,0.3,0.1,0.6c0,0.1-0.1,0.1-0.2,0.2c-0.6,0.4-3,1.1-3.8,1.1
			l-1.9-0.1c-0.1,0-0.2,0-0.3-0.1c-0.2-0.2-0.2-0.3-0.1-0.6c0-0.1,0.1-0.1,0.2-0.2l0,0C87,45.9,89.1,45.9,91,46.1z M84.9,50.6
			c0.6,0.1,1.2,0.4,1.6,0.8c0.4,0.4,0.7,1,0.7,1.7v1.4c0,0.1,0,0.1,0,0.2c-0.1,0.6-0.3,1.1-0.7,1.4c-0.4,0.4-0.9,0.6-1.5,0.6
			c-0.1,0-0.1,0-0.2,0l0,0c-0.6-0.1-1.2-0.4-1.6-0.8c-0.4-0.4-0.7-1-0.7-1.7v-1.4c0-0.1,0-0.1,0-0.2c0.1-0.6,0.3-1.1,0.7-1.4
			c0.4-0.4,0.9-0.6,1.5-0.6C84.8,50.6,84.8,50.6,84.9,50.6z M43.4,45.8c0,0,0.1,0,0.1,0c0.6,0.1,1.1,0.4,1.5,0.8
			c0.4,0.4,0.6,1,0.6,1.6v1.3c0,0.1,0,0.1,0,0.2c-0.1,0.5-0.3,1-0.7,1.4c-0.4,0.3-0.9,0.5-1.4,0.5l-0.2,0c0,0-0.1,0-0.1,0
			c-0.6-0.1-1.1-0.4-1.5-0.8c-0.4-0.4-0.6-1-0.6-1.6v-1.3c0-0.1,0-0.1,0-0.2c0.1-0.5,0.3-1,0.7-1.4c0.4-0.3,0.9-0.5,1.4-0.5
			C43.2,45.8,43.4,45.8,43.4,45.8z M51.7,46.8c0,0,0.1,0,0.1,0c0.6,0.1,1.1,0.4,1.5,0.8c0.4,0.4,0.6,1,0.6,1.6v1.3
			c0,0.1,0,0.1,0,0.2v0c-0.1,0.5-0.3,1-0.7,1.4c-0.4,0.3-0.9,0.5-1.4,0.5l-0.2,0c0,0-0.1,0-0.1,0c-0.6-0.1-1.1-0.4-1.5-0.8
			c-0.4-0.4-0.6-1-0.6-1.6v-1.3c0-0.1,0-0.1,0-0.2c0.1-0.5,0.3-1,0.7-1.4c0.4-0.3,0.9-0.5,1.4-0.5L51.7,46.8z M60,47.7
			c0,0,0.1,0,0.1,0c0.6,0.1,1.1,0.4,1.5,0.8c0.4,0.4,0.6,1,0.6,1.6v1.3c0,0.1,0,0.1,0,0.2v0c-0.1,0.6-0.3,1-0.7,1.4
			c-0.4,0.3-0.9,0.5-1.4,0.5l-0.2,0c0,0-0.1,0-0.1,0c-0.6-0.1-1.1-0.4-1.5-0.8c-0.4-0.4-0.6-1-0.6-1.6v-1.3c0-0.1,0-0.1,0-0.2v0
			c0.1-0.6,0.3-1,0.7-1.4c0.4-0.3,0.9-0.6,1.4-0.6C59.8,47.7,60,47.7,60,47.7z M68.3,48.7c0,0,0.1,0,0.1,0c0.6,0.1,1.1,0.4,1.5,0.8
			c0.4,0.4,0.6,1,0.6,1.7v1.3c0,0.1,0,0.1,0,0.2v0c-0.1,0.6-0.3,1-0.7,1.4c-0.4,0.3-0.9,0.6-1.4,0.6l-0.2,0c0,0-0.1,0-0.1,0
			c-0.6-0.1-1.1-0.4-1.5-0.8c-0.4-0.4-0.6-1-0.6-1.7v-1.3c0-0.1,0-0.1,0-0.2c0.1-0.6,0.3-1,0.7-1.4c0.4-0.3,0.9-0.6,1.4-0.6
			C68.1,48.7,68.3,48.7,68.3,48.7z M76.6,49.7c0.6,0.1,1.2,0.4,1.6,0.8c0.4,0.4,0.7,1,0.7,1.7v1.4c0,0.1,0,0.1,0,0.2
			c-0.1,0.6-0.3,1-0.7,1.4c-0.4,0.4-0.9,0.6-1.5,0.6c-0.1,0-0.1,0-0.2,0c-0.6-0.1-1.2-0.4-1.6-0.8c-0.4-0.4-0.7-1-0.7-1.7v-1.4
			c0-0.1,0-0.1,0-0.2c0.1-0.6,0.3-1,0.7-1.4c0.4-0.4,0.9-0.6,1.5-0.6C76.5,49.6,76.5,49.6,76.6,49.7z M81.3,45
			c0.4,0,0.7,0.1,0.9,0.2c0.1,0.1,0.2,0.2,0.3,0.3c0,0.2,0,0.3-0.1,0.5c-0.1,0.1-0.3,0.2-0.5,0.3l-1.1,0.3c-0.4,0.1-0.9,0.2-1.4,0.3
			c-0.5,0.1-1.1,0.1-1.6,0c-0.4,0-0.7-0.1-0.9-0.2l0,0c-0.1-0.1-0.2-0.2-0.2-0.3c-0.1-0.2,0-0.3,0.1-0.5c0.1-0.1,0.3-0.2,0.5-0.3
			l1.1-0.3c0.4-0.1,0.9-0.2,1.4-0.3C80.2,45,80.8,44.9,81.3,45z M72.8,44c0.4,0,0.7,0.1,0.9,0.2c0.1,0.1,0.2,0.2,0.3,0.3l0,0
			c0,0.2,0,0.3-0.1,0.4c-0.1,0.1-0.3,0.2-0.5,0.3l-1.1,0.3c-0.4,0.1-0.9,0.2-1.4,0.3c-0.5,0.1-1.1,0.1-1.6,0c-0.4,0-0.7-0.1-0.9-0.2
			c-0.1-0.1-0.2-0.2-0.3-0.3l0-0.1c0-0.1,0-0.3,0.1-0.4l0,0c0.1-0.1,0.3-0.2,0.5-0.3l1.1-0.3c0.4-0.1,0.9-0.2,1.4-0.3
			C71.8,44,72.4,44,72.8,44z M64.6,43.2L64.6,43.2c0.4,0,0.7,0.1,0.9,0.2l0,0c0.1,0.1,0.2,0.2,0.2,0.3c0,0.2,0,0.3-0.1,0.5
			c-0.1,0.1-0.3,0.2-0.5,0.3l-1,0.3c-0.4,0.1-0.9,0.2-1.4,0.3c-0.5,0.1-1.1,0.1-1.5,0l0,0c-0.4,0-0.7-0.1-0.8-0.2l0,0
			c-0.1-0.1-0.2-0.2-0.2-0.3l0,0c0-0.2,0-0.3,0.1-0.4l0,0c0.1-0.1,0.3-0.2,0.5-0.3l1-0.3c0.4-0.1,0.9-0.2,1.4-0.3
			C63.6,43.1,64.1,43.1,64.6,43.2z M56.4,42.3L56.4,42.3c0.4,0,0.7,0.1,0.9,0.2l0,0c0.1,0.1,0.2,0.2,0.2,0.3c0,0.2,0,0.3-0.1,0.5
			c-0.1,0.1-0.3,0.2-0.5,0.3c-0.7,0.2-1.3,0.4-1.9,0.5c-0.6,0.1-1.3,0.2-2,0.1l0,0c-0.4,0-0.7-0.1-0.8-0.2l0,0
			c-0.1-0.1-0.2-0.2-0.2-0.3c0-0.2,0-0.3,0.1-0.5c0.1-0.1,0.3-0.2,0.5-0.3c0.7-0.2,1.3-0.4,1.9-0.5C55,42.3,55.6,42.2,56.4,42.3z
			 M47.3,41.3l1.8,0.1c0.2,0,0.3,0.1,0.4,0.1c0.3,0.3,0.2,0.5-0.2,0.7c-0.1,0.1-0.3,0.1-0.5,0.2c-0.9,0.4-2.6,0.8-3.1,0.8l-1.8-0.1
			c-0.2,0-0.3-0.1-0.4-0.1l0,0c-0.3-0.3-0.2-0.5,0.2-0.7c0.1-0.1,0.3-0.2,0.5-0.2C45,41.8,46.7,41.3,47.3,41.3z"/>
		<path class="st5" d="M98.4,68.2L94,71l0.2-21.1l12-6.6l-0.2,20l-1.6,1l-0.2,27.1l-11.8,8.8 M98.6,80.6l0-16l3.7-2.2l2.3,0.2
			 M98.6,64.6l2.7,0.2 M85.6,35.2c-0.7,0.5-1.4,1-2.1,1.4c-14.8-2.8-25.3-4.1-38.4-3.8c-0.8-0.7-2.2-2.3-2.3-3.4
			c1.1-0.9,2.4-1.4,3-1.6c14.2-0.4,25.3,0.5,39.1,3.4c2.6,0.9,2.9,1.9,2.9,2.4C87.4,34,86.5,34.6,85.6,35.2 M87.2,34.1v7.3
			c0,0.9,0,1-0.7,1.4l-2.7,1.6c-0.7,0.4-1.5-0.2-1.5-1.1v-6.4c0-0.9,0-2.4,0.9-2.8 M46.4,32.8v4.3c0,1-0.7,2.1-1.6,2.4l-2.2,0.7
			c-0.9,0.3-1.6-0.3-1.6-1.3v-6c0-1,1.1-2.7,2-2.9 M21.8,41.7l15.4-5.6l69,7.2 M94.2,49.9l-72.4-8.3l0.1,5.8l60.6,17.1l4.8,5.1
			L94,71 M93,70.8l-0.6,29.5L25,89.3l-0.8-41.2 M101.3,64.9l3.4-2.2l-2.8,15.7l-3.2,2.3L101.3,64.9z"/>
	</g>
</g>
</svg>
