<?xml version="1.0" encoding="utf-8"?>
<!-- Generator: Adobe Illustrator 24.1.2, SVG Export Plug-In . SVG Version: 6.00 Build 0)  -->
<svg version="1.1" id="Слой_1" xmlns:xodm="http://www.corel.com/coreldraw/odm/2003"
	 xmlns="http://www.w3.org/2000/svg" xmlns:xlink="http://www.w3.org/1999/xlink" x="0px" y="0px" viewBox="0 0 128 128"
	 style="enable-background:new 0 0 128 128;" xml:space="preserve">
<style type="text/css">
	.st0{fill-rule:evenodd;clip-rule:evenodd;fill:#FFFFFF;}
	.st1{fill-rule:evenodd;clip-rule:evenodd;fill:#4D4D4D;}
	.st2{fill-rule:evenodd;clip-rule:evenodd;fill:#666666;}
	.st3{fill-rule:evenodd;clip-rule:evenodd;fill:#457BBA;}
	.st4{fill:none;stroke:#000000;stroke-width:0.75;stroke-linecap:round;stroke-linejoin:round;stroke-miterlimit:22.9256;}
	.st5{fill:none;stroke:#000000;stroke-width:1.5;stroke-linecap:round;stroke-linejoin:round;stroke-miterlimit:22.9256;}
</style>
<g id="Слой_x0020_1">
	<g id="_2343844909456">
		<path class="st0" d="M71,106.8V43.3c0-2-0.9-4.2-2-5.3c-0.1-0.1-0.5-1.8-0.5-2.3c1.8-0.1,2.9-0.2,2.9-0.3v-6l5.2,1.1
			c0.3-0.2,0.7-1.2,1-2.3c0.2-1,0.3-2.1,0-2.5l-7.6-1.7v-5.8c0-0.1-5.9-0.3-13.2-0.3c-7.3,0-13.2,0.1-13.2,0.3v6.4l1,1.3l-2.3,1.6
			v7.9c0,0.1,1.1,0.2,2.9,0.3c0,0.5-0.4,2.2-0.5,2.3c-1,1.1-2,3.3-2,5.3v63.5c0,1.8,6.3,3.2,14,3.2C64.8,110,71,108.5,71,106.8z"/>
		<path class="st1" d="M42.5,27.5v7.9c0,0.1,1.1,0.2,2.9,0.3C48.1,35.9,52.3,36,57,36c4.7,0,8.9-0.1,11.6-0.2
			c1.8-0.1,2.9-0.2,2.9-0.3v-6l5.2,1.1c0.3-0.2,0.7-1.2,1-2.3c0.2-1,0.3-2.1,0-2.5l-7.6-1.7v-5.8c0-0.1-5.9-0.3-13.2-0.3
			c-7.3,0-13.2,0.1-13.2,0.3v6.4l1,1.3C44.8,25.9,42.5,27.5,42.5,27.5z"/>
		<path class="st2" d="M42.5,27.5c0,0.1,6.5,0.3,14.5,0.3c8,0,14.5-0.1,14.5-0.3v0l-2.3-1.5c0,0.1-5.5,0.3-12.2,0.3
			s-12.2-0.1-12.2-0.3C44.8,25.9,42.5,27.5,42.5,27.5z"/>
		<path class="st3" d="M57,106.2c7.7,0,14-0.9,14-2.1V48.5c0,0.1-6.3,0.3-14,0.3c-7.7,0-14-0.1-14-0.3v55.7
			C43,105.3,49.3,106.2,57,106.2z"/>
		<path class="st4" d="M71,104.1c0,1.2-6.3,2.1-14,2.1c-7.7,0-14-0.9-14-2.1 M71,48.5c0,0.1-6.3,0.3-14,0.3c-7.7,0-14-0.1-14-0.3
			 M69.2,25.9c0,0.1-5.5,0.3-12.2,0.3s-12.2-0.1-12.2-0.3 M70.1,24.6c0,0.1-5.9,0.3-13.1,0.3c-7.2,0-13.1-0.1-13.1-0.3 M71.5,27.5
			c0,0.1-6.5,0.3-14.5,0.3c-8,0-14.5-0.1-14.5-0.3 M69.1,38c0,0.1-5.4,0.3-12,0.3S45,38.1,45,38"/>
		<path class="st5" d="M68.6,35.7c0,0.5,0.4,2.2,0.5,2.3c1,1.1,2,3.3,2,5.3v63.5c0,1.8-6.3,3.2-14,3.2c-7.7,0-14-1.4-14-3.2V43.3
			c0-2,0.9-4.2,2-5.3c0.1-0.1,0.5-1.8,0.5-2.3 M71.5,29.4l5.2,1.1c0.7-0.5,1.5-4,1-4.7l-7.6-1.7 M77.7,28.2l7.8,1.6 M42.5,35.4v-7.9
			l2.3-1.6l-1-1.3v-6.4c0-0.1,5.9-0.3,13.2-0.3c7.3,0,13.2,0.1,13.2,0.3v6.4l-1,1.3l2.3,1.5v7.9C71.5,35.7,65,36,57,36
			C49,36,42.5,35.7,42.5,35.4z"/>
	</g>
</g>
</svg>
