<?xml version="1.0" encoding="utf-8"?>
<!-- Generator: Adobe Illustrator 23.0.1, SVG Export Plug-In . SVG Version: 6.00 Build 0)  -->
<svg version="1.1" id="Слой_1" xmlns="http://www.w3.org/2000/svg" xmlns:xlink="http://www.w3.org/1999/xlink" x="0px" y="0px"
	 viewBox="0 0 128.2 128.2" style="enable-background:new 0 0 128.2 128.2;" xml:space="preserve">
<style type="text/css">
	
		.st0{fill-rule:evenodd;clip-rule:evenodd;fill:none;stroke:#616262;stroke-width:0.7498;stroke-linecap:round;stroke-linejoin:round;stroke-miterlimit:22.9256;}
	
		.st1{fill-rule:evenodd;clip-rule:evenodd;fill:none;stroke:#000003;stroke-width:1.4998;stroke-linecap:round;stroke-linejoin:round;stroke-miterlimit:22.9256;}
</style>
<path class="st0" d="M55.6,73.3c-0.5,2-6.2,3.6-13,3.6c-7.2,0-13-1.8-13-4s5.8-4,13-4c0.4,0,0.8,0,1.3,0 M75.8,54.6
	c2.3-0.4,5.3-0.7,8.5-0.7c7.5,0,13.5,1.4,13.5,3.1c0,1.7-6,3.1-13.5,3.1c-4.6,0-8.7-0.5-11.1-1.3 M46.2,42.1
	c4.6-4.4,9.3-6.9,10.4-5.8c1.1,1.2-1.7,5.7-6.3,10c-4.6,4.4-9.3,6.9-10.4,5.8C38.7,51,41.6,46.5,46.2,42.1z"/>
<path class="st0" d="M43.5,78.4c-9.2,0-16.6-2.4-16.6-5.3c0-1.3,1.4-2.5,3.8-3.4 M66.2,35.4c3.6,7.5,3.9,17.2,5.1,25.1 M98.3,55.1
	c1.3,0.6,2,1.3,2,2.1c0,2.3-7.1,4.2-15.8,4.2 M38,58.3c0,1.3,0.2,3,0.6,4.9 M47.5,52.3c0.2,9.2,0,15.8,1.1,21.4 M59.9,39.5
	c1,10.3-0.4,25.4-0.4,31.4 M105.8,82.4c-1.6,4.1-4.2,9.1-6,12.2 M71.8,62.4c-2.5,2.4-6.6,7.7-8.9,11.5 M87.2,63.4
	c-7.5,7.4-17,13.4-24.5,23.9 M102.4,60.7C97.3,71.3,79,87.3,70.2,95.1 M105.8,66.5C102.6,78,91.2,90.7,85.1,97"/>
<path class="st1" d="M76.7,46.5c2.6,2.7-1.7,11-9.5,18.4c-7.9,7.4-16.3,11.2-18.9,8.5 M76.9,52.2c2.3-0.2,4.8-0.3,7.3-0.3
	c11.9,0,21.5,2.6,21.5,5.8c0,3.2-9.6,5.8-21.5,5.8c-5.3,0-10.2-0.5-14-1.4 M105.7,57.8v31.6 M62.7,68.7v20.7 M105.7,89.4
	c0,4.1-9.6,7.5-21.5,7.5s-21.5-3.4-21.5-7.5 M62.7,73.5v15.8 M60.6,70.3c1.3,0.9,2.1,2,2.1,3.1c0,3.9-9,7.1-20.2,7.1
	c-11.1,0-20.2-3.2-20.2-7.1c0-3.8,8.5-6.9,19.1-7.1 M62.7,89.3c0,4.5-9,8.1-20.2,8.1c-11.1,0-20.2-3.6-20.2-8.1 M22.4,73.5v15.8
	 M62.4,31.4l14.3,15.1 M34,58.3l14.3,15.1 M44.6,41c7.9-7.4,15.9-11.8,17.9-9.6v0c2,2.1-2.8,9.9-10.6,17.3
	c-7.2,6.8-14.5,11-17.2,10.1c-0.3-0.1-0.5-0.2-0.7-0.4C32,56.2,36.7,48.5,44.6,41z"/>
</svg>
