<?xml version="1.0" encoding="utf-8"?>
<!-- Generator: Adobe Illustrator 23.0.1, SVG Export Plug-In . SVG Version: 6.00 Build 0)  -->
<svg version="1.1" id="Слой_1" xmlns="http://www.w3.org/2000/svg" xmlns:xlink="http://www.w3.org/1999/xlink" x="0px" y="0px"
	 viewBox="0 0 128.2 128.2" style="enable-background:new 0 0 128.2 128.2;" xml:space="preserve">
<style type="text/css">
	
		.st0{fill-rule:evenodd;clip-rule:evenodd;fill:none;stroke:#616262;stroke-width:0.7498;stroke-linecap:round;stroke-linejoin:round;stroke-miterlimit:22.9256;}
	.st1{fill-rule:evenodd;clip-rule:evenodd;fill:#000003;}
	
		.st2{fill-rule:evenodd;clip-rule:evenodd;fill:none;stroke:#000003;stroke-width:1.4998;stroke-linecap:round;stroke-linejoin:round;stroke-miterlimit:22.9256;}
</style>
<line class="st0" x1="89.2" y1="26.8" x2="89.2" y2="37.7"/>
<polyline class="st0" points="62.5,47.4 62.4,89.1 30.5,89.1 "/>
<polygon class="st1" points="71.5,55.6 76.2,50.8 87,50.7 85.2,81 80.6,88.7 82.4,55.6 "/>
<polygon class="st1" points="81.9,44.5 86.1,40.3 95.6,40.2 94,66.9 90,73.7 91.5,44.5 "/>
<polygon class="st2" points="38.1,101.4 38.1,89.1 62.4,89.1 73.1,99.8 71.1,101.4 "/>
<polygon class="st2" points="74.7,64.8 97.6,37.4 97.7,60.3 74.7,98.5 "/>
<polygon class="st2" points="62.4,64.8 74.7,64.8 74.7,98.5 73.1,99.8 62.4,89.1 "/>
<polygon class="st2" points="62.4,64.8 89.2,37.7 97.6,37.4 74.7,64.8 "/>
</svg>
