<?xml version="1.0" encoding="utf-8"?>
<!-- Generator: Adobe Illustrator 23.0.1, SVG Export Plug-In . SVG Version: 6.00 Build 0)  -->
<svg version="1.1" id="Слой_1" xmlns="http://www.w3.org/2000/svg" xmlns:xlink="http://www.w3.org/1999/xlink" x="0px" y="0px"
	 viewBox="0 0 128.2 128.2" style="enable-background:new 0 0 128.2 128.2;" xml:space="preserve">
<style type="text/css">
	
		.st0{fill-rule:evenodd;clip-rule:evenodd;fill:none;stroke:#1A1A18;stroke-width:0.7498;stroke-linecap:round;stroke-linejoin:round;stroke-miterlimit:22.9256;}
	
		.st1{fill-rule:evenodd;clip-rule:evenodd;fill:none;stroke:#1A1A18;stroke-width:1.4998;stroke-linecap:round;stroke-linejoin:round;stroke-miterlimit:22.9256;}
	.st2{fill-rule:evenodd;clip-rule:evenodd;fill:none;stroke:#1A1A18;stroke-width:1.4998;stroke-miterlimit:22.9256;}
	
		.st3{fill-rule:evenodd;clip-rule:evenodd;fill:#FFFFFF;stroke:#1A1A18;stroke-width:0.7498;stroke-linecap:round;stroke-linejoin:round;stroke-miterlimit:22.9256;}
	
		.st4{fill-rule:evenodd;clip-rule:evenodd;fill:none;stroke:#616262;stroke-width:0.7498;stroke-linecap:round;stroke-linejoin:round;stroke-miterlimit:22.9256;}
	.st5{fill-rule:evenodd;clip-rule:evenodd;fill:none;stroke:#1A1A18;stroke-width:0.7498;stroke-miterlimit:22.9256;}
</style>
<path class="st0" d="M63.3,68.7h2.1v1h-1.8 M59.6,69.7H24.3v-1h35.3"/>
<rect x="29.2" y="63.3" class="st1" width="5" height="2.5"/>
<line class="st2" x1="34.2" y1="65.8" x2="103.4" y2="65.8"/>
<rect x="34.2" y="65.8" class="st3" width="5" height="5.2"/>
<polyline class="st0" points="60.9,69.8 59.6,69.8 59.6,68.8 59.6,65.8 63.3,65.8 63.3,69.1 "/>
<rect x="103.4" y="63.3" class="st1" width="5" height="2.5"/>
<rect x="34.2" y="44.4" class="st4" width="69.2" height="17.9"/>
<path class="st4" d="M24.3,55.1c-1.3,0-3,0-3.8,0c-0.6,0-0.6-0.7-0.6-1.7c0-1,0.1-1.7,0.6-1.7h1.3l2.5,0 M29.3,61.1
	c-1.6-0.7-2.9-2.3-3.4-4.3 M29.3,45.7c-1.6,0.7-2.9,2.3-3.4,4.3 M25.9,49.6l-1.7,0.5v1.7v3.2v1.6l0.7,0.2l0.9,0.3V49.6z"/>
<rect x="29.2" y="43.5" class="st1" width="5" height="19.8"/>
<rect x="103.4" y="43.5" class="st1" width="5" height="19.8"/>
<line class="st1" x1="24.3" y1="50.2" x2="24.3" y2="69.7"/>
<path class="st5" d="M63.3,69.1c0,0.1,0.1,0.3,0.1,0.3c0.7,0.8,1.2,2,1.2,3.3c0,2.5-1.7,4.6-3.8,4.6 M60.9,77.4
	c-0.4,0-0.6-0.4-0.6-0.8c0-0.4,0.3-0.8,0.6-0.8 M60.9,69.8c1.4,0,2.5,1.3,2.5,3c0,1.7-1.1,3-2.5,3"/>
<polygon class="st1" points="70.3,65.8 77.6,65.8 84.1,82.4 78.4,84.7 78.2,79.5 "/>
<rect x="47.2" y="65.8" class="st3" width="5" height="5.2"/>
</svg>
