<?xml version="1.0" encoding="utf-8"?>
<!-- Generator: Adobe Illustrator 23.0.1, SVG Export Plug-In . SVG Version: 6.00 Build 0)  -->
<svg version="1.1" id="Слой_1" xmlns="http://www.w3.org/2000/svg" xmlns:xlink="http://www.w3.org/1999/xlink" x="0px" y="0px"
	 viewBox="0 0 128.2 128.2" style="enable-background:new 0 0 128.2 128.2;" xml:space="preserve">
<style type="text/css">
	
		.st0{fill-rule:evenodd;clip-rule:evenodd;fill:none;stroke:#000003;stroke-width:1.4998;stroke-linecap:round;stroke-linejoin:round;stroke-miterlimit:22.9256;}
	.st1{fill-rule:evenodd;clip-rule:evenodd;fill:#000003;}
</style>
<line class="st0" x1="30.1" y1="101.3" x2="30.1" y2="22.5"/>
<path class="st0" d="M33.3,101.9c-1.5,0-2.9-0.3-3.2-0.6"/>
<line class="st0" x1="26.1" y1="26.1" x2="33.3" y2="26.1"/>
<path class="st0" d="M30.1,22.5c0-1.8,1.4-3.2,3.2-3.2"/>
<path class="st0" d="M36.6,99.3c6.2,0.3,10.9,1.5,10.9,2.9c0,1.7-6.3,3-14.2,3c-7.8,0-14.2-1.4-14.2-3c0-1.4,4.7-2.6,10.9-2.9"/>
<path class="st0" d="M47.5,106c0,1.7-6.3,3-14.2,3c-7.8,0-14.2-1.3-14.2-3"/>
<path class="st0" d="M33.4,91.6c-1.8,0-3.2-0.2-3.2-0.4"/>
<path class="st0" d="M33.4,80.5c-1.8,0-3.2-0.2-3.2-0.4"/>
<path class="st0" d="M33.4,69.4c-1.8,0-3.2-0.1-3.2-0.3"/>
<path class="st0" d="M33.4,58.3c-1.8,0-3.2-0.1-3.2-0.2"/>
<path class="st0" d="M33.4,47.2c-1.8,0-3.2-0.1-3.2-0.1"/>
<path class="st0" d="M33.4,36.2c-1.8,0-3.2,0-3.2-0.1"/>
<line class="st0" x1="19.2" y1="106" x2="19.2" y2="102.3"/>
<line class="st0" x1="47.5" y1="106" x2="47.5" y2="102.3"/>
<line class="st0" x1="36.6" y1="101.3" x2="36.6" y2="22.5"/>
<path class="st0" d="M33.4,101.9c1.5,0,2.9-0.3,3.2-0.6"/>
<line class="st0" x1="41.8" y1="26.1" x2="33.4" y2="26.1"/>
<path class="st0" d="M36.6,22.5c0-1.8-1.4-3.2-3.2-3.2"/>
<path class="st0" d="M33.4,91.6c1.8,0,3.2-0.2,3.2-0.4"/>
<path class="st0" d="M33.4,80.5c1.8,0,3.2-0.2,3.2-0.4"/>
<path class="st0" d="M33.4,69.4c1.8,0,3.2-0.1,3.2-0.3"/>
<path class="st0" d="M33.4,58.3c1.8,0,3.2-0.1,3.2-0.2"/>
<path class="st0" d="M33.4,47.2c1.8,0,3.2-0.1,3.2-0.1"/>
<path class="st0" d="M33.4,36.2c1.8,0,3.2,0,3.2-0.1"/>
<rect x="30.1" y="36.1" class="st1" width="6.5" height="11"/>
<rect x="30.1" y="58.1" class="st1" width="6.5" height="11"/>
<rect x="30.1" y="80.3" class="st1" width="6.5" height="11.3"/>
<path class="st0" d="M42.2,27.7c-0.9,0-1.6-0.7-1.6-1.6 M44.6,27.7c0.9,0,1.6-0.7,1.6-1.6 M43.4,27.7h1.2 M43.4,24.5h1.2 M44.6,24.5
	c0.9,0,1.6,0.7,1.6,1.6 M43.4,27.7h-1.2 M43.4,24.5h-1.2 M42.2,24.5c-0.9,0-1.6,0.7-1.6,1.6"/>
<path class="st0" d="M50.3,27.7c-0.9,0-1.6-0.7-1.6-1.6 M52.6,27.7c0.9,0,1.6-0.7,1.6-1.6 M51.4,27.7h1.2 M51.4,24.5h1.2 M52.6,24.5
	c0.9,0,1.6,0.7,1.6,1.6 M51.4,27.7h-1.2 M51.4,24.5h-1.2 M50.3,24.5c-0.9,0-1.6,0.7-1.6,1.6"/>
<path class="st0" d="M58.3,27.7c-0.9,0-1.6-0.7-1.6-1.6 M60.6,27.7c0.9,0,1.6-0.7,1.6-1.6 M59.5,27.7h1.2 M59.5,24.5h1.2 M60.6,24.5
	c0.9,0,1.6,0.7,1.6,1.6 M59.5,27.7h-1.2 M59.5,24.5h-1.2 M58.3,24.5c-0.9,0-1.6,0.7-1.6,1.6"/>
<path class="st0" d="M66.3,27.7c-0.9,0-1.6-0.7-1.6-1.6 M68.7,27.7c0.9,0,1.6-0.7,1.6-1.6 M67.5,27.7h1.2 M67.5,24.5h1.2 M68.7,24.5
	c0.9,0,1.6,0.7,1.6,1.6 M67.5,27.7h-1.2 M67.5,24.5h-1.2 M66.3,24.5c-0.9,0-1.6,0.7-1.6,1.6"/>
<path class="st0" d="M74.3,27.7c-0.9,0-1.6-0.7-1.6-1.6 M76.7,27.7c0.9,0,1.6-0.7,1.6-1.6 M75.5,27.7h1.2 M75.5,24.5h1.2 M76.7,24.5
	c0.9,0,1.6,0.7,1.6,1.6 M75.5,27.7h-1.2 M75.5,24.5h-1.2 M74.3,24.5c-0.9,0-1.6,0.7-1.6,1.6"/>
<path class="st0" d="M82.4,27.7c-0.9,0-1.6-0.7-1.6-1.6 M84.7,27.7c0.9,0,1.6-0.7,1.6-1.6 M83.6,27.7h1.2 M83.6,24.5h1.2 M84.7,24.5
	c0.9,0,1.6,0.7,1.6,1.6 M83.6,27.7h-1.2 M83.6,24.5h-1.2 M82.4,24.5c-0.9,0-1.6,0.7-1.6,1.6"/>
<path class="st0" d="M22.1,27.7c-0.9,0-1.6-0.7-1.6-1.6 M24.5,27.7c0.9,0,1.6-0.7,1.6-1.6 M23.3,27.7h1.2 M23.3,24.5h1.2 M24.5,24.5
	c0.9,0,1.6,0.7,1.6,1.6 M23.3,27.7h-1.2 M23.3,24.5h-1.2 M22.1,24.5c-0.9,0-1.6,0.7-1.6,1.6"/>
<line class="st0" x1="65.7" y1="26.1" x2="61.3" y2="26.1"/>
<line class="st0" x1="73.7" y1="26.1" x2="69.3" y2="26.1"/>
<line class="st0" x1="57.6" y1="26.1" x2="53.3" y2="26.1"/>
<line class="st0" x1="49.6" y1="26.1" x2="45.2" y2="26.1"/>
<line class="st0" x1="81.7" y1="26.1" x2="77.4" y2="26.1"/>
<line class="st0" x1="21.9" y1="26.1" x2="18.4" y2="26.1"/>
<line class="st0" x1="90.4" y1="101.3" x2="90.4" y2="22.5"/>
<path class="st0" d="M93.6,101.9c-1.5,0-2.9-0.3-3.2-0.6"/>
<line class="st0" x1="85.2" y1="26.1" x2="93.6" y2="26.1"/>
<path class="st0" d="M90.4,22.5c0-1.8,1.4-3.2,3.2-3.2"/>
<path class="st0" d="M96.9,99.3c6.2,0.3,10.9,1.5,10.9,2.9c0,1.7-6.3,3-14.2,3c-7.8,0-14.2-1.4-14.2-3c0-1.4,4.7-2.6,10.9-2.9"/>
<path class="st0" d="M107.7,106c0,1.7-6.3,3-14.2,3c-7.8,0-14.2-1.3-14.2-3"/>
<path class="st0" d="M93.6,91.6c-1.8,0-3.2-0.2-3.2-0.4"/>
<path class="st0" d="M93.6,80.5c-1.8,0-3.2-0.2-3.2-0.4"/>
<path class="st0" d="M93.6,69.4c-1.8,0-3.2-0.1-3.2-0.3"/>
<path class="st0" d="M93.6,58.3c-1.8,0-3.2-0.1-3.2-0.2"/>
<path class="st0" d="M93.6,47.2c-1.8,0-3.2-0.1-3.2-0.1"/>
<path class="st0" d="M93.6,36.2c-1.8,0-3.2,0-3.2-0.1"/>
<line class="st0" x1="79.4" y1="106" x2="79.4" y2="102.3"/>
<line class="st0" x1="107.8" y1="106" x2="107.7" y2="102.3"/>
<line class="st0" x1="96.8" y1="101.3" x2="96.8" y2="22.5"/>
<path class="st0" d="M93.6,101.9c1.5,0,2.9-0.3,3.2-0.6"/>
<line class="st0" x1="100.9" y1="26.1" x2="93.6" y2="26.1"/>
<path class="st0" d="M96.8,22.5c0-1.8-1.4-3.2-3.2-3.2"/>
<path class="st0" d="M93.6,91.6c1.8,0,3.2-0.2,3.2-0.4"/>
<path class="st0" d="M93.6,80.5c1.8,0,3.2-0.2,3.2-0.4"/>
<path class="st0" d="M93.6,69.4c1.8,0,3.2-0.1,3.2-0.3"/>
<path class="st0" d="M93.6,58.3c1.8,0,3.2-0.1,3.2-0.2"/>
<path class="st0" d="M93.6,47.2c1.8,0,3.2-0.1,3.2-0.1"/>
<path class="st0" d="M93.6,36.2c1.8,0,3.2,0,3.2-0.1"/>
<rect x="90.4" y="36.1" class="st1" width="6.5" height="11"/>
<rect x="90.4" y="58.1" class="st1" width="6.5" height="11"/>
<rect x="90.4" y="80.3" class="st1" width="6.5" height="11.3"/>
<path class="st0" d="M102.5,27.7c-0.9,0-1.6-0.7-1.6-1.6 M104.8,27.7c0.9,0,1.6-0.7,1.6-1.6 M103.7,27.7h1.2 M103.7,24.5h1.2
	 M104.8,24.5c0.9,0,1.6,0.7,1.6,1.6 M103.7,27.7h-1.2 M103.7,24.5h-1.2 M102.5,24.5c-0.9,0-1.6,0.7-1.6,1.6"/>
<line class="st0" x1="109.8" y1="26.1" x2="105.5" y2="26.1"/>
</svg>
