<?xml version="1.0" encoding="utf-8"?>
<!-- Generator: Adobe Illustrator 19.0.0, SVG Export Plug-In . SVG Version: 6.00 Build 0)  -->
<svg version="1.1" id="Слой_1" xmlns="http://www.w3.org/2000/svg" xmlns:xlink="http://www.w3.org/1999/xlink" x="0px" y="0px"
	 viewBox="-1.5 -1.4 128.2 128.2" style="enable-background:new -1.5 -1.4 128.2 128.2;" xml:space="preserve">
<style type="text/css">
	.st0{fill-rule:evenodd;clip-rule:evenodd;fill:#E94C32;}
	.st1{fill-rule:evenodd;clip-rule:evenodd;fill:#E63B11;}
	
		.st2{fill-rule:evenodd;clip-rule:evenodd;fill:none;stroke:#050007;stroke-width:0.6653;stroke-linecap:round;stroke-linejoin:round;stroke-miterlimit:22.9256;}
	
		.st3{fill-rule:evenodd;clip-rule:evenodd;fill:none;stroke:#050007;stroke-width:1.3303;stroke-linecap:round;stroke-linejoin:round;stroke-miterlimit:22.9256;}
	
		.st4{fill-rule:evenodd;clip-rule:evenodd;fill:none;stroke:#050007;stroke-width:0.887;stroke-linecap:round;stroke-linejoin:round;stroke-miterlimit:22.9256;}
</style>
<g>
	<g>
		<path class="st0" d="M30.6,72.1l14.3,0l1.8-4.5l-0.9-1.8h-2.7L42.2,65v-1.8h-9.8v2.7l-1.8,1.8V72.1L30.6,72.1z M32.4,40l16.1-0.8
			l16.9-0.9l1.2-1.9l5.1-13.7L65,14.1l-49.8,4.4L12,25.8l3,6.1l8.3,6.7L32.4,40L32.4,40z M70.9,24.9l6.7-0.3l-4.2,3l-1,2.5l-3.5,0
			L70.9,24.9L70.9,24.9z M81.9,25.6l-5.6,4.5l3.6-0.4l5.8-3L81.9,25.6z"/>
		<polygon class="st1" points="67.9,32.7 68.9,30.3 68.9,30.1 70.9,24.9 70.9,24.8 71.7,22.7 15.6,25.6 21.2,31.6 		"/>
		<path class="st2" d="M48.5,40.8v4.5l1.8,0v-4.5L48.5,40.8L48.5,40.8z M33.1,68.5h8.1 M35.9,58.7l1.8-14.3 M66.7,36l-44.1,2.1
			 M55.6,38.7l0.1,2.7l8-0.4l-0.1-2.7L55.6,38.7L55.6,38.7z M15.6,25.6l56.1-2.9 M15.5,18.6l0.1,7l5.7,6l46.7,1.1 M32.4,75.1l14.2,0
			l1.2-1.1l2.2,1.4"/>
		<path class="st3" d="M82.4,25.8l3.3,0.9l-5.8,3l-3.2,0.1 M77.5,24.6l-6.5,0.2l-2.1,5.5l3.2-0.1"/>
		<path class="st4" d="M92.2,31.8l-2.1,0.1l-0.8-1.7L75.8,31l0.8-1.5l13-9l2.1-0.1l-1.8,5.3L92.2,31.8L92.2,31.8z M92.8,25.3
			l1.8-5.3l-0.2-4.1l-5.1,0.5l-16,11.2L70.1,36l0.7,2l3.1-0.2l0.9-2.1l1-1.1l9.3-0.5l1.1,1l1.1,2l8.2-0.5l-0.3-5.3L92.8,25.3z"/>
		<path class="st3" d="M65,14.1l-49.8,4.4L12,25.8l3,6.1l8.3,6.7l9.1,1.3l33-1.7l1.2-1.9l5.1-13.7L65,14.1L65,14.1z M44.9,48
			l2.7-0.9l0.9-0.9v-7.1L32.4,40l1.8,0.9l0.9,1.8l-2.7,20.5h9.8L44,49.8L44.9,48L44.9,48z M32.4,63.2v2.7l-1.8,1.8v4.5l14.3,0
			l1.8-4.5l-0.9-1.8h-2.7L42.2,65v-1.8H32.4L32.4,63.2z M53.8,73.9l-0.9-1.8l-6.2-4.5l-1.8,4.5H30.6L28.8,73l-1.8,1.8l0,8l1.8,1.8
			l23.2,0l1.8-1.8L53.8,73.9z"/>
	</g>
	<g>
		<path class="st1" d="M105.3,56.2h4.4v-2.9h-4.4V56.2L105.3,56.2z M96.5,56.2h5.1l-1.2-1.5V54h-2.9v0.7L96.5,56.2L96.5,56.2z
			 M90,49.7h2.9v-0.8v-1.3v-0.8H90V49.7L90,49.7z M76.9,49.7h2.9v-2.9h-2.9V49.7L76.9,49.7z M70.2,73.5h18.9c0.7,0,1.4-0.3,1.9-0.8
			c0.5-0.5,0.8-1.2,0.8-1.9c0-0.7-0.3-1.4-0.8-1.9c-0.5-0.5-1.2-0.8-1.9-0.8H70.2c-0.7,0-1.4,0.3-1.9,0.8c-0.5,0.5-0.8,1.2-0.8,1.9
			c0,0.7,0.3,1.4,0.8,1.9C68.7,73.2,69.4,73.5,70.2,73.5z"/>
		<path class="st0" d="M80.5,54h2.2h4.4h2.2H90v-4.4v-2.9v-1.5h-3.6h-2.9h-3.6v1.5v2.9V54H80.5L80.5,54z M82.7,49.7
			c0-1.2,1-2.2,2.2-2.2c1.2,0,2.2,1,2.2,2.2c0,1.2-1,2.2-2.2,2.2C83.7,51.8,82.7,50.9,82.7,49.7L82.7,49.7z M62.3,89.7
			c11.7,5.8,39.3,5.8,51,0V56.2h-3.6h-4.4h-3.6h-5.1h-7.3h-2.2h-4.4h-2.2H62.3V89.7L62.3,89.7z M89.1,73.5H70.2
			c-0.7,0-1.4-0.3-1.9-0.8c-0.5-0.5-0.8-1.2-0.8-1.9c0-0.7,0.3-1.4,0.8-1.9c0.5-0.5,1.2-0.8,1.9-0.8h18.9c0.7,0,1.4,0.3,1.9,0.8
			c0.5,0.5,0.8,1.2,0.8,1.9c0,0.7-0.3,1.4-0.8,1.9C90.5,73.2,89.8,73.5,89.1,73.5L89.1,73.5z M75.4,99.6h7.3h2.9v-3.3H72.5v3.3H75.4
			L75.4,99.6z M79.1,111.2l-2.9-5.8l-0.7-4.4v-1.5h7.3v1.5l-0.7,4.4L79.1,111.2z"/>
		<path class="st2" d="M82.7,54v2.2 M80.5,56.2V54 M89.3,54v2.2 M87.1,56.2V54 M79.8,49.7h-2.9v-2.9h2.9 M90,46.7h2.9v2.9H90
			 M96.5,56.2l1-1.5V54h2.9v0.7l1.2,1.5 M92.9,47.6c3.6,0,6.6,2.9,6.8,6.4 M92.9,48.8c2.9,0,5.3,2.3,5.5,5.2 M77.6,103.6H82
			 M89.1,68.1H70.2c-0.7,0-1.4,0.3-1.9,0.8c-0.5,0.5-0.8,1.2-0.8,1.9c0,0.7,0.3,1.4,0.8,1.9c0.5,0.5,1.2,0.8,1.9,0.8h18.9
			c0.7,0,1.4-0.3,1.9-0.8c0.5-0.5,0.8-1.2,0.8-1.9c0-0.7-0.3-1.4-0.8-1.9C90.5,68.4,89.8,68.1,89.1,68.1L89.1,68.1z M63.8,90.8
			c0,1.7,0,2.9,0,5.5h48.1c0-2.6,0-3.8,0-5.7"/>
		<path class="st3" d="M105.3,56.2v-2.9h4.4v2.9 M79.8,45.3H90V54H79.8V45.3L79.8,45.3z M84.9,47.5c1.2,0,2.2,1,2.2,2.2
			c0,1.2-1,2.2-2.2,2.2c-1.2,0-2.2-1-2.2-2.2C82.7,48.5,83.7,47.5,84.9,47.5L84.9,47.5z M75.4,99.6h7.3v1.5l-0.7,4.4l-2.9,5.8
			l-2.9-5.8l-0.7-4.4V99.6L75.4,99.6z M85.6,96.7v2.9H72.5v-2.9 M62.3,56.2h51c0,11.2,0,25.5,0,33.5c-11.7,5.8-39.3,5.8-51,0
			C62.3,82.5,62.3,67.4,62.3,56.2z"/>
	</g>
</g>
</svg>
