<?xml version="1.0" encoding="utf-8"?>
<!-- Generator: Adobe Illustrator 19.0.0, SVG Export Plug-In . SVG Version: 6.00 Build 0)  -->
<svg version="1.1" id="Слой_1" xmlns="http://www.w3.org/2000/svg" xmlns:xlink="http://www.w3.org/1999/xlink" x="0px" y="0px"
	 viewBox="-0.8 -1.8 128.2 128.2" style="enable-background:new -0.8 -1.8 128.2 128.2;" xml:space="preserve">
<style type="text/css">
	.st0{fill-rule:evenodd;clip-rule:evenodd;fill:#E84B31;}
	.st1{fill-rule:evenodd;clip-rule:evenodd;fill:#E5390D;}
	
		.st2{fill-rule:evenodd;clip-rule:evenodd;fill:none;stroke:#000003;stroke-width:0.7498;stroke-linecap:round;stroke-linejoin:round;stroke-miterlimit:22.9256;}
	
		.st3{fill-rule:evenodd;clip-rule:evenodd;fill:none;stroke:#000003;stroke-width:1.4995;stroke-linecap:round;stroke-linejoin:round;stroke-miterlimit:22.9256;}
</style>
<g>
	<path class="st0" d="M54,105.4H61h2.3v-4.6H61H54h-2.3v4.6H54L54,105.4z M57.5,119.3l-2.3-2.3v-6.9l-1.2-1.2v-3.5H61v3.5l-1.2,1.2
		v6.9L57.5,119.3L57.5,119.3z M40.2,87c11.3,8.1,35,8.1,46.3,0c0.4-0.3,0.8-0.6,1.2-0.9V32.9H70.2h-3.5h-6.9h-3.5H39v53.2
		C39.4,86.5,39.8,86.8,40.2,87L40.2,87z M61,12.2h4.6h2.3V5.3h-9.3v6.9H61L61,12.2z M66.8,29.4h3.5h1.2v-6.9v-4.6v-2.3h-5.8H61h-5.8
		v2.3v4.6v6.9h1.2h3.5H66.8L66.8,29.4z M66.8,22.5c0,1.9-1.6,3.5-3.5,3.5c-1.9,0-3.5-1.6-3.5-3.5c0-1.9,1.6-3.5,3.5-3.5
		C65.2,19,66.8,20.6,66.8,22.5z"/>
	<path class="st1" d="M61,105.4H54v3.5l1.2,1.2v6.9l2.3,2.3l2.3-2.3v-6.9l1.2-1.2V105.4L61,105.4z M61,100.8h2.3v4.6H61H54h-2.3
		v-4.6H54H61L61,100.8z M71.4,15.5h-5.8H61h-5.8v2.3v4.6v6.9h1.2h3.5h6.9h3.5h1.2v-6.9v-4.6V15.5L71.4,15.5z M63.3,19
		c1.9,0,3.5,1.6,3.5,3.5c0,1.9-1.6,3.5-3.5,3.5c-1.9,0-3.5-1.6-3.5-3.5C59.8,20.6,61.4,19,63.3,19z"/>
	<path class="st2" d="M70.2,29.4v3.5 M66.8,32.9v-3.5 M59.8,29.4v3.5 M56.4,32.9v-3.5 M61,15.5V12 M65.6,12v3.6 M55.2,22.5h-4.6
		v-4.6h4.6 M71.4,17.9H76v4.6h-4.6 M57.5,108.9h3.2 M55.9,115.8h3.2 M61,96.6v4.2 M54,100.8v-4.2 M40.2,87v9.5h46.3V87"/>
	<path class="st3" d="M63.3,19c1.9,0,3.5,1.6,3.5,3.5c0,1.9-1.6,3.5-3.5,3.5c-1.9,0-3.5-1.6-3.5-3.5C59.8,20.6,61.4,19,63.3,19
		L63.3,19z M54,105.4H61v3.5l-1.2,1.2v6.9l-2.3,2.3l-2.3-2.3v-6.9l-1.2-1.2V105.4L54,105.4z M51.7,100.8h11.6v4.6H51.7V100.8
		L51.7,100.8z M58.7,5.3h9.3v6.9h-9.3V5.3L58.7,5.3z M55.2,15.5h16.2v13.9H55.2V15.5L55.2,15.5z M39,32.9h48.6c0,17.7,0,40.5,0,53.2
		c-11.1,9.3-37.5,9.3-48.6,0C39,74.6,39,50.7,39,32.9z"/>
</g>
</svg>
