<?xml version="1.0" encoding="utf-8"?>
<!-- Generator: Adobe Illustrator 24.1.2, SVG Export Plug-In . SVG Version: 6.00 Build 0)  -->
<svg version="1.1" id="Слой_1" xmlns:xodm="http://www.corel.com/coreldraw/odm/2003"
	 xmlns="http://www.w3.org/2000/svg" xmlns:xlink="http://www.w3.org/1999/xlink" x="0px" y="0px" viewBox="0 0 128 128"
	 style="enable-background:new 0 0 128 128;" xml:space="preserve">
<style type="text/css">
	.st0{fill-rule:evenodd;clip-rule:evenodd;fill:#FFFFFF;}
	.st1{fill-rule:evenodd;clip-rule:evenodd;fill:#CCCCCC;}
	.st2{fill:none;stroke:#000000;stroke-width:1.5;stroke-linecap:round;stroke-linejoin:round;stroke-miterlimit:22.9256;}
	.st3{fill:none;stroke:#666666;stroke-width:0.75;stroke-linecap:round;stroke-linejoin:round;stroke-miterlimit:22.9256;}
	.st4{fill-rule:evenodd;clip-rule:evenodd;fill:#FEFEFE;}
</style>
<g id="Слой_x0020_1">
	<g id="_2344106997280">
		<path class="st0" d="M28.1,107l1.3,0.8l-3.5,7.2l-4.1-2.4l-4.1-2.4l4.5-6.6l1.3,0.8l11.1-19.1c-2.5-1.3-4.6-2.3-4.1-3.3
			c6.1-10.3-1-12.4,3.2-19.7c4.7-8.1,16.5-28.6,21.6-37.5c0-0.1,2.9-1.4,3-1.5c-1.2-1.1-2.4-2.2-3.6-3.3c-4.2-4.6,3.2-9.4,7.4-5.4
			c3.3,3.2,7.1,6,11.2,8.4c4.1,2.4,8.5,4.2,12.9,5.6c5.6,1.7,5.2,10.5-0.9,9.1c-1.6-0.4-3.2-0.9-4.8-1.5c0,0.1,0.3,3.6,0.2,3.6
			c-5.1,8.9-17,29.4-21.6,37.5c-4.2,7.3-9.6,2.2-15.4,12.7c-0.6,1-2.5-0.3-4.9-1.9C39,88.1,28.1,107,28.1,107z M57.8,40.9l8.1,4.7
			c1.3,0.7,1.7,2.3,1,3.6c-0.7,1.3-2.3,1.7-3.6,1l-8.1-4.7c-1.3-0.7-1.7-2.3-1-3.6C55,40.6,56.6,40.2,57.8,40.9z M35.8,83.3
			l12.5-21.6c0.7-1.3,2.3-1.7,3.6-1c1.3,0.7,1.7,2.3,1,3.6L40.9,84.8l-0.7,1.3c6.3-10.8,11.3-5.6,15.6-13.1
			c2.8-4.8,8.1-14.1,13.1-22.7c3.5-6,6.8-11.7,8.8-15.3l-0.2-0.1c-2.9-1.2-5.7-2.6-8.5-4.2c-2.8-1.6-5.5-3.4-8-5.4
			c-2.1,3.6-5.4,9.3-8.8,15.3c-4.9,8.5-10.2,17.7-13,22.4C35,70.6,42,72.4,35.8,83.3z"/>
		<polygon class="st1" points="23.6,104.4 25.9,105.7 28.1,107 29.5,107.8 26,114.9 21.9,112.6 17.8,110.2 22.2,103.6 		"/>
		<path class="st1" d="M57.8,40.9l8.1,4.7c1.3,0.7,1.7,2.3,1,3.6c-0.7,1.3-2.3,1.7-3.6,1l-8.1-4.7c-1.3-0.7-1.7-2.3-1-3.6
			C55,40.6,56.6,40.2,57.8,40.9z M73.6,22.9c4.1,2.4,8.5,4.2,12.9,5.6c5.6,1.7,5.2,10.5-0.9,9.1c-1.6-0.4-3.2-0.9-4.8-1.5l-0.2-0.1
			c-0.9-0.3-1.9-0.7-2.8-1.1l-0.2-0.1c-2.9-1.2-5.7-2.6-8.5-4.2c-2.8-1.6-5.5-3.4-8-5.4c-0.9-0.7-1.8-1.4-2.6-2.2
			c-1.2-1.1-2.4-2.2-3.6-3.3c-4.2-4.6,3.2-9.4,7.4-5.4C65.7,17.7,69.4,20.5,73.6,22.9z"/>
		<path class="st2" d="M68.9,50.3l-2-1.2 M25.9,105.7l-3.6-2.1l-4.5,6.6l4.1,2.4l4.1,2.4l3.5-7.2C29.5,107.8,25.9,105.7,25.9,105.7z
			 M73.6,22.9c4.1,2.4,8.5,4.2,12.9,5.6c5.6,1.7,5.2,10.5-0.9,9.1c-1.6-0.4-3.2-0.9-4.8-1.5l-0.2-0.1c-0.9-0.3-1.9-0.7-2.8-1.1
			l-0.2-0.1c-2.9-1.2-5.7-2.6-8.5-4.2c-5.3-3.1-10-6.7-14.2-10.8c-4.2-4.6,3.2-9.4,7.4-5.4C65.7,17.7,69.4,20.5,73.6,22.9z
			 M28.1,107l24.7-42.8c0.7-1.3,0.3-2.9-1-3.6l0,0c-1.3-0.7-2.9-0.3-3.6,1l-24.7,42.8 M58.4,23.2c0,0.1-2.9,1.4-3,1.5
			c-5.1,8.9-17,29.4-21.6,37.5c-4.2,7.3,2.8,9.4-3.2,19.7c-0.6,1,1.6,2,4.1,3.3 M80.8,36.1c0,0.1,0.3,3.6,0.2,3.6
			c-5.1,8.9-17,29.4-21.6,37.5c-4.2,7.3-9.6,2.2-15.4,12.7c-0.6,1-2.5-0.3-4.9-1.9 M77.8,35c-5.1,8.7-17.2,29.8-21.9,38
			c-4.3,7.4-9.3,2.3-15.6,13.1 M61.1,25.4C56,34.1,44,55,39.3,63.1c-4.3,7.4,2.7,9.3-3.5,20.1 M54.2,41.9l-2-1.2 M66.9,49.1
			L66.9,49.1c0.7-1.3,0.3-2.9-1-3.6l-8.1-4.7c-1.3-0.7-2.9-0.3-3.6,1l0,0c-0.7,1.3-0.3,2.9,1,3.6l8.1,4.7
			C64.5,50.8,66.1,50.4,66.9,49.1z"/>
		<path class="st3" d="M49.3,62.4c0.4,0.1,0.8,0.3,1.2,0.5c0.4,0.2,0.7,0.5,1,0.8 M86.8,35.3c-5.6-1.5-11.2-3.8-16.4-6.9
			c-5.3-3.1-10-6.7-14.2-10.8 M64,48.1l-7.3-4.2"/>
		<path class="st4" d="M85.8,71.8l10-4.5c1.5,3.5,2.1,7.6,1.3,11.6c-0.3,1.7-0.8,3.3-1.5,4.7c-0.5,1-1.3,0.9-1.9,0.5l-7.9-5.7
			c0.7-1.8,0.8-3.8,0.2-5.8C86.1,72.4,86,72.1,85.8,71.8z M75.6,95.2l1.2-10.9c1.1,0.1,2.2,0,3.3-0.3c1.2-0.4,2.3-0.9,3.2-1.7
			l7.8,5.6c0.4,0.3,0.9,1.2,0.1,2.1C87.1,93.7,81.4,95.7,75.6,95.2C75.6,95.2,75.6,95.2,75.6,95.2z M74.9,100.8
			c11.8,1.2,23.2-5.9,27-17.7c2-6.2,1.5-12.6-1-18.1c1.3-0.6,2.4-1,3.7-1.6l1.6,2.7c0.6,1,1.9,1.3,2.9,0.7c1-0.6,1.3-1.9,0.7-2.9
			l-2.2-3.6c-0.4-0.7-1.3-1.1-2-1l-0.1,0l-5.6,0.4c0,0,0,0,0,0c-2.9-4.3-7-7.6-11.7-9.6l0.7-1.6c-4.9-2.1-10.7-2.8-16-2
			c-2.1,0.3-4.9,1.3-7.2,2.1c-4.5,1.9-7.8,4.7-10.7,8.2l-1.4-1.1c-1.2,1.5-2.3,3.1-3.2,4.8c-1.6-0.8-3.5-0.3-4.4,1.3
			s0.4,3.9,1.3,4.4c0.9,0.5,0.4,0.2,0.6,0.3c-1.4,4.6-1.7,9.5-0.7,14.4c-0.1,0,0.7-0.2-0.2,0c-0.9,0.3-2.7,2.3-2.2,4
			c0.5,1.7,3.1,2.4,4,2.2c0.9-0.3,0.1,0,0.2-0.1c1.9,4.6,4.9,8.6,8.5,11.7c-0.1,0.2,0.1-0.3-0.4,0.5c-0.5,0.9-0.3,3.5,1.3,4.4
			c1.6,0.8,3.5,0.3,4.4-1.3h0c2,1.1,4.2,2,6.4,2.6l1.3,5.4l0,0.1c0.2,0.8,0.8,1.4,1.6,1.6l4.1,1c1.1,0.3,2.3-0.4,2.5-1.6
			s-0.4-2.3-1.6-2.5l-3.1-0.7l0.2-2.3L74.9,100.8L74.9,100.8L74.9,100.8z M72.4,110c0.1-0.6,0.7-0.9,1.3-0.8
			c0.6,0.1,0.9,0.7,0.8,1.3c-0.1,0.6-0.7,0.9-1.3,0.8S72.3,110.6,72.4,110z M75.8,110.8c0.1-0.6,0.7-0.9,1.3-0.8
			c0.6,0.1,0.9,0.7,0.8,1.3c-0.1,0.6-0.7,0.9-1.3,0.8C76,111.9,75.6,111.4,75.8,110.8z M105.5,62.8c-0.3-0.5-0.1-1.1,0.4-1.4
			c0.5-0.3,1.1-0.1,1.4,0.4c0.3,0.5,0.1,1.1-0.4,1.4C106.5,63.4,105.8,63.3,105.5,62.8z M107.2,65.6c-0.3-0.5-0.1-1.1,0.4-1.4
			c0.5-0.3,1.1-0.1,1.4,0.4s0.1,1.1-0.4,1.4C108.2,66.2,107.5,66.1,107.2,65.6z"/>
		<path class="st1" d="M69.3,105l1.3,5.4l0,0.1c0.2,0.8,0.8,1.4,1.6,1.6l4.1,1c1.1,0.3,2.3-0.4,2.5-1.6c0.3-1.1-0.4-2.3-1.6-2.5
			l-3.1-0.7l0.2-2.3L77,82.2c-2.8-0.2-5.3-2.3-6.1-4.9c-0.8-2.5-0.1-4.7,1.3-6.4c0.8-1,1.8-1.7,3.3-2.2c1.5-0.4,3.3-0.3,4.8,0.3
			c1.6,0.7,2.8,2,3.5,3.6l18.6-8.4h0l2.1-0.8c0,0,0,0,0.1,0l1.6,2.7c0.6,1,1.9,1.3,2.9,0.7c1-0.6,1.3-1.9,0.7-2.9l-2.2-3.6
			c-0.4-0.7-1.3-1.1-2-1l-0.1,0l-5.6,0.4c0.1,0.2,0.2,0.3,0.3,0.5c-3-4.5-7.2-8-12-10l0.7-1.6c-4.9-2.1-10.8-2.8-16.2-1.9
			c-2.1,0.4-4.5,1.1-7,2c-4.5,1.9-7.9,4.7-10.8,8.3l-1.4-1.1c-1.2,1.5-2.3,3.1-3.2,4.8c-1.6-0.8-3.5-0.3-4.4,1.3
			c-0.8,1.6,0.4,3.9,1.3,4.4c0.9,0.5,0.4,0.2,0.6,0.3c-1.4,4.6-1.7,9.5-0.7,14.4c-0.1,0,0.7-0.2-0.2,0c-0.9,0.3-2.7,2.3-2.2,4
			c0.5,1.7,3.1,2.4,4,2.2c0.9-0.3,0.1,0,0.2-0.1c1.9,4.6,4.9,8.6,8.5,11.7c-0.1,0.2,0.1-0.3-0.4,0.5c-0.5,0.9-0.3,3.5,1.3,4.4
			c1.6,0.8,3.5,0.3,4.4-1.3h0C64.9,103.5,67.1,104.4,69.3,105L69.3,105z M101,61.4c-0.2-0.4-0.4-0.7-0.7-1.1
			C100.6,60.6,100.8,61,101,61.4z M101,61.4L101,61.4l0.2,0.3l0,0l0.1,0.2l0,0l0,0l0,0l0.1,0.1l0,0.1l0,0l0,0l0,0l0.1,0.3l0,0
			l0.1,0.3l0,0l0,0l0.1,0.2l0,0.1l0,0l0,0l0.1,0.2l0,0.1l0,0.1l0.1,0.2l0,0l0,0l0,0.1l0.1,0.1l0,0.1l0,0l0,0.1l0,0.1l0,0.1l0,0.1
			L101,61.4z M104,59.8c-0.3-0.5-0.1-1.1,0.4-1.4c0.5-0.3,1.1-0.1,1.4,0.4c0.3,0.5,0.1,1.1-0.4,1.4C104.9,60.5,104.3,60.3,104,59.8z
			 M105.7,62.6c-0.3-0.5-0.1-1.1,0.4-1.4c0.5-0.3,1.1-0.1,1.4,0.4s0.1,1.1-0.4,1.4C106.7,63.3,106,63.1,105.7,62.6z M70.9,107.1
			c0.1-0.6,0.7-0.9,1.3-0.8c0.6,0.1,0.9,0.7,0.8,1.3c-0.1,0.6-0.7,0.9-1.3,0.8S70.8,107.6,70.9,107.1z M74.2,107.8
			c0.1-0.6,0.7-0.9,1.3-0.8c0.6,0.1,0.9,0.7,0.8,1.3c-0.1,0.6-0.7,0.9-1.3,0.8C74.5,109,74.1,108.4,74.2,107.8z"/>
		<path class="st3" d="M74.9,100.8c11.8,1.3,23.3-5.9,27.1-17.7c2-6.2,1.5-12.6-1-18.1 M75.6,95.2c5.9,0.6,11.6-1.5,15.6-5.3
			c0.8-0.8,0.3-1.7-0.1-2.1l-7.8-5.6c-0.9,0.8-2,1.4-3.2,1.7c-1.1,0.3-2.2,0.4-3.3,0.3 M85.8,71.8c0.1,0.3,0.2,0.6,0.3,0.9
			c0.6,2,0.5,4-0.2,5.8l7.9,5.7c0.6,0.4,1.4,0.4,1.9-0.5c0.7-1.5,1.2-3.1,1.5-4.7c0.8-4.1,0.2-8.2-1.4-11.7"/>
		<path class="st3" d="M55.4,66.7L52,65.2 M58.7,59.5c1.8-2.2,4-4.2,6.6-5.7c6-3.6,13-4.2,19.2-2.3 M87.4,53.9
			c4.3,1.8,7.9,4.9,10.4,8.7 M54.4,70.7l-3.7-1.1 M54,74.7l-3.8-0.5 M54.3,78.6l-3.8,0.3 M55.2,82.4l-3.6,1.1 M56.7,86l-3.3,2
			 M58.7,89.3L56,92 M61.4,92.3l-2.2,3.1 M64.5,94.9l-1.7,3.4 M68.1,96.9l-1.3,3.6"/>
		<path class="st3" d="M74.4,105.9l-0.2,2.3l3.1,0.7c1.1,0.3,1.8,1.4,1.6,2.5c-0.3,1.1-1.4,1.8-2.5,1.6l-4.1-1
			c-0.8-0.2-1.4-0.9-1.6-1.6l0-0.1l-1.4-5.7 M102.5,64.3l2.2-0.9l1.6,2.7c0.6,1,1.9,1.3,2.9,0.7c1-0.6,1.3-1.9,0.7-2.9l-2.2-3.6
			c-0.4-0.7-1.3-1.1-2-1l-0.1,0l-5.8,0.4 M73.7,109.2c-0.6-0.1-1.1,0.2-1.3,0.8c-0.1,0.6,0.2,1.1,0.8,1.3c0.6,0.1,1.1-0.2,1.3-0.8
			C74.6,109.9,74.3,109.4,73.7,109.2z M105.5,62.8c-0.3-0.5-0.1-1.1,0.4-1.4c0.5-0.3,1.1-0.1,1.4,0.4c0.3,0.5,0.1,1.1-0.4,1.4
			C106.5,63.4,105.8,63.3,105.5,62.8z M107.2,65.6c-0.3-0.5-0.1-1.1,0.4-1.4c0.5-0.3,1.1-0.1,1.4,0.4s0.1,1.1-0.4,1.4
			C108.2,66.2,107.5,66.1,107.2,65.6z M77,110c-0.6-0.1-1.1,0.2-1.3,0.8c-0.1,0.6,0.2,1.1,0.8,1.3c0.6,0.1,1.1-0.2,1.3-0.8
			C77.9,110.7,77.6,110.1,77,110z"/>
		<path class="st2" d="M80.4,69c1.6,0.7,2.8,2,3.5,3.6l18.6-8.4c-2.8-6.5-8-11.4-14.2-14.1 M55,57l-1.4-1.1
			c-1.2,1.5-2.3,3.1-3.2,4.8c-1.6-0.8-3.5-0.3-4.4,1.3s-0.3,3.5,1.3,4.4c0.2,0.1,0.4,0.2,0.6,0.3c-1.4,4.6-1.7,9.5-0.7,14.4
			c-0.1,0-0.1,0-0.2,0c-1.7,0.5-2.7,2.3-2.2,4c0.5,1.7,2.3,2.7,4,2.2c0.1,0,0.1,0,0.2-0.1c1.9,4.6,4.9,8.6,8.5,11.7
			c-0.1,0.2-0.3,0.3-0.4,0.5c-0.8,1.6-0.3,3.5,1.3,4.4s3.5,0.3,4.4-1.3h0c3.5,1.9,7.4,3.1,11.4,3.5L77,82.2
			c-2.8-0.2-5.2-2.1-6.1-4.9c-0.7-2.3-0.1-4.7,1.3-6.4 M86.1,55.5l2.2-5.3l0.7-1.6c-6-2.6-13-3.2-19.7-1.1
			C63.4,49.2,58.6,52.6,55,57l12.5,10.1 M70.1,69.1l2.2,1.8c0.8-1,2-1.8,3.3-2.2c1.7-0.5,3.3-0.3,4.8,0.3l4.4-10.5 M61.2,100.7
			c0.1,0.6-0.3,1.1-0.9,1.2c-0.6,0.1-1.1-0.3-1.2-0.9c-0.1-0.6,0.3-1.1,0.9-1.2C60.5,99.7,61.1,100.1,61.2,100.7z M77.2,73.4
			c1.3-0.4,2.7,0.4,3.1,1.7c0.4,1.3-0.4,2.7-1.7,3.1c-1.3,0.4-2.7-0.4-3.1-1.7C75.1,75.1,75.8,73.8,77.2,73.4z M49.1,83.9
			c0.1,0.6-0.3,1.1-0.9,1.2c-0.6,0.1-1.1-0.3-1.2-0.9c-0.1-0.6,0.3-1.1,0.9-1.2S49,83.4,49.1,83.9z M50,63.3
			c0.1,0.6-0.3,1.1-0.9,1.2c-0.6,0.1-1.1-0.3-1.2-0.9c-0.1-0.6,0.3-1.1,0.9-1.2C49.4,62.4,49.9,62.7,50,63.3z"/>
	</g>
</g>
</svg>
