<?xml version="1.0" encoding="utf-8"?>
<!-- Generator: Adobe Illustrator 24.1.2, SVG Export Plug-In . SVG Version: 6.00 Build 0)  -->
<svg version="1.1" id="Слой_1" xmlns:xodm="http://www.corel.com/coreldraw/odm/2003"
	 xmlns="http://www.w3.org/2000/svg" xmlns:xlink="http://www.w3.org/1999/xlink" x="0px" y="0px" viewBox="0 0 128 128"
	 style="enable-background:new 0 0 128 128;" xml:space="preserve">
<style type="text/css">
	.st0{fill-rule:evenodd;clip-rule:evenodd;fill:#FFFFFF;}
	.st1{fill-rule:evenodd;clip-rule:evenodd;fill:#FF5640;}
	.st2{fill-rule:evenodd;clip-rule:evenodd;fill:#457BBA;}
	.st3{fill:none;stroke:#000000;stroke-width:0.75;stroke-linecap:round;stroke-linejoin:round;stroke-miterlimit:22.9256;}
	.st4{fill:none;stroke:#000000;stroke-width:1.5;stroke-linecap:round;stroke-linejoin:round;stroke-miterlimit:22.9256;}
	
		.st5{fill-rule:evenodd;clip-rule:evenodd;fill:#FFD940;stroke:#000000;stroke-width:1.5;stroke-linecap:round;stroke-linejoin:round;stroke-miterlimit:22.9256;}
</style>
<g id="Слой_x0020_1">
	<g id="_2344201842560">
		<g>
			<g>
				<path class="st0" d="M35.8,68.6h-3.3V57h-2.9v-4.2H31v2l0.3,0.3h5.6l0.3-0.3v-2h1.4V57h-2.9v1.4v2.2v2.2v2.2v2.2V68.6z
					 M21.5,36.6l6.6-0.2v-2.7h4.7l0.1-4.2h2.3l0.1,4.2H40v2.7l5.1,0.1l1.5,0v12.3c0.5,0,0.6,0.1,0.8,0.2v21.5
					c2.7,1.1,4.7,2.7,4.7,4.2c0,2.2-3.1,4.1-7.7,5.2l0,10.4v0.1c0.1,0,0.1,0,0.2,0c5,0.5,5.4,8.1,0.8,8.1H34.1H22.9
					c-4.4,0-4.4-7.6,0.8-8.1c0.1,0,0.1,0,0.2,0v-0.1V80c0,0.1,0,0.1,0,0c-4.7-1.1-7.7-3-7.7-5.2c0-1.6,1.8-3.1,4.7-4.2V49.1
					c0.2-0.2,0.4-0.2,0.8-0.3C21.5,44.8,21.5,40.7,21.5,36.6z M39.1,80.9c0.5,0.7,0.9,1.5,1.1,2.4c0,0.3,0.1,0.5,0.1,0.8
					c-1,1.7-2.8,3.9-6.2,3.9c-3.4,0-5.4-2.2-6.2-3.9c0-1.2,0.4-2.3,1.2-3.2c1.6,0.2,3.3,0.2,5,0.2C35.8,81.1,37.5,81.1,39.1,80.9z"
					/>
				<path class="st1" d="M23.8,80C23.8,80.1,23.8,80.1,23.8,80z M20.8,49.1v21.4c-2.9,1.1-4.7,2.6-4.7,4.2c0,2.2,3.1,4.1,7.7,5.2
					c8,1.9,15,1.2,20.5,0c4.7-1.1,7.7-3,7.7-5.2c0-1.6-2-3.1-4.7-4.2V49.1c-0.2-0.1-0.3-0.2-0.8-0.2v-0.1L46,49.6l-10.4,0.6
					c-0.5,0-1,0-1.5,0c-0.5,0-1,0-1.5,0l-10.4-0.6l-0.6-0.9c0,0,0,0.1,0,0.1C21.1,48.9,20.9,49,20.8,49.1L20.8,49.1z M32.4,72.1V57
					h-2.9v-4.2c3,0,6,0,9.1,0V57h-2.9c0,3.8,0,11.2,0,15.1H32.4z"/>
				<path class="st2" d="M21.5,48.8l0.6,0.9l10.4,0.6c0.5,0,1,0,1.5,0c0.5,0,1,0,1.5,0L46,49.6l0.6-0.9V36.6L40,36.4v-2.7h-4.7
					l-0.1-4.2h-2.3l-0.1,4.2h-4.7v2.7l-6.6,0.2C21.5,36.6,21.5,48.8,21.5,48.8z M31,52.8v2l0.3,0.3h5.6l0.3-0.3v-2H31z"/>
				<path class="st3" d="M44.4,90.4c4.2,1.4,3.3,5.4-0.7,5.4c-6.4,0-12.8,0-19.2,0c-3.9,0-4.9-4-0.7-5.4 M40.2,83.1
					c-0.3,2.8-3,4.9-6.1,4.9c-3.1,0-5.6-2-6.1-4.7 M21.5,48.8h11.1 M35.5,48.8h11.1 M32.6,68.2l3.3-0.9 M32.6,59.3l3.3-0.9
					 M32.6,61.5l3.3-0.9 M32.6,63.7l3.3-0.9 M32.6,66l3.3-0.9 M31,52.7v2.1l0.3,0.3h2.8h2.8l0.3-0.3v-2.1 M50.6,73.5
					c0,2.9-7.4,5.3-16.6,5.3s-16.6-2.4-16.6-5.3 M43.4,49.9V75 M24.8,49.9V75"/>
				<path class="st4" d="M23.8,90.4c-5.4,0.4-5.4,8.1-0.9,8.1h11.2h11.2c4.7,0,4.3-7.7-0.9-8.1 M34.1,69.9v2.1 M39.7,31.3H44
					l1.1,1.3v3.9 M28.4,31.3h-4.2l-1.1,1.3v3.9 M39.1,80.9c0.7,0.9,1.2,2.1,1.2,3.2c0,3.1-2.8,5.5-6.2,5.5c-3.4,0-6.2-2.5-6.2-5.5
					c0-1.2,0.4-2.3,1.2-3.2 M44.4,80l0,13H23.8V80 M32.9,33.7h-4.7v2.7 M35.3,33.7H40v2.7 M32.6,50.2l0.3-20.7h2.3l0.3,20.7
					 M21.5,49.5V36.6l11.3-0.3 M35.3,36.3l11.3,0.3v12.9 M32.4,68.6l0.2-0.3h1.5h1.5l0.2,0.3 M47.4,70.6c2.7,1.1,4.7,2.7,4.7,4.2
					c0,3.5-8.1,6.3-18,6.3c-9.9,0-18-2.8-18-6.3c0-1.6,1.8-3.1,4.7-4.3 M32.4,57h-2.9v-4.2h9.1V57h-2.9v15.1l-1.7,0.1l-1.6-0.1
					C32.4,72.1,32.4,57,32.4,57z M20.8,73.5c0,0.9,6,2.3,13.3,2.3c7.4,0,13.3-1.5,13.3-2.3V49.1c0,0.6-6,1.1-13.3,1.1
					c-7.4,0-13.3-0.5-13.3-1.1V73.5z"/>
			</g>
			<g>
				<path class="st0" d="M95.6,68.6h-3.3V57h-2.9v-4.2h1.4v2l0.3,0.3h5.6l0.3-0.3v-2h1.4V57h-2.9v1.4v2.2v2.2l0,2.2v2.2
					C95.6,67.4,95.6,68.6,95.6,68.6z M83,38h2.6l0.1-3.5c8.2,0,11,0,16.4,0l0.1,3.5h2.6l1.7,10.9c0.5,0,0.6,0.1,0.8,0.2v21.5
					c2.7,1.1,4.7,2.7,4.7,4.2c0,2.2-3.1,4.1-7.7,5.2v10.4v0.1c0.1,0,0.1,0,0.2,0c5,0.5,5.4,8.1,0.8,8.1H93.9H82.7
					c-4.4,0-4.4-7.6,0.8-8.1c0.1,0,0.1,0,0.2,0v-0.1V80c0,0.1,0,0.1,0,0c-4.7-1.1-7.7-3-7.7-5.2c0-1.6,1.8-3.1,4.7-4.2V49.1l0.8-0.3
					C81.4,48.9,83,38,83,38z M98.9,80.9c0.5,0.7,0.9,1.5,1.1,2.4c0,0.3,0.1,0.5,0.1,0.8c-1,1.7-2.8,3.9-6.2,3.9s-5.4-2.2-6.2-3.9
					c0-1.2,0.4-2.3,1.2-3.2c1.6,0.2,3.3,0.2,5,0.2C95.6,81.1,97.3,81.1,98.9,80.9z"/>
				<path class="st1" d="M83.6,80C83.6,80.1,83.6,80.1,83.6,80z M80.6,49.1v21.4c-2.9,1.1-4.7,2.6-4.7,4.2c0,2.2,3.1,4.1,7.7,5.2
					c8,1.9,15,1.2,20.5,0c4.7-1.1,7.7-3,7.7-5.2c0-1.6-2-3.1-4.7-4.2V49.1c-0.2-0.1-0.3-0.2-0.8-0.2v-0.1l-0.6,0.9l-10.4,0.6
					c-0.5,0-1,0-1.5,0s-1,0-1.5,0L82,49.6l-0.7-0.9c0,0,0,0.1,0,0.1C81,48.9,80.7,49,80.6,49.1L80.6,49.1z M92.2,72.1V57h-2.9v-4.2
					c3,0,6,0,9.1,0V57h-2.9c0,3.8,0,11.2,0,15.1H92.2z"/>
				<path class="st0" d="M81.4,48.8l0.6,0.9l10.4,0.6c0.5,0,1,0,1.5,0s1,0,1.5,0l10.4-0.6l0.6-0.9L104.8,38h-2.6l-0.1-3.5
					c-3.8,0-11.6,0-16.4,0L85.6,38H83L81.4,48.8L81.4,48.8z M90.8,52.8v2l0.3,0.3h5.6l0.3-0.3v-2H90.8z"/>
				<path class="st3" d="M104.2,90.4c4.2,1.4,3.3,5.4-0.7,5.4c-6.4,0-12.8,0-19.2,0c-3.9,0-4.9-4-0.7-5.4 M81.4,48.8h25 M100,83.1
					c-0.3,2.8-3,4.9-6.1,4.9c-3.1,0-5.6-2-6.1-4.7 M92.4,68.2l3.3-0.9 M92.4,59.3l3.3-0.9 M92.4,61.5l3.3-0.9 M92.4,63.7l3.3-0.9
					 M92.4,66l3.3-0.9 M90.8,52.7v2.1l0.3,0.3h2.8h2.8l0.3-0.3v-2.1 M110.5,73.5c0,2.9-7.4,5.3-16.6,5.3s-16.6-2.4-16.6-5.3
					 M103.2,49.9V75 M84.6,49.9V75"/>
				<path class="st4" d="M83.6,90.4c-5.4,0.4-5.4,8.1-0.9,8.1h11.2h11.2c4.7,0,4.3-7.7-0.9-8.1 M93.9,69.9v2.1 M77.7,34.4l5.8,1.6
					l0.8,2.1 M106.3,48.8L104.8,38h-2.6l-0.1-3.5H85.7L85.6,38H83l-1.5,10.8 M110.1,34.4l-5.8,1.6l-0.8,2.1 M98.9,80.9
					c0.7,0.9,1.2,2.1,1.2,3.2c0,3.1-2.8,5.5-6.2,5.5s-6.2-2.5-6.2-5.5c0-1.2,0.4-2.3,1.2-3.2 M104.2,80v13H93.5h-9.9V80 M92.2,68.6
					l0.2-0.3h1.5h1.5l0.2,0.3 M107.2,70.6c2.7,1.1,4.7,2.7,4.7,4.2c0,3.5-8.1,6.3-18,6.3s-18-2.8-18-6.3c0-1.6,1.8-3.1,4.7-4.3
					 M92.2,57h-2.9v-4.2h9.1V57h-2.9l0,15.1l-1.7,0.1l-1.6-0.1C92.2,72.1,92.2,57,92.2,57z M80.6,73.5c0,0.9,6,2.3,13.3,2.3
					s13.3-1.5,13.3-2.3V49.1c0,0.6-6,1.1-13.3,1.1s-13.3-0.5-13.3-1.1V73.5z"/>
			</g>
		</g>
		<polygon class="st5" points="65,51.5 71.2,41.6 63.4,41.6 56,56.4 61.8,56.4 56,70.1 72,51.5 		"/>
	</g>
</g>
</svg>
