<?xml version="1.0" encoding="utf-8"?>
<!-- Generator: Adobe Illustrator 19.0.0, SVG Export Plug-In . SVG Version: 6.00 Build 0)  -->
<svg version="1.1" id="Слой_1" xmlns="http://www.w3.org/2000/svg" xmlns:xlink="http://www.w3.org/1999/xlink" x="0px" y="0px"
	 viewBox="0 -1.8 128.2 128.2" style="enable-background:new 0 -1.8 128.2 128.2;" xml:space="preserve">
<style type="text/css">
	
		.st0{fill-rule:evenodd;clip-rule:evenodd;fill:none;stroke:#616262;stroke-width:0.7498;stroke-linecap:round;stroke-linejoin:round;stroke-miterlimit:22.9256;}
	
		.st1{fill-rule:evenodd;clip-rule:evenodd;fill:none;stroke:#000003;stroke-width:1.4995;stroke-linecap:round;stroke-linejoin:round;stroke-miterlimit:22.9256;}
</style>
<g>
	<path class="st0" d="M71.1,29.4v3.5 M67.6,32.9v-3.5 M60.7,29.4v3.5 M57.2,32.9v-3.5 M61.8,15.5V12 M66.4,12v3.6 M56,22.5h-4.6
		v-4.6H56 M72.2,17.9h4.6v4.6h-4.6 M58.3,108.9h3.2 M56.8,115.8h3.2 M61.8,96.6v4.2 M54.9,100.8v-4.2 M41,87v9.5h46.3V87"/>
	<path class="st1" d="M64.1,19c1.9,0,3.5,1.6,3.5,3.5c0,1.9-1.6,3.5-3.5,3.5c-1.9,0-3.5-1.6-3.5-3.5C60.7,20.6,62.2,19,64.1,19
		L64.1,19z M54.9,105.4h6.9v3.5l-1.2,1.2v6.9l-2.3,2.3L56,117v-6.9l-1.2-1.2V105.4L54.9,105.4z M52.6,100.8h11.6v4.6H52.6V100.8
		L52.6,100.8z M59.5,5.3h9.3v6.9h-9.3V5.3L59.5,5.3z M56,15.5h16.2v13.9H56V15.5L56,15.5z M39.8,32.9h48.6c0,17.7,0,40.5,0,53.2
		c-11.1,9.3-37.5,9.3-48.6,0C39.8,74.6,39.8,50.7,39.8,32.9z"/>
</g>
</svg>
